<?xml version="1.0" encoding="UTF-8" standalone="no"?>
<!-- Created with Inkscape (http://www.inkscape.org/) -->

<svg
   version="1.1"
   id="svg14560"
   width="374"
   height="666"
   viewBox="0 0 374 666"
   sodipodi:docname="teacher.svg"
   inkscape:export-filename="../Documents/Work/svelte/svelte_portfolio/static/media/animated/teacher.svg"
   inkscape:export-xdpi="96"
   inkscape:export-ydpi="96"
   inkscape:version="1.2.2 (b0a84865, 2022-12-01)"
   xmlns:inkscape="http://www.inkscape.org/namespaces/inkscape"
   xmlns:sodipodi="http://sodipodi.sourceforge.net/DTD/sodipodi-0.dtd"
   xmlns="http://www.w3.org/2000/svg"
   xmlns:svg="http://www.w3.org/2000/svg">
  <defs
     id="defs14564" />
  <sodipodi:namedview
     id="namedview14562"
     pagecolor="#ffffff"
     bordercolor="#000000"
     borderopacity="0.25"
     inkscape:showpageshadow="2"
     inkscape:pageopacity="0.0"
     inkscape:pagecheckerboard="0"
     inkscape:deskcolor="#d1d1d1"
     showgrid="false"
     inkscape:zoom="1.6155624"
     inkscape:cx="307.32332"
     inkscape:cy="246.97282"
     inkscape:window-width="1440"
     inkscape:window-height="872"
     inkscape:window-x="0"
     inkscape:window-y="28"
     inkscape:window-maximized="0"
     inkscape:current-layer="g14566" />
  <g
     inkscape:groupmode="layer"
     inkscape:label="Image"
     id="g14566"
     transform="translate(2.0017986,0.84621921)">
    <path
       id="path14693"
       style="display:inline;fill:#f5f5f7;fill-opacity:1;stroke:#101010;stroke-opacity:1"
       inkscape:label="edge"
       d="M 373.12515 157.42331 C 372.64404 157.72066 355.20651 158.40384 334.37515 158.94284 C 313.5438 159.48185 290.87515 160.37663 284.00015 160.93112 C 268.03308 162.21894 230.72253 164.88883 200.00015 166.94089 C 192.57516 167.43683 185.64391 168.17604 184.59781 168.58542 C 182.78086 169.29647 182.72808 170.2737 183.39273 190.4155 C 183.7754 202.01206 184.32554 220.04949 184.61734 230.49948 C 184.90914 240.94947 185.48569 259.3995 185.89664 271.49948 C 186.3178 283.89995 186.25687 294.59034 185.75797 295.99948 C 184.54062 299.43788 180.01004 303.99948 177.81265 303.99948 C 176.37863 303.99948 176.00015 303.2016 176.00015 300.18112 C 176.00015 295.7577 173.66977 287.29779 171.715 284.62448 C 170.97488 283.6123 168.14782 282.22102 165.43375 281.53269 C 159.74449 280.0898 158.37459 277.56844 162.43961 276.02292 C 163.88019 275.47521 166.23652 272.96002 167.76187 270.34323 C 169.26747 267.76034 171.99115 263.95239 173.81461 261.88034 C 176.56745 258.7522 176.94923 257.77545 176.06461 256.12253 C 175.47865 255.02765 175.00015 251.46992 175.00015 248.21628 C 175.00015 237.58028 168.68654 231.99948 156.65055 231.99948 C 153.01915 231.99948 151.37884 232.5871 148.97867 234.74948 C 145.74449 237.66326 143.0445 245.4505 142.9982 251.99948 C 142.96581 256.57582 139.56759 267.3373 137.29117 270.06784 C 136.30653 271.24892 132.47951 275.20335 128.78726 278.85691 C 125.09502 282.51047 121.60751 286.76758 121.03726 288.31589 C 119.11383 293.53827 119.805 304.56828 122.57437 312.8237 C 123.99068 317.04568 126.03092 321.92737 127.10758 323.67136 C 129.62193 327.74417 133.88842 340.2679 134.16617 344.39206 C 134.28412 346.14344 134.01923 348.15906 133.57828 348.87253 C 133.13733 349.586 132.1973 352.71974 131.48844 355.83542 C 130.77958 358.95111 129.09248 365.32449 127.74039 369.99948 C 126.38831 374.67448 124.9692 381.0272 124.58609 384.11667 L 123.88883 389.73386 L 128.67984 392.11667 C 131.89031 393.71346 133.68934 395.32415 134.13492 396.99948 C 134.50063 398.37448 134.84575 406.75741 134.90055 415.62839 C 134.97765 428.10387 134.5215 434.33324 132.89078 443.12839 C 129.87736 459.38095 129.42784 472.56973 131.45523 485.13425 C 132.37519 490.83564 133.52518 496.73822 134.01187 498.25144 C 134.62447 500.15616 134.45212 502.06832 133.44937 504.46823 C 132.65273 506.37485 132.00015 510.18931 132.00015 512.94284 C 132.00015 517.52648 132.26112 518.08349 135.09 519.54636 C 138.149 521.12823 138.17314 521.2022 137.50211 526.98386 C 136.59615 534.7897 137.99293 536.12817 149.91226 538.87253 C 154.94217 540.03063 160.50784 541.73435 162.27945 542.65769 C 164.05105 543.58104 167.30016 544.92893 169.50015 545.65378 C 175.57235 547.65442 184.87527 546.87325 187.0568 544.17917 C 188.08636 542.90771 188.58731 541.13721 188.26578 539.90769 C 187.68858 537.70046 181.70119 532.85521 176.32437 530.24362 C 173.30181 528.77552 173.22277 528.59085 174.65836 526.39987 C 176.83498 523.07793 175.617 520.59861 169.4357 515.77097 C 164.58452 511.98214 164.00015 511.12571 164.00015 507.79441 C 164.00015 505.57191 166.24181 498.55055 169.54312 490.43698 C 172.59232 482.94299 175.79634 474.7162 176.66226 472.15573 C 177.52819 469.59528 179.98973 463.88817 182.13297 459.47409 C 185.85032 451.81805 186.07794 450.78193 187.05484 436.97409 C 187.61807 429.01318 188.73581 418.86421 189.53922 414.42136 C 191.38487 404.21465 191.37723 400.31969 189.50015 394.99948 C 187.67281 389.82022 187.57818 386.31386 189.25015 385.73386 C 189.93765 385.49537 192.30016 385.92751 194.50015 386.6948 C 196.70015 387.46209 199.5589 387.82396 200.85367 387.49948 C 202.95921 386.97182 203.13886 386.51815 202.55484 383.20456 C 202.1957 381.16692 201.58696 372.43337 201.20133 363.79636 C 200.76923 354.11882 200.05484 347.64956 199.34 346.93698 C 198.58617 346.18555 195.3333 345.9099 190.04898 346.14987 C 182.54309 346.49073 181.88888 346.36399 181.55094 344.50925 C 181.34958 343.40414 180.69284 340.10277 180.09195 337.17331 C 178.1917 327.90923 178.58116 325.75576 183.08414 320.64011 C 185.33088 318.08768 187.56447 315.99948 188.04703 315.99948 C 188.52959 315.99948 188.64547 318.98463 188.30484 322.6323 C 187.76355 328.42881 187.98699 329.81473 190.07242 333.6323 C 191.38475 336.03462 193.02969 337.99948 193.72867 337.99948 C 194.42766 337.99948 195.00015 338.40091 195.00015 338.89206 C 195.00015 339.38322 195.78766 340.09166 196.75015 340.46628 C 198.60922 341.18975 286.26613 341.23944 304.00015 340.52683 C 309.77515 340.29477 327.88767 339.80059 344.25015 339.42917 L 374.00015 338.75339 L 374.00015 330.17917 L 346.46109 330.75925 C 330.41838 331.09714 312.65834 331.54619 306.99625 331.7573 C 289.60878 332.40559 203.6647 332.3608 201.84195 331.70261 C 200.89827 331.36181 200.12711 330.71584 200.12711 330.26902 C 200.12711 329.82221 199.56825 329.45847 198.88297 329.45847 C 198.19763 329.45847 196.58177 327.66929 195.29508 325.48386 C 193.2504 322.01088 193.03389 320.75122 193.56461 315.478 C 193.89859 312.15958 193.78189 309.44284 193.30875 309.44284 C 193.1799 309.44284 192.91232 309.60106 192.5607 309.85886 C 192.5626 309.79876 192.59781 309.74934 192.59781 309.68894 L 192.59781 291.74362 C 192.59781 290.49944 192.08394 289.41155 191.36344 288.47409 C 191.5497 284.58005 191.50311 277.20517 191.20133 268.96042 C 190.79841 257.95276 190.23547 241.16824 189.94937 231.66159 C 189.66327 222.15491 189.12145 205.74452 188.74625 195.1948 C 188.09464 176.87118 188.14645 175.98229 189.92789 175.33542 C 190.95355 174.96302 197.74954 174.2905 205.02945 173.83933 C 235.15139 171.97252 271.73378 169.54411 287.38883 168.37253 C 294.12943 167.86808 316.35522 167.05429 336.77945 166.56394 C 356.0638 166.10095 371.32804 165.54047 373.48648 165.24948 C 373.37648 160.32156 373.25668 157.34202 373.12515 157.42331 z M 350.60172 380.14402 C 346.84078 380.08045 343.33765 380.08586 341.00015 380.17527 C 332.7772 380.48978 332.49115 380.58097 332.21305 382.99948 C 332.05493 384.37448 332.84243 388.15714 333.96305 391.40573 C 335.67748 396.37581 336.00015 399.81573 336.00015 413.09714 L 336.00015 428.88034 L 327.78531 433.50144 L 319.57047 438.12058 L 283.5314 437.41159 C 250.79983 436.76874 247.36612 436.85462 246.12906 438.34519 C 244.98414 439.72473 244.96362 445.76845 246.00992 476.24362 C 246.71379 496.7448 247.68773 513.04267 248.25015 513.74948 C 248.79721 514.43698 250.96246 514.99948 253.06265 514.99948 C 255.16284 514.99948 257.14573 515.42505 257.46695 515.9448 C 257.78817 516.46454 258.47185 531.87705 258.98844 550.1948 C 260.27021 595.64567 260.75541 609.23392 262.1818 639.74948 L 263.40836 665.99948 L 273.70523 665.99948 L 284.00015 665.99948 L 284.21305 631.74948 C 284.22702 629.51272 284.24138 629.86161 284.25406 627.85105 L 277.29312 627.85105 L 267.19937 627.85105 L 267.19156 627.64597 L 284.25601 627.64597 C 284.48811 590.88377 284.53994 588.65354 285.75211 588.24948 C 286.82508 587.89182 287.2177 588.79134 288.47476 594.49948 C 289.77723 600.41381 291.5735 601.99948 296.97281 601.99948 C 300.54907 601.99948 302.15901 601.5382 302.84195 600.31784 C 303.71002 598.7667 304.23582 598.81285 309.64078 600.90183 C 332.26535 609.64608 357.90864 615.99948 370.57242 615.99948 L 374.00015 615.99948 L 374.00015 498.60105 L 374.00015 381.20066 L 361.75015 380.52487 C 358.38141 380.33903 354.36265 380.20758 350.60172 380.14402 z M 55.250155 416.7905 L 0.000154525 417.07956 L 0.000154525 480.10691 L 0.000154525 543.13425 L 2.2501545 542.36667 C 4.7220809 541.52267 6.0300739 541.54345 13.644686 542.55222 C 18.657802 543.21635 18.906067 543.12812 23.257967 539.11667 C 28.344154 534.4284 29.773686 534.05499 30.410311 537.24948 C 30.923434 539.82427 33.041511 619.90462 33.035311 636.49948 C 33.033042 642.54948 33.407543 648.0954 33.869295 648.8237 C 34.374207 649.62007 36.063769 650.01867 38.105623 649.8237 L 41.500155 649.49948 L 41.500155 628.49948 C 41.500155 616.9495 41.112917 592.19947 40.64078 573.49948 C 39.874809 543.16161 39.95523 539.17635 41.38492 536.49948 C 43.460516 532.61326 43.412545 531.08425 41.132967 528.56394 C 38.097973 525.20843 39.382575 520.27991 45.011873 513.68308 C 49.838223 508.0272 49.845403 508.023 50.443514 510.75925 C 51.163893 514.05486 54.681579 552.14852 56.006014 570.99948 C 56.527681 578.42448 57.411414 587.42449 57.968905 590.99948 C 59.68783 602.02235 62.036622 626.82864 62.695467 640.91159 C 63.216754 652.0542 63.634813 654.63414 65.162264 656.16159 C 67.58519 658.58452 70.250212 658.48811 72.595858 655.89206 C 74.959856 653.2757 74.911078 651.67247 71.45328 617.49948 C 70.006334 603.1995 68.437368 585.87448 67.966951 578.99948 C 67.435272 571.22916 66.438227 564.7968 65.332186 561.99948 C 63.952276 558.50952 63.538213 554.46938 63.486483 543.99948 C 63.4498 536.57449 63.103105 527.79948 62.714998 524.49948 L 62.007967 518.49948 L 63.529451 523.49948 C 64.365828 526.24948 67.780481 539.2995 71.117342 552.49948 C 74.454202 565.69947 77.648347 577.06198 78.214998 577.74948 C 79.62527 579.46052 83.936058 579.32763 84.617342 577.55222 C 84.92275 576.75634 84.053014 572.14383 82.683748 567.30222 C 81.314483 562.4606 78.306553 550.62447 76.000155 540.99948 C 68.407025 509.31208 65.031371 496.69574 63.716951 495.08737 C 61.164242 491.9638 59.000155 485.86182 59.000155 481.7905 C 59.000155 477.75542 59.4985 477.14074 78.250155 458.0737 C 88.837644 447.30814 97.798724 438.36246 98.164217 438.1948 C 99.000299 437.81126 99.659493 445.23764 101.03336 470.49948 C 101.63159 481.49947 102.74782 499.49949 103.51187 510.49948 C 104.27592 521.49947 105.18422 539.7245 105.5314 550.99948 C 106.11771 570.04088 106.30921 571.62664 108.22476 573.27683 C 110.02741 574.82976 110.55155 574.87762 112.39273 573.66159 C 115.29256 571.74638 115.43376 567.85384 113.58805 540.49948 C 112.73451 527.8495 111.57733 508.04947 111.01578 496.49948 C 108.38106 442.30819 107.89106 433.3522 107.45328 431.29441 C 107.13762 429.81066 107.96921 427.9658 109.99234 425.66159 C 113.15905 422.05491 113.84228 418.83275 111.75015 417.37253 C 111.06266 416.89269 85.637624 416.6309 55.250155 416.7905 z M 5.2794514 478.22214 C 12.994108 478.40771 28.480427 479.24895 28.927889 479.64402 C 29.162792 479.85141 28.065691 481.36694 26.490389 483.0112 C 23.771022 485.84994 23.243161 485.9933 16.062655 485.85105 C 4.3853174 485.6197 3.3007921 485.30496 2.0763264 481.79245 C 1.4838288 480.09281 1.0001545 478.51941 1.0001545 478.29636 C 1.0001545 478.17187 2.7078992 478.16028 5.2794514 478.22214 z M 45.369295 481.20456 C 46.641553 481.24251 47.500155 482.15714 47.500155 483.93698 C 47.500155 486.16312 47.091116 486.38134 42.777498 486.46237 L 38.054842 486.55222 L 40.754061 483.73581 C 42.411885 482.00542 44.097037 481.16661 45.369295 481.20456 z M 275.33414 516.47019 C 277.33602 516.4863 279.99156 516.57429 282.81656 516.72995 C 291.51784 517.20942 293.04243 517.54089 292.7814 518.89792 C 292.56783 520.00825 290.93018 520.68848 287.44742 521.11472 C 281.06495 521.89585 276.71279 524.14228 275.21695 527.42527 C 274.57167 528.84151 273.35843 529.99948 272.52164 529.99948 C 271.3172 529.99948 271.00015 528.65706 271.00015 523.55808 C 271.00015 520.01554 271.34698 516.90257 271.77164 516.64011 C 271.98397 516.5089 273.33226 516.45408 275.33414 516.47019 z M 273.58219 592.79245 C 273.62748 592.83982 273.67819 593.13996 273.73062 593.72019 C 273.9408 596.04108 273.94316 600.09109 273.73648 602.72019 C 273.52981 605.34927 273.35862 603.44948 273.35562 598.49948 C 273.35334 594.78699 273.44629 592.65034 273.58219 592.79245 z " />
    <path
       id="path16223"
       style="display:inline;fill:#101010;fill-opacity:1"
       d="m 320.10742,161 c -9.22475,0 -13.02272,0.3279 -12.55664,1.08203 0.45898,0.74265 4.46956,0.85892 12.8086,0.375 6.67742,-0.38751 12.32747,-0.87291 12.55664,-1.08008 C 333.14518,161.16979 327.38154,161 320.10742,161 Z M 284,165.12891 c -0.45312,0 -0.90625,0.0703 -1.25,0.20898 -0.6875,0.27741 -0.125,0.50391 1.25,0.50391 1.375,0 1.9375,-0.2265 1.25,-0.50391 -0.34375,-0.1387 -0.79688,-0.20898 -1.25,-0.20898 z m -94.02148,2.98047 c -0.0754,7e-4 -0.15118,0.002 -0.22852,0.006 -1.69317,0.0873 -1.81691,0.23007 -0.5,0.57422 2.36185,0.61721 2.20155,1.8601 -0.5,3.87696 -1.67925,1.25364 -1.7851,1.52164 -0.41797,1.05664 1.00748,-0.34267 2.80748,-0.65466 4,-0.69336 2.09902,-0.068 2.10414,-0.0977 0.16797,-0.92969 -1.8492,-0.79463 -1.8115,-0.87268 0.5,-1.04492 1.75253,-0.13059 1.97677,-0.32394 0.75,-0.64453 -0.9625,-0.25152 -1.75,-0.8751 -1.75,-1.38477 0,-0.47782 -0.89058,-0.82703 -2.02148,-0.8164 z m 8.80664,3.01171 c -0.31348,0.005 -0.65684,0.0689 -0.97266,0.19532 -0.79773,0.31922 -0.56143,0.55747 0.60352,0.60547 1.05415,0.0434 1.64479,-0.19311 1.3125,-0.5254 -0.18692,-0.18689 -0.54032,-0.28119 -0.94336,-0.27539 z m -15.29297,0.71875 c -0.1532,-0.0191 -0.25977,0.77657 -0.25977,2.16016 0,1.925 0.2055,2.7125 0.45703,1.75 0.25152,-0.9625 0.25152,-2.5375 0,-3.5 -0.0707,-0.2707 -0.13732,-0.40268 -0.19726,-0.41016 z M 185.83789,177 c -0.40791,-0.071 -0.90313,0.29599 -1.43359,1.1543 -0.42799,0.6925 -0.27534,0.88406 0.38086,0.47851 0.66757,-0.41259 1.0343,0.11208 0.9414,1.34571 -0.0838,1.11187 -0.394,2.02163 -0.68945,2.02148 -0.29546,-1.6e-4 -0.2374,6.41235 0.12891,14.25 0.36631,7.83764 0.90399,22.80001 1.19531,33.25 0.29132,10.44999 0.55408,19.1125 0.58398,19.25 0.0299,0.1375 0.50469,0.25 1.05469,0.25 1.25059,0 1.2403,-3.99558 -0.0957,-37.5 -0.59216,-14.84999 -1.04145,-28.6875 -0.99805,-30.75 0.0483,-2.29743 -0.38851,-3.63169 -1.06836,-3.75 z m 181.1875,9.11328 c -0.94269,0.002 -2.02539,1.23599 -2.02539,2.66016 0,1.52648 0.13246,1.52378 1.69141,-0.0352 0.92976,-0.92977 1.40957,-1.97128 1.0664,-2.31445 -0.21529,-0.21529 -0.46847,-0.31119 -0.73242,-0.31055 z m -103.73633,13.4375 c -0.3692,-0.006 -0.3912,0.47489 0.16992,1.38281 0.36254,0.58659 1.09946,1.06641 1.63868,1.06641 0.53923,0 0.40058,-0.62891 -0.3086,-1.39844 -0.65053,-0.70588 -1.19408,-1.04583 -1.5,-1.05078 z m -13.91015,1.83789 c -0.12148,-0.004 -0.25479,0.0347 -0.39453,0.1211 -0.55897,0.34546 -0.75785,1.04659 -0.44141,1.55859 0.85723,1.38704 1.45703,1.12957 1.45703,-0.62695 0,-0.64313 -0.25665,-1.04048 -0.62109,-1.05274 z m 50.46484,6.73438 c -0.16598,0.001 -0.36182,0.0232 -0.58594,0.0664 -0.95426,0.18378 -1.88458,1.1141 -2.06836,2.06836 -0.41026,2.13031 2.36377,1.3504 3.23047,-0.9082 0.32121,-0.83704 0.1431,-1.23119 -0.57617,-1.22656 z m 59.00391,10.03515 c -0.21904,0.004 -0.41327,0.0734 -0.55274,0.21289 -0.40574,0.40574 -0.0881,1.13872 0.70508,1.62891 1.86759,1.15423 2.71013,0.31169 1.19922,-1.19922 -0.4211,-0.42109 -0.9334,-0.65034 -1.35156,-0.64258 z m -4.12696,0.85742 c -0.90681,0.0189 -1.8914,0.45157 -2.2207,0.98438 -0.78218,1.2656 0.54163,1.2656 2.5,0 1.29269,-0.8354 1.26586,-0.97118 -0.19141,-0.98438 -0.0291,-2.6e-4 -0.0586,-6e-4 -0.0879,0 z m -155.83984,9.11133 c -0.54375,-0.007 -1.12484,0.0529 -1.61133,0.17969 -0.97297,0.25354 -0.41953,0.47765 1.23047,0.49805 1.65,0.0204 2.44656,-0.18701 1.76953,-0.46094 -0.33851,-0.13698 -0.84492,-0.21008 -1.38867,-0.2168 z m -41.0957,3.99414 c -0.31348,0.005 -0.65684,0.0689 -0.97266,0.19532 -0.79773,0.31922 -0.56143,0.55747 0.60352,0.60547 1.05415,0.0434 1.64479,-0.19311 1.3125,-0.5254 -0.18692,-0.18689 -0.54032,-0.28119 -0.94336,-0.27539 z m 213.71093,9.25586 c -0.37945,0.009 -0.73093,0.19539 -0.98437,0.60547 -0.30418,0.49218 -1.4082,0.73053 -2.45313,0.5293 -1.04492,-0.20124 -2.11894,0.20451 -2.38671,0.90234 -0.33195,0.86504 0.64262,1.31135 3.0625,1.40235 1.95211,0.0734 3.78539,0.36938 4.07421,0.6582 0.88971,0.88969 1.07233,0.59994 0.91797,-1.44922 -0.11547,-1.533 -1.26075,-2.67073 -2.23047,-2.64844 z m -14.05664,1.71289 c -1.76777,0.0266 -2.18773,0.40178 -1.80078,1.41016 0.36232,0.94417 1.74039,1.44391 3.71875,1.34961 l 3.14258,-0.14844 -3,-0.49805 -3,-0.49609 2.5,-0.75391 c 2.35402,-0.70984 2.31193,-0.75961 -0.71875,-0.85351 -0.3091,-0.01 -0.58926,-0.0136 -0.8418,-0.01 z m -10.83007,1.29883 c -0.3143,4.2e-4 -0.73981,0.51706 -1.04493,1.31836 -0.54268,1.4252 -0.42707,1.54081 0.56055,0.56055 0.68342,-0.67834 0.98953,-1.48703 0.68164,-1.79492 -0.0577,-0.0577 -0.12474,-0.0841 -0.19726,-0.084 z m 6.16015,0.0703 c -0.16413,0.002 -0.33906,0.0182 -0.51953,0.0527 -0.9625,0.18426 -2.425,0.37723 -3.25,0.42773 -1.33333,0.0816 -1.33333,0.19617 0,1.04297 0.88719,0.56349 1.62837,0.5803 1.81445,0.041 0.17303,-0.50148 0.96053,-0.66233 1.75,-0.35938 0.78946,0.30294 1.43555,0.0914 1.43555,-0.46875 0,-0.45514 -0.51925,-0.74301 -1.23047,-0.73633 z m -220.65039,82.68946 c -0.0525,0.003 -0.0998,0.0111 -0.14258,0.0254 -0.9037,0.30123 -0.77964,0.88051 0.45313,2.11328 0.93373,0.93373 1.44996,2.0988 1.14648,2.58984 -0.81843,1.32426 1.43577,7.12291 2.77149,7.12891 0.63369,0.003 2.50234,1.11041 4.15234,2.46289 1.65,1.35249 3.16821,2.47631 3.37305,2.49609 0.58283,0.0563 -1.99667,-3.09553 -6.05469,-7.39843 -3.92245,-4.15916 -4.16846,-6.3201 -0.50781,-4.45899 1.66785,0.84795 1.44244,0.3439 -0.94922,-2.11719 -1.61877,-1.66574 -3.45514,-2.88408 -4.24219,-2.84179 z m 206.65039,6.46094 c -0.28551,0.0271 -0.26186,0.59454 -0.0234,1.84179 0.46929,2.4549 0.4243,2.46967 -8.38671,2.80274 l -8.85938,0.33398 8.16797,0.20703 c 4.49251,0.1131 8.88002,-0.0685 9.75,-0.40234 1.94271,-0.74548 2.04582,-2.76297 0.21875,-4.2793 -0.41325,-0.34297 -0.69588,-0.52017 -0.86719,-0.5039 z m -20.41797,0.8789 c -0.11754,0.003 -0.18632,0.57609 -0.23633,1.76172 -0.0844,2.00179 0.3609,2.74547 1.63477,2.73438 1.11061,-0.01 1.33511,-0.28375 0.61523,-0.75 -0.62387,-0.40408 -1.35798,-1.63438 -1.63281,-2.73438 -0.16756,-0.67066 -0.28943,-1.01374 -0.38086,-1.01172 z m -30.73633,1.65234 c -1.42879,0.0153 -3.03256,0.5784 -3.37109,1.60938 -0.26876,0.81848 0.65297,1.25 2.67188,1.25 2.13217,0 3.08398,-0.4832 3.08398,-1.56641 0,-0.89326 -1.12406,-1.30644 -2.38477,-1.29297 z m -89.90039,1.30079 c -0.34319,-0.003 -0.43694,0.19831 -0.20703,0.57031 0.33602,0.5437 1.03324,0.98828 1.55078,0.98828 1.43843,0 1.12109,-0.71607 -0.61132,-1.38086 -0.3059,-0.11739 -0.55266,-0.1762 -0.73243,-0.17773 z m -60.50195,6.23242 c -0.3714,0.002 -0.20902,0.626 0.76758,1.80273 0.69572,0.8383 1.65993,1.52344 2.14258,1.52344 0.48266,0 0.0894,-0.82566 -0.87305,-1.83398 -0.9667,-1.01274 -1.70941,-1.49396 -2.03711,-1.49219 z m -0.72851,3.81055 C 136.1747,347.48455 136,347.61892 136,347.89062 c 0,0.52902 0.7875,1.16841 1.75,1.41993 0.9625,0.25153 1.8625,0.51042 2,0.57422 0.1375,0.0638 0.25,-0.094 0.25,-0.34961 0,-0.25565 -0.9,-0.94646 -2,-1.53516 -0.64029,-0.34267 -1.16466,-0.51583 -1.51562,-0.51562 z m 45.28124,0.67578 c -0.75924,0.0745 -0.78258,1.70591 -0.25585,6.96875 0.40574,4.05416 1.36955,9.62109 2.14062,12.37109 2.3158,8.25919 2.85727,12.93137 1.39453,12.02734 -0.94254,-0.58252 -1.07472,-0.18006 -0.52734,1.59766 0.96767,3.14268 0.54423,2.92373 6.43164,3.32422 2.85236,0.19402 5.44337,0.60939 5.75781,0.92383 1.13712,1.13713 2.29297,-0.55319 2.29297,-3.35352 0,-2.36117 -0.52126,-2.9744 -2.97656,-3.51367 -1.63658,-0.35941 -3.40392,-0.39015 -3.92774,-0.0664 -0.52383,0.32374 -1.22697,-0.27485 -1.5625,-1.33203 -0.33554,-1.05717 -1.26624,-2.17583 -2.07031,-2.48437 C 187.65883,374.3145 187,373.23774 187,372.23047 c 0,-1.00726 -0.53922,-2.37125 -1.19922,-3.03125 -0.66,-0.66 -0.83124,-1.19922 -0.3789,-1.19922 0.45234,0 0.20602,-0.74767 -0.54883,-1.66211 -0.99319,-1.20318 -1.05168,-1.77086 -0.20899,-2.05469 0.78929,-0.26583 0.89969,-1.31843 0.3418,-3.26367 -0.45269,-1.57845 -0.5837,-3.10771 -0.29102,-3.40039 0.29268,-0.29268 0.19084,-1.33995 -0.22656,-2.32617 -0.41741,-0.98622 -0.81005,-2.87862 -0.87305,-4.20508 -0.063,-1.32646 -0.72849,-2.61838 -1.47851,-2.87109 -0.13909,-0.0469 -0.26263,-0.0673 -0.3711,-0.0566 z m -40.98046,2.96093 c -0.31348,0.005 -0.65684,0.0689 -0.97266,0.19532 -0.79773,0.31922 -0.56143,0.55747 0.60352,0.60547 1.05415,0.0434 1.64479,-0.19311 1.3125,-0.5254 -0.18692,-0.18689 -0.54032,-0.28119 -0.94336,-0.27539 z m 35.22851,3.87305 c -0.10196,0.008 0.19857,0.41327 0.85938,1.25586 1.30637,1.66575 2.12695,2.19609 2.12695,1.37305 0,-0.20765 -0.7875,-0.99515 -1.75,-1.75 -0.74346,-0.58307 -1.14636,-0.88597 -1.23633,-0.87891 z m -38.24805,7.03711 C 136.67188,362.04624 136.75,362.19219 138,363 c 0.825,0.53316 2.175,0.96875 3,0.96875 1.33333,0 1.33333,-0.10708 0,-0.96875 -0.825,-0.53316 -2.175,-0.96875 -3,-0.96875 -0.0833,0 -0.16146,-10e-4 -0.23438,0 z m -8.01367,18.08398 c -0.15699,0.009 -0.43343,0.45452 -0.92578,1.30274 -0.61228,1.05483 -1.20514,3.41733 -1.3164,5.25 -0.22532,3.71118 -0.17318,3.75629 2.56835,2.28906 1.5365,-0.82231 1.73476,-1.44026 0.93555,-2.93359 -0.55699,-1.04075 -1.02822,-2.93338 -1.04492,-4.20703 -0.0152,-1.16075 -0.0389,-1.71149 -0.2168,-1.70118 z m 206.0625,1.14649 c -2.12305,0.0739 -2.89591,1.78674 -2.27734,5.08398 0.3753,2.00052 0.98559,3.44856 1.35742,3.21875 0.90157,-0.5572 1.07885,0.87961 1.83008,14.93555 0.35275,6.59999 0.83062,10.875 1.0625,9.5 0.23183,-1.375 0.24556,-6.88751 0.0312,-12.25 -0.2143,-5.36249 -0.29533,-9.75 -0.17969,-9.75 0.11564,0 3.65203,4.97632 7.85742,11.05859 4.20545,6.08229 8.17586,11.2349 8.82422,11.44922 0.64836,0.21433 4.44409,0.56498 8.4336,0.78125 8.10234,0.43922 11.24609,-0.86268 11.24609,-4.66015 0,-2.16304 -0.32577,-2.25188 -7.74805,-2.10352 -8.84749,0.17684 -9.29432,-0.12086 -16.73828,-11.13086 -2.19228,-3.24249 -4.55478,-6.25353 -5.25,-6.69336 C 343.56846,390.26134 343,389.30259 343,388.57227 c 0,-0.73032 -0.675,-1.88758 -1.5,-2.57227 -0.825,-0.68469 -1.5,-1.70944 -1.5,-2.27734 0,-0.5679 0.8667,-0.24753 1.92578,0.71093 1.05907,0.95845 2.74657,1.52894 3.75,1.26953 1.35321,-0.34982 1.19223,-0.50189 -0.625,-0.58789 -1.57805,-0.0747 -2.10737,-0.45903 -1.48437,-1.08203 1.6077,-1.60771 4.85445,-0.10694 6.6914,3.09375 1.2032,2.09644 2.41963,2.96107 3.98633,2.83399 3.9845,-0.32321 4.98147,0.009 4.42188,1.46679 -0.30115,0.78478 0.10588,1.96824 0.90429,2.63086 1.2668,1.05131 1.26205,1.34636 -0.043,2.32227 -1.79614,1.3432 -0.96688,5.61914 1.08985,5.61914 0.76085,0 1.38281,-0.38843 1.38281,-0.86328 0,-0.47484 2.7,-1.43641 6,-2.13672 l 6,-1.27344 V 389.86328 382 l -17.25,-0.0137 c -9.48749,-0.008 -18.15,-0.23903 -19.25,-0.51367 -0.63312,-0.15808 -1.19561,-0.22799 -1.68555,-0.21094 z m -152.62109,2.3457 c -0.57609,0.004 -1.62116,1.18357 -3.3457,3.60547 -1.91678,2.69186 -1.98482,3.05397 -0.46485,2.4707 0.97917,-0.37574 2.35056,-0.68359 3.04688,-0.68359 0.72276,0 1.30256,-1.29465 1.35156,-3.01758 0.0447,-1.57338 -0.11056,-2.37824 -0.58789,-2.375 z m 180.1582,8.61524 c 0.12033,-0.0257 0.26607,0.0633 0.42578,0.27734 0.41047,0.55 1.15262,1.3375 1.65039,1.75 0.49777,0.4125 0.15494,0.75 -0.76171,0.75 -0.92647,0 -1.65939,-0.77721 -1.6504,-1.75 0.005,-0.62417 0.13539,-0.98456 0.33594,-1.02734 z M 151,394.11523 c -0.81562,0 -1.63125,0.0605 -2.25,0.17969 -1.2375,0.23835 -0.225,0.4336 2.25,0.4336 2.475,0 3.4875,-0.19525 2.25,-0.4336 -0.61875,-0.11918 -1.43438,-0.17969 -2.25,-0.17969 z m 14.88086,0.0117 c -0.54375,-0.007 -1.12484,0.0529 -1.61133,0.17969 -0.97297,0.25354 -0.41953,0.47765 1.23047,0.49805 1.65,0.0204 2.44656,-0.18701 1.76953,-0.46094 -0.33851,-0.13698 -0.84492,-0.21008 -1.38867,-0.2168 z m 203.42773,0.9043 c 2.14171,0.0311 2.14748,0.0648 0.25,1.5 C 367.3034,398.237 364,398.48115 364,396.94141 c 0,-0.58249 0.41965,-0.80081 0.93164,-0.48438 0.512,0.31644 1.21313,0.11756 1.55859,-0.44141 0.34546,-0.55896 1.61332,-1.00187 2.81836,-0.98437 z m -232.79101,10.52344 c -0.13246,-0.012 -0.22692,1.05469 -0.23242,2.94531 -0.007,2.74995 0.18061,3.99361 0.41796,2.76367 0.23731,-1.22994 0.24354,-3.47994 0.0137,-5 -0.0718,-0.47502 -0.13902,-0.70351 -0.19922,-0.70898 z m 51.82422,5.79101 c -0.13939,0.015 -0.23518,0.37863 -0.26368,1.07032 -0.0434,1.05415 0.1931,1.64479 0.5254,1.3125 0.33225,-0.33229 0.36894,-1.19415 0.0801,-1.91602 -0.12968,-0.32408 -0.24642,-0.47709 -0.34179,-0.4668 z m -1,6 c -0.13939,0.015 -0.23518,0.37863 -0.26368,1.07032 -0.0434,1.05415 0.1931,1.64479 0.5254,1.3125 0.33225,-0.33229 0.36894,-1.19415 0.0801,-1.91602 -0.12968,-0.32408 -0.24642,-0.47709 -0.34179,-0.4668 z m -50.78321,0.0254 c -0.1314,-0.0409 -0.22265,1.66407 -0.22265,4.62891 0,4.125 0.17683,5.8125 0.39258,3.75 0.21574,-2.0625 0.21574,-5.4375 0,-7.5 -0.0607,-0.58008 -0.11851,-0.86289 -0.16993,-0.87891 z m -65.011715,0.60743 c -12.290659,-0.0384 -24.580495,0.26803 -25.003906,0.95312 -1.028389,1.66397 1.798567,2.55475 10.457031,3.29688 4.674995,0.4007 9.293151,0.83519 10.261719,0.96484 0.968568,0.12966 2.305367,1.46904 2.972656,2.97656 0.754709,1.705 2.169111,2.88909 3.740234,3.13477 1.38914,0.21722 3.120871,0.46252 3.847657,0.54492 1.487283,0.16864 3.563746,-1.64116 4.4375,-3.86719 0.458412,-1.16788 0.599899,-1.11136 0.662109,0.26758 0.10514,2.3306 1.753208,2.22362 3.048828,-0.19727 0.818201,-1.52882 0.664758,-2.16945 -0.714844,-2.98437 -1.335074,-0.78864 -0.378939,-0.98867 3.980469,-0.83789 5.706026,0.19736 8.611581,-1.0501 7.31836,-3.14258 -0.42505,-0.68774 -12.717154,-1.07098 -25.007813,-1.10937 z m 36.714845,0.0137 c -1.93178,0.0918 -4.38388,1.14596 -6.43945,3.02343 -1.81563,1.65831 -3.869182,2.79731 -4.562504,2.53126 C 96.566443,423.28083 96,423.7644 96,424.62109 c 0,1.93469 -7.023272,9.4836 -8.166016,8.77735 C 87.374856,433.11468 87,433.38516 87,434 c 0,0.61484 -5.287508,6.20129 -11.75,12.41406 -21.769716,20.92849 -22.487159,21.52544 -25.888672,21.55664 -4.443703,0.0408 -37.804735,-1.82105 -44.1660155,-2.46484 l -5.30664062,-0.53711 0.30664062,4.76563 c 0.29339642,4.57774 0.4338637,4.77769 3.5742187,5.08007 2.0543786,0.19782 3.0181039,0.72159 2.59375,1.40821 -0.4710255,0.76213 0.8080405,0.91261 4.2304688,0.49804 3.147939,-0.38131 4.189484,-0.28459 2.90625,0.27149 -1.319995,0.572 1.286042,0.8911 7.666016,0.9375 5.31666,0.0387 9.855246,0.40781 10.085937,0.82031 0.230689,0.4125 0.257202,0.12183 0.05859,-0.64648 -0.512946,-1.98433 12.070812,-0.73481 15.578125,1.54687 2.173377,1.41389 2.393661,1.43379 1.320312,0.12305 -1.138482,-1.39027 -0.69636,-1.61566 3.751954,-1.92383 4.982709,-0.3452 5.041637,-0.31509 5.199218,2.65039 0.148944,2.80294 0.186142,2.7701 0.56836,-0.5 0.343707,-2.94064 2.44115,-5.49774 13.117187,-16 6.988753,-6.87499 15.967558,-15.9875 19.953125,-20.25 3.985567,-4.2625 7.65999,-7.75 8.166016,-7.75 0.506025,0 1.11118,1.6875 1.34571,3.75 0.23456,2.0625 0.29828,1.43178 0.14062,-1.40234 -0.23701,-4.26068 0.0997,-5.51611 1.94531,-7.25 1.2277,-1.15337 2.65342,-2.10744 3.16797,-2.11914 1.68364,-0.0384 6.46409,-7.73843 5.83008,-9.39063 -0.44346,-1.15565 -1.63032,-1.66708 -3.13281,-1.5957 z m -76.507814,1.02539 c -0.09141,0.003 -0.230185,0.28511 -0.453125,0.8457 -0.456373,1.14771 -0.676104,1.14739 -1.382812,0.004 -0.673674,-1.09002 -1.11498,-0.98008 -2.234375,0.55078 -0.845661,1.15651 -2.030166,1.66422 -3.007813,1.28906 -0.88692,-0.34034 -1.878052,-0.19004 -2.203125,0.33594 -0.325072,0.52598 0.35028,0.95703 1.5,0.95703 1.14972,0 2.349433,0.675 2.666016,1.5 0.828967,2.16026 2.266456,1.85066 1.6875,-0.36328 -0.335621,-1.28341 0.159869,-2.03128 1.59375,-2.40625 1.144339,-0.29925 2.045373,-1.14773 2.001953,-1.88672 -0.03247,-0.55258 -0.07656,-0.82904 -0.167969,-0.82617 z M 13.9375,419.0567 c -0.917328,-0.002 -1.949354,0.002 -3.113281,0.01 L 0.5,419.13477 5,420.57422 c 2.4749975,0.79229 5.550402,1.19371 6.833984,0.89258 1.555049,-0.36481 2.106019,-0.17864 1.650391,0.55859 -0.465607,0.75338 0.54235,1.00641 3.158203,0.79102 2.707561,-0.22295 3.938139,-0.83304 4.171875,-2.06641 0.261741,-1.38115 -0.45566,-1.6806 -6.876953,-1.69336 z m 10.533203,0.27734 c -0.752621,0.0224 -1.141601,0.38802 -0.867187,0.83204 C 23.88678,420.62435 24.541053,421 25.058594,421 25.576134,421 26,420.62435 26,420.16602 c 0,-0.45834 -0.654273,-0.83204 -1.455078,-0.83204 -0.02502,0 -0.04994,-7.2e-4 -0.07422,0 z m -6.554687,1.78907 c 0.347395,0.0143 0.646354,0.10729 0.8125,0.27343 0.33229,0.33229 -0.258335,0.56879 -1.3125,0.5254 -1.164942,-0.048 -1.401248,-0.28625 -0.603516,-0.60547 0.360937,-0.14446 0.75612,-0.20767 1.103516,-0.19336 z M 56.5,423.33398 c -3.289748,0 -4.260394,0.24948 -2.951172,0.76172 1.072642,0.41968 2.401173,0.76368 2.951172,0.76368 0.549999,-10e-6 1.87853,-0.344 2.951172,-0.76368 1.309222,-0.51224 0.338576,-0.76172 -2.951172,-0.76172 z M 3.3339844,424 C 0.05953889,424 0,424.07896 0,428.41602 c 0,3.15133 0.64401101,5.1483 2.25,6.98046 2.7726285,3.16312 3.1202834,3.21399 2.4003906,0.34571 -0.3117392,-1.24207 -0.1615513,-2.91501 0.3339844,-3.7168 0.7113331,-1.15097 1.1306225,-0.85058 1.9960938,1.42578 l 1.0976562,2.88281 1.5195312,-2.16796 c 0.8355298,-1.19288 1.2344628,-2.6307 0.8867188,-3.19336 -0.347744,-0.56266 -0.261974,-0.93055 0.191406,-0.81836 0.453382,0.11219 2.399221,-0.51389 4.324219,-1.39258 1.924998,-0.8787 2.911365,-1.63479 2.191406,-1.67969 -0.719957,-0.0449 -1.008513,-0.5688 -0.640625,-1.16406 0.451208,-0.7301 -0.820498,-0.99066 -3.908203,-0.80078 -2.517535,0.15482 -4.892785,-0.0334 -5.2773436,-0.41797 C 6.9806758,424.31466 5.1673159,424 3.3339844,424 Z m 60.1113276,1.31836 c -0.06207,-5.7e-4 -0.120772,0.0231 -0.169921,0.0723 -0.262128,0.26213 -0.178939,0.95638 0.183593,1.54297 0.986045,1.59546 1.562902,1.28555 0.886719,-0.47656 -0.264619,-0.68958 -0.631428,-1.13621 -0.900391,-1.13867 z m -38.451171,0.0527 c -0.409276,0.0119 -1.070733,0.104 -1.994141,0.27344 -1.924998,0.35323 -3.686849,0.804 -3.916016,1 -0.991758,0.84822 4.560381,0.23046 5.916016,-0.6582 0.659577,-0.43237 0.676266,-0.63513 -0.0059,-0.61524 z m 320.615239,0.0176 c -0.3143,4.2e-4 -0.73981,0.51706 -1.04493,1.31836 -0.54268,1.4252 -0.42707,1.54081 0.56055,0.56055 0.68342,-0.67834 0.98953,-1.48703 0.68164,-1.79492 -0.0577,-0.0577 -0.12474,-0.0841 -0.19726,-0.084 z m -159.11719,0.45117 c -0.1532,-0.0191 -0.25977,0.77657 -0.25977,2.16016 0,1.925 0.2055,2.7125 0.45703,1.75 0.25152,-0.9625 0.25152,-2.5375 0,-3.5 -0.0707,-0.2707 -0.13732,-0.40268 -0.19726,-0.41016 z M 67.611328,426.38281 C 67.252735,426.39869 67,426.79831 67,427.44141 67,428.29887 67.450001,429 68,429 c 0.549999,0 1,-0.42387 1,-0.94141 0,-0.51754 -0.450001,-1.21867 -1,-1.55859 -0.1375,-0.085 -0.269141,-0.12248 -0.388672,-0.11719 z m -46.826172,1.73828 c -0.313477,0.005 -0.656836,0.0689 -0.972656,0.19532 -0.797732,0.31922 -0.561426,0.55747 0.603516,0.60547 1.054165,0.0434 1.64479,-0.19311 1.3125,-0.5254 -0.186914,-0.18689 -0.540318,-0.28119 -0.94336,-0.27539 z m -6,2 c -0.313477,0.005 -0.656836,0.0689 -0.972656,0.19532 -0.797732,0.31922 -0.561426,0.55747 0.603516,0.60547 1.054165,0.0434 1.64479,-0.19311 1.3125,-0.5254 -0.186914,-0.18689 -0.540318,-0.28119 -0.94336,-0.27539 z m 91.732424,3.10157 c -0.14517,-0.0246 -0.2461,0.99844 -0.2461,2.77734 0,2.475 0.19525,3.4875 0.4336,2.25 0.23836,-1.2375 0.23836,-3.2625 0,-4.5 -0.067,-0.34805 -0.1307,-0.51773 -0.1875,-0.52734 z M 334.05859,437 c -3.35095,0 -4.97493,1.61613 -2.32031,2.30859 C 335.2769,440.23163 337,439.9666 337,438.5 c 0,-0.99331 -0.99387,-1.5 -2.94141,-1.5 z m -10.04492,2.99414 c -0.10196,0.008 0.19857,0.41327 0.85938,1.25586 1.30637,1.66575 2.12695,2.19609 2.12695,1.37305 0,-0.20765 -0.7875,-0.99515 -1.75,-1.75 -0.74346,-0.58307 -1.14636,-0.88597 -1.23633,-0.87891 z M 249.59375,440 c -0.91407,0 -1.22273,0.70014 -0.88281,2 0.28766,1.1 0.9204,2 1.40625,2 0.48585,0 0.88281,-0.9 0.88281,-2 0,-1.1 -0.63274,-2 -1.40625,-2 z m -115.25195,1.3457 c -0.13939,0.015 -0.23518,0.37863 -0.26368,1.07032 -0.0434,1.05415 0.1931,1.64479 0.5254,1.3125 0.33225,-0.33229 0.36894,-1.19415 0.0801,-1.91602 -0.12968,-0.32408 -0.24642,-0.47709 -0.34179,-0.4668 z m 51.10742,0.44336 c -0.13959,0.017 -0.24052,0.62813 -0.25391,1.71094 -0.0204,1.65 0.18701,2.44656 0.46094,1.76953 0.27397,-0.67703 0.29065,-2.02703 0.0371,-3 -0.0872,-0.33446 -0.17102,-0.48936 -0.24414,-0.48047 z m -77.95117,5.38086 c -0.13897,-0.0254 -0.23847,0.81758 -0.2461,2.33008 -0.0111,2.19996 0.18526,3.21781 0.43555,2.26172 0.25031,-0.95609 0.25872,-2.75609 0.0195,-4 -0.0748,-0.38872 -0.14582,-0.58024 -0.20898,-0.5918 z m -5.93164,0.58399 c -0.12824,-0.0464 -0.2168,1.88594 -0.2168,5.24609 0,4.675 0.17227,6.5875 0.38281,4.25 0.21053,-2.3375 0.21053,-6.1625 0,-8.5 -0.0592,-0.65742 -0.11584,-0.97794 -0.16601,-0.99609 z m 232.44726,6.24023 c -0.10196,0.008 0.19857,0.41327 0.85938,1.25586 1.30637,1.66575 2.12695,2.19609 2.12695,1.37305 0,-0.20765 -0.7875,-0.99515 -1.75,-1.75 -0.74346,-0.58307 -1.14636,-0.88597 -1.23633,-0.87891 z m 5,6 c -0.10196,0.008 0.19857,0.41327 0.85938,1.25586 0.75485,0.9625 1.54235,1.75 1.75,1.75 0.82304,0 0.2927,-0.82058 -1.37305,-2.12695 -0.74346,-0.58307 -1.14636,-0.88597 -1.23633,-0.87891 z M 345.5,467.5 l 3.44531,3.75 c 3.20761,3.49037 4.05469,4.20893 4.05469,3.44531 0,-0.16711 -1.6875,-1.85461 -3.75,-3.75 z m -236.96484,0.10547 c -0.13955,-0.03 -0.23633,1.22031 -0.23633,3.39453 0,3.025 0.18885,4.2625 0.41797,2.75 0.22913,-1.5125 0.22913,-3.9875 0,-5.5 -0.0644,-0.42539 -0.12704,-0.63279 -0.18164,-0.64453 z m -6.00391,1.33594 c -0.12776,6.9e-4 -0.21658,1.28984 -0.2207,3.55859 -0.006,3.30001 0.17611,4.77023 0.40429,3.26758 0.22817,-1.50265 0.23233,-4.20265 0.01,-6 -0.0695,-0.56167 -0.13529,-0.82649 -0.19336,-0.82617 z M 43.847656,479 c -0.274999,0 -1.555912,1.125 -2.847656,2.5 -1.291744,1.375 -2.122656,2.5 -1.847656,2.5 0.274999,0 1.555912,-1.125 2.847656,-2.5 1.291744,-1.375 2.122656,-2.5 1.847656,-2.5 z m 59.693364,4.32617 c -0.12414,0.0134 -0.21015,1.52696 -0.2129,4.17383 -0.004,3.85 0.17363,5.54672 0.39454,3.77148 0.22084,-1.77522 0.22428,-4.92523 0.008,-7 -0.0677,-0.64836 -0.13303,-0.95138 -0.18945,-0.94531 z M 49.443359,483.5 c -0.174842,-0.0107 -0.365771,0.58348 -0.61914,1.82617 -0.372058,1.82482 -0.231605,2.48161 0.394531,1.85547 0.533278,-0.53328 0.792571,-1.80525 0.576172,-2.82617 -0.118387,-0.55852 -0.231933,-0.84818 -0.351563,-0.85547 z m -23.464843,1.48438 c -0.08421,-0.007 -0.407769,0.22352 -0.978516,0.6582 -0.824999,0.62832 -2.400001,1.36438 -3.5,1.63476 -1.899625,0.46694 -1.893826,0.49725 0.126953,0.60743 1.170155,0.0638 2.745157,-0.67227 3.5,-1.63477 0.671417,-0.85612 0.959835,-1.25667 0.851563,-1.26562 z M 8,486.12891 c -0.4531245,0 -0.9062503,0.0703 -1.25,0.20898 -0.6874993,0.27741 -0.1249986,0.50391 1.25,0.50391 1.3749986,0 1.9374993,-0.2265 1.25,-0.50391 -0.3437497,-0.1387 -0.7968755,-0.20898 -1.25,-0.20898 z m 34,0.99218 c -0.634374,0 -1.26875,0.0637 -1.75,0.18946 -0.962499,0.25153 -0.174998,0.45703 1.75,0.45703 1.924998,0 2.712499,-0.2055 1.75,-0.45703 -0.48125,-0.12576 -1.115626,-0.18946 -1.75,-0.18946 z m 16.013672,0.87305 c -0.101964,0.008 0.198569,0.41327 0.859375,1.25586 C 60.179415,490.91575 61,491.44609 61,490.62305 c 0,-0.20765 -0.787501,-0.99515 -1.75,-1.75 -0.743463,-0.58307 -1.14636,-0.88597 -1.236328,-0.87891 z m 51.503908,1.22852 c -0.14517,-0.0246 -0.2461,0.99844 -0.2461,2.77734 0,2.475 0.19525,3.4875 0.4336,2.25 0.23836,-1.2375 0.23836,-3.2625 0,-4.5 -0.067,-0.34805 -0.1307,-0.51773 -0.1875,-0.52734 z m 140.15234,1.16211 c -0.12174,0.0195 -0.32799,0.54756 -0.66992,1.61523 -0.44035,1.375 -0.81388,3.175 -0.83008,4 -0.018,0.91898 0.30355,0.72531 0.83008,-0.5 0.47269,-1.1 0.84628,-2.9 0.83008,-4 -0.0111,-0.75365 -0.0527,-1.13242 -0.16016,-1.11523 z m 5.67188,6.96093 c -0.13939,0.015 -0.23518,0.37863 -0.26368,1.07032 -0.0434,1.05415 0.1931,1.64479 0.5254,1.3125 0.33225,-0.33229 0.36894,-1.19415 0.0801,-1.91602 -0.12968,-0.32408 -0.24642,-0.47709 -0.34179,-0.4668 z m -5.76563,2.92578 c -0.72537,0.0246 -1.41366,1.23419 -1.29492,2.81055 0.14195,1.88434 0.25101,1.9112 1.4043,0.33399 0.68777,-0.94054 1.00827,-2.10214 0.71289,-2.58008 -0.24868,-0.40237 -0.53843,-0.57407 -0.82227,-0.56446 z m -145.04101,0.33399 c -0.13955,-0.03 -0.23633,1.22031 -0.23633,3.39453 0,3.025 0.18885,4.2625 0.41797,2.75 0.22913,-1.5125 0.22913,-3.9875 0,-5.5 -0.0644,-0.42539 -0.12704,-0.63279 -0.18164,-0.64453 z M 295,502.11133 c -0.99687,0 -1.99375,0.0573 -2.75,0.17187 -1.5125,0.22912 -0.275,0.41797 2.75,0.41797 3.025,0 4.2625,-0.18885 2.75,-0.41797 -0.75625,-0.11456 -1.75313,-0.17187 -2.75,-0.17187 z m 27.78516,0.01 c -0.31348,0.005 -0.65684,0.0689 -0.97266,0.19532 -0.79773,0.31922 -0.56143,0.55747 0.60352,0.60547 1.05415,0.0434 1.64479,-0.19311 1.3125,-0.5254 -0.18692,-0.18689 -0.54032,-0.28119 -0.94336,-0.27539 z M 343,503.11523 c -0.81562,0 -1.63125,0.0605 -2.25,0.17969 -1.2375,0.23835 -0.225,0.4336 2.25,0.4336 2.475,0 3.4875,-0.19525 2.25,-0.4336 -0.61875,-0.11918 -1.43438,-0.17969 -2.25,-0.17969 z m 29.78516,1.00586 c -0.31348,0.005 -0.65684,0.0689 -0.97266,0.19532 -0.79773,0.31922 -0.56143,0.55747 0.60352,0.60547 1.05415,0.0434 1.64479,-0.19311 1.3125,-0.5254 -0.18692,-0.18689 -0.54032,-0.28119 -0.94336,-0.27539 z m -210.29297,0.71875 c -0.1532,-0.0191 -0.25977,0.77657 -0.25977,2.16016 0,1.925 0.2055,2.7125 0.45703,1.75 0.25152,-0.9625 0.25152,-2.5375 0,-3.5 -0.0707,-0.2707 -0.13732,-0.40268 -0.19726,-0.41016 z m 86.41797,1.62305 c -0.29302,-0.009 -0.29268,1.41842 0.0156,3.33008 0.57049,3.5375 0.80389,3.72995 5.08594,4.20703 l 4.48828,0.5 0.58203,6 0.58203,6 0.16797,-5.75 L 260,515 h 4.5 c 3.67484,0 4.5,0.33142 4.5,1.80859 0,0.99488 -0.66124,2.68238 -1.46875,3.75 -0.8075,1.06762 -1.47538,2.84141 -1.48437,3.94141 -0.0122,1.48172 0.20385,1.65239 0.83398,0.6582 0.62238,-0.98198 0.98215,-0.65628 1.33984,1.21485 0.26885,1.40639 -0.008,2.7629 -0.61523,3.01367 -0.60756,0.25076 -0.31797,0.49176 0.64453,0.53516 1.51955,0.0685 1.75,-0.91908 1.75,-7.49415 v -7.57226 l 11.75,0.53125 c 7.09224,0.32011 10.56079,0.19634 8.75,-0.31055 -2.83829,-0.79451 -2.89628,-0.9771 -0.5,-1.57617 0.55,-0.1375 1.3375,-0.36026 1.75,-0.49414 0.4125,-0.134 1.0875,-0.1901 1.5,-0.125 0.4125,0.0651 0.6375,-0.40374 0.5,-1.04297 -0.1375,-0.63922 1.54192,-1.55443 3.73242,-2.0332 8.94713,-1.95555 4.36412,-2.54757 -21.10742,-2.73047 -14.71721,-0.10567 -27.04801,-0.37281 -27.40234,-0.5918 -0.0221,-0.0137 -0.043,-0.0189 -0.0625,-0.0195 z M 133.3418,507.3457 c -0.13939,0.015 -0.23518,0.37863 -0.26368,1.07032 -0.0434,1.05415 0.1931,1.64479 0.5254,1.3125 0.33225,-0.33229 0.36894,-1.19415 0.0801,-1.91602 -0.12968,-0.32408 -0.24642,-0.47709 -0.34179,-0.4668 z m -22.80664,0.25977 c -0.13955,-0.03 -0.23633,1.22031 -0.23633,3.39453 0,3.025 0.18885,4.2625 0.41797,2.75 0.22913,-1.5125 0.22913,-3.9875 0,-5.5 -0.0644,-0.42539 -0.12704,-0.63279 -0.18164,-0.64453 z M 46.810547,510 c -0.275,0 -1.315062,0.9 -2.310547,2 -0.995485,1.1 -1.585547,2 -1.310547,2 0.275,0 1.315062,-0.9 2.310547,-2 0.995485,-1.1 1.585547,-2 1.310547,-2 z m 13.761719,0.22461 c -0.868788,-0.028 -1.527194,2.02002 -1.404297,5.08398 l 0.167969,4.19141 0.392578,-3.75 c 0.215744,-2.0625 0.841367,-3.75 1.390625,-3.75 0.549258,0 0.716556,-0.45666 0.371093,-1.01562 -0.315327,-0.51022 -0.628373,-0.75044 -0.917968,-0.75977 z m -8.123047,3.56445 c -0.139595,0.017 -0.240532,0.62813 -0.253907,1.71094 -0.02038,1.65 0.187011,2.44656 0.460938,1.76953 0.273919,-0.67703 0.290652,-2.02703 0.03711,-3 -0.08716,-0.33446 -0.171019,-0.48936 -0.244141,-0.48047 z m 53.068361,0.76563 c -0.13246,-0.012 -0.22692,1.05469 -0.23242,2.94531 -0.008,2.75005 0.18061,3.99361 0.41796,2.76367 0.23731,-1.22994 0.24354,-3.47994 0.0137,-5 -0.0718,-0.47502 -0.13902,-0.70351 -0.19922,-0.70898 z M 157.1582,520 c -2.01502,0 -4.1582,2.60587 -4.1582,5.05664 0,0.87784 0.40341,0.85395 1.54297,-0.0918 2.08965,-1.73425 4.3454,0.26029 2.63086,2.32618 -0.87842,1.05842 -0.81199,1.375 0.28711,1.375 0.78571,0 1.39983,-0.2612 1.36523,-0.58204 -0.26458,-2.45512 0.46798,-3.92789 2.17774,-4.375 1.3369,-0.34962 1.80024,-1.05479 1.39257,-2.11718 -0.77018,-2.00703 -2.28278,-2.05245 -3.03515,-0.0918 -0.31659,0.825 -1.03135,1.5 -1.58985,1.5 -0.58531,0 -0.48903,-0.63541 0.22852,-1.5 1.03894,-1.25185 0.90016,-1.5 -0.8418,-1.5 z m -118.714841,1.45703 c -0.168961,-0.0136 -0.285156,0.55469 -0.285156,1.54297 0,1.375 0.226494,1.9375 0.503906,1.25 0.277412,-0.6875 0.277412,-1.8125 0,-2.5 -0.07802,-0.19336 -0.152634,-0.28763 -0.21875,-0.29297 z m 134.914061,1.2832 c -0.48242,0.0223 -1.32645,0.39532 -2.80273,1.06446 -1.89503,0.85894 -3.21467,1.93657 -2.93164,2.39453 0.28304,0.45797 0.90296,0.59372 1.37695,0.30078 0.47399,-0.29294 1.13227,-0.0955 1.46289,0.43945 1.0337,1.67256 3.53711,-0.0426 3.53711,-2.42383 0,-1.25109 -0.0223,-1.80407 -0.64258,-1.77539 z M 263,523 c -0.55,0 -1,0.70113 -1,1.55859 0,0.85748 0.45,1.28133 1,0.94141 0.55,-0.33992 1,-1.04105 1,-1.55859 C 264,523.42387 263.55,523 263,523 Z m -209.482422,0.22266 c -0.145171,-0.0246 -0.246094,0.99844 -0.246094,2.77734 0,2.475 0.195241,3.4875 0.433594,2.25 0.238353,-1.2375 0.238353,-3.2625 0,-4.5 -0.06704,-0.34805 -0.130694,-0.51773 -0.1875,-0.52734 z M 60.25,523.92188 c -0.08672,-0.0187 -0.141089,0.16767 -0.154297,0.58398 -0.05246,1.65363 0.315866,4.44126 0.818359,6.19336 0.54978,1.91711 0.552164,6.06327 0.0059,10.41406 -0.945922,7.53336 -0.26458,13.72711 2.628906,23.88672 0.861528,3.025 1.9804,11.80001 2.486328,19.5 0.50593,7.69999 1.359206,17.375 1.896485,21.5 0.537278,4.125 1.307437,11.1 1.710937,15.5 0.403501,4.4 0.899181,7.25263 1.101563,6.33984 0.20238,-0.91278 -0.556748,-10.60463 -1.6875,-21.53711 C 67.925888,595.37026 67,583.50401 67,579.93164 67,576.35927 66.320107,570.97611 65.488281,567.96875 61.611921,553.95495 61.03659,549.69101 62.121094,543 c 0.82848,-5.11143 0.733653,-8.1022 -0.439453,-14 -0.61969,-3.1155 -1.171471,-5.02213 -1.431641,-5.07812 z m 78.0918,1.42382 c -0.13939,0.0151 -0.23518,0.37863 -0.26368,1.07032 -0.0434,1.05415 0.1931,1.64479 0.5254,1.3125 0.33225,-0.33229 0.36894,-1.19415 0.0801,-1.91602 -0.12968,-0.32408 -0.24642,-0.47709 -0.34179,-0.4668 z m -26.79102,3.36524 c -0.12074,0.0261 -0.20428,1.76406 -0.20703,4.78906 h -0.002 c -0.004,4.4 0.16989,6.3253 0.38476,4.27734 0.21527,-2.04795 0.21905,-5.64796 0.008,-8 -0.066,-0.73501 -0.12872,-1.07827 -0.1836,-1.0664 z m -71.240233,0.38281 c -0.149146,0.0108 -0.05135,0.39754 0.253906,1.19922 0.375531,0.98622 0.934301,1.54226 1.242188,1.23437 0.307886,-0.30789 0.0018,-1.11658 -0.681641,-1.79492 -0.432082,-0.42886 -0.69845,-0.64705 -0.814453,-0.63867 z m 66.261723,0.043 c -0.12547,-0.0518 -0.21094,2.10782 -0.21094,5.86328 0,5.22499 0.16705,7.3625 0.37305,4.75 0.20599,-2.6125 0.20599,-6.8875 0,-9.5 -0.0579,-0.73476 -0.11302,-1.09299 -0.16211,-1.11328 z m 32.88476,1.24023 c -0.34905,0.006 -0.45703,0.52522 -0.45703,1.66797 0,1.25901 0.2295,2.0596 0.50977,1.7793 0.2803,-0.2803 2.6428,0.0641 5.25,0.76562 7.08881,1.90736 8.48254,1.52756 2.36523,-0.64453 -2.95659,-1.04981 -5.99409,-2.42148 -6.75,-3.04883 -0.41167,-0.34165 -0.70854,-0.52312 -0.91797,-0.51953 z m 133.32813,0.74414 c -0.31348,0.005 -0.65684,0.0689 -0.97266,0.19532 -0.79773,0.31922 -0.56143,0.55747 0.60352,0.60547 1.05415,0.0434 1.64479,-0.19311 1.3125,-0.5254 -0.18692,-0.18689 -0.54032,-0.28119 -0.94336,-0.27539 z m -218.267582,1.4336 c -0.132567,-0.012 -0.227266,1.05469 -0.232422,2.94531 -0.0075,2.75005 0.180607,3.99361 0.417969,2.76367 0.237362,-1.22994 0.243527,-3.47994 0.01367,-5 -0.07183,-0.47502 -0.138961,-0.70351 -0.199219,-0.70898 z m -27.53125,1.43945 c -0.08997,-0.007 -0.492865,0.29584 -1.236328,0.87891 -0.962499,0.75485 -1.75,1.54235 -1.75,1.75 0,0.82304 0.820585,0.2927 2.126953,-1.37305 0.660806,-0.84259 0.961339,-1.24786 0.859375,-1.25586 z m 4.355469,0.35156 c -0.139397,0.0151 -0.235184,0.37863 -0.263672,1.07032 -0.04342,1.05415 0.193099,1.64479 0.525391,1.3125 0.332293,-0.33229 0.368948,-1.19415 0.08008,-1.91602 -0.129686,-0.32408 -0.246421,-0.47709 -0.341797,-0.4668 z m 114.443363,1.77539 c -0.31348,0.005 -0.65684,0.0689 -0.97266,0.19532 -0.79773,0.31922 -0.56143,0.55747 0.60352,0.60547 1.05415,0.0434 1.64479,-0.19311 1.3125,-0.5254 -0.18692,-0.18689 -0.54032,-0.28119 -0.94336,-0.27539 z m -106.916019,1.47657 c -0.02531,0.004 -0.05093,0.0144 -0.07813,0.0312 -0.435055,0.26888 -0.739582,2.59965 -0.675782,5.17968 0.121768,4.92418 0.531294,4.19552 1.117188,-1.98828 0.179774,-1.89742 0.01636,-3.27903 -0.363281,-3.22265 z m 115.916019,0.52343 c -0.31348,0.005 -0.65684,0.0689 -0.97266,0.19532 -0.79773,0.31922 -0.56143,0.55747 0.60352,0.60547 1.05415,0.0434 1.64479,-0.19311 1.3125,-0.5254 -0.18692,-0.18689 -0.54032,-0.28119 -0.94336,-0.27539 z m 31.32422,1.64258 c -0.42832,0.0444 -1.1868,0.42873 -2.50196,1.11524 -1.7086,0.89187 -3.33201,1.8557 -3.60742,2.14257 -1.17286,1.22165 -6.64902,0.55948 -12.62109,-1.52734 -3.529,-1.23312 -6.63887,-1.88426 -6.91016,-1.44531 -0.44664,0.72268 7.06286,3.98146 12.03125,5.2207 6.86052,1.71118 13.91923,-0.25018 14.10742,-3.91992 0.0584,-1.13895 0.0526,-1.64299 -0.49804,-1.58594 z m -168.324224,1.35742 c -0.313477,0.005 -0.656836,0.0689 -0.972656,0.19532 -0.797732,0.31922 -0.561426,0.55747 0.603516,0.60547 1.054165,0.0434 1.64479,-0.19311 1.3125,-0.5254 -0.186914,-0.18689 -0.540318,-0.28119 -0.94336,-0.27539 z m 37.763672,2.86719 c -0.135106,-0.0355 -0.228516,1.44219 -0.228516,4.01172 0,3.575 0.180517,5.0375 0.402344,3.25 0.221826,-1.7875 0.221826,-4.7125 0,-6.5 -0.06239,-0.50273 -0.12096,-0.74784 -0.173828,-0.76172 z m 205.029292,1.53125 c -0.12303,-0.0573 -0.20898,2.32969 -0.20898,6.48047 0,5.77499 0.16519,8.1375 0.36719,5.25 0.202,-2.8875 0.202,-7.6125 0,-10.5 -0.0568,-0.81211 -0.11006,-1.20805 -0.15821,-1.23047 z m -148.0371,1.80664 c -0.12414,0.0134 -0.21015,1.52696 -0.2129,4.17383 -0.004,3.85 0.17363,5.54672 0.39454,3.77148 0.22084,-1.77522 0.22428,-4.92523 0.008,-7 -0.0677,-0.64836 -0.13303,-0.95138 -0.18945,-0.94531 z m -74.097661,2.13086 c -0.168961,-0.0136 -0.285156,0.55469 -0.285156,1.54297 0,1.375 0.226494,1.9375 0.503906,1.25 0.277412,-0.6875 0.277412,-1.8125 0,-2.5 -0.07802,-0.19336 -0.152634,-0.28763 -0.21875,-0.29297 z m 69.134761,4.0625 c -0.12303,-0.0573 -0.20898,2.32969 -0.20898,6.48047 0,5.77499 0.16519,8.1375 0.36719,5.25 0.202,-2.8875 0.202,-7.6125 0,-10.5 -0.0568,-0.81211 -0.11006,-1.20805 -0.15821,-1.23047 z m -51.236323,2.82617 c -0.139397,0.0151 -0.235184,0.37863 -0.263672,1.07032 -0.04342,1.05415 0.193099,1.64479 0.525391,1.3125 0.332293,-0.33229 0.368948,-1.19415 0.08008,-1.91602 -0.129686,-0.32408 -0.246421,-0.47709 -0.341797,-0.4668 z m 1.101562,4.11133 c -0.168961,-0.0136 -0.285156,0.55469 -0.285156,1.54297 0,1.375 0.226494,1.9375 0.503906,1.25 0.277412,-0.6875 0.277412,-1.8125 0,-2.5 -0.07802,-0.19336 -0.152634,-0.28763 -0.21875,-0.29297 z m 56.074221,1.09766 c -0.13246,-0.012 -0.22692,1.05469 -0.23242,2.94531 -0.008,2.75005 0.18061,3.99361 0.41796,2.76367 0.23731,-1.22994 0.24354,-3.47994 0.0137,-5 -0.0718,-0.47502 -0.13902,-0.70351 -0.19922,-0.70898 z m -80.976564,1.77148 c -0.124045,0.0134 -0.209866,1.52696 -0.212891,4.17383 -0.0044,3.85 0.173619,5.54672 0.394531,3.77148 0.220946,-1.77522 0.224289,-4.92523 0.0078,-7 -0.06765,-0.64836 -0.13307,-0.95138 -0.189453,-0.94531 z m 241.908204,2.46289 c -0.13959,0.017 -0.24052,0.62813 -0.25391,1.71094 -0.0204,1.65 0.18701,2.44656 0.46094,1.76953 0.27397,-0.67703 0.29065,-2.02703 0.0371,-3 -0.0872,-0.33446 -0.17102,-0.48936 -0.24414,-0.48047 z m -216.957032,3.05078 c -0.153196,-0.0191 -0.259766,0.77657 -0.259766,2.16016 0,1.925 0.205503,2.7125 0.457031,1.75 0.251527,-0.9625 0.251527,-2.5375 0,-3.5 -0.07074,-0.2707 -0.137319,-0.40268 -0.197265,-0.41016 z m 215.000002,3 c -0.1532,-0.0191 -0.25977,0.77657 -0.25977,2.16016 0,1.925 0.2055,2.7125 0.45703,1.75 0.25152,-0.9625 0.25152,-2.5375 0,-3.5 -0.0707,-0.2707 -0.13732,-0.40268 -0.19726,-0.41016 z m -161.61133,0.28711 c -0.54375,-0.007 -1.12484,0.0529 -1.61133,0.17969 -0.97297,0.25354 -0.41953,0.47765 1.23047,0.49805 1.65,0.0204 2.44656,-0.18701 1.76953,-0.46094 -0.33851,-0.13698 -0.84492,-0.21008 -1.38867,-0.2168 z m -27.437501,2.33008 c -0.168961,-0.0136 -0.285156,0.55469 -0.285156,1.54297 0,1.375 0.226494,1.9375 0.503906,1.25 0.277412,-0.6875 0.277412,-1.8125 0,-2.5 -0.07802,-0.19336 -0.152634,-0.28763 -0.21875,-0.29297 z m -25.171875,4.83399 c -0.07211,-0.002 -0.122508,0.26182 -0.142578,0.82031 -0.07135,1.98573 0.172976,5.80704 0.541016,8.49219 1.045868,7.63044 1.43003,3.77667 0.458984,-4.60352 -0.343548,-2.96484 -0.673145,-4.70316 -0.857422,-4.70898 z m -18.71289,0.0801 c -0.131402,-0.0409 -0.222656,1.66407 -0.222656,4.62891 0,4.125 0.176834,5.8125 0.392578,3.75 0.215744,-2.0625 0.215744,-5.4375 0,-7.5 -0.06068,-0.58008 -0.118504,-0.86289 -0.169922,-0.87891 z m 234.933596,0.46875 c -0.1532,-0.0191 -0.25977,0.77657 -0.25977,2.16016 0,1.925 0.2055,2.7125 0.45703,1.75 0.25152,-0.9625 0.25152,-2.5375 0,-3.5 -0.0707,-0.2707 -0.13732,-0.40268 -0.19726,-0.41016 z m -12.91992,3.29688 c -0.12547,-0.0518 -0.21094,2.10782 -0.21094,5.86328 0,5.22499 0.16705,7.3625 0.37305,4.75 0.20599,-2.6125 0.20599,-6.8875 0,-9.5 -0.0579,-0.73476 -0.11302,-1.09299 -0.16211,-1.11328 z m 9.87695,2.65234 c -0.13959,0.017 -0.24052,0.62813 -0.25391,1.71094 -0.0204,1.65 0.18701,2.44656 0.46094,1.76953 0.27397,-0.67703 0.29065,-2.02703 0.0371,-3 -0.0872,-0.33446 -0.17102,-0.48936 -0.24414,-0.48047 z m 12.13281,6.11328 c -0.12087,-0.0628 -0.20312,2.55157 -0.20312,7.09766 0,6.32499 0.16092,8.9125 0.35937,5.75 0.19845,-3.1625 0.19845,-8.3375 0,-11.5 -0.0558,-0.88945 -0.10895,-1.3231 -0.15625,-1.34766 z m -223.083983,4.26758 c -0.138967,-0.0254 -0.238463,0.81758 -0.246094,2.33008 -0.0111,2.2 0.185254,3.21781 0.435547,2.26172 0.250292,-0.95609 0.258724,-2.75609 0.01953,-4 -0.07475,-0.38872 -0.145817,-0.58024 -0.208983,-0.5918 z m -26.949219,0.81836 c -0.135106,-0.0355 -0.228516,1.44219 -0.228516,4.01172 0,3.575 0.180517,5.0375 0.402344,3.25 0.221826,-1.7875 0.221826,-4.7125 0,-6.5 -0.06239,-0.50273 -0.12096,-0.74784 -0.173828,-0.76172 z m 270.236332,0.13281 c -0.31348,0.005 -0.65684,0.0689 -0.97266,0.19532 -0.79773,0.31922 -0.56143,0.55747 0.60352,0.60547 1.05415,0.0434 1.64479,-0.19311 1.3125,-0.5254 -0.18692,-0.18689 -0.54032,-0.28119 -0.94336,-0.27539 z m -33.44336,6.22461 c -0.13939,0.0151 -0.23518,0.37863 -0.26368,1.07032 -0.0434,1.05415 0.19311,1.64479 0.5254,1.3125 0.33225,-0.33229 0.36894,-1.19415 0.0801,-1.91602 -0.12968,-0.32408 -0.24642,-0.47709 -0.34179,-0.4668 z m -208.824222,0.87696 c -0.145171,-0.0246 -0.246094,0.99844 -0.246094,2.77734 0,2.475 0.195241,3.4875 0.433594,2.25 0.238353,-1.2375 0.238353,-3.2625 0,-4.5 -0.06704,-0.34805 -0.130694,-0.51773 -0.1875,-0.52734 z m 201.419922,2.3457 c -0.0373,0.003 -0.0769,0.0169 -0.11914,0.043 -0.45048,0.27841 -0.81836,1.60473 -0.81836,2.94726 0,3.35364 0.68054,3.06803 1.20508,-0.50586 0.21559,-1.46898 0.0926,-2.50953 -0.26758,-2.48437 z m 8.625,3.91406 c -0.11554,0.052 -0.1952,2.23633 -0.19727,6.01758 -0.003,5.49999 0.1639,7.87726 0.36915,5.2832 0.20551,-2.59405 0.20655,-7.09406 0.004,-10 -0.0633,-0.9081 -0.12326,-1.3244 -0.17578,-1.30078 z m -231,3 c -0.115632,0.052 -0.195478,2.23633 -0.197266,6.01758 -0.0026,5.49999 0.163862,7.87726 0.369141,5.2832 0.205212,-2.59405 0.206548,-7.09406 0.0039,-10 -0.06332,-0.9081 -0.123221,-1.3244 -0.175781,-1.30078 z m 21.955078,1.07227 c -0.132567,-0.012 -0.227266,1.05469 -0.232422,2.94531 -0.0075,2.75005 0.180607,3.99361 0.417969,2.76367 0.237362,-1.22994 0.243527,-3.47994 0.01367,-5 -0.07183,-0.47502 -0.138961,-0.70351 -0.199219,-0.70898 z M 263.0293,625 c -0.39196,0 -0.35971,2.1375 0.0703,4.75 0.43002,2.6125 0.80704,11.91185 0.83984,20.66602 0.0328,8.75415 0.31585,15.66267 0.62696,15.35156 0.75541,-0.75541 0.59337,-29.99984 -0.19922,-36.01758 -0.34409,-2.6125 -0.94594,-4.75 -1.33789,-4.75 z m -199.511722,1.22266 c -0.145171,-0.0246 -0.246094,0.99844 -0.246094,2.77734 0,2.475 0.195241,3.4875 0.433594,2.25 0.238353,-1.2375 0.238353,-3.2625 0,-4.5 -0.06704,-0.34805 -0.130694,-0.51773 -0.1875,-0.52734 z m 207.925782,2.23437 c -0.16896,-0.0136 -0.28516,0.55469 -0.28516,1.54297 0,1.375 0.2265,1.9375 0.50391,1.25 0.27741,-0.6875 0.27741,-1.8125 0,-2.5 -0.078,-0.19336 -0.15264,-0.28763 -0.21875,-0.29297 z m -199.925782,2.76563 c -0.145171,-0.0246 -0.246094,0.99844 -0.246094,2.77734 0,2.475 0.195241,3.4875 0.433594,2.25 0.238353,-1.2375 0.238353,-3.2625 0,-4.5 -0.06704,-0.34805 -0.130694,-0.51773 -0.1875,-0.52734 z m 203.072262,4.71875 c -0.10238,0.1725 -0.17316,4.37422 -0.17382,11.55859 -9.6e-4,10.44999 0.14701,14.86166 0.32812,9.80273 0.18136,-5.05892 0.1821,-13.60893 0.002,-19 -0.0563,-1.6847 -0.10971,-2.43974 -0.15625,-2.36132 z m -210.023434,2.84375 c -0.126826,0.0447 -0.213093,2.15703 -0.210937,5.71484 0.003,4.95 0.174182,6.84979 0.380859,4.2207 0.206717,-2.62909 0.203865,-6.6791 -0.0059,-9 -0.05898,-0.65275 -0.114435,-0.95305 -0.164063,-0.93554 z m 7.951172,3.4375 c -0.145171,-0.0246 -0.246094,0.99844 -0.246094,2.77734 0,2.475 0.195241,3.4875 0.433594,2.25 0.238353,-1.2375 0.238353,-3.2625 0,-4.5 -0.06704,-0.34805 -0.130694,-0.51773 -0.1875,-0.52734 z m -38.072266,4.0957 c -0.06207,-5.7e-4 -0.120772,0.0231 -0.169921,0.0723 -0.262128,0.26213 -0.178939,0.95638 0.183593,1.54297 0.986045,1.59546 1.562902,1.28555 0.886719,-0.47656 -0.264619,-0.68958 -0.631428,-1.13621 -0.900391,-1.13867 z m 238.103518,1.66992 c -0.13511,-0.0355 -0.22852,1.44219 -0.22852,4.01172 0,3.575 0.18052,5.0375 0.40235,3.25 0.22182,-1.7875 0.22182,-4.7125 0,-6.5 -0.0624,-0.50273 -0.12096,-0.74784 -0.17383,-0.76172 z m -199.562502,6.00586 c -0.08997,-0.007 -0.492865,0.29584 -1.236328,0.87891 -0.962499,0.75485 -1.75,1.54235 -1.75,1.75 0,0.82304 0.820585,0.2927 2.126953,-1.37305 0.660806,-0.84259 0.961339,-1.24786 0.859375,-1.25586 z M 271.3418,662.3457 c -0.13939,0.0151 -0.23518,0.37863 -0.26368,1.07032 -0.0434,1.05415 0.19311,1.64479 0.5254,1.3125 0.33225,-0.33229 0.36894,-1.19415 0.0801,-1.91602 -0.12968,-0.32408 -0.24642,-0.47709 -0.34179,-0.4668 z"
       inkscape:label="moreshading" />
    <path
       id="path14691"
       style="display:inline;fill:#101010;fill-opacity:1"
       d="m 187.75,169.1875 c -3.04922,0.294 -3.26858,0.57421 -3.55664,4.55273 -0.25336,3.49912 -0.0348,4.13561 1.25,3.64258 0.85636,-0.32862 1.55664,-1.34115 1.55664,-2.25 0,-0.90886 0.9,-2.21343 2,-2.90039 3.02733,-1.89059 2.40854,-3.39767 -1.25,-3.04492 z m -31.0957,63.92578 c -2.03938,0.0914 -3.9571,0.50958 -5.50977,1.3125 C 148.50525,235.7906 146,239.664 146,242.37891 c 0,0.70619 1.125,1.88521 2.5,2.62109 1.375,0.73588 2.5,1.71286 2.5,2.16992 0,0.45706 1.0125,0.83575 2.25,0.84375 3.8469,0.0234 6.75,1.15851 6.75,2.63867 0,0.78021 0.71353,2.50643 1.58594,3.83789 0.8724,1.33146 1.31597,2.85994 0.98437,3.39649 -0.33161,0.53656 0.21924,1.56979 1.22461,2.29492 3.39917,2.45169 3.23565,3.42072 -0.50195,2.98438 -2.46946,-0.28829 -3.35268,-0.0702 -2.87109,0.70898 0.38251,0.61894 1.39275,1.125 2.24414,1.125 0.90429,0 1.32848,0.57382 1.01953,1.37891 -0.29086,0.75798 -0.0423,1.86391 0.55273,2.45898 1.40997,1.40997 2.42817,0.70835 4.3418,-2.99219 1.83345,-3.54549 1.26599,-5.8457 -1.44141,-5.8457 -1.05841,0 -2.17464,-0.65223 -2.48047,-1.44922 -0.37327,-0.97273 -0.075,-1.26521 0.90625,-0.88867 0.804,0.30852 2.09927,0.0318 2.87891,-0.61523 1.1204,-0.92986 1.61285,-0.79555 2.35156,0.63867 0.5137,0.99802 0.74432,2.48945 0.51172,3.31445 -0.24669,0.87497 0.0597,0.73153 0.73633,-0.34375 0.63799,-1.01386 1.36572,-3.14855 1.61719,-4.74414 0.37332,-2.36873 -0.012,-3.11435 -2.10157,-4.06641 C 170.15106,251.20438 169,250.35593 169,249.96094 c 0,-1.22621 -5.75393,-3.17212 -7.67578,-2.59571 -1.00305,0.30084 -2.91545,-0.0534 -4.24805,-0.78711 l -2.42187,-1.33398 2.17187,-0.68945 C 158.40598,244.05328 159,243.06379 159,240.93164 159,238.39451 159.37297,238 161.76758,238 c 1.52232,0 4.48268,1.16595 6.57812,2.58984 4.41742,3.00171 5.22175,2.74901 3.47266,-1.08984 -1.82229,-3.99948 -9.04592,-6.66098 -15.16406,-6.38672 z m 11.04101,20.0293 c 1.1578,-0.0802 1.55688,0.75639 0.95899,2.31445 -0.76133,1.98399 -3.04894,1.97715 -4.70118,-0.0137 -0.71043,-0.85604 -0.87864,-1.46015 -0.37304,-1.3418 0.5056,0.11835 1.72667,-0.13614 2.71289,-0.5664 0.54524,-0.23788 1.01641,-0.36584 1.40234,-0.39258 z m -22.10742,1.46484 c -0.3625,0.0695 -0.58789,0.23708 -0.58789,0.48633 0,0.49851 0.675,0.90625 1.5,0.90625 0.93632,0 1.5,0.94728 1.5,2.51953 0,1.38533 1.12414,5.73554 2.49805,9.66797 1.3739,3.93243 2.266,7.38244 1.98242,7.66602 -0.28358,0.28358 0.92971,2.00642 2.69726,3.83007 1.76757,1.82366 3.47579,3.31641 3.79493,3.31641 0.31915,0 0.40856,-1.79693 0.19922,-3.99219 -0.26218,-2.74925 0.0418,-4.11809 0.9746,-4.40234 0.74481,-0.22697 2.13271,-0.66376 3.08594,-0.9707 2.60486,-0.83878 1.11059,-3.42253 -1.67187,-2.89063 C 158.98757,271.236 154,268.4745 154,266.55859 c 0,-0.66587 -1.125,-2.26684 -2.5,-3.55859 -1.47348,-1.38426 -2.5,-3.46191 -2.5,-5.05859 0,-1.86805 -0.62088,-2.86982 -2,-3.23047 -0.55,-0.14383 -1.04961,-0.173 -1.41211,-0.10352 z m 58.94336,46.69531 c -0.84198,0.01 -2.54478,2.23307 -2.63086,4.07032 -0.0919,1.96202 -0.15181,1.94149 -0.76758,-0.25586 -0.6221,-2.21993 -0.76622,-2.26368 -2.10351,-0.65235 -1.25931,1.51737 -1.22633,1.84561 0.26758,2.68164 0.93651,0.5241 1.70312,1.60468 1.70312,2.40235 0,0.79767 0.42898,1.45117 0.95312,1.45117 0.92894,0 3.02988,-6.13063 3.04102,-8.87305 0.002,-0.58481 -0.18223,-0.82739 -0.46289,-0.82422 z m 1.98047,1.51563 c -0.17095,-0.17733 -0.30111,0.44414 -0.31641,1.68164 -0.0204,1.65 0.18701,2.44656 0.46094,1.76953 0.27397,-0.67703 0.29065,-2.02703 0.0371,-3 -0.0634,-0.24324 -0.12466,-0.39206 -0.18164,-0.45117 z m -11.4375,0.37305 C 194.48297,302.99432 194,303.58333 194,304.5 c 0,0.91667 0.48297,1.50568 1.07422,1.30859 0.59125,-0.19708 1.07617,-0.78609 1.07617,-1.30859 0,-0.5225 -0.48492,-1.11151 -1.07617,-1.30859 z M 181.22852,305 c -0.5585,0 -1.27326,0.675 -1.58985,1.5 -0.31663,0.825 -0.42086,1.5 -0.23047,1.5 0.19039,0 0.90711,-0.675 1.5918,-1.5 0.71755,-0.86459 0.81383,-1.5 0.22852,-1.5 z m 6.47656,4.19141 c -0.0824,-0.0362 -0.20212,0.3223 -0.39453,1.05859 -0.25152,0.9625 -1.12623,1.75 -1.94336,1.75 -0.81716,0 -1.20711,0.45 -0.86719,1 0.33992,0.55 0.0285,1.00286 -0.69141,1.00586 C 182.26232,314.01223 173,323.37154 173,324.92773 173,325.51715 172.35797,326 171.57227,326 c -0.78572,0 -2.02754,0.5998 -2.75977,1.33203 -2.62498,2.62497 -6.51827,2.80188 -10.51758,0.48047 -2.08696,-1.21138 -5.71428,-3.1567 -8.06054,-4.32422 -2.34627,-1.16753 -4.02363,-2.367 -3.72657,-2.66406 0.29706,-0.29706 -0.14608,-1.10897 -0.98437,-1.80469 C 144.68514,318.32381 144,318.09031 144,318.5 c 0,0.40969 -0.67994,0.18054 -1.51172,-0.50977 -1.23253,-1.0229 -1.27878,-1.54243 -0.25,-2.80859 0.94214,-1.15953 0.43777,-1.07171 -1.98437,0.3457 -2.86709,1.67779 -3.04192,2.01213 -1.5,2.875 0.95994,0.53719 5.34609,3.65334 9.74609,6.92578 4.4,3.27246 9.35,6.54473 11,7.27149 6.04147,2.66103 8.19451,1.72123 16.875,-7.375 8.4387,-8.84286 11.60588,-12.89844 11.50391,-14.72461 -0.047,-0.84148 -0.0914,-1.27239 -0.17383,-1.30859 z M 330,333.0293 c -7.84197,-0.002 -11.79273,0.84526 -9.83398,2.10937 1.09504,0.70671 1.06903,1.03181 -0.14258,1.81055 -0.97624,0.62747 1.87733,0.87869 8.41992,0.74219 7.30597,-0.15243 10.0134,-0.56167 10.34766,-1.56446 0.72917,-2.18751 -1.84936,-3.09565 -8.79102,-3.09765 z m -145.4707,48.35937 c -0.27781,0.26601 -0.54627,1.90862 -0.88477,5.00586 -0.29424,2.69231 -0.93423,5.29556 -1.42187,5.7832 -2.57429,2.57429 -39.59521,3.53582 -45.71485,1.1875 -1.56361,-0.60002 -1.71518,-0.30402 -1.13672,2.22071 0.36718,1.60255 0.94343,8.53907 1.2793,15.41406 0.65071,13.31953 -0.27784,23.32465 -3.80469,41 -2.33436,11.69905 -2.13776,22.81846 0.66211,37.5 0.83911,4.4 1.80152,9.45934 2.13867,11.24219 0.34233,1.81026 0.13362,3.81832 -0.47265,4.54883 -0.59709,0.71943 -1.37641,3.12911 -1.73242,5.35546 -0.60802,3.80238 -0.44784,4.16629 2.64843,5.97461 3.16544,1.84871 3.28602,2.14536 3.03907,7.47657 -0.29871,6.44855 0.22001,7.08658 7.99609,9.84765 6.25379,2.22055 4.38526,2.7145 -2.4668,0.65235 -2.5624,-0.77117 -4.6582,-1.03434 -4.6582,-0.58399 0,0.69258 14.06442,4.51286 20.5,5.56836 1.1,0.18041 4.025,0.99394 6.5,1.80664 2.475,0.81271 6.20108,1.50812 8.28125,1.54492 4.22556,0.0747 10.71875,-2.2718 10.71875,-3.87304 0,-0.90476 -6.31524,-5.31613 -12.5,-8.73243 -1.1,-0.6076 -1.9439,-1.79316 -1.875,-2.63476 0.0803,-0.98016 -0.54076,-1.40257 -1.72852,-1.17383 -3.40716,0.65616 -2.85508,-1.16809 0.89649,-2.96289 L 174.5,521.7832 170,517.88672 c -2.475,-2.14262 -5.2875,-4.14938 -6.25,-4.45899 -3.31063,-1.06494 -2.12822,-7.90475 3.875,-22.42773 3.0692,-7.42499 6.21924,-15.525 7.00195,-18 0.78271,-2.475 3.14352,-7.875 5.2461,-12 4.47076,-8.77106 4.76702,-10.13116 6.11718,-28.17383 0.56281,-7.52091 1.73566,-17.42092 2.60743,-22 1.52191,-7.9942 1.50301,-8.60482 -0.47266,-15.32617 -1.13167,-3.85 -2.32705,-8.73286 -2.65625,-10.85156 -0.37507,-2.41399 -0.66164,-3.52578 -0.93945,-3.25977 z m 152.24609,9.65235 c -0.39889,-0.022 -0.28639,1.11262 0.25,2.52343 0.53639,1.4108 0.97461,10.10034 0.97461,19.3086 v 16.74218 l -8,4.26172 C 322.42172,437.91484 320.19593,440 323.46289,440 c 0.80451,0 3.3552,2.8125 5.66797,6.25 11.52049,17.12302 24.69781,30.32177 36.46289,36.52148 4.3484,2.29142 8.00004,4.18017 8.11523,4.19727 0.11518,0.0171 0.22856,-16.58782 0.25196,-36.90039 0.0421,-36.53016 0.0195,-36.93966 -2.03516,-37.5918 -1.14252,-0.36261 -2.34275,-0.39357 -2.66797,-0.0684 -0.32522,0.32522 0.18564,0.5918 1.13477,0.5918 0.94913,0 1.48912,0.38176 1.20117,0.84766 -0.28794,0.4659 -4.39826,0.86236 -9.13477,0.88086 -7.8683,0.0307 -8.68667,-0.15093 -9.47265,-2.09766 -0.47314,-1.1719 -0.8945,-1.68086 -0.9375,-1.13086 -0.043,0.55 -0.63507,0.0384 -1.31445,-1.13672 -2.6419,-4.56939 -13.27225,-19.28436 -13.95899,-19.32226 z M 0,419.22852 v 2.30078 c 0,2.14587 0.52041195,2.34406 7.75,2.95898 4.262496,0.36255 8.200001,0.8149 8.75,1.00586 1.662232,0.57712 5.861409,0.51596 8.238281,-0.12109 C 28.656501,424.32287 26.084107,423 20.123047,423 c -3.167234,0 -8.991106,-0.84765 -12.9414064,-1.88477 z m 109.84766,1.74023 c -0.42228,-0.14053 -2.21033,1.17326 -5.09766,4.02734 -3.38797,3.34897 -4.792581,5.36767 -3.95898,5.69336 0.98952,0.38661 1.02124,0.83186 0.13281,1.90235 -0.63787,0.76858 -0.8782,2.41191 -0.53321,3.65234 0.345,1.24043 1.06018,10.13087 1.5879,19.75586 1.67679,30.58242 3.06397,52.40516 3.52734,55.5 0.24705,1.65 0.99001,15.95726 1.65234,31.79492 1.17999,28.21584 1.24642,28.78983 3.27344,28.5 1.86761,-0.26704 2.06664,-0.97526 2.05664,-7.29492 -0.006,-3.85 -0.36085,-13.97501 -0.78906,-22.5 -0.42821,-8.52499 -1.42563,-29.67502 -2.2168,-47 -2.18467,-47.83929 -3.59999,-67.04301 -4.88476,-66.26953 -0.60364,0.3634 0.36484,-1.01645 2.15234,-3.06836 2.57644,-2.95755 3.51993,-4.55283 3.09766,-4.69336 z m 235.83789,4.26563 c 0.17569,-0.0906 0.2832,-0.009 0.2832,0.26562 0,0.55 -0.43559,1.675 -0.96875,2.5 -0.53316,0.825 -0.96875,1.05 -0.96875,0.5 0,-0.55 0.43559,-1.675 0.96875,-2.5 0.26658,-0.4125 0.50985,-0.675 0.68555,-0.76562 z m -246.074222,6.04296 c -0.57827,-0.57827 -10.564987,9.89465 -10.591797,11.10743 -0.01075,0.48635 2.471891,-1.70909 5.517578,-4.87891 3.045687,-3.16982 5.329513,-5.97322 5.074219,-6.22852 z M 334.05859,437 c 1.94754,0 2.94141,0.50669 2.94141,1.5 0,1.47167 -3.07196,1.91799 -5.75586,0.83594 C 329.14143,438.48821 330.93409,437 334.05859,437 Z m 0.22266,4.13086 c 1.13851,0.24761 2.69906,1.68756 3.08008,3.14453 0.82011,3.13612 0.13681,3.17423 -2.26172,0.125 -1.1704,-1.48793 -1.95984,-2.87219 -1.75586,-3.07617 0.22623,-0.22623 0.558,-0.2759 0.9375,-0.19336 z M 87.558594,443 c -0.242541,0 -0.718675,0.45 -1.058594,1 -0.339919,0.55 -0.141052,1 0.441406,1 C 87.523865,445 88,444.55 88,444 c 0,-0.55 -0.198865,-1 -0.441406,-1 z m -2.203125,2.5 -2.677735,2.42383 C 81.205072,449.25721 80,450.71971 80,451.17383 c 0,1.51289 0.843145,0.85593 3.109375,-2.42383 z m -6.589844,6.07617 c -0.451614,0.007 -1.507638,0.71908 -2.730469,1.89063 -1.630442,1.56207 -2.723135,3.22831 -2.429687,3.70312 0.293446,0.4748 0.959502,0.59933 1.480469,0.27735 0.520967,-0.32197 0.63982,-1.08008 0.265624,-1.68555 -0.433496,-0.70141 -0.09422,-0.87683 0.933594,-0.48242 1.132705,0.43466 1.447097,0.18744 1.056641,-0.83008 C 77.035963,453.65223 77.283735,453 77.892578,453 78.501422,453 79,452.4654 79,451.8125 c 0,-0.16322 -0.08384,-0.23866 -0.234375,-0.23633 z m -7.382813,5.54102 C 71.045292,457.18069 70.644106,457.79648 70,459 c -0.725704,1.35599 -0.737006,2 -0.03516,2 C 70.534194,461 71,460.52387 71,459.94141 c 0,-0.58246 0.444582,-0.78524 0.988281,-0.44922 0.56686,0.35034 0.734074,-0.0495 0.392578,-0.93946 -0.387367,-1.00946 -0.660526,-1.49904 -0.998047,-1.43554 z m -5.199218,7.49609 c -0.467305,-0.28881 -0.84961,0.13083 -0.84961,0.93164 0,1.68617 0.314423,1.83182 1.123047,0.52344 0.316431,-0.512 0.193866,-1.16627 -0.273437,-1.45508 z M 1.2480469,471.19531 C 0.11711192,471.1519 0,471.80154 0,473.97461 c 0,3.11521 0.02885162,3.13302 4.75,2.83008 2.6904407,-0.17264 4.6670309,-0.77039 4.5585938,-1.37891 -0.1170283,-0.65673 1.7429612,-1.04128 4.7851562,-0.98828 3.936583,0.0686 4.65231,-0.14948 3.427734,-1.04492 -0.851478,-0.62261 -3.904729,-1.18254 -6.785156,-1.24414 C 7.8559013,472.08682 4.2624985,471.76822 2.75,471.43945 2.1144476,471.3013 1.6250252,471.20978 1.2480469,471.19531 Z m 41.7363281,1.79688 c -0.08433,-0.038 -0.559373,0.2961 -1.484375,0.97461 -1.099999,0.80687 -2.186849,1.59437 -2.416016,1.75 -0.229165,0.15563 0.05263,0.2832 0.626954,0.2832 0.574321,0 1.661172,-0.7875 2.416015,-1.75 0.634757,-0.80938 0.941749,-1.21979 0.857422,-1.25781 z m -4.068359,0.13086 c -0.347396,-0.0143 -0.742579,0.0489 -1.103516,0.19336 -0.797732,0.31922 -0.561426,0.55747 0.603516,0.60547 1.054165,0.0434 1.64479,-0.19311 1.3125,-0.5254 -0.166146,-0.16612 -0.465105,-0.25913 -0.8125,-0.27343 z m 8.310546,0.9375 c -0.507654,0 -1.257183,0.31299 -2.226562,0.93945 -1.212958,0.78387 -1.069436,0.97199 0.75,0.98438 C 46.987499,475.99279 48,475.55 48,475 c 0,-0.62646 -0.265783,-0.93945 -0.773438,-0.93945 z M 13.835938,475.7207 C 12.703126,475.80085 12,475.96175 12,476.18555 c 0,0.4476 3.487504,0.76302 7.75,0.69922 8.599884,-0.12872 8.013595,-0.57494 -1.5,-1.14063 -1.718748,-0.1022 -3.281251,-0.10358 -4.414062,-0.0234 z m 16.509765,0.71094 C 29.501037,476.53002 29,476.73136 29,477.01562 29,477.55717 29.675001,478 30.5,478 c 2.408459,0 1.776869,1.31334 -2.75,5.7207 l -4.25,4.13868 -10.314453,-0.82813 C 7.5124924,486.57608 2.6961719,486.0282 2.4824219,485.81445 2.2686719,485.6007 1.6502016,484.31774 1.109375,482.96289 0.43050623,481.26221 0.10626082,489.89312 0.0625,510.83789 L 0,541.17578 4.0566406,540.49023 c 2.4268963,-0.41002 5.1911684,-0.21665 6.8789064,0.48243 4.117887,1.70568 10.383971,-0.20897 13.082031,-3.99805 C 25.501628,534.89045 26.973175,534 28.929688,534 h 2.792968 l 0.751953,24.75 c 0.413763,13.61249 1.041347,38.92502 1.394532,56.25 0.353185,17.32498 1.003291,32.0625 1.445312,32.75 1.154245,1.79526 4.360537,1.5401 5.107422,-0.40625 0.559014,-1.45677 -0.378301,-46.5265 -1.923828,-92.51172 -0.490434,-14.59219 -0.385101,-15.90973 1.548828,-19.1875 L 42.125,532.125 40.0625,530.0625 c -2.288776,-2.28878 -2.704963,-6.96706 -0.921875,-10.37891 1.935921,-3.70428 10.29636,-13.67568 11.46875,-13.67968 1.17304,-0.004 2.703023,11.34474 4.449219,32.99609 0.554472,6.87499 1.433684,15.425 1.953125,19 0.519439,3.575 1.190093,10.77501 1.492187,16 0.302094,5.22499 1.406876,16.70001 2.453125,25.5 2.511013,21.12011 4.068808,39.44056 4.054688,47.67773 -0.0081,4.75007 0.442884,7.13235 1.560547,8.25 2.018452,2.01846 2.750334,1.97831 4.779296,-0.26367 1.469543,-1.62383 1.543347,-3.03589 0.644532,-12.25 C 71.437338,637.18603 70.785469,631.6 70.546875,630.5 c -0.238593,-1.1 -0.70195,-5.375 -1.029297,-9.5 -0.327346,-4.125 -0.86518,-9.075 -1.195312,-11 -0.872496,-5.08751 -0.966797,-6.19635 -1.75,-20.5 -0.772275,-14.10404 -1.885574,-21.50037 -4.28711,-28.5 -1.066183,-3.10755 -1.475983,-7.59434 -1.326172,-14.5 0.305539,-14.08398 0.321286,-13.41526 -0.49414,-19.72461 -0.40689,-3.14831 -1.017994,-5.55158 -1.357422,-5.3418 -0.339429,0.20978 -0.388738,-2.16587 -0.111328,-5.27734 0.27741,-3.11147 0.933171,-5.65625 1.458984,-5.65625 1.219234,0 2.146106,3.17399 10.595703,36.33008 3.830674,15.0315 7.427045,28.19402 7.992188,29.25 1.27642,2.38501 3.957031,2.52105 3.957031,0.20117 0,-1.49707 -9.011836,-38.99481 -16.519531,-68.73437 -1.435312,-5.68558 -3.367617,-10.86261 -4.50586,-12.07422 -1.095933,-1.16657 -1.690591,-2.42269 -1.322265,-2.79102 0.368324,-0.36832 -0.03756,-1.45991 -0.900391,-2.42578 C 58.889122,489.28999 57.878555,486.025 57.505859,483 l -0.677734,-5.5 -9.164063,-0.30273 C 42.623801,477.03048 36.362497,476.70016 33.75,476.46289 c -1.371331,-0.12454 -2.559631,-0.12963 -3.404297,-0.0312 z m 15.433594,2.71484 c 1.586055,-0.0499 2.776105,0.9945 3.486328,3.13672 0.50746,1.53064 0.668995,3.44314 0.359375,4.25 -0.407816,1.06275 -2.20857,1.4668 -6.535156,1.4668 -3.2848,0 -6.205555,-0.37727 -6.490235,-0.83789 -0.284679,-0.46063 1.211293,-2.52268 3.322266,-4.58399 2.290581,-2.23669 4.271367,-3.38171 5.857422,-3.43164 z M 325,503.5 c -13.2029,0 -13.64788,0.0727 -20.21289,3.26367 -3.69201,1.79433 -7.06701,3.20286 -7.5,3.13086 -0.43299,-0.0723 -2.36211,-0.0753 -4.28711,-0.006 -2.68767,0.0969 -3.76862,0.70537 -4.65625,2.61914 -1.0759,2.31968 -0.97207,2.49362 1.5,2.50781 4.2922,0.0248 5.73838,1.41283 4.43945,4.26368 -0.91569,2.00971 -2.04239,2.51928 -6.60547,2.99023 -6.31574,0.65184 -10.14582,2.80233 -12.2539,6.87891 -1.69757,3.28273 -2.16603,3.38754 -6.0586,1.35742 -1.57536,-0.82161 -2.22477,-1.497 -1.4414,-1.5 1.02472,-0.004 0.82475,-0.64438 -0.71485,-2.2832 -2.13741,-2.27519 -2.13837,-2.28149 -0.18164,-5.25 3.36619,-5.10678 2.71584,-6.47266 -3.08593,-6.47266 -2.78246,0 -4.85652,0.3375 -4.60938,0.75 0.48475,0.80911 1.27987,23.40503 2.2793,64.75 0.73609,30.45105 1.8256,35.43588 7.76172,35.48438 1.66371,0.0136 1.81388,-0.5731 1.33398,-5.23438 -0.29728,-2.8875 -0.87379,-6.33275 -1.28125,-7.65625 -0.43158,-1.40184 -0.3576,-2.16875 0.17774,-1.83789 0.50545,0.31238 1.0011,-1.75483 1.10156,-4.59375 0.10045,-2.83887 0.65753,-10.96428 1.23828,-18.05664 0.58075,-7.09236 1.06427,-13.61737 1.07226,-14.5 0.0134,-1.40135 0.13789,-1.41532 0.98438,-0.10547 0.59254,0.91689 0.97502,21.0343 0.98438,51.75 L 275,666 h 4 4 l 0.0156,-38.75 c 0.009,-21.94726 0.41633,-39.38389 0.93946,-40.21094 1.42451,-2.2521 4.66825,1.20712 5.40039,5.75782 0.90368,5.61686 3.1564,8.20312 7.14453,8.20312 2.31109,0 3.85542,-0.67046 4.86328,-2.10938 l 1.47656,-2.10742 9.33008,3.58008 C 333.7494,608.64291 359.55102,615 371.57227,615 H 374 v -54.89453 -54.89453 l -4.25,-0.45508 C 363.93438,504.13414 341.34041,503.5 325,503.5 Z m -59.52344,14.95117 c 0.32286,-0.26077 0.27796,0.35673 -0.10156,1.98242 -0.37664,1.61334 -1.28925,4.08835 -2.0293,5.5 -1.26983,2.42225 -1.33441,2.27233 -1.13086,-2.64453 0.12219,-2.95159 0.55568,-4.68548 1,-4 0.59156,0.91266 1.03921,0.84236 1.81641,-0.28906 0.19035,-0.2771 0.33769,-0.4619 0.44531,-0.54883 z m -107.33984,1.16602 c 1.84832,-0.18923 3.23003,0.12145 3.92187,0.95508 1.00121,1.20637 0.85722,1.90526 -0.76367,3.70703 -1.09877,1.22137 -2.29474,3.05954 -2.6582,4.08398 -0.52049,1.46703 -0.95662,1.61573 -2.0586,0.70117 -0.95786,-0.79497 -1.60516,-0.83114 -2.04882,-0.11328 -0.86154,1.39401 -1.77285,1.32213 -4.01368,-0.3164 -3.02812,-2.21422 -2.61932,-5.36645 0.9043,-6.97461 2.55482,-1.16601 4.86847,-1.85375 6.7168,-2.04297 z M 146.22656,522 c 0.4908,0 0.61336,0.45 0.27344,1 -0.33992,0.55 -0.14105,1 0.44141,1 0.58246,0 1.05859,0.45 1.05859,1 0,1.38855 -1.27068,1.18449 -2.68945,-0.43164 C 144.11903,523.21109 144.55123,522 146.22656,522 Z m 117.71485,54 c 0.58246,0 1.05859,0.45 1.05859,1 0,0.55 -0.19887,1 -0.44141,1 -0.24254,0 -0.71867,-0.45 -1.05859,-1 -0.33992,-0.55 -0.14105,-1 0.44141,-1 z m -0.42969,15.81836 c 0.057,0.0591 0.11825,0.20793 0.18164,0.45117 0.25349,0.97297 0.23681,2.32297 -0.0371,3 -0.27393,0.67703 -0.48134,-0.11953 -0.46094,-1.76953 0.0153,-1.2375 0.14546,-1.85897 0.31641,-1.68164 z m 2.82031,7.25976 c 0.55405,0.24796 1.64027,2.8926 1.65235,4.67188 0.008,1.2375 -0.45324,2.25 -1.02735,2.25 -0.57411,0 -0.91161,-0.7875 -0.75,-1.75 0.19294,-1.14907 -0.30796,-1.70253 -1.45703,-1.61133 -0.9625,0.0764 -1.75,-0.26111 -1.75,-0.75 0,-0.48889 0.675,-0.88867 1.5,-0.88867 0.825,0 1.50763,-0.5625 1.51562,-1.25 0.007,-0.57069 0.13173,-0.75453 0.31641,-0.67188 z M 264.02539,604 c 0.46716,0 0.78212,0.9 0.69922,2 -0.12856,1.7067 -0.53916,2.60484 -0.80078,1.75 -0.61835,-2.02047 -0.5722,-3.75 0.10156,-3.75 z m 2.2793,5.33594 c 0.0882,-0.0693 0.20892,0.24119 0.38476,0.91406 0.25152,0.9625 1.1001,1.75 1.88477,1.75 0.78468,0 1.42578,0.675 1.42578,1.5 0,1.7496 0.025,1.74496 -2.25,0.41992 -0.9625,-0.5606 -1.69857,-2.00858 -1.63477,-3.21875 0.0446,-0.84602 0.10124,-1.29594 0.18946,-1.36523 z M 263,613 c -0.55556,0 -1,2.66667 -1,6 0,3.71993 0.4211,6 1.10742,6 0.60888,0 0.84784,-0.675 0.53125,-1.5 -0.31658,-0.825 -0.14015,-1.5 0.39258,-1.5 0.53274,0 0.96875,0.675 0.96875,1.5 0,0.825 0.47613,1.5 1.05859,1.5 0.58246,0 0.73815,-0.51932 0.34571,-1.1543 -0.41427,-0.67029 -0.27617,-0.88519 0.32812,-0.51172 0.57245,0.3538 1.34617,-0.36438 1.7207,-1.5957 0.42994,-1.41341 0.87612,-1.76548 1.20899,-0.95508 0.28998,0.70599 0.11177,1.83099 -0.39649,2.5 -1.65439,2.17763 -1.42834,8.41151 0.3711,10.21094 1.38787,1.38787 1.44474,1.83751 0.32226,2.53125 -0.75043,0.46379 -1.72335,0.62078 -2.1621,0.34961 -0.43876,-0.27117 -0.79688,0.20895 -0.79688,1.06641 0,0.85746 -0.5625,1.56622 -1.25,1.57421 -0.90518,0.0111 -0.86905,0.25658 0.12891,0.88868 0.75791,0.48009 1.06124,1.38487 0.67382,2.01172 -0.38876,0.62903 0.29556,1.95021 1.5293,2.94921 2.44741,1.9818 1.90304,4.13477 -1.04687,4.13477 -2.62493,0 -1.47547,3.76269 1.3164,4.30859 1.71836,0.33599 1.59833,0.44575 -0.60156,0.55469 -2.97445,0.14729 -3.88234,2.11557 -1,2.16797 1.56274,0.0284 1.53555,0.19466 -0.24609,1.54102 -1.30724,0.98785 -1.61712,1.75124 -0.90039,2.21679 1.27351,0.8272 1.45885,4.21094 0.23046,4.21094 -0.45833,0 -0.83398,0.45 -0.83398,1 0,0.55 1.30786,1 2.90625,1 2.72629,0 2.94927,-0.30733 3.58984,-4.96484 0.68225,-4.96055 -0.28077,-42.13771 -1.11328,-42.98047 C 269.293,616.95145 267,617.31257 267,618.58789 267,619.36423 266.325,620 265.5,620 c -1.04762,0 -1.5,-1.05556 -1.5,-3.5 0,-1.925 -0.45,-3.5 -1,-3.5 z m 3.05859,3 C 265.47613,616 265,616.45 265,617 c 0,0.55 0.19887,1 0.44141,1 0.24254,0 0.71867,-0.45 1.05859,-1 0.33992,-0.55 0.14105,-1 -0.44141,-1 z M 266,645 c -0.55,0 -1,0.675 -1,1.5 0,0.825 0.45,1.5 1,1.5 0.55,0 1,-0.675 1,-1.5 0,-0.825 -0.45,-1.5 -1,-1.5 z"
       inkscape:label="shading" />
    <path
       style="display:inline;fill:#101010;fill-opacity:1;stroke:#000000;stroke-opacity:1"
       d="m 125.05797,301.03775 c -0.24729,3.33213 0.33567,4.61187 2.9954,6.73965 0.43585,0.34868 1.10302,0.35417 1.4977,0.74885 1.78017,1.78017 2.98897,4.48882 5.24195,5.9908 1.98457,1.32305 3.97828,1.24029 5.9908,2.24655"
       id="path16441"
       inkscape:label="shadowarm" />
    <path
       style="display:inline;fill:#101010;fill-opacity:1;stroke:#000000;stroke-opacity:1"
       d="m 166.24473,313.7682 c -1.52999,-1.91011 -3.43331,2.24655 -4.4931,2.24655 -0.23801,0 0.53546,-1.60439 -0.74885,-2.24655 -0.88285,-0.44142 -2.24655,-1.28275 -2.24655,-2.9954"
       id="path16503"
       inkscape:label="shadow" />
    <path
       style="display:inline;fill:#101010;fill-opacity:1"
       d="m 265.49856,661.95204 c 0.0731,-2.0625 0.4612,-4.27407 0.86254,-4.91459 0.40134,-0.64052 0.1644,-1.39377 -0.52653,-1.67387 -0.96698,-0.39201 -0.98057,-0.70558 -0.059,-1.3618 0.78793,-0.56108 0.87863,-1.3563 0.26532,-2.32613 -1.21129,-1.91537 -1.23475,-6.97361 -0.0324,-6.97361 0.5736,0 0.5736,-1.2434 0,-3.2434 -1.23598,-4.30962 -1.19599,-9.03891 0.0698,-8.2566 1.51841,0.93843 1.1947,-0.44815 -0.50034,-2.1432 -1.07856,-1.07856 -1.32375,-2.60466 -0.87219,-5.42857 0.41006,-2.5644 0.24748,-3.92823 -0.46828,-3.92823 -0.60303,0 -0.8374,0.675 -0.52082,1.5 0.31659,0.825 0.0775,1.5 -0.53138,1.5 -0.6968,0 -1.10699,-2.43039 -1.10699,-6.55902 0,-3.60746 0.37032,-6.33015 0.82292,-6.05042 0.45261,0.27973 0.79011,-0.99902 0.75,-2.84165 -0.0401,-1.84264 -0.34817,-3.18186 -0.68459,-2.97605 -0.33643,0.2058 -0.90618,-10.75139 -1.26613,-24.34933 -1.32238,-49.95589 -1.86837,-65.74042 -2.29934,-66.47353 -0.24249,-0.4125 1.83566,-0.75 4.61812,-0.75 4.92235,0 5.05902,0.0788 5.05902,2.91667 0,1.60416 -0.43008,3.06666 -0.95573,3.25 -0.58423,0.20376 -0.62516,1.79096 -0.10531,4.08333 0.59958,2.6439 0.51278,3.75182 -0.29427,3.75616 -0.62958,0.003 0.14425,0.67839 1.71962,1.5 3.89257,2.03012 4.36133,1.92508 6.0589,-1.35766 2.10808,-4.07658 5.93955,-6.22724 12.2553,-6.87908 4.56308,-0.47095 5.68833,-0.98044 6.60402,-2.99016 1.31788,-2.89244 -0.1532,-4.23995 -4.65497,-4.26395 -2.40082,-0.0128 -2.67402,-0.25441 -1.66391,-1.47151 0.66469,-0.8009 0.91823,-1.9259 0.56342,-2.5 -0.54465,-0.88126 5.55712,-1.68214 8.76019,-1.1498 0.43299,0.072 3.80799,-1.33725 7.5,-3.13158 l 6.71275,-3.26242 24,0.20489 c 13.2,0.11269 27.2625,0.48858 31.25,0.83532 l 7.25,0.63043 v 55.04389 55.04389 l -7.25,-0.69361 c -14.43809,-1.38129 -36.91242,-7.18775 -54.20252,-14.00373 -8.95211,-3.52904 -8.95261,-3.52911 -11.06445,-1.54514 -1.17729,1.10601 -3.49661,1.98406 -5.24078,1.98406 -3.71188,0 -6.00722,-2.73419 -6.88724,-8.20402 -0.73214,-4.5507 -3.97624,-8.00832 -5.40075,-5.75622 -0.52313,0.82705 -0.93027,18.26296 -0.93895,40.21024 l -0.0153,38.75 h -4 -4 l -0.0153,-50.25 c -0.009,-30.71573 -0.39216,-50.83311 -0.9847,-51.75 -0.80409,-1.24425 -0.97468,-1.159 -1.00052,0.5 -0.0171,1.1 -0.49264,7.4 -1.05669,14 -1.23359,14.43418 -1.35027,32.27724 -0.38304,58.57456 0.39597,10.76601 0.40445,21.67851 0.0188,24.25 -0.64255,4.28484 -0.93463,4.67544 -3.49616,4.67544 -2.58677,0 -2.78514,-0.27943 -2.6622,-3.75 z m 3.95478,-14.04775 c 0.27117,-0.43876 0.0796,-1.45126 -0.42567,-2.25 -0.77214,-1.22057 -0.92115,-1.18637 -0.93402,0.21442 -0.008,0.91666 -0.57781,1.89364 -1.26531,2.17105 -0.76965,0.31056 -0.60019,0.53472 0.44098,0.58333 0.93004,0.0434 1.91285,-0.28004 2.18402,-0.7188 z m -2.71272,-12.45225 c -0.27741,-0.6875 -0.50439,-0.125 -0.50439,1.25 0,1.375 0.22698,1.9375 0.50439,1.25 0.27741,-0.6875 0.27741,-1.8125 0,-2.5 z m 2.53772,-1.95 c -0.93333,-0.93333 -1.2,-0.66667 -1.2,1.2 0,1.86667 0.26667,2.13333 1.2,1.2 0.93333,-0.93333 0.93333,-1.46667 0,-2.4 z m -1.316,-6.55 c -0.0638,-2.0625 -0.3218,-2.9625 -0.57333,-2 -0.25152,0.9625 -0.87432,1.75 -1.38399,1.75 -0.50968,0 -0.92668,0.6375 -0.92668,1.41667 0,1.17254 0.779,1.88196 2.75,2.50438 0.1375,0.0434 0.1978,-1.60855 0.134,-3.67105 z m -0.884,-8.25 c 0,-0.55 -0.70156,-1 -1.55902,-1 -0.85746,0 -1.2809,0.45 -0.94098,1 0.33992,0.55 1.04148,1 1.55902,1 0.51754,0 0.94098,-0.45 0.94098,-1 z m 3,-6 c 0,-0.55 -0.19844,-1 -0.44098,-1 -0.24254,0 -0.7191,0.45 -1.05902,1 -0.33992,0.55 -0.14148,1 0.44098,1 0.58246,0 1.05902,-0.45 1.05902,-1 z m -4.49,-87.9917 c 1.21953,1.01212 1.49,0.93136 1.49,-0.44487 0,-0.92481 -0.41891,-1.42257 -0.9309,-1.10614 -0.512,0.31644 -1.21809,0.11065 -1.5691,-0.45729 -1.06179,-1.71801 -2.50408,-0.0553 -2.43661,2.80902 l 0.0634,2.69098 0.94662,-2.36414 c 0.78288,-1.95525 1.20432,-2.15027 2.43661,-1.12756 z M 66.649772,655.13061 c -1.10181,-1.10181 -1.57143,-3.48768 -1.57143,-7.98357 0,-7.72287 -2.32208,-33.83975 -5.01858,-56.445 -1.082526,-9.075 -1.971197,-19.17291 -1.974824,-22.4398 -0.0036,-3.2669 -0.448074,-8.4419 -0.987659,-11.5 -0.539585,-3.05811 -1.683941,-13.4352 -2.543013,-23.0602 -2.260637,-25.32806 -2.629433,-28.00041 -3.863604,-27.99627 -1.175085,0.004 -9.531978,9.97071 -11.470789,13.68053 -1.78309,3.41185 -1.368185,8.08908 0.920593,10.37786 l 2.062122,2.06213 -2.076556,3.5195 c -1.933359,3.27679 -2.040556,4.59998 -1.554506,19.18787 1.655237,49.67888 2.538419,90.49345 1.995211,92.20495 -0.778382,2.45246 -4.097613,2.56213 -5.373803,0.17755 -0.525677,-0.98224 -1.008619,-10.76974 -1.073204,-21.75 -0.06458,-10.98027 -0.537038,-32.11412 -1.049897,-46.96412 -0.512859,-14.85 -0.94575,-30.9375 -0.961981,-35.75 l -0.02951,-8.75 h -2.931906 c -2.110822,0 -3.525162,0.83315 -5.050291,2.975 -2.698063,3.78908 -8.963708,5.70426 -13.081599,3.99857 -1.6877403,-0.69908 -4.4519933,-0.89327 -6.8788913,-0.48325 l -4.05731295,0.68548 0.07895,-30.3379 c 0.05518,-21.20374 0.376196,-29.52539 1.06621995,-27.63924 1.071939,2.93009 2.439944,3.2835 16.0165913,4.13772 l 6.661757,0.41915 4.275875,-4.3568 c 2.351731,-2.39624 3.948974,-4.6837 3.549429,-5.08324 -0.399545,-0.39955 -4.983979,-0.91266 -10.187632,-1.14025 -5.203653,-0.22759 -9.461187,-0.79887 -9.461187,-1.26952 0,-0.47065 1.2375,-0.65566 2.75,-0.41115 3.214377,0.51964 37.976494,2.03044 40.388713,1.75533 1.279761,-0.14595 1.792711,1.06573 2.341751,5.53161 0.386671,3.14517 1.408991,6.50875 2.271823,7.47462 0.862831,0.96587 1.267428,2.05749 0.899103,2.42581 -0.368326,0.36833 0.226991,1.62415 1.322925,2.79072 1.138244,1.21161 3.069954,6.38861 4.505264,12.07419 7.5077,29.73959 16.52042,67.23806 16.52042,68.73513 0,2.31252 -2.67905,2.18624 -3.9487,-0.18613 -0.56049,-1.04728 -4.16208,-14.20978 -8.00353,-29.25 -8.62687,-33.77627 -9.399799,-36.40972 -10.591744,-36.08702 -0.525814,0.14235 -0.998624,2.20972 -1.05069,4.59415 -0.05206,2.38443 -0.459094,4.92499 -0.904508,5.64568 -0.497138,0.80439 -0.417045,1.06759 0.207425,0.68165 0.616835,-0.38122 1.313976,1.62454 1.771031,5.09549 0.837815,6.36251 0.857535,7.13953 0.487883,19.2242 -0.198139,6.47755 0.346304,10.87936 2.288193,18.5 1.65343,6.48865 2.76156,14.21362 3.15586,22 0.33422,6.6 0.82228,13.575 1.08459,15.5 0.26231,1.925 0.92573,7.775 1.47428,13 0.54855,5.225 1.68866,15.97965 2.53358,23.89923 1.42574,13.36372 1.41576,14.53232 -0.13872,16.25 -2.04328,2.2578 -2.77257,2.3003 -4.79352,0.27934 z M 49.704057,486.23503 c 0.30962,-0.80686 0.147749,-2.71936 -0.359712,-4.25 -1.420447,-4.28446 -4.763866,-4.17921 -9.345032,0.29418 -2.110975,2.06131 -3.605216,4.12471 -3.320536,4.58534 0.28468,0.46062 3.205165,0.83749 6.489968,0.83749 4.326591,0 6.127496,-0.40426 6.535312,-1.46701 z m 57.509893,57.21701 c -0.67313,-15.5375 -1.4084,-29.825 -1.63393,-31.75 -0.57873,-4.93974 -2.41509,-34.1743 -3.50124,-55.73933 -0.85455,-16.96674 -1.78954,-22.26067 -3.931558,-22.26067 -0.47341,0 -2.69187,2.1375 -4.9299,4.75 -2.23803,2.6125 -4.08486,4.21009 -4.10406,3.55021 -0.0515,-1.7698 20.340718,-22.67329 20.793528,-21.31486 0.53998,1.61995 -3.87915,6.09666 -5.22381,5.29187 -0.77119,-0.46156 -0.7636,-0.22586 0.0251,0.78082 1.35847,1.73383 2.83491,22.58804 4.88099,68.94196 0.83756,18.975 1.96527,42.26077 2.50603,51.74617 1.40904,24.71509 1.43447,24.25383 -1.33701,24.25383 h -2.32025 z m -5.63561,-111.75 c 0.33992,-0.55 0.14148,-1 -0.44098,-1 -0.58246,0 -1.05902,0.45 -1.05902,1 0,0.55 0.19844,1 0.44098,1 0.24254,0 0.7191,-0.45 1.05902,-1 z m 65.5,109.38856 c -2.475,-0.8127 -5.4,-1.62525 -6.5,-1.80566 -6.43559,-1.0555 -20.5,-4.87577 -20.5,-5.56835 0,-0.45035 2.09652,-0.18785 4.65893,0.58332 6.85206,2.06216 8.71927,1.56782 2.46547,-0.65273 -7.77609,-2.76108 -8.29466,-3.39979 -7.99595,-9.84835 0.24695,-5.33121 0.12636,-5.62789 -3.03908,-7.4766 -3.09628,-1.80833 -3.25696,-2.17065 -2.64894,-5.97303 0.35601,-2.22636 1.13581,-4.63657 1.7329,-5.35601 0.60627,-0.73051 0.81494,-2.73935 0.47261,-4.54961 -0.33715,-1.78285 -1.29955,-6.84154 -2.13866,-11.24154 -2.79988,-14.68155 -2.9961,-25.80094 -0.66173,-37.5 3.52685,-17.67537 4.45526,-27.68046 3.80455,-41 -0.33587,-6.875 -0.91109,-13.81118 -1.27827,-15.41373 -0.57846,-2.52473 -0.42666,-2.82129 1.13695,-2.22127 6.11964,2.34832 43.14008,1.38614 45.71437,-1.18815 0.48764,-0.48764 1.12737,-3.08943 1.42161,-5.78174 0.67699,-6.19448 1.07466,-6.57526 1.82481,-1.74729 0.3292,2.1187 1.52445,7.00218 2.65612,10.85218 1.98087,6.73903 1.99778,7.31411 0.45365,15.42528 -0.88216,4.63391 -2.04961,14.66188 -2.59432,22.28439 -1.17911,16.49984 -1.95607,20.34919 -5.24978,26.00913 -1.37026,2.35466 -3.6308,7.4312 -5.02342,11.2812 -1.39263,3.85 -4.40665,11.5 -6.69783,17 -6.19729,14.87671 -7.01399,17.38693 -7.01399,21.55834 0,2.74449 0.48838,3.96398 1.75,4.36982 0.9625,0.30961 3.775,2.31599 6.25,4.45861 l 4.5,3.89569 -3.70717,1.77356 c -3.75157,1.7948 -4.30365,3.6201 -0.89648,2.96394 1.18776,-0.22874 1.80924,0.19292 1.72897,1.17308 -0.0689,0.8416 0.77468,2.02732 1.87468,2.63493 6.18477,3.4163 12.5,7.82851 12.5,8.73327 0,1.60124 -6.49232,3.9466 -10.71788,3.87186 -2.08017,-0.0368 -5.80712,-0.73183 -8.28212,-1.54454 z m -12.46999,-12.43712 c 0.44366,-0.71786 1.08931,-0.68234 2.04718,0.11263 1.10198,0.91456 1.5395,0.76558 2.05999,-0.70145 0.36346,-1.02444 1.55984,-2.86193 2.65861,-4.0833 1.55815,-1.73203 1.74249,-2.52826 0.83774,-3.61843 -0.89546,-1.07896 -2.22772,-1.19826 -5.84158,-0.52312 -2.57486,0.48104 -4.9314,1.26117 -5.23676,1.73364 -0.30535,0.47246 -1.56769,1.175 -2.80519,1.5612 -2.98907,0.93281 -2.82434,1.64174 1.0032,4.31739 3.62237,2.53223 4.35171,2.69829 5.27681,1.20144 z m -6.53001,-3.95144 c 0,-0.55 0.45,-1 1,-1 0.55,0 1,0.45 1,1 0,0.55 -0.45,1 -1,1 -0.55,0 -1,-0.45 -1,-1 z m 217.59383,-42.22848 c -11.76509,-6.19972 -24.94281,-19.39848 -36.46331,-36.52152 -2.31277,-3.4375 -4.86327,-6.25 -5.66778,-6.25 -3.26696,0 -1.04103,-2.08474 6.53726,-6.12263 l 8,-4.26257 v -16.7423 c 0,-9.20827 -0.43886,-17.8966 -0.97525,-19.3074 -0.53639,-1.41081 -0.64889,-2.54708 -0.25,-2.52505 0.64398,0.0356 11.13369,14.47511 13.73307,18.90418 0.5543,0.94447 1.59749,1.52067 2.31819,1.28043 0.82852,-0.27617 1.19337,0.24573 0.99218,1.41928 -0.28584,1.66738 0.42255,1.85606 6.96867,1.85606 5.05745,0 7.54333,-0.41518 8.12515,-1.35701 0.52708,-0.85323 1.62744,-1.10655 2.96394,-0.68236 2.11764,0.67211 2.12554,0.81374 2.09829,37.60701 -0.0151,20.3128 -0.12791,36.91835 -0.2508,36.90123 -0.12289,-0.0171 -3.78121,-1.90593 -8.12961,-4.19735 z m -28.23203,-38.49602 c -0.50802,-1.94263 -3.11402,-3.85662 -4.01893,-2.9517 -0.20398,0.20398 0.58673,1.58827 1.75713,3.0762 2.39853,3.04923 3.08191,3.01162 2.2618,-0.1245 z m -0.3618,-5.7755 c 0,-0.99331 -0.99344,-1.5 -2.94098,-1.5 -3.12451,0 -4.91796,1.48791 -2.81525,2.33564 2.6839,1.08205 5.75623,0.63603 5.75623,-0.83564 z m 8.80687,-13.02646 c -0.30789,-0.30789 -0.86705,0.24711 -1.24258,1.23333 -0.54268,1.4252 -0.42782,1.54006 0.5598,0.5598 0.68342,-0.67834 0.99067,-1.48524 0.68278,-1.79313 z M 0.07834275,473.64247 v -3.05957 l 8.24999995,0.72205 c 4.5375003,0.39713 9.2460123,0.69756 10.4633613,0.66764 1.961653,-0.0482 2.043774,0.11517 0.722121,1.43683 -1.258852,1.25885 -1.750562,1.28097 -3.155319,0.14193 -1.398336,-1.13383 -1.53358,-1.13258 -0.846892,0.008 0.611816,1.01607 0.332731,1.20338 -1.110498,0.74531 -1.060228,-0.3365 -2.804081,0.051 -3.87523,0.86107 -1.0711493,0.8099 -3.8600433,1.48701 -6.1975433,1.50451 -4.08087395,0.0305 -4.24999995,-0.09 -4.24999995,-3.02777 z m 37.70884925,1.43509 c -1.458204,-1.45821 -0.616453,-2.23913 2.323452,-2.15554 1.721929,0.049 2.876459,0.56023 2.671672,1.18312 -0.426647,1.2977 -3.978403,1.98914 -4.995124,0.97242 z m 6.291151,0.15966 c 0,-0.25565 0.9,-0.94648 2,-1.53518 1.596299,-0.85431 2,-0.76049 2,0.46482 0,0.86851 -0.868517,1.53518 -2,1.53518 -1.1,0 -2,-0.20917 -2,-0.46482 z m 7,-0.47616 c 0,-0.51754 0.444846,-1.21592 0.988546,-1.55194 0.56686,-0.35034 0.734507,0.0511 0.393011,0.94098 -0.664791,1.73242 -1.381557,2.04939 -1.381557,0.61096 z m 14.286779,-8.55902 c 0.35106,-2.40149 2.63954,-6.50366 2.68281,-4.80902 0.0167,0.65504 -0.42693,1.47364 -0.9859,1.8191 -0.55897,0.34546 -0.81366,0.95601 -0.56598,1.35676 0.24768,0.40076 0.0288,1.38217 -0.48649,2.18091 -0.73524,1.13977 -0.87391,1.02192 -0.64444,-0.54775 z m 3.21322,-2.5 c 0.33992,-0.55 0.81648,-1 1.05902,-1 0.24254,0 0.44098,0.45 0.44098,1 0,0.55 -0.47656,1 -1.05902,1 -0.58246,0 -0.7809,-0.45 -0.44098,-1 z m 1.48007,-4.96276 c 0.67723,-1.26541 1.63624,-1.73797 2.69923,-1.33006 1.08924,0.41798 1.40857,0.24402 0.94096,-0.5126 -0.40584,-0.65666 0.65089,-2.32908 2.47682,-3.91994 1.75156,-1.52605 4.47126,-3.97752 6.04379,-5.44772 1.57252,-1.47019 2.85913,-2.43966 2.85913,-2.15437 0,1.09242 -4.24364,6.41714 -4.72814,5.93264 -0.28047,-0.28047 -1.23986,0.21996 -2.13198,1.11207 -1.27043,1.27043 -1.33515,1.71765 -0.29857,2.06318 1.35674,0.45224 -4.64251,4.80456 -6.09131,4.4191 -0.4125,-0.10975 -0.75,0.25046 -0.75,0.80046 0,0.55 -0.46583,1 -1.03518,1 -0.7084,0 -0.70358,-0.6196 0.0153,-1.96276 z m 16.51993,-15.03724 c 0.33992,-0.55 0.81648,-1 1.05902,-1 0.24254,0 0.44098,0.45 0.44098,1 0,0.55 -0.47656,1 -1.05902,1 -0.58246,0 -0.7809,-0.45 -0.44098,-1 z M 16.578343,425.19695 c -0.55,-0.19096 -4.4875,-0.64382 -8.7500003,-1.00637 -7.22959495,-0.61492 -7.74999995,-0.81365 -7.74999995,-2.95953 v -2.30035 l 7.18237095,1.88567 c 3.9503043,1.03712 9.7737463,1.88567 12.9409833,1.88567 5.961066,0 8.533623,1.32248 4.615399,2.37266 -2.376875,0.63705 -6.576519,0.69937 -8.238753,0.12225 z M 365.89084,412.01893 c 0.72187,-0.28887 1.58438,-0.25335 1.91667,0.0789 0.33229,0.33229 -0.25834,0.56864 -1.3125,0.52522 -1.16495,-0.048 -1.4019,-0.28494 -0.60417,-0.60416 z m -80.0625,-73.97917 c 0.6875,-0.27741 1.8125,-0.27741 2.5,0 0.6875,0.27741 0.125,0.50439 -1.25,0.50439 -1.375,0 -1.9375,-0.22698 -1.25,-0.50439 z m 34.25,-1.34455 c 1.30275,-0.86257 1.30961,-1.11563 0.0521,-1.92446 -2.2556,-1.45086 2.23152,-2.21539 10.95963,-1.86733 6.72201,0.26806 7.48822,0.50326 7.48822,2.29862 0,1.85046 -0.74772,2.01818 -10,2.24317 -6.88751,0.16748 -9.53313,-0.066 -8.5,-0.75 z m -162.57062,-5.58178 c -2.67768,-1.42373 -7.5822,-4.72881 -10.89894,-7.34462 -3.31674,-2.6158 -6.81584,-5.18014 -7.77578,-5.69853 -1.53449,-0.82867 -1.35328,-1.17196 1.5,-2.84167 2.53683,-1.48452 2.96184,-1.55043 1.94678,-0.30188 -1.06474,1.30966 -1.06474,1.74357 0,2.40985 0.71421,0.44693 1.97356,0.82449 2.79856,0.83903 0.825,0.0145 1.90855,0.92643 2.40789,2.02643 1.20341,2.65103 14.11839,9.07417 17.38475,8.64613 1.39506,-0.18281 3.16957,-0.96548 3.94335,-1.73926 0.77378,-0.77378 2.04972,-1.40687 2.83544,-1.40687 0.78571,0 1.42857,-0.48037 1.42857,-1.0675 0,-1.71026 10.27881,-11.87822 11.3429,-11.22058 0.53136,0.32841 0.6822,0.13771 0.33519,-0.42376 -0.34701,-0.56148 0.25846,-1.82575 1.34549,-2.8095 1.90487,-1.72389 1.97642,-1.71748 1.97642,0.17711 0,1.71895 -6.29287,9.6066 -12.59621,15.78843 -8.77013,8.60106 -10.32955,9.032 -17.97441,4.96719 z m 12.57062,-18.84102 c 0,-0.275 0.9,-0.98167 2,-1.57037 1.1,-0.5887 2,-0.84537 2,-0.57037 0,0.275 -0.9,0.98167 -2,1.57037 -1.1,0.5887 -2,0.84537 -2,0.57037 z m 31,-3.02068 c 0,-0.79767 -0.7875,-1.89719 -1.75,-2.44338 -1.66667,-0.94579 -1.66667,-1.07741 0,-2.76398 1.22857,-1.24324 1.75,-1.37608 1.75,-0.44583 0,0.74901 0.85501,0.29875 1.96673,-1.03572 2.28971,-2.74847 2.58986,-1.40512 0.98069,4.38922 -1.01904,3.66939 -2.94742,5.17399 -2.94742,2.29969 z m -25.44236,-0.64295 c 0.30822,-0.49871 1.18648,-0.90674 1.95169,-0.90674 0.76521,0 1.75115,-0.5625 2.19098,-1.25 0.43983,-0.6875 1.69969,-1.90781 2.79969,-2.71181 1.1,-0.80399 0.71726,-0.0571 -0.85054,1.65966 -2.58434,2.82997 -7.43763,5.38646 -6.09182,3.20889 z m 30.63731,-4.40674 c 0.0204,-1.65 0.2445,-2.20394 0.49804,-1.23097 0.25354,0.97297 0.23687,2.32297 -0.0371,3 -0.27393,0.67703 -0.48137,-0.11903 -0.46099,-1.76903 z m -48.19495,-0.5 c -0.63306,-1.18288 -0.68148,-2 -0.11852,-2 0.52352,0 1.15275,0.5625 1.39828,1.25 0.24554,0.6875 0.78311,0.93742 1.19462,0.55538 0.4115,-0.38203 -0.4926,-1.84453 -2.00912,-3.25 -2.58526,-2.39593 -2.6256,-2.55538 -0.64647,-2.55538 2.29944,0 4.18121,2.67074 4.18121,5.93426 0,2.64216 -2.59829,2.68486 -4,0.0657 z m 35.18975,0.38168 c 0.89008,-0.89008 2.11885,-1.30899 2.7306,-0.93091 1.62786,1.00608 0.29995,2.54923 -2.19365,2.54923 -1.98583,0 -2.02805,-0.12723 -0.53695,-1.61832 z m -38.01117,-24.69743 c -1.76756,-1.82366 -2.96313,-3.56636 -2.65683,-3.87267 0.30631,-0.3063 -0.58578,-3.59279 -1.98242,-7.30331 -1.39663,-3.71051 -2.53933,-7.83194 -2.53933,-9.15871 0,-1.32678 -0.675,-2.67135 -1.5,-2.98793 -2.23653,-0.85824 -1.81323,-2.2563 0.5,-1.65138 1.37912,0.36065 2,1.36402 2,3.23207 0,1.59669 1.02652,3.67342 2.5,5.05768 1.375,1.29175 2.5,2.89343 2.5,3.5593 0,1.93798 4.8807,4.59596 7.8117,4.25418 3.50902,-0.40918 3.67228,2.36081 0.1883,3.19479 -2.17461,0.52055 -2.5,1.14483 -2.5,4.79638 0,2.30886 -0.24922,4.19735 -0.55383,4.19664 -0.30461,-7.1e-4 -2.00002,-1.49338 -3.76759,-3.31704 z m 8.9898,-10.58018 c -0.67986,-0.42018 -0.94773,-1.51549 -0.59526,-2.43402 0.42856,-1.11682 0.12807,-1.67005 -0.90711,-1.67005 -0.85139,0 -1.86095,-0.5064 -2.24347,-1.12534 -0.48219,-0.78019 0.41066,-0.9962 2.91109,-0.70429 3.364,0.39273 3.50138,0.3048 2.04252,-1.30722 -0.86023,-0.95055 -2.30928,-1.49117 -3.22011,-1.20138 -0.97463,0.31009 -1.24457,0.17948 -0.65604,-0.31744 1.71772,-1.45032 1.61279,-3.37549 -0.3357,-6.15947 -1.03352,-1.47667 -1.69989,-3.19006 -1.48082,-3.80754 0.42307,-1.19247 -2.70311,-2.34103 -6.43348,-2.36367 -1.2375,-0.008 -2.25,-0.38761 -2.25,-0.84467 0,-0.45706 -1.125,-1.4331 -2.5,-2.16898 -1.375,-0.73588 -2.5,-1.91574 -2.5,-2.62193 0,-2.71491 2.50575,-6.58825 5.14503,-7.95307 6.2107,-3.21168 18.2431,-0.25809 20.67282,5.07456 1.68989,3.70891 0.90446,4.15096 -2.75077,1.5482 -1.67644,-1.19373 -4.62735,-2.4267 -6.55758,-2.73993 -3.37287,-0.54734 -3.5095,-0.45025 -3.5095,2.49394 0,2.26646 -0.56531,3.24288 -2.17292,3.75311 l -2.17292,0.68966 2.42292,1.30004 c 1.3326,0.71502 3.54792,1.08058 4.92292,0.81236 1.72154,-0.33582 4.01155,0.51769 7.35434,2.74104 4.57887,3.04549 4.8221,3.42734 4.2863,6.72906 -0.31241,1.92519 -1.09061,3.98918 -1.72933,4.58665 -0.854,0.79884 -1.03168,0.68937 -0.67144,-0.41369 0.26943,-0.825 0.10613,-2.24773 -0.36289,-3.16163 -0.71138,-1.38615 -1.26794,-1.46905 -3.35707,-0.5 -3.02943,1.40521 -3.26004,2.66163 -0.48853,2.66163 2.80805,0 3.40519,2.25509 1.54809,5.84633 -1.86892,3.61408 -2.76442,4.27543 -4.41109,3.25774 z m 4.64346,-14.36555 c 0.19381,-1.00637 -0.27621,-1.73852 -1.11607,-1.73852 -1.78612,0 -3.93376,2.42868 -2.98586,3.37658 1.19682,1.19681 3.75253,0.17621 4.10193,-1.63806 z m -17.73289,-2.32185 c 0.048,-1.16495 0.28494,-1.4019 0.60416,-0.60417 0.28887,0.72187 0.25335,1.58437 -0.0789,1.91667 -0.3323,0.33229 -0.56864,-0.25834 -0.52522,-1.3125 z m 33.11402,-78.67617 c 0.28806,-3.97853 0.50781,-4.25986 3.55703,-4.55386 3.65854,-0.35275 4.27733,1.15484 1.25,3.04543 -1.1,0.68696 -2,1.99263 -2,2.90149 0,0.90885 -0.70067,1.92133 -1.55703,2.24995 -1.28481,0.49303 -1.50336,-0.14389 -1.25,-3.64301 z"
       id="path3668" />
    <path
       style="display:inline;fill:#f5f5f7;fill-opacity:1;stroke:#f5f5f7;stroke-opacity:1"
       d="m 189.68654,290.66853 c 0.40925,-0.20462 1.43237,-0.20462 1.22775,-0.61387 -0.20463,-0.40925 -1.50228,0.97992 -1.22775,0.61387 0.56596,-0.75461 1.48156,-1.17462 2.14855,-1.84161 0.0724,-0.0723 -0.0723,-0.23459 0,-0.30694 0.0724,-0.0723 0.23459,0.0724 0.30694,0 0.2867,-0.2867 0.32717,-1.24798 0.61387,-1.53468 0.15347,-0.15347 0.46041,-0.15347 0.61387,-0.30694 0.29838,-0.29837 0.47574,-1.31214 0.92081,-1.53468 0.25289,-0.12644 0.43145,-0.12451 0.61388,-0.30693 0.0723,-0.0723 -0.0724,-0.23459 0,-0.30694 0.13855,-0.13855 1.45872,-0.68983 1.53468,-0.61387 0.11959,0.11959 0,1.04044 0,1.22774"
       id="path16529"
       inkscape:label="finger" />
    <path
       style="display:inline;fill:#f5f5f7;fill-opacity:1;stroke:#f5f5f7;stroke-opacity:1"
       d="m 193.06284,291.28241 c 0.50727,-0.0675 1.99642,0.0774 2.45549,0.30693 0.29934,0.14968 0.18888,1.1097 0.30693,1.22775 0.0724,0.0723 0.23459,-0.0724 0.30694,0 0.0724,0.0723 -0.0457,0.21542 0,0.30693 0.30694,0.61388 1.22774,0.92081 1.53468,1.53468 0.0458,0.0915 -0.0723,0.2346 0,0.30694 0.10231,0.10231 0.8185,0.20463 0.92081,0.30694 0.0724,0.0723 -0.0724,0.23459 0,0.30693 0.0724,0.0723 0.23459,-0.0723 0.30694,0 0.232,0.23201 0.13315,0.61388 0.61387,0.61388"
       id="path16531"
       inkscape:label="hand2" />
    <path
       style="display:inline;fill:#f5f5f7;fill-opacity:1;stroke:#f5f5f7;stroke-opacity:1"
       d="m 200.12237,298.95581 c 0,0.40925 0.0803,0.82644 0,1.22775 -0.0567,0.28376 -0.48446,0.35504 -0.61387,0.61387 -0.093,0.18602 -0.17832,0.79219 -0.30694,0.92081 -0.14469,0.14469 -0.41975,-0.0647 -0.61387,0 -0.62484,0.20828 -1.31098,0.65549 -1.84162,0.9208 -0.8107,0.40536 -1.6226,1.75422 -2.14855,2.45549 -0.22134,0.29512 -0.4489,0.59087 -0.61387,0.92081 -0.0458,0.0915 0,0.40925 0,0.30694 0,-0.20463 0,-0.40925 0,-0.61387 0,-0.10232 0.0457,0.21542 0,0.30693 -0.2253,0.45059 -3.46426,1.22775 -0.92081,1.22775"
       id="path16533"
       inkscape:label="hand" />
  </g>
</svg>
