<?xml version="1.0" encoding="UTF-8" standalone="no"?>
<svg
   viewBox="0 0 128 128"
   version="1.1"
   id="svg279"
   sodipodi:docname="css3.svg"
   inkscape:version="1.2.2 (b0a84865, 2022-12-01)"
   xmlns:inkscape="http://www.inkscape.org/namespaces/inkscape"
   xmlns:sodipodi="http://sodipodi.sourceforge.net/DTD/sodipodi-0.dtd"
   xmlns="http://www.w3.org/2000/svg"
   xmlns:svg="http://www.w3.org/2000/svg">
  <defs
     id="defs283" />
  <sodipodi:namedview
     id="namedview281"
     pagecolor="#ffffff"
     bordercolor="#000000"
     borderopacity="0.25"
     inkscape:showpageshadow="2"
     inkscape:pageopacity="0.0"
     inkscape:pagecheckerboard="0"
     inkscape:deskcolor="#d1d1d1"
     showgrid="false"
     inkscape:zoom="1.84375"
     inkscape:cx="-17.627119"
     inkscape:cy="64"
     inkscape:window-width="1440"
     inkscape:window-height="900"
     inkscape:window-x="0"
     inkscape:window-y="0"
     inkscape:window-maximized="0"
     inkscape:current-layer="svg279" />
  <path
     fill="#1572B6"
     d="M18.814 114.123L8.76 1.352h110.48l-10.064 112.754-45.243 12.543-45.119-12.526z"
     id="path267"
     style="fill:#ffffff;fill-opacity:1" />
  <path
     fill="#33A9DC"
     d="M64.001 117.062l36.559-10.136 8.601-96.354h-45.16v106.49z"
     id="path269"
     style="fill:#e5e5e5;fill-opacity:1" />
  <path
     fill="#fff"
     d="M64.001 51.429h18.302l1.264-14.163H64.001V23.435h34.682l-.332 3.711-3.4 38.114h-30.95V51.429z"
     id="path271"
     style="fill:#0d0d0d;fill-opacity:1" />
  <path
     fill="#EBEBEB"
     d="M64.083 87.349l-.061.018-15.403-4.159-.985-11.031H33.752l1.937 21.717 28.331 7.863.063-.018v-14.39z"
     id="path273"
     style="fill:#333333;fill-opacity:1" />
  <path
     fill="#fff"
     d="M81.127 64.675l-1.666 18.522-15.426 4.164v14.39l28.354-7.858.208-2.337 2.406-26.881H81.127z"
     id="path275"
     style="fill:#0d0d0d;fill-opacity:1" />
  <path
     fill="#EBEBEB"
     d="M64.048 23.435v13.831H30.64l-.277-3.108-.63-7.012-.331-3.711h34.646zm-.047 27.996v13.831H48.792l-.277-3.108-.631-7.012-.33-3.711h16.447z"
     id="path277"
     style="fill:#333333;fill-opacity:1" />
</svg>
