<?xml version="1.0" encoding="UTF-8" standalone="no"?>
<!-- Created with Inkscape (http://www.inkscape.org/) -->

<svg
   width="48"
   height="48"
   viewBox="0 0 12.699999 12.699999"
   version="1.1"
   id="svg5"
   xmlns="http://www.w3.org/2000/svg"
   xmlns:svg="http://www.w3.org/2000/svg">
  <defs
     id="defs2" />
  <g
     id="layer1">
    <path
       id="rect3702"
       style="fill:#121212;fill-opacity:1;stroke:#ffffff;stroke-width:0;stroke-opacity:0.0207254"
       d="M 12.699999,0.41639437 V 12.283603 c 0,0.230683 -0.185712,0.416396 -0.416394,0.416396 H 0.4163931 C 0.1857121,12.699999 9.9999999e-8,12.514286 9.9999999e-8,12.283603 V 0.41639437 C 9.9999999e-8,0.18571251 0.1857121,1.0340783e-6 0.4163931,1.0340783e-6 H 12.283605 c 0.230682,0 0.416394,0.1857114759217 0.416394,0.4163933359217 z" />
    <path
       id="path11853"
       style="fill:none;stroke:#ffffff;stroke-width:0.789511;stroke-dasharray:none"
       d="M 3.3072911,5.1614943 A 1.5896195,1.5896194 0 0 1 1.7176721,3.5718748 1.5896195,1.5896194 0 0 1 3.3072911,1.9822554 1.5896195,1.5896194 0 0 1 4.8969109,3.5718748 1.5896195,1.5896194 0 0 1 3.3072911,5.1614943 Z" />
    <path
       id="path11853-7"
       style="fill:#ffffff;stroke:#ffffff;stroke-width:0;stroke-opacity:0.0207254"
       d="M 9.9218739,5.5562504 A 1.9843752,1.984375 0 0 1 7.9374999,3.5718755 1.9843752,1.984375 0 0 1 9.9218739,1.5875004 1.9843752,1.984375 0 0 1 11.906249,3.5718755 1.9843752,1.984375 0 0 1 9.9218739,5.5562504 Z" />
    <path
       id="rect12241"
       style="fill:#ffffff;stroke:#ffffff;stroke-width:0;stroke-opacity:0.0207254"
       d="M 12.699999,6.6145833 V 9.2604154 H 1.2606866e-7 V 6.6145833 Z" />
    <path
       id="rect12243"
       style="fill:#ffffff;stroke:#ffffff;stroke-width:0;stroke-opacity:0.0207254"
       d="M 8.7312488,7.1437499 V 12.699998 H 6.6145833 V 7.1437499 Z" />
  </g>
</svg>
