<?xml version="1.0" encoding="UTF-8" standalone="no"?>
<!-- Created with Inkscape (http://www.inkscape.org/) -->

<svg
   version="1.1"
   id="svg1805"
   width="258.66666"
   height="258.66666"
   viewBox="0 0 258.66666 258.66666"
   sodipodi:docname="universita-commerciale-seeklogo.eps"
   inkscape:version="1.2.2 (b0a84865, 2022-12-01)"
   inkscape:dataloss="true"
   xmlns:inkscape="http://www.inkscape.org/namespaces/inkscape"
   xmlns:sodipodi="http://sodipodi.sourceforge.net/DTD/sodipodi-0.dtd"
   xmlns="http://www.w3.org/2000/svg"
   xmlns:svg="http://www.w3.org/2000/svg">
  <defs
     id="defs1809" />
  <sodipodi:namedview
     id="namedview1807"
     pagecolor="#ffffff"
     bordercolor="#000000"
     borderopacity="0.25"
     inkscape:showpageshadow="2"
     inkscape:pageopacity="0.0"
     inkscape:pagecheckerboard="0"
     inkscape:deskcolor="#d1d1d1"
     showgrid="false"
     inkscape:zoom="1.8215835"
     inkscape:cx="99.638585"
     inkscape:cy="172.92647"
     inkscape:window-width="1440"
     inkscape:window-height="900"
     inkscape:window-x="0"
     inkscape:window-y="0"
     inkscape:window-maximized="0"
     inkscape:current-layer="g1813" />
  <g
     id="g1813"
     inkscape:groupmode="layer"
     inkscape:label="Page 1"
     transform="matrix(1.3333333,0,0,-1.3333333,0,258.66667)">
    <g
       id="g1815"
       transform="scale(0.1)">
      <path
         d="m 765.664,1813.92 c 0,-9.79 9.793,-19.58 9.793,-24.47 -9.793,4.89 -19.582,14.68 -29.375,19.58 9.793,4.89 14.688,4.89 19.582,4.89"
         style="fill:#f5f5f7;fill-opacity:1;fill-rule:evenodd;stroke:none"
         id="path1819" />
      <path
         d="m 1309.06,1216.67 v 0 0"
         style="fill:#f5f5f7;fill-opacity:1;fill-rule:evenodd;stroke:none"
         id="path1821" />
      <path
         d="m 1274.8,962.105 c -9.8,-14.687 -24.48,-34.269 -39.17,-44.058 0,19.582 0,39.164 -14.68,48.953 l 34.26,34.27 c 14.69,-4.895 19.59,-24.477 19.59,-39.165"
         style="fill:#f5f5f7;fill-opacity:1;fill-rule:evenodd;stroke:none"
         id="path1823" />
      <path
         d="m 1519.57,913.148 c 0,-4.894 0,-9.789 -4.89,-14.683 -4.9,-4.895 -9.8,-4.895 -14.69,0 -4.9,0 -9.79,4.894 -9.79,9.789 0,4.894 4.89,14.687 9.79,14.687 4.89,0 14.69,0 19.58,-9.793"
         style="fill:#f5f5f7;fill-opacity:1;fill-rule:evenodd;stroke:none"
         id="path1825" />
      <path
         d="m 197.785,908.254 c 4.899,-4.895 0,-14.684 0,-14.684 -4.894,-9.793 -9.789,-9.793 -14.683,-9.793 -9.793,0 -14.688,4.895 -19.582,14.688 0,9.789 4.894,14.683 14.683,19.582 9.793,4.894 19.582,-4.899 19.582,-9.793"
         style="fill:#f5f5f7;fill-opacity:1;fill-rule:evenodd;stroke:none"
         id="path1827" />
      <path
         d="m 1764.34,859.301 c 0,-4.895 0,-9.793 -4.89,-14.688 -4.9,-4.894 -9.79,-9.789 -14.69,-9.789 -9.79,4.895 -14.68,9.789 -14.68,14.684 -4.9,4.898 -4.9,14.687 0,19.582 4.89,0 4.89,4.898 14.68,4.898 4.9,0 14.69,-4.898 19.58,-14.687"
         style="fill:#f5f5f7;fill-opacity:1;fill-rule:evenodd;stroke:none"
         id="path1829" />
      <path
         d="m 354.441,947.418 c 4.899,-4.895 4.899,-14.688 0,-19.582 0,-4.895 -9.789,-4.895 -14.683,-9.789 -4.895,4.894 -14.688,4.894 -14.688,14.683 -4.894,9.793 -4.894,14.688 0,19.583 9.793,9.792 29.371,4.898 29.371,-4.895 z m -14.683,4.895 c -9.793,-4.895 -9.793,-9.79 -9.793,-14.684 0,-4.899 9.793,-9.793 14.687,-9.793 4.895,0 4.895,9.793 4.895,14.687 0,4.895 -4.895,9.79 -9.789,9.79"
         style="fill:#f5f5f7;fill-opacity:1;fill-rule:evenodd;stroke:none"
         id="path1831" />
      <path
         d="m 741.188,379.543 c 0,-4.895 0,-9.793 -4.895,-19.582 0,-4.895 -9.793,-9.793 -14.688,-4.895 -9.792,0 -14.687,4.895 -14.687,9.789 -4.895,9.793 0,19.583 4.895,24.477 9.792,4.895 24.48,4.895 29.375,-9.789 z m -24.481,4.895 c -4.894,-4.895 -4.894,-9.79 -4.894,-14.688 4.894,-4.895 9.792,-9.789 14.687,-4.895 4.898,0 9.793,4.895 9.793,9.793 -4.895,4.895 -9.793,9.79 -19.586,9.79"
         style="fill:#f5f5f7;fill-opacity:1;fill-rule:evenodd;stroke:none"
         id="path1833" />
      <path
         d="m 540.473,521.512 c 0,-4.895 0,-14.684 0,-14.684 -4.895,-9.793 -9.789,-14.687 -19.582,-14.687 -9.789,0 -14.688,9.789 -19.582,14.687 0,9.789 4.894,19.578 9.793,24.477 14.683,4.894 24.476,0 29.371,-9.793 z m -24.477,0 c -4.894,0 -4.894,-4.895 -4.894,-9.789 4.894,-4.895 9.789,-9.793 14.683,-9.793 4.899,4.898 9.793,9.793 4.899,14.687 0,4.895 -9.793,9.789 -14.688,4.895"
         style="fill:#f5f5f7;fill-opacity:1;fill-rule:evenodd;stroke:none"
         id="path1835" />
      <path
         d="m 403.398,722.227 c 4.895,-4.895 4.895,-14.688 0,-19.582 -4.894,-4.895 -9.793,-9.793 -14.687,-9.793 -4.895,0 -14.688,4.898 -14.688,9.793 -4.894,9.789 -4.894,14.687 0,19.582 4.899,14.687 29.375,14.687 29.375,0 z m -19.582,0 c -4.894,0 -4.894,-4.895 -4.894,-9.793 0,-9.789 9.789,-14.684 14.683,-9.789 4.899,4.894 9.793,9.789 4.899,14.687 0,4.895 -4.899,4.895 -14.688,4.895"
         style="fill:#f5f5f7;fill-opacity:1;fill-rule:evenodd;stroke:none"
         id="path1837" />
      <path
         d="m 393.605,1197.09 c 0,-4.9 0,-14.69 -4.894,-19.58 -4.895,-9.8 -14.688,-9.8 -19.582,-4.9 -9.789,4.9 -9.789,14.69 -9.789,24.48 4.894,4.89 9.789,9.79 14.683,14.68 9.793,0 14.688,-9.79 19.582,-14.68 z m -24.476,0 c 0,0 -4.895,-4.9 0,-9.79 0,-4.9 4.894,-9.79 9.793,-4.9 9.789,0 9.789,9.79 9.789,14.69 -4.895,4.89 -14.688,4.89 -19.582,0"
         style="fill:#f5f5f7;fill-opacity:1;fill-rule:evenodd;stroke:none"
         id="path1839" />
      <path
         d="m 515.996,1407.59 c 0,-4.89 0,-9.79 0,-14.68 -4.894,-4.9 -9.793,-9.79 -19.582,-9.79 -4.894,0 -14.691,4.89 -14.691,9.79 -4.895,9.79 0,24.48 9.797,29.37 9.789,4.9 19.582,-4.89 24.476,-14.69 z m -19.582,4.9 c -4.894,-4.9 -9.793,-4.9 -9.793,-14.69 4.899,-4.89 9.793,-9.79 14.688,-4.89 4.894,0 9.793,4.89 9.793,9.79 -4.899,4.89 -9.793,14.69 -14.688,9.79"
         style="fill:#f5f5f7;fill-opacity:1;fill-rule:evenodd;stroke:none"
         id="path1841" />
      <path
         d="m 731.398,1569.15 c 4.895,-4.9 4.895,-9.79 0,-14.69 -4.898,-4.89 -9.793,-9.79 -19.585,-9.79 -4.895,0 -9.79,4.9 -14.688,9.79 0,4.9 0,9.79 0,19.58 4.898,4.9 9.793,4.9 14.688,9.79 9.792,0 19.585,-4.89 19.585,-14.68 z m -19.585,4.89 c -4.895,-4.89 -4.895,-9.79 -4.895,-14.68 0,-4.9 4.895,-4.9 9.789,-4.9 4.898,0 9.793,4.9 9.793,9.79 0,4.9 -4.895,9.79 -14.687,9.79"
         style="fill:#f5f5f7;fill-opacity:1;fill-rule:evenodd;stroke:none"
         id="path1843" />
      <path
         d="m 981.066,1627.89 c 0,-4.89 0,-14.68 -9.789,-19.58 -4.898,0 -9.793,0 -19.586,0 -4.894,4.9 -4.894,9.79 -4.894,14.69 -4.895,9.79 0,14.68 9.789,19.58 9.793,0 19.586,0 24.48,-14.69 z m -19.582,4.9 c -9.793,0 -9.793,-4.9 -9.793,-14.69 4.895,-4.89 9.793,-4.89 14.688,-4.89 4.898,4.89 9.793,9.79 4.898,14.68 0,4.9 -4.898,4.9 -9.793,4.9"
         style="fill:#f5f5f7;fill-opacity:1;fill-rule:evenodd;stroke:none"
         id="path1845" />
      <path
         d="m 1255.21,1559.36 c 0,-4.9 0,-14.69 0,-19.59 -4.89,-4.89 -9.79,-4.89 -19.58,-4.89 -4.89,0 -9.79,0 -14.68,9.79 -4.9,4.9 0,14.69 4.89,19.58 9.79,9.79 24.48,4.9 29.37,-4.89 z m -19.58,4.89 c -4.89,-4.89 -9.79,-9.79 -9.79,-14.68 4.9,-4.9 9.79,-9.8 14.69,-9.8 9.79,4.9 9.79,9.8 9.79,14.69 -4.9,4.9 -9.79,9.79 -14.69,9.79"
         style="fill:#f5f5f7;fill-opacity:1;fill-rule:evenodd;stroke:none"
         id="path1847" />
      <path
         d="m 1446.14,1412.49 c 0,-4.9 0,-9.79 0,-19.58 -4.9,-4.9 -9.8,-4.9 -19.59,-4.9 -4.89,0 -9.78,4.9 -14.68,9.79 0,4.9 0,14.69 4.9,19.59 0,4.89 4.89,4.89 9.78,4.89 9.79,0 14.69,0 19.59,-9.79 z m -24.48,0 c -4.89,-4.9 -4.89,-14.69 4.89,-19.58 0,0 4.9,0 9.79,4.89 4.9,4.9 4.9,4.9 4.9,9.79 0,9.8 -14.69,9.8 -19.58,4.9"
         style="fill:#f5f5f7;fill-opacity:1;fill-rule:evenodd;stroke:none"
         id="path1849" />
      <path
         d="m 1578.32,1182.4 c 0,-9.79 0,-14.69 -4.9,-19.58 -4.9,-9.79 -14.69,-9.79 -19.58,-4.89 -9.79,0 -9.79,9.78 -14.69,14.68 0,9.79 4.9,14.69 14.69,19.58 9.79,4.9 19.58,0 24.48,-9.79 z m -19.59,0 c -9.79,0 -9.79,-4.89 -9.79,-14.69 4.9,-4.89 9.79,-4.89 14.69,-4.89 4.89,4.89 9.79,9.79 9.79,14.69 -4.9,4.89 -9.79,9.79 -14.69,4.89"
         style="fill:#f5f5f7;fill-opacity:1;fill-rule:evenodd;stroke:none"
         id="path1851" />
      <path
         d="m 1602.79,927.836 c 4.9,-4.895 4.9,-14.688 0,-19.582 -4.89,-4.895 -9.79,-9.789 -14.68,-9.789 -9.79,0 -14.69,4.894 -19.59,9.789 0,9.793 0,14.687 4.9,19.582 4.9,4.894 4.9,9.793 9.79,9.793 9.79,0 14.69,-4.899 19.58,-9.793 z m -19.58,0 c -4.89,-4.895 -9.79,-9.789 -4.89,-14.688 0,-4.894 4.89,-4.894 14.68,-4.894 0,0 4.9,4.894 4.9,9.793 0,9.789 -9.79,9.789 -14.69,9.789"
         style="fill:#f5f5f7;fill-opacity:1;fill-rule:evenodd;stroke:none"
         id="path1853" />
      <path
         d="m 1544.05,697.75 c 4.89,-4.898 0,-9.793 0,-14.687 -4.9,-9.793 -14.69,-14.688 -24.48,-9.793 -4.89,4.898 -9.79,9.793 -9.79,14.687 0,9.793 0,14.688 9.79,19.582 9.79,4.895 19.58,0 24.48,-9.789 z m -19.59,4.895 c -4.89,-4.895 -4.89,-9.793 -9.78,-14.688 4.89,-4.894 9.78,-4.894 14.68,-9.789 9.79,0 9.79,9.789 9.79,14.684 0,4.898 -9.79,9.793 -14.69,9.793"
         style="fill:#f5f5f7;fill-opacity:1;fill-rule:evenodd;stroke:none"
         id="path1855" />
      <path
         d="m 1411.87,506.828 c 4.9,0 4.9,-9.793 0,-14.687 0,-4.895 -9.79,-4.895 -9.79,-9.793 -9.79,0 -19.58,4.898 -19.58,9.793 -4.9,4.894 -4.9,9.789 0,14.687 0,4.895 4.89,14.684 9.79,14.684 9.79,0 19.58,-4.895 19.58,-14.684 z m -24.48,0 c -4.89,-4.898 0,-9.793 4.9,-14.687 4.89,-4.895 9.79,0 14.68,0 0,4.894 0,9.789 0,14.687 -4.89,4.895 -14.68,4.895 -19.58,0"
         style="fill:#f5f5f7;fill-opacity:1;fill-rule:evenodd;stroke:none"
         id="path1857" />
      <path
         d="m 1225.84,379.543 c 0,-9.793 0,-19.582 -4.89,-24.477 -4.9,-4.898 -14.69,-4.898 -19.59,-4.898 -9.79,9.793 -14.68,19.582 -9.79,29.375 0,4.895 4.89,4.895 9.79,9.789 9.8,0 19.59,-4.894 24.48,-9.789 z m -24.48,0 c -4.9,-4.895 -4.9,-4.895 -4.9,-14.688 0,-4.894 4.9,-4.894 9.8,-4.894 4.9,0 9.79,4.894 9.79,9.789 0,9.793 -9.79,9.793 -14.69,9.793"
         style="fill:#f5f5f7;fill-opacity:1;fill-rule:evenodd;stroke:none"
         id="path1859" />
      <path
         d="m 139.043,1055.12 c 0,-9.79 4.895,-14.69 14.684,-14.69 h 63.64 c 9.793,0 29.375,-4.89 39.168,-9.79 9.789,-9.79 9.789,-24.47 9.789,-39.16 0,-4.894 0,-24.48 -9.789,-34.269 -9.793,-9.793 -14.691,-14.688 -39.168,-9.793 h -63.64 c -14.684,0 -14.684,-4.895 -19.582,-14.688 h -4.895 l 4.895,63.645 h 4.898 c 0,-14.687 0,-19.582 14.684,-19.582 l 63.64,-4.895 c 14.688,0 39.168,0 39.168,29.372 0,29.37 -29.375,29.37 -39.168,29.37 l -58.742,4.9 c -14.687,0 -19.582,-4.9 -19.582,-19.58 h -4.898 v 39.16 h 4.898"
         style="fill:#f5f5f7;fill-opacity:1;fill-rule:evenodd;stroke:none"
         id="path1861" />
      <path
         d="m 261.43,1050.23 c 0,9.79 0,14.68 -14.688,19.58 l -88.117,14.68 c -14.687,-4.89 -19.582,-9.79 -19.582,-9.79 h -4.898 l 9.793,39.17 93.011,44.06 v 0 l -58.746,9.78 c -14.683,4.9 -19.578,4.9 -24.476,-9.78 h -4.895 l 9.793,39.16 h 4.895 c 0,-14.69 0,-19.58 9.789,-19.58 l 112.597,-19.58 v -4.9 l -117.492,-58.74 v 0 l 78.328,-14.69 c 14.688,-4.9 14.688,0 19.582,9.79 h 4.899 l -4.899,-39.16 h -4.894"
         style="fill:#f5f5f7;fill-opacity:1;fill-rule:evenodd;stroke:none"
         id="path1863" />
      <path
         d="m 305.488,1231.36 -14.687,-63.65 -4.895,4.9 c 0,9.79 0,14.69 -9.789,19.58 l -93.015,29.38 c -9.793,0 -14.688,-4.9 -14.688,-14.69 h -4.894 l 19.582,63.64 h 4.894 c -4.894,-9.79 -4.894,-19.58 4.895,-24.47 l 93.015,-24.48 c 9.793,-4.9 14.688,0 14.688,9.79 h 4.894"
         style="fill:#f5f5f7;fill-opacity:1;fill-rule:evenodd;stroke:none"
         id="path1865" />
      <path
         d="m 241.844,1392.91 c -4.895,-9.79 -4.895,-14.69 4.898,-19.58 l 88.121,-88.12 v 0 l -127.285,4.9 c -14.687,0 -14.687,-4.9 -19.582,-9.8 h -4.894 l 24.476,58.75 4.895,-4.9 c -4.895,-9.79 -4.895,-14.68 0,-14.68 4.894,-4.9 14.687,-4.9 19.582,-4.9 h 68.539 l -53.852,44.06 c 0,4.9 -4.898,9.79 -9.793,9.79 -4.894,4.9 -9.789,0 -14.683,-9.79 h -4.899 l 19.582,39.16 4.895,-4.89"
         style="fill:#f5f5f7;fill-opacity:1;fill-rule:evenodd;stroke:none"
         id="path1867" />
      <path
         d="m 241.844,1412.49 58.75,83.22 34.269,-19.58 -4.898,-4.89 c -24.477,14.69 -34.266,4.89 -48.953,-14.69 -4.895,-9.79 -4.895,-14.69 0,-14.69 l 39.164,-29.37 c 9.789,14.69 9.789,29.37 -9.793,44.06 l 4.898,4.9 53.848,-39.17 -4.895,-4.89 c -19.582,14.68 -29.371,9.79 -39.164,-4.9 l 39.164,-29.37 c 4.895,0 9.789,0 19.582,9.79 9.789,14.68 14.688,34.27 -4.894,58.74 l 4.894,4.9 29.372,-29.37 -58.747,-88.12 h -4.894 c 4.894,9.79 9.793,14.69 -4.895,24.48 l -78.328,48.95 c -9.789,9.79 -14.683,0 -19.582,-4.9 l -4.898,4.9"
         style="fill:#f5f5f7;fill-opacity:1;fill-rule:evenodd;stroke:none"
         id="path1869" />
      <path
         d="m 496.414,1525.09 -24.48,-29.38 -68.536,14.69 -4.894,-4.89 29.371,-24.48 c 9.789,-9.79 14.688,-4.9 24.477,0 l 4.894,-4.9 -44.058,-44.06 v 4.9 c 4.894,9.79 4.894,9.79 -4.895,24.48 l -63.641,53.85 c -14.687,14.68 -14.687,9.79 -24.476,0 l -4.895,4.89 39.16,44.06 c 9.793,9.79 34.27,39.16 58.747,14.69 19.582,-14.69 9.792,-34.27 9.792,-44.06 l 63.641,-9.79 c 4.899,0 4.899,0 9.793,4.89 z M 393.605,1510.4 c 14.688,19.58 19.583,29.37 0,44.06 -14.683,14.69 -24.476,14.69 -34.265,4.9 -4.899,-9.79 -4.899,-9.79 0,-14.69 l 34.265,-34.27"
         style="fill:#f5f5f7;fill-opacity:1;fill-rule:evenodd;stroke:none"
         id="path1871" />
      <path
         d="m 496.414,1642.58 c -9.793,9.79 -34.269,19.58 -48.957,4.89 -9.793,-4.89 -14.687,-14.68 -4.894,-24.47 9.789,-9.79 14.683,-9.79 29.371,-9.79 l 29.375,9.79 c 9.793,0 24.476,0 39.164,-14.69 9.789,-14.68 14.687,-39.16 -9.789,-63.64 -14.688,-9.79 -24.481,-9.79 -29.375,-14.69 v -4.89 -4.9 l -34.27,39.17 h 4.895 c 14.687,-9.79 39.168,-24.48 53.851,-9.79 19.582,14.68 9.793,29.37 4.899,34.26 -9.793,9.8 -14.688,9.8 -29.375,4.9 l -14.688,-4.9 c -34.269,-4.89 -44.058,4.9 -48.957,14.69 -9.789,9.79 -19.582,34.27 4.899,53.85 9.789,9.79 24.476,9.79 24.476,14.68 4.895,0 4.895,4.9 0,9.8 h 4.895 l 29.375,-29.38 -4.895,-4.89"
         style="fill:#f5f5f7;fill-opacity:1;fill-rule:evenodd;stroke:none"
         id="path1873" />
      <path
         d="m 618.801,1613.21 -53.852,-34.27 v 4.89 c 4.895,4.9 9.793,9.8 4.895,19.58 l -53.848,78.33 c -4.894,9.79 -14.687,4.9 -19.582,4.9 h -4.894 l 53.847,39.16 4.895,-4.89 c -9.789,-4.9 -14.684,-9.8 -9.789,-19.59 l 53.851,-83.22 c 4.895,-9.79 14.684,-4.89 24.477,0 v -4.89"
         style="fill:#f5f5f7;fill-opacity:1;fill-rule:evenodd;stroke:none"
         id="path1875" />
      <path
         d="M 697.125,1652.37 638.383,1623 v 4.89 c 9.789,9.79 14.683,9.79 4.894,24.48 l -44.058,93.02 c -9.793,-4.9 -29.375,-14.69 -19.582,-44.07 l -4.895,-4.89 -14.687,39.16 97.91,44.06 19.578,-34.26 h -4.895 c -19.582,24.47 -34.265,19.58 -48.953,14.68 l 48.953,-93.02 c 4.895,-14.68 9.793,-14.68 19.582,-9.78 l 4.895,-4.9"
         style="fill:#f5f5f7;fill-opacity:1;fill-rule:evenodd;stroke:none"
         id="path1877" />
      <path
         d="m 829.305,1696.43 -53.848,-14.69 v 4.9 c 9.789,4.89 9.789,4.89 9.789,9.79 0,4.89 -9.789,19.58 -14.683,24.48 l -39.165,-14.69 c 0,-14.69 -4.898,-19.58 0,-24.48 0,-4.89 9.79,-4.89 14.684,-4.89 v -4.9 l -34.269,-9.79 v 4.89 c 9.792,4.9 9.792,9.8 9.792,29.38 l 9.793,112.6 h 4.895 l 68.535,-83.23 c 9.793,-19.58 14.688,-24.48 24.477,-24.48 z m -63.641,29.37 -34.266,39.17 v -48.96 z"
         style="fill:#f5f5f7;fill-opacity:1;fill-rule:evenodd;stroke:none"
         id="path1879" />
      <path
         d="m 966.379,1735.59 c -14.688,-14.68 -24.477,-29.37 -48.953,-29.37 -44.063,-4.9 -68.539,24.48 -73.434,58.75 0,39.16 19.582,73.43 58.746,78.32 19.582,0 34.266,-9.79 39.164,-9.79 4.895,4.9 4.895,4.9 4.895,9.79 l 4.894,4.9 4.895,-48.96 h -4.895 c -9.789,14.69 -24.476,39.17 -44.058,34.27 -29.371,0 -34.27,-29.37 -29.371,-63.64 0,-9.79 4.894,-29.37 9.789,-44.06 9.793,-9.79 24.476,-14.69 29.375,-9.79 14.683,0 29.371,4.9 39.16,24.48 l 9.793,-4.9"
         style="fill:#f5f5f7;fill-opacity:1;fill-rule:evenodd;stroke:none"
         id="path1881" />
      <path
         d="m 1103.45,1764.97 c -4.89,-39.17 -34.27,-63.65 -73.43,-63.65 -34.266,4.9 -58.743,34.27 -53.848,78.33 0,39.17 34.268,63.64 68.538,63.64 34.27,-4.89 63.64,-34.26 58.74,-78.32 z m -97.91,9.79 c 0,-14.69 -4.89,-63.65 24.48,-63.65 34.27,-4.89 39.16,39.17 39.16,58.75 4.9,29.37 0,63.64 -24.47,63.64 -24.48,4.9 -34.27,-29.37 -39.17,-58.74"
         style="fill:#f5f5f7;fill-opacity:1;fill-rule:evenodd;stroke:none"
         id="path1883" />
      <path
         d="m 1250.32,1652.37 -58.75,19.58 4.89,4.9 c 9.8,-4.9 14.7,-4.9 19.59,9.79 l 29.37,93.01 v 0 l -83.22,-97.91 h -4.9 l -4.89,122.39 v 0 l -29.37,-83.22 c -4.9,-14.69 0,-19.59 9.78,-24.48 v -4.9 l -39.16,9.79 v 4.9 c 14.69,0 19.58,0 19.58,9.79 l 29.38,88.12 c 4.89,9.79 0,14.69 -9.8,19.58 v 4.9 l 44.06,-14.69 4.9,-97.91 63.64,78.33 44.06,-14.69 v -4.89 c -9.79,0 -14.68,4.89 -19.58,-14.69 l -29.37,-78.33 c -4.9,-14.69 0,-19.58 9.79,-24.47 v -4.9"
         style="fill:#f5f5f7;fill-opacity:1;fill-rule:evenodd;stroke:none"
         id="path1885" />
      <path
         d="m 1387.39,1569.15 -53.85,34.26 4.9,4.9 c 9.79,-4.9 14.68,-9.79 19.58,0 l 48.95,88.12 v 0 l -97.91,-78.33 h -4.89 l 19.58,122.39 v 0 l -48.95,-78.33 c -4.9,-9.79 -4.9,-14.69 9.79,-24.48 l -4.9,-4.89 -34.27,24.48 v 4.89 c 14.69,-9.79 19.58,-4.89 24.48,4.89 l 44.06,78.34 c 9.79,9.79 4.9,9.79 -4.9,19.58 l 4.9,4.89 39.16,-24.47 -19.58,-97.92 78.33,58.75 39.17,-19.58 v -4.9 c -9.8,4.9 -14.7,4.9 -24.49,-9.79 l -44.05,-73.43 c -4.9,-14.69 -4.9,-14.69 4.89,-24.48 v -4.89"
         style="fill:#f5f5f7;fill-opacity:1;fill-rule:evenodd;stroke:none"
         id="path1887" />
      <path
         d="m 1465.72,1671.95 78.33,-68.54 -24.48,-29.37 h -4.89 c 14.68,24.48 9.78,34.27 -9.8,53.85 -4.89,4.9 -9.79,4.9 -14.68,0 l -29.38,-34.26 c 14.69,-9.8 24.48,-14.69 39.17,4.89 l 4.89,-4.89 -44.06,-48.96 -4.89,4.9 c 14.69,19.58 14.69,29.37 0,39.16 l -29.38,-34.27 c -4.89,-4.89 -4.89,-9.79 4.9,-19.58 9.79,-9.79 29.37,-19.58 58.75,-4.9 v -4.89 l -29.38,-24.48 -83.22,73.43 h 4.9 c 9.79,-4.89 14.68,-9.79 19.58,0 l 63.64,73.43 c 9.79,9.8 4.9,14.69 0,19.58 v 4.9"
         style="fill:#f5f5f7;fill-opacity:1;fill-rule:evenodd;stroke:none"
         id="path1889" />
      <path
         d="m 1544.05,1402.7 -24.48,29.37 24.48,63.64 -4.9,4.9 -29.37,-24.48 c -9.79,-9.79 -9.79,-14.68 -4.9,-24.48 v 0 l -39.16,44.06 v 4.9 c 9.79,-9.79 14.69,-9.79 24.48,0 l 68.53,53.85 c 14.69,9.79 9.79,14.69 4.9,24.48 h 4.89 l 34.27,-44.06 c 9.79,-9.79 29.37,-39.17 4.9,-58.75 -19.58,-14.68 -34.27,-4.89 -44.06,0 l -19.58,-63.64 c 0,-4.9 0,-4.9 4.89,-9.79 z m 0,102.81 c 14.68,-19.58 24.47,-24.48 44.06,-4.9 14.68,9.79 19.58,19.58 9.79,34.27 -4.9,4.89 -9.79,4.89 -14.69,0 l -39.16,-29.37"
         style="fill:#f5f5f7;fill-opacity:1;fill-rule:evenodd;stroke:none"
         id="path1891" />
      <path
         d="m 1622.38,1314.58 c -19.59,0 -39.17,9.79 -48.96,29.37 -24.48,34.27 -4.9,73.44 24.48,88.12 34.26,19.58 73.43,14.69 93.01,-19.58 9.79,-14.69 4.9,-29.37 9.79,-34.27 0,-4.89 4.9,-4.89 9.8,-4.89 l 4.89,-4.9 -39.17,-19.58 -4.89,4.9 c 14.69,9.79 24.48,34.26 14.69,53.84 -14.69,24.48 -44.06,14.69 -73.44,0 -9.79,-9.79 -24.47,-19.58 -29.37,-29.37 -9.79,-14.68 -4.89,-29.37 -4.89,-34.27 9.79,-9.79 19.58,-19.58 44.06,-24.47 v -4.9"
         style="fill:#f5f5f7;fill-opacity:1;fill-rule:evenodd;stroke:none"
         id="path1893" />
      <path
         d="m 1622.38,1241.15 -24.48,58.74 h 4.89 c 4.9,-4.89 9.79,-14.68 19.59,-9.78 l 88.12,39.16 c 9.79,4.89 9.79,9.79 4.89,19.58 h 4.9 l 24.47,-53.85 -4.89,-4.89 c -4.9,9.78 -4.9,14.68 -19.58,9.78 l -88.13,-34.26 c -9.78,-4.9 -9.78,-14.69 -4.89,-24.48 h -4.89"
         style="fill:#f5f5f7;fill-opacity:1;fill-rule:evenodd;stroke:none"
         id="path1895" />
      <path
         d="m 1656.64,1128.55 -14.68,53.85 4.89,4.9 c 4.9,-14.69 4.9,-14.69 9.79,-14.69 4.9,0 19.58,9.79 24.48,14.69 l -14.69,39.16 c -14.68,0 -19.58,4.9 -24.47,0 -4.9,0 -4.9,-9.79 -4.9,-14.69 h -4.9 l -9.78,34.28 h 4.89 c 4.89,-9.8 9.79,-9.8 29.37,-9.8 l 112.6,-9.79 v -4.89 l -88.12,-68.54 c -14.69,-9.79 -19.58,-14.69 -19.58,-24.48 z m 29.38,63.64 39.16,29.38 -48.96,4.89 z"
         style="fill:#f5f5f7;fill-opacity:1;fill-rule:evenodd;stroke:none"
         id="path1897" />
      <path
         d="m 1671.33,1025.75 -14.69,102.8 h 4.9 c 4.89,-9.79 4.89,-14.68 14.68,-14.68 l 93.02,14.68 c 14.69,0 14.69,9.79 14.69,14.69 h 4.89 l 4.9,-58.75 -4.9,-4.89 c 0,14.69 0,19.58 -19.58,19.58 l -88.12,-14.69 c -9.79,0 -9.79,-4.89 -9.79,-14.68 4.89,-29.38 19.58,-34.27 44.06,-44.06 v -4.9 l -44.06,4.9"
         style="fill:#f5f5f7;fill-opacity:1;fill-rule:evenodd;stroke:none"
         id="path1899" />
      <path
         d="M 1803.51,1015.96 V 913.148 h -39.17 v 4.899 c 24.48,4.894 29.38,14.683 29.38,39.164 4.89,9.789 0,14.687 -4.9,14.687 h -48.95 c 0,-19.585 4.89,-24.48 29.37,-29.375 v -4.894 h -63.64 v 4.894 c 24.48,0 29.37,9.79 29.37,29.375 h -48.95 c -4.9,0 -9.8,-4.898 -9.8,-14.687 0,-19.582 4.9,-34.27 34.28,-48.957 v -4.895 l -39.17,9.789 v 102.812 h 4.89 c 0,-9.79 0,-14.69 14.69,-14.69 h 93.02 c 14.68,0 14.68,4.9 14.68,14.69 h 4.9"
         style="fill:#f5f5f7;fill-opacity:1;fill-rule:evenodd;stroke:none"
         id="path1901" />
      <path
         d="M 148.832,761.391 129.25,864.195 h 4.895 c 4.898,-9.789 4.898,-14.687 14.687,-9.789 l 93.012,14.684 c 14.691,4.898 14.691,9.793 9.797,19.582 h 4.894 l 14.688,-63.641 h -4.899 c -4.894,14.688 -4.894,19.582 -24.48,14.688 l -88.117,-14.688 c -9.789,-4.894 -9.789,-4.894 -9.789,-19.582 4.894,-24.476 24.476,-34.265 48.953,-39.164 v -4.894 h -44.059"
         style="fill:#f5f5f7;fill-opacity:1;fill-rule:evenodd;stroke:none"
         id="path1903" />
      <path
         d="m 315.281,658.586 c -4.898,9.789 -9.793,14.684 -24.48,9.789 l -58.746,-19.582 c -9.789,-4.895 -24.477,-9.789 -39.164,-4.895 -9.789,4.895 -19.582,19.582 -24.477,29.372 0,9.793 -4.894,24.48 0,39.164 4.895,9.793 9.789,19.586 29.371,24.48 l 63.645,19.582 c 14.687,4.895 14.687,9.789 9.793,19.582 l 4.894,4.895 19.582,-58.746 h -4.898 c 0,9.793 -4.895,14.687 -19.578,9.793 l -63.645,-24.481 c -9.793,0 -34.269,-9.789 -24.476,-34.269 9.789,-29.372 34.265,-19.582 48.953,-19.582 l 53.851,19.582 c 14.688,4.898 19.582,9.793 14.688,24.48 h 4.894 l 14.688,-34.27 -4.895,-4.894"
         style="fill:#f5f5f7;fill-opacity:1;fill-rule:evenodd;stroke:none"
         id="path1905" />
      <path
         d="m 227.16,550.887 -29.375,58.742 h 4.899 c 4.894,-9.789 9.789,-14.684 19.582,-9.789 l 88.117,44.058 c 9.793,4.895 4.898,9.79 4.898,19.582 h 4.895 l 24.476,-53.851 -4.894,-4.895 c 0,9.793 -4.895,14.688 -19.582,9.793 l -83.227,-39.164 c -9.789,-4.894 -9.789,-14.687 -4.894,-24.476 h -4.895"
         style="fill:#f5f5f7;fill-opacity:1;fill-rule:evenodd;stroke:none"
         id="path1907" />
      <path
         d="m 349.547,452.973 c -9.789,9.793 -9.789,9.793 -24.477,4.894 l -19.582,-14.683 c -14.687,4.894 -29.371,19.582 -39.164,34.269 -24.48,39.164 -4.894,73.434 19.582,93.016 34.27,19.578 73.434,14.683 97.91,-14.688 4.895,-14.687 4.895,-34.269 9.789,-34.269 0,-4.895 4.899,-4.895 9.793,-4.895 l 4.895,-4.894 -39.164,-24.477 v 4.895 c 9.793,14.687 19.582,39.164 9.793,58.746 -14.688,19.582 -44.059,9.789 -73.434,-9.793 -9.789,-4.895 -53.847,-34.266 -34.265,-63.641 9.789,-9.789 14.683,-9.789 24.476,-4.894 l 14.684,9.789 c 14.687,4.898 9.793,9.793 4.898,24.48 h 4.895 l 29.371,-48.961 v -4.894"
         style="fill:#f5f5f7;fill-opacity:1;fill-rule:evenodd;stroke:none"
         id="path1909" />
      <path
         d="m 354.441,364.855 -39.16,48.954 4.895,4.898 c 4.894,-4.898 9.789,-14.687 19.582,-4.898 l 73.43,63.644 c 9.792,4.895 4.894,14.688 0,19.582 l 4.894,4.895 39.164,-48.957 -4.894,-4.895 c -4.895,4.895 -9.789,14.688 -19.582,4.895 l -73.43,-58.746 c -9.793,-9.789 -4.899,-14.684 0,-24.477 l -4.899,-4.895"
         style="fill:#f5f5f7;fill-opacity:1;fill-rule:evenodd;stroke:none"
         id="path1911" />
      <path
         d="m 398.504,325.691 c 9.789,-4.894 14.684,-4.894 19.578,4.899 l 63.641,68.535 c 4.898,9.789 0,14.684 -4.895,24.477 h 4.895 l 39.168,-34.27 c 9.793,-4.894 39.164,-29.371 19.582,-53.848 -14.688,-14.687 -34.27,-9.793 -39.164,-4.894 h -4.895 c 14.688,-9.793 19.582,-29.375 4.895,-48.957 -9.789,-9.789 -29.375,-19.582 -58.746,4.894 l -48.958,39.164 z m 44.059,-14.683 c -4.899,-9.793 -4.899,-14.688 0,-19.582 14.683,-9.793 29.371,0 34.265,9.789 19.586,19.582 9.793,34.269 0,44.058 h -4.894 z m 34.265,39.16 c 19.586,-14.684 29.375,-9.789 39.168,4.898 9.789,9.789 14.688,19.582 0,29.372 -4.894,9.789 -9.793,4.894 -9.793,0 l -29.375,-34.27"
         style="fill:#f5f5f7;fill-opacity:1;fill-rule:evenodd;stroke:none"
         id="path1913" />
      <path
         d="m 643.277,227.785 c -19.582,-34.273 -58.746,-44.062 -88.117,-24.48 -34.269,19.582 -44.058,53.851 -19.582,93.015 19.582,34.27 58.746,44.059 88.117,24.477 29.371,-14.688 44.059,-53.852 19.582,-93.012 z m -83.222,48.953 c -4.895,-14.687 -29.371,-53.851 0,-68.539 24.476,-14.687 48.953,24.481 58.746,39.168 14.683,24.477 24.476,53.848 0,68.535 -19.582,14.688 -44.059,-14.687 -58.746,-39.164"
         style="fill:#f5f5f7;fill-opacity:1;fill-rule:evenodd;stroke:none"
         id="path1915" />
      <path
         d="m 755.875,144.559 c -19.582,-9.789 -34.27,-14.688 -58.75,-9.789 -39.16,14.683 -48.953,53.847 -39.16,88.117 14.683,39.164 48.953,58.746 88.117,44.058 14.688,-4.894 24.481,-19.578 29.375,-19.578 4.895,-4.898 4.895,0 9.789,4.895 l 4.899,-4.895 -14.688,-39.168 h -4.894 c 0,19.586 -9.793,44.063 -29.375,53.852 -24.481,4.894 -39.165,-19.582 -48.958,-48.957 -4.894,-9.789 -9.789,-29.371 -9.789,-44.059 4.895,-14.687 14.684,-24.476 19.582,-24.476 14.684,-4.895 29.375,-4.895 48.957,9.789 l 4.895,-9.789"
         style="fill:#f5f5f7;fill-opacity:1;fill-rule:evenodd;stroke:none"
         id="path1917" />
      <path
         d="M 892.945,120.082 C 878.262,105.395 858.68,95.6055 839.098,100.5 c -44.059,9.789 -58.746,44.059 -53.852,78.328 4.899,39.164 39.164,63.641 73.434,58.746 19.582,-4.894 29.371,-14.687 34.265,-14.687 4.899,0 4.899,0 9.793,4.898 h 4.895 l -9.789,-44.062 h -4.899 c 0,19.582 -14.683,44.062 -34.265,48.957 -24.477,4.894 -34.27,-24.481 -44.059,-58.75 0,-9.789 0,-29.371 0,-44.059 4.895,-14.683 19.582,-19.582 24.477,-19.582 14.683,-4.894 29.371,0 48.953,14.688 l 4.894,-4.895"
         style="fill:#f5f5f7;fill-opacity:1;fill-rule:evenodd;stroke:none"
         id="path1919" />
      <path
         d="m 1039.81,159.246 c 0,-39.164 -24.47,-68.539 -63.638,-68.539 -34.27,0 -63.645,29.375 -63.645,68.539 0,44.059 29.375,68.539 63.645,68.539 34.268,0 63.638,-24.48 63.638,-68.539 z m -97.908,0 c 0,-14.687 4.895,-63.6405 34.27,-63.6405 29.368,0 34.268,48.9535 34.268,63.6405 0,29.371 -9.79,63.641 -34.268,63.641 -24.481,0 -34.27,-34.27 -34.27,-63.641"
         style="fill:#f5f5f7;fill-opacity:1;fill-rule:evenodd;stroke:none"
         id="path1921" />
      <path
         d="m 1064.29,100.5 c 9.79,4.895 14.69,4.895 9.79,19.582 l -14.69,93.012 c -14.68,9.793 -19.58,9.793 -19.58,9.793 v 4.898 l 34.27,4.895 78.33,-68.539 v 0 l -9.79,58.746 c 0,9.793 -4.9,14.687 -19.58,14.687 v 4.895 l 39.16,9.793 v -4.895 c -14.69,-4.898 -14.69,-9.793 -9.79,-19.582 l 19.58,-112.597 h -4.9 l -97.91,88.117 v 0 l 14.69,-78.328 c 0,-14.688 4.9,-14.688 19.58,-14.688 v -4.894 l -39.16,-9.7895 V 100.5"
         style="fill:#f5f5f7;fill-opacity:1;fill-rule:evenodd;stroke:none"
         id="path1923" />
      <path
         d="m 1260.11,144.559 -58.75,-19.582 -4.9,4.894 c 9.8,4.899 19.59,9.793 14.7,19.582 l -29.38,88.121 c -4.9,14.688 -14.69,9.793 -24.48,9.793 v 4.895 l 58.75,19.582 4.9,-4.899 c -9.79,-4.894 -19.59,-4.894 -14.69,-19.578 l 29.37,-88.121 c 4.9,-9.793 14.69,-9.793 24.48,-9.793 v -4.894"
         style="fill:#f5f5f7;fill-opacity:1;fill-rule:evenodd;stroke:none"
         id="path1925" />
      <path
         d="m 1460.82,252.262 -53.85,-29.375 v 4.898 c 9.8,4.895 14.69,9.789 4.9,19.582 l -48.96,83.223 v 0 l 19.59,-122.391 -4.9,-4.894 -97.91,78.328 v 0 l 48.95,-78.328 c 4.9,-14.688 9.8,-14.688 24.48,-9.793 l 4.9,-4.895 -39.16,-19.582 v 4.895 c 9.78,4.898 9.78,9.793 4.89,19.582 l -48.95,78.332 c -4.9,9.789 -9.8,9.789 -19.59,4.894 l -4.89,4.895 39.16,24.476 78.33,-63.64 -14.69,97.91 39.17,24.476 4.89,-4.894 c -9.79,-4.895 -14.68,-4.895 -4.89,-19.582 l 44.05,-78.328 c 4.9,-9.789 9.8,-9.789 19.59,-4.895 l 4.89,-4.894"
         style="fill:#f5f5f7;fill-opacity:1;fill-rule:evenodd;stroke:none"
         id="path1927" />
      <path
         d="m 1519.57,306.109 -48.95,-39.164 v 4.899 c 4.89,4.894 9.79,9.789 4.89,19.582 l -63.64,73.429 c -4.9,9.793 -14.69,4.895 -19.58,0 l -4.9,4.895 48.95,39.164 4.9,-4.894 c -4.9,-4.895 -14.69,-9.793 -4.9,-19.582 l 58.75,-73.43 c 9.79,-9.793 14.69,-4.899 24.48,0 v -4.899"
         style="fill:#f5f5f7;fill-opacity:1;fill-rule:evenodd;stroke:none"
         id="path1929" />
      <path
         d="m 1602.79,389.332 -68.53,-73.43 -4.9,4.895 c 4.9,4.894 9.79,9.793 0,19.582 l -68.54,63.641 c -9.78,9.789 -14.68,4.894 -19.58,0 h -4.9 l 44.07,48.953 4.89,-4.895 c -9.79,-9.789 -14.68,-14.687 0,-24.476 l 63.64,-63.641 c 9.79,-4.895 14.69,-4.895 19.58,4.894 19.59,19.583 14.69,39.165 4.9,58.747 l 4.9,4.894 24.47,-39.164"
         style="fill:#f5f5f7;fill-opacity:1;fill-rule:evenodd;stroke:none"
         id="path1931" />
      <path
         d="m 1690.91,511.723 -34.27,-48.957 -4.89,4.898 c 4.89,9.789 9.79,9.789 4.89,14.684 -4.89,4.898 -19.58,4.898 -29.37,9.793 l -19.58,-34.274 c 4.89,-14.683 9.79,-19.578 14.69,-24.476 4.89,0 9.78,4.898 14.68,9.793 l 4.9,-4.895 -19.58,-29.375 -4.9,4.895 c 4.9,9.793 0,14.687 -9.79,24.48 l -63.64,97.91 v 0 l 107.7,-24.476 c 24.47,-4.895 29.37,-4.895 34.27,4.894 z m -68.53,-19.582 -48.96,9.789 29.37,-39.164 z"
         style="fill:#f5f5f7;fill-opacity:1;fill-rule:evenodd;stroke:none"
         id="path1933" />
      <path
         d="m 1695.81,531.305 c 4.89,9.789 4.89,14.683 -4.9,19.582 l -83.22,39.16 c -19.58,0 -19.58,-4.895 -19.58,-4.895 h -4.9 l 14.69,34.27 102.8,24.476 v 0 l -53.85,24.477 c -9.79,4.895 -19.58,4.895 -24.47,-9.789 l -4.9,4.894 14.68,34.27 h 4.9 c 0,-14.687 0,-19.582 9.79,-19.582 l 102.81,-48.957 v -4.895 l -132.18,-29.371 v 0 l 73.43,-34.269 c 9.79,-4.895 14.69,-4.895 24.48,9.793 l 4.9,-4.899 -19.59,-34.265 h -4.89"
         style="fill:#f5f5f7;fill-opacity:1;fill-rule:evenodd;stroke:none"
         id="path1935" />
      <path
         d="m 1734.97,805.449 c 39.17,-14.683 58.75,-48.953 48.96,-83.222 -9.79,-34.27 -44.06,-53.852 -83.23,-44.059 -44.06,14.684 -58.74,48.957 -53.85,83.223 9.79,34.269 44.06,53.851 88.12,44.058 z m -29.37,-93.015 c 19.58,-4.895 63.64,-19.582 68.54,9.793 9.79,34.269 -34.27,44.058 -48.96,48.957 -29.37,9.789 -63.64,9.789 -68.54,-14.688 -9.79,-24.476 24.48,-39.164 48.96,-44.062"
         style="fill:#f5f5f7;fill-opacity:1;fill-rule:evenodd;stroke:none"
         id="path1937" />
      <path
         d="m 951.691,1667.05 c -4.894,-29.37 -24.476,-58.74 -53.847,-78.32 29.371,0 63.64,0 88.117,14.68 19.579,4.9 39.169,9.8 58.749,4.9 -4.9,4.9 -19.58,14.69 -29.37,19.58 l -29.379,24.48 c 68.539,24.48 141.969,0 190.919,-58.74 4.9,-14.69 19.58,-24.48 19.58,-44.06 -24.47,19.58 -53.84,39.16 -83.22,53.84 -4.89,4.9 -4.89,0 -4.89,0 v -4.89 c 44.06,-29.37 93.01,-63.64 141.97,-83.22 19.58,-9.79 39.16,-24.48 58.74,-34.27 -24.47,39.16 -44.06,83.22 -63.64,127.28 58.75,-4.9 107.7,-53.85 127.28,-102.8 9.8,-24.48 14.69,-53.86 14.69,-83.23 -19.58,29.37 -34.27,63.65 -53.85,88.12 -4.9,0 -4.9,0 -4.9,-4.89 l 48.96,-83.23 c 34.27,-39.16 63.64,-78.33 88.12,-117.49 l 4.9,4.9 c -9.8,44.06 -9.8,88.11 -14.69,137.07 53.85,-34.27 88.12,-97.91 83.22,-161.55 0,-24.48 -4.89,-44.06 -14.69,-68.54 v 0 l -19.58,102.81 c 0,0 -4.89,4.89 -4.89,0 l -4.9,-4.9 c 9.79,-48.95 9.79,-97.91 34.27,-137.07 9.79,-34.27 19.58,-68.54 24.48,-102.81 h 4.89 c 9.79,44.06 24.48,88.12 39.17,127.28 l 4.89,4.9 c 39.17,-58.75 39.17,-141.97 4.9,-200.71 -9.79,-14.69 -19.58,-29.377 -34.27,-39.17 l 24.48,102.81 c -4.9,4.89 -4.9,4.89 -9.79,4.89 l -4.9,-9.79 -19.58,-97.91 c 0,-44.059 -4.9,-93.012 -19.58,-137.07 4.89,-4.899 4.89,0 9.79,0 24.48,39.16 58.74,73.429 88.12,107.699 9.79,0 4.89,-9.793 4.89,-14.688 9.79,-73.433 -29.37,-151.757 -97.91,-186.027 -4.89,-4.894 -14.68,-4.894 -19.58,-9.789 v 9.789 c 19.58,24.477 39.16,48.953 58.75,78.328 0,0 0,4.895 -4.9,4.895 h -4.89 c -29.38,-44.059 -68.54,-88.117 -83.23,-137.074 -9.79,-19.583 -24.47,-44.059 -34.27,-63.641 h 4.9 c 34.27,34.266 83.22,48.953 122.39,73.43 v 0 c -9.79,-58.743 -48.96,-117.489 -107.7,-141.965 -24.48,-9.793 -44.07,-14.688 -68.54,-14.688 v 4.895 c 29.37,19.582 58.75,34.269 83.22,58.746 4.9,0 0,4.894 0,4.894 -34.27,-19.582 -63.64,-39.164 -93.01,-58.746 -24.48,-34.265 -58.75,-63.64 -93.02,-88.121 0,0 0,0 0,-4.894 44.06,19.586 93.02,19.586 137.08,24.48 0,-14.687 -14.69,-24.48 -19.59,-34.269 -44.05,-48.957 -107.69,-68.536 -171.34,-58.746 -4.89,4.894 -19.58,4.894 -24.47,9.789 l 97.9,24.48 c 0,4.895 4.9,4.895 0,9.789 v 0 c -34.26,-4.894 -68.53,-14.687 -102.8,-24.476 -24.48,-14.688 -53.85,-24.477 -78.33,-34.27 -4.89,-4.895 -4.89,-4.895 -4.89,-9.789 29.37,-9.793 63.64,-14.688 93.01,-24.477 v -4.894 c -39.17,-34.27 -107.7,-53.852 -161.55,-34.27 -19.58,14.688 -48.95,9.789 -68.54,0 -14.681,-9.793 -19.579,-24.476 -29.368,-34.269 h -9.793 c 9.793,24.476 34.271,48.957 58.751,58.746 19.58,9.793 53.85,9.793 73.43,0 4.89,4.894 9.79,4.894 9.79,4.894 0,4.899 -4.9,4.899 -9.79,9.793 -34.27,9.789 -78.33,0 -107.701,-24.476 -9.793,-9.793 -14.687,-24.481 -24.48,-29.375 4.898,19.582 14.687,44.058 34.271,58.746 -4.896,34.269 -14.689,73.43 -39.166,97.91 -9.793,0 -14.687,-14.687 -19.582,-19.582 -14.687,-24.48 -24.476,-53.852 -19.582,-78.328 14.684,-14.688 24.477,-39.164 29.371,-58.746 -9.789,4.894 -14.687,19.582 -24.476,29.375 -29.371,24.476 -73.434,34.265 -112.594,19.582 0,0 -4.898,-4.899 0,-4.899 19.582,0 39.16,4.899 58.742,0 34.27,-9.789 63.641,-29.371 73.434,-63.64 -9.793,-4.895 -9.793,14.687 -19.582,19.582 -14.688,14.687 -39.164,24.476 -63.641,24.476 -58.746,-29.371 -132.176,-19.582 -176.238,24.481 29.371,14.683 63.644,19.578 93.016,29.371 -9.789,34.266 -44.059,29.371 -68.539,48.953 -39.165,14.688 -78.329,24.477 -117.489,34.27 0,0 -4.898,0 -9.793,-4.895 4.895,-9.793 19.582,-4.898 29.371,-9.793 l 73.434,-19.582 v -4.894 c -63.641,-24.477 -141.969,-4.895 -190.922,44.058 -9.793,14.688 -24.48,29.375 -29.375,48.957 44.063,-4.894 83.223,-14.687 122.387,-19.582 4.898,-4.894 9.793,-9.789 19.582,-4.894 -34.266,24.476 -63.641,53.847 -97.906,88.117 -29.379,19.582 -53.856,39.164 -88.122,58.746 h -4.898 v -4.895 c 29.375,-24.48 58.746,-44.058 88.121,-63.64 -68.539,0 -132.18,39.16 -156.656,102.801 -9.789,19.582 -19.582,39.164 -19.582,63.644 39.164,-29.375 88.117,-48.957 122.387,-78.328 0,9.789 -9.789,14.684 -14.688,24.476 -14.684,29.372 -24.476,58.747 -39.16,93.016 -14.688,24.477 -34.27,53.852 -53.852,83.223 0,0 0,-4.895 -4.894,-4.895 19.582,-29.375 39.164,-58.746 53.847,-88.117 -39.164,9.789 -68.535,44.059 -88.117,78.324 -19.582,39.164 -24.476,88.117 -14.687,132.18 29.375,-34.27 63.64,-68.539 83.222,-107.703 v 0 c -9.789,48.957 -4.894,102.805 -9.789,146.867 l -19.582,93.015 c -4.894,0 -4.894,4.9 -9.789,0 v 0 c 9.789,-34.27 14.684,-68.54 19.578,-102.804 -19.578,19.584 -29.371,44.054 -44.058,68.534 -19.582,58.75 -9.789,122.39 24.48,171.34 v 0 c 14.684,-44.06 29.371,-88.12 39.16,-132.17 14.688,48.95 29.375,97.9 48.957,141.96 4.895,34.27 9.79,63.64 14.684,97.91 0,0 -4.894,4.9 -4.894,0 -9.79,-29.37 -14.688,-68.53 -24.477,-102.8 -24.477,63.64 -14.688,146.86 34.27,200.71 l 19.582,14.69 c 4.894,-44.06 14.683,-88.12 4.894,-132.18 29.375,44.06 63.645,83.22 102.805,122.39 l 53.851,78.33 c 0,4.89 0,4.89 -4.894,4.89 h -4.899 c -19.578,-24.48 -39.16,-53.85 -58.742,-83.22 -4.898,68.54 44.059,132.18 102.805,161.55 14.683,9.79 34.265,14.69 53.848,14.69 -19.583,-39.17 -39.165,-83.23 -73.43,-122.39 9.789,0 9.789,9.79 19.582,9.79 53.848,39.16 122.387,58.75 181.133,88.12 4.894,4.9 4.894,9.79 0,9.79 -29.375,-14.69 -58.746,-29.37 -88.118,-39.16 39.165,73.43 132.176,83.22 200.711,107.69 z m 14.688,-83.22 c 29.375,-14.68 63.641,-29.37 93.011,-48.95 -24.47,-4.9 -48.95,-14.69 -73.429,-19.58 34.269,-29.37 83.219,-39.17 127.279,-34.27 24.48,4.9 48.96,14.68 63.64,29.37 l -83.22,-4.89 v 0 c -4.89,4.89 0,9.79 0,9.79 l 83.22,9.79 c 132.18,-53.85 244.78,-161.55 303.53,-293.73 h -4.9 c -29.37,44.06 -83.22,58.75 -127.28,83.22 v 0 c 0,-14.69 4.89,-29.37 9.79,-44.06 24.48,-48.95 73.43,-83.22 132.18,-88.12 -24.48,19.58 -48.96,34.27 -73.43,48.96 v 9.79 c 0,4.9 4.89,4.9 9.78,4.9 19.59,-19.59 48.96,-34.28 68.54,-53.86 19.59,-63.64 39.17,-122.38 39.17,-190.92 -9.8,53.85 -53.85,88.12 -88.12,132.18 -4.9,-9.79 -4.9,-19.58 -4.9,-29.38 0,-63.64 29.38,-122.382 83.22,-151.757 0,0 0,4.898 0,9.792 -14.68,19.583 -29.37,44.065 -39.16,68.535 l 4.9,4.9 c 19.58,-24.48 34.26,-48.954 48.95,-78.329 -4.89,-53.852 -14.69,-117.492 -29.37,-171.344 l -4.9,4.899 c 4.9,34.265 -9.79,73.429 -19.58,107.699 -9.79,9.789 -9.79,24.476 -14.68,34.265 -4.9,-4.894 -9.8,-9.789 -9.8,-14.683 -29.37,-58.746 -24.48,-132.18 19.59,-181.133 0,24.477 -9.79,44.059 -9.79,63.641 0,4.894 -9.8,19.582 0,24.476 4.89,4.899 4.89,0 9.79,0 l 9.79,-83.222 c -9.79,-19.582 -14.69,-39.164 -24.48,-58.746 -4.9,14.687 -4.9,24.476 -9.79,39.164 -14.69,58.746 -68.54,102.804 -63.64,171.343 24.48,24.477 34.26,58.743 34.26,97.91 -4.89,24.48 -4.89,48.95 -14.68,73.43 l -14.69,-29.37 c -19.58,-39.165 -9.79,-78.329 -9.79,-122.392 0,-4.894 -4.89,-9.789 -9.79,-4.894 -24.48,4.894 -39.16,44.059 -68.54,39.164 4.9,-9.789 4.9,-24.477 9.8,-34.27 14.68,-14.683 34.26,-24.476 53.84,-19.578 4.9,-9.793 4.9,-14.687 4.9,-24.48 4.9,-48.953 39.17,-88.117 58.74,-132.176 19.59,-44.062 19.59,-97.91 -19.57,-127.285 h -4.9 c 19.58,34.269 24.47,83.223 9.79,122.391 -4.89,4.894 -4.89,14.687 -14.69,19.582 -24.47,-58.75 -68.53,-117.493 -44.06,-186.032 9.79,14.688 14.69,34.27 19.59,48.957 4.89,9.789 0,24.477 9.79,34.266 4.89,0 4.89,-4.895 9.79,-9.789 l -24.48,-83.223 c -44.06,-44.058 -93.01,-83.222 -146.86,-112.597 -24.48,-19.582 -63.65,-19.582 -68.54,-53.852 14.68,4.895 34.26,14.688 48.96,24.477 215.39,107.703 357.36,352.476 342.68,587.461 -14.69,239.88 -166.45,460.18 -386.75,543.4 -53.85,48.96 -132.17,73.43 -200.711,39.16 z m -9.793,-4.89 c -34.266,0 -78.324,4.89 -97.906,-19.58 h 24.476 c 4.895,4.89 9.789,14.68 19.582,14.68 4.895,0 14.688,-4.89 14.688,-9.79 19.578,0 39.16,0 58.746,4.9 -4.895,0 -9.793,9.79 -19.586,9.79 z m -53.848,-14.69 c -4.894,0 -9.793,0 -14.687,-9.79 0,-4.89 0,-9.79 9.793,-14.69 4.894,-4.89 14.683,-4.89 14.683,0 4.899,4.9 4.899,9.8 4.899,14.69 0,9.79 -9.793,9.79 -14.688,9.79 z m 14.688,-44.06 c -44.063,34.27 -102.805,24.48 -156.656,24.48 C 530.684,1456.55 374.023,1221.57 374.023,976.793 369.129,727.125 525.785,492.141 750.98,399.125 c 0,9.789 -4.898,19.582 -9.792,24.477 -78.329,34.265 -146.864,83.226 -200.715,146.867 -9.789,29.371 -19.582,53.847 -24.477,83.219 l 4.895,4.898 c 0,0 4.894,4.894 4.894,0 l 24.477,-83.223 c 24.48,63.641 -14.684,127.282 -34.266,186.028 l -4.894,4.894 c -9.793,-19.578 -19.582,-48.953 -19.582,-73.433 -4.899,-24.477 4.894,-48.954 9.789,-73.43 -4.895,0 -4.895,9.789 -9.789,14.687 -24.481,19.579 -29.375,63.641 -19.586,97.911 14.687,53.847 73.433,88.117 78.328,151.757 0,4.895 0,19.582 4.898,24.477 4.895,-4.895 14.684,0 24.477,0 24.476,4.894 39.164,29.375 44.058,48.957 -34.269,9.789 -48.953,-29.375 -78.328,-39.164 0,4.894 -4.894,9.789 -4.894,14.683 9.789,44.063 9.789,107.7 -24.477,146.87 -9.793,-53.85 -24.476,-127.287 19.582,-171.346 v -19.582 c -4.894,-68.535 -73.433,-107.699 -78.332,-181.133 -4.894,0 0,-4.894 -4.894,-4.894 -9.789,14.687 -14.688,34.269 -24.477,53.851 4.895,9.789 4.895,19.582 4.895,24.477 4.894,19.582 9.793,44.058 19.582,63.64 0,0 4.894,0 9.793,-4.894 -9.793,-29.371 -14.688,-58.746 -19.582,-88.117 19.582,19.582 29.371,48.953 39.16,73.429 9.797,39.164 4.898,93.016 -19.578,122.387 -14.688,-34.27 -34.27,-68.535 -44.063,-107.699 0,-14.688 4.898,-29.371 0,-39.164 -14.684,53.851 -29.371,112.593 -24.477,176.238 14.688,24.477 24.477,48.957 44.059,73.437 4.899,0 9.793,0 9.793,-4.9 -14.687,-29.37 -34.269,-53.85 -44.059,-78.33 4.895,0 9.79,4.898 14.684,9.793 53.852,39.167 83.227,102.807 68.539,166.447 h -4.898 c -34.266,-39.17 -78.325,-78.33 -88.118,-132.18 v 4.9 c 4.899,68.53 19.583,132.17 44.059,190.92 24.481,19.58 44.059,29.37 68.539,48.96 4.899,0 9.793,4.89 9.793,0 4.895,-4.9 4.895,-9.79 0,-9.79 -24.476,-19.59 -48.957,-29.38 -68.539,-48.96 9.789,0 24.477,0 34.266,4.89 53.855,14.69 107.703,63.65 112.601,122.39 -24.48,-9.79 -44.062,-19.58 -68.539,-29.37 -29.371,-9.79 -53.851,-34.27 -73.433,-53.85 58.75,127.28 171.343,230.09 303.523,283.94 l 83.223,-4.9 4.894,-4.89 c 0,0 4.895,-4.9 0,-4.9 H 760.77 c 48.953,-44.06 127.281,-24.47 186.027,-19.58 -4.895,9.79 -19.582,19.58 -29.371,29.37 z M 535.578,1343.95 c -4.894,0 -9.793,-9.79 -9.793,-19.58 4.899,-4.89 14.688,-9.79 24.477,-4.89 4.898,4.89 9.793,9.79 4.898,19.58 -4.898,4.89 -9.793,4.89 -19.582,4.89 z m 846.922,-4.89 c -4.9,0 -9.8,-4.9 -9.8,-9.79 -4.89,-4.9 0,-14.69 4.9,-14.69 4.9,-4.89 14.69,-4.89 14.69,0 4.89,4.9 9.79,9.79 4.89,14.69 0,9.79 -4.89,9.79 -14.68,9.79 z M 432.77,1153.03 c -4.895,-4.9 -4.895,-14.69 0,-19.58 0,-4.9 9.793,-9.79 19.582,-4.9 4.894,0 9.793,9.79 4.894,19.58 0,9.8 -19.582,9.8 -24.476,4.9 z m 1047.64,-9.79 c -4.9,0 -9.79,-4.9 -9.79,-9.79 0,-4.9 0,-14.69 9.79,-14.69 4.89,-4.89 14.68,-4.89 19.58,4.9 0,4.89 0,9.79 -4.9,14.68 0,4.9 -9.79,4.9 -14.68,4.9 z m -856.715,-34.27 c -39.164,-39.16 -68.535,-88.12 -73.433,-146.865 0,-9.792 0,-24.476 9.793,-29.375 19.582,19.583 39.164,39.168 48.953,68.54 14.687,34.27 19.582,68.54 14.687,107.7 z m 690.265,-9.79 c -9.79,-63.64 4.9,-132.18 53.85,-176.239 0,-4.894 9.79,-4.894 9.79,0 9.79,63.645 -19.58,127.289 -58.74,176.239 z m -763.698,-34.27 c 0,0 -4.895,-4.89 -4.895,-9.79 4.895,-9.79 9.793,-9.79 14.688,-9.79 4.894,4.9 9.789,9.79 4.894,14.69 0,9.79 -4.894,9.79 -14.687,4.89 z m 817.548,-14.68 c -4.9,-4.9 -4.9,-14.69 0,-14.69 4.89,-4.9 9.79,-4.9 14.69,0 4.89,0 4.89,4.89 4.89,14.69 -4.89,4.89 -19.58,4.89 -19.58,0 z M 618.801,991.48 c -4.899,0 -9.793,-4.894 -9.793,-14.687 4.894,0 9.793,-4.895 14.687,-4.895 4.895,0 9.789,4.895 9.789,14.688 0,4.894 -9.789,4.894 -14.683,4.894 z m 685.369,-14.687 c -4.9,-4.895 -4.9,-9.793 -4.9,-9.793 0,-9.789 9.79,-9.789 14.69,-9.789 4.9,0 9.79,4.894 4.9,14.687 0,4.895 -9.8,9.79 -14.69,4.895 z M 408.293,927.836 c -4.895,0 -4.895,-9.789 0,-14.688 0,-4.894 9.789,-4.894 14.687,-4.894 9.79,0 14.684,9.793 9.79,19.582 -4.895,9.793 -19.582,9.793 -24.477,0 z M 760.77,457.867 c -9.79,0 -19.582,4.899 -24.477,4.899 14.687,-34.27 29.371,-68.539 53.852,-97.911 l 53.847,9.793 c -4.894,14.684 -9.789,24.477 -9.789,34.266 -19.582,24.477 -48.957,39.164 -73.433,48.953 z m 425.91,0 c -39.17,-4.894 -78.33,-19.578 -107.7,-48.953 0,-14.687 -4.9,-24.476 -4.9,-39.164 19.58,0 34.27,0 53.85,-4.895 24.48,29.372 39.16,58.747 58.75,93.012 z M 843.992,443.184 c -4.894,-19.582 4.895,-48.957 9.789,-68.536 19.582,-4.898 39.164,-14.687 53.852,-19.582 4.894,9.789 4.894,29.372 9.793,39.161 -19.582,24.48 -44.063,39.164 -73.434,48.957 z m 220.298,-4.895 c -24.48,-9.793 -48.95,-24.48 -63.64,-44.062 l 9.79,-44.059 c 14.69,9.793 34.27,14.687 48.95,19.582 4.9,24.477 9.79,44.059 9.79,68.539 z M 692.23,1432.07 c -4.894,0 -14.687,0 -14.687,-9.79 -9.789,-4.89 -9.789,-14.69 -4.895,-24.48 0,-9.79 4.895,-14.68 14.688,-14.68 195.82,-4.9 401.434,-4.9 602.144,-9.79 -4.89,14.68 -4.89,34.26 0,48.95 -195.82,4.9 -406.324,4.9 -597.25,9.79 z m 19.583,19.58 c -19.583,0 -39.165,0 -53.848,-14.68 -9.793,-14.69 -9.793,-29.38 -9.793,-44.06 14.687,-48.96 78.328,-24.48 112.598,-34.27 l 318.21,-4.89 h 176.23 v 0 c 14.69,-4.9 29.38,0 39.17,0 4.89,0 0,4.89 0,9.79 -63.64,0 -112.6,0 -171.34,4.89 l -430.81,4.9 h -14.687 c -9.789,9.79 -19.578,24.47 -14.684,39.16 0,14.69 9.789,24.48 24.477,29.37 l 357.374,-4.89 249.67,-4.9 c 4.89,4.9 -4.9,9.79 0,9.79 -190.93,9.79 -386.747,9.79 -582.567,9.79 z m 416.117,-112.59 -376.95,4.89 v 0 L 736.293,526.406 v -4.894 c 190.922,0 352.477,-9.789 548.297,-4.895 9.79,269.25 4.89,538.503 9.79,822.443 z m -479.758,44.06 c 0,-58.75 -4.895,-117.49 0,-176.24 l 4.894,-19.58 c 14.688,-29.37 53.852,-19.59 78.332,-24.48 l 4.895,181.13 H 692.23 c -19.582,0 -39.164,19.59 -44.058,39.17 z m 0,-195.82 c 0,-19.59 -4.895,-39.17 0,-53.85 19.582,-29.38 53.851,-24.48 83.226,-24.48 0,9.79 0,29.37 0,39.16 l -48.957,4.9 c -19.582,0 -29.375,19.58 -34.269,34.27 z m -4.895,-53.85 V 800.555 c 14.688,-34.27 48.953,-29.371 83.223,-29.371 0,112.593 4.898,215.402 4.898,327.996 -19.585,0 -34.273,-4.89 -48.957,0 -19.582,4.89 -34.269,19.58 -39.164,34.27 z m 0,-342.684 c 0,-19.582 -9.793,-44.059 4.895,-58.746 19.582,-24.481 53.851,-14.688 78.328,-14.688 v 44.059 c -34.27,-4.895 -68.535,-4.895 -83.223,29.375 z m 0,-58.746 -4.894,-161.551 c 0,-14.688 4.894,-19.582 9.789,-29.375 19.582,-24.477 48.953,-14.688 73.433,-19.582 0,58.746 4.895,122.386 0,181.133 -29.375,0 -63.64,-4.895 -78.328,29.375"
         style="fill:#f5f5f7;fill-opacity:1;fill-rule:evenodd;stroke:none"
         id="path1939" />
      <path
         d="m 1054.5,1211.77 c 9.79,-24.47 0,-48.95 -14.69,-63.64 24.48,9.8 48.96,24.48 73.43,34.27 9.8,-9.79 0,-24.47 0,-34.27 h 4.9 l 58.74,34.27 c 4.9,0 0,-9.79 4.9,-14.69 24.48,19.59 48.96,39.17 73.43,53.86 9.79,-24.48 -4.89,-44.06 -19.58,-58.75 4.9,-29.37 -19.58,-48.95 -34.27,-63.64 4.9,-14.69 -4.9,-19.58 -4.9,-29.37 l 48.96,-53.85 c -24.47,-29.374 -48.96,-58.749 -73.43,-78.331 -14.69,19.582 -14.69,44.059 -34.27,63.641 -14.68,-14.684 -34.27,-24.477 -58.74,-24.477 4.89,9.793 19.58,4.895 24.47,14.687 4.9,0 14.69,4.895 19.59,14.69 -9.8,0 -14.69,-4.9 -19.59,-4.9 -4.89,9.79 4.9,4.9 4.9,9.79 19.58,4.9 34.27,14.69 44.06,29.37 -9.79,0 -14.69,-4.89 -24.48,0 v 0 c 24.48,9.8 53.85,24.48 63.64,48.96 -9.79,0 -19.58,-9.79 -29.37,-9.79 0,4.89 4.89,9.79 9.79,9.79 19.58,9.79 44.06,29.37 48.96,53.85 v 4.89 c -14.69,-4.89 -24.49,-19.58 -34.27,-19.58 v 4.9 c 29.37,9.79 63.64,34.26 58.74,68.53 l -4.89,4.9 -68.54,-63.64 c -9.79,-14.69 -29.37,-24.48 -29.37,-44.06 -4.9,-14.69 -29.38,-19.58 -24.48,-39.16 -19.58,-9.79 -14.69,-29.38 -29.37,-39.17 -14.69,-4.89 -4.9,-19.58 -14.69,-24.475 -19.58,-19.582 -39.16,-24.477 -63.64,-24.477 4.9,9.79 19.58,9.79 29.37,14.688 9.79,4.894 24.48,9.789 29.37,24.474 -9.79,-4.89 -24.47,-9.79 -34.26,-9.79 4.89,9.79 19.58,4.9 24.47,14.69 9.79,4.89 24.48,9.79 29.38,19.58 -9.79,0 -24.48,-9.79 -34.27,-9.79 4.89,9.79 19.58,9.79 24.48,14.68 9.79,4.9 24.47,14.69 29.37,29.38 -4.9,0 -14.69,-4.9 -19.58,-4.9 0,4.9 0,4.9 4.89,4.9 14.69,4.89 29.38,14.68 34.27,29.37 -4.89,4.89 -9.79,-9.79 -14.69,0 24.48,14.69 58.75,39.16 53.85,73.43 l -83.22,-73.43 c 0,-29.37 -34.27,-34.27 -44.06,-58.75 -24.47,-9.79 -34.27,-39.16 -58.744,-48.95 -4.894,0 -4.894,-4.894 -9.789,-4.894 4.895,14.684 24.477,14.684 29.373,29.374 h -14.689 l 4.898,4.89 c 9.791,4.9 24.481,9.79 34.271,19.58 h -9.79 c 0,9.8 9.79,9.8 14.68,14.69 14.69,9.79 29.37,19.58 34.27,34.27 -9.79,0 -14.69,-4.9 -24.48,-4.9 0,9.8 19.58,9.8 24.48,19.58 19.58,14.69 39.16,34.27 34.27,58.75 v 4.89 c -48.96,-24.47 -97.91,-48.95 -141.974,-83.22 -14.684,-9.79 -9.789,-29.37 -24.477,-44.06 -14.683,-39.16 29.375,-73.43 29.375,-112.594 -4.898,0 -9.793,-9.789 -14.687,0 0,39.164 -34.27,63.644 -29.371,102.804 -63.645,-29.37 -53.852,-107.699 -117.492,-137.07 0,-9.793 9.789,-4.898 9.789,-4.898 137.074,-29.371 274.147,-34.266 406.327,-4.895 0,9.793 -9.79,9.793 -14.69,9.793 -9.79,9.789 -24.48,19.578 -24.48,34.266 14.69,9.793 24.48,24.477 39.17,29.375 9.79,-9.793 14.69,-29.375 9.79,-48.957 0,-4.895 -14.68,-9.789 -4.89,-14.684 0,-4.898 0,-14.687 0,-19.582 l -39.17,-9.793 c -9.79,-4.894 -19.58,-14.687 -24.48,-24.476 29.38,-14.688 68.54,-14.688 102.81,-9.789 l 4.89,-4.899 c -9.79,-4.894 -19.58,-9.789 -24.47,-19.582 l 14.68,-9.789 c -39.16,-14.687 -88.12,-4.894 -132.17,14.688 -4.9,-4.899 -9.8,-9.793 -9.8,-14.688 48.96,-14.687 127.29,-4.894 146.87,-73.433 -14.69,0 -24.48,9.793 -34.27,14.687 -4.89,-4.894 -4.89,-19.582 -9.79,-29.375 -4.89,4.895 -9.79,14.688 -14.69,19.586 -39.16,29.371 -93.01,9.789 -127.28,29.371 -9.79,-4.894 -19.58,-14.687 -29.37,-24.476 4.89,14.687 0,39.164 -14.69,48.953 29.37,24.476 53.85,48.957 78.33,73.433 -4.9,4.895 -14.69,0 -19.58,0 L 971.277,736.914 h -4.898 L 843.992,869.09 c -4.894,0 -9.789,0 -19.582,4.898 l 4.895,-9.793 146.867,-151.761 c 4.894,-9.789 0,-19.582 0,-24.477 -4.895,-4.894 -14.688,-4.894 -19.586,-9.789 l -9.789,4.895 c -58.746,58.746 -117.492,122.386 -176.234,181.132 0,0 -4.899,0 -4.899,-4.894 53.852,-58.746 112.598,-122.387 171.34,-181.133 9.793,-9.793 14.687,-9.793 29.375,-9.793 9.793,0 14.687,9.793 19.582,19.582 4.898,4.895 4.898,14.688 0,24.477 0,4.898 -19.582,14.691 -4.895,19.586 l 44.064,39.164 c 4.89,-4.899 14.68,-14.688 14.68,-24.477 0,-39.168 -44.056,-53.855 -58.744,-83.227 -9.789,-4.894 -24.48,-4.894 -34.269,-4.894 -24.477,9.789 -34.27,29.371 -48.953,48.953 L 750.98,859.301 c 4.895,4.894 9.79,9.789 14.684,14.687 9.793,4.895 24.481,-4.898 24.481,4.895 -4.899,24.476 14.683,24.476 29.371,39.164 24.476,24.476 29.371,58.746 53.847,83.223 -9.789,4.9 -14.683,9.79 -19.582,19.58 -9.789,34.27 14.688,58.75 14.688,93.02 14.687,34.26 53.851,63.64 83.222,88.11 0,0 0,-9.79 4.895,-9.79 l 107.704,73.44 c 14.69,-19.58 0,-39.17 -9.79,-53.86 z M 809.723,873.988 c -9.789,0 -19.578,-4.898 -19.578,-9.793 L 951.691,692.852 c 4.895,-4.895 9.793,-4.895 14.688,0 0,4.898 0,9.793 0,14.687 z m 122.386,303.522 c -19.582,-24.48 -48.953,-44.06 -53.847,-73.44 4.894,-24.47 -14.688,-39.16 -9.793,-58.74 0,-9.79 4.894,-24.48 14.687,-29.37 9.789,9.79 29.371,19.58 39.164,29.37 4.895,9.79 -9.793,9.79 -14.687,19.58 9.793,9.79 19.582,19.58 24.476,34.27 0,9.79 4.895,19.58 0,24.48 -4.894,-4.9 -9.789,-14.69 -19.582,-9.79 v 0 c 14.688,14.68 29.375,39.16 29.375,58.74 -4.898,4.9 -4.898,9.79 -9.793,4.9 z m 122.391,73.43 -97.914,-73.43 c 0,-19.58 -4.895,-29.38 -14.684,-44.06 4.895,-9.79 4.895,-24.48 -4.898,-34.27 0,-14.69 -19.578,-24.48 -4.895,-34.27 19.582,29.38 48.957,58.75 83.231,68.54 19.58,14.68 34.26,39.16 29.37,63.64 l -19.58,-19.58 c -9.79,-4.9 -14.69,-14.69 -24.48,-14.69 29.37,24.48 63.64,53.85 53.85,88.12 z m 48.95,-465.073 c -9.79,-4.894 -14.68,-9.789 -19.58,-19.582 39.17,-19.578 93.01,0 127.29,-34.265 0,4.894 4.89,9.789 4.89,14.687 4.9,9.789 14.69,-4.898 24.48,-4.898 -14.69,19.582 -39.17,29.375 -68.54,34.269 -24.48,-4.894 -48.95,0 -68.54,9.789 z m 83.23,34.27 c -19.59,-4.895 -44.06,24.476 -53.86,-4.895 29.38,-14.687 63.64,-19.582 102.81,-14.687 l -4.89,4.894 4.89,9.793 -48.95,4.895"
         style="fill:#f5f5f7;fill-opacity:1;fill-rule:evenodd;stroke:none"
         id="path1941" />
    </g>
  </g>
</svg>
