<?xml version="1.0" encoding="UTF-8" standalone="no"?>
<svg
   viewBox="0 0 128 128"
   version="1.1"
   id="svg163"
   sodipodi:docname="bootstrap.svg"
   inkscape:version="1.2.2 (b0a84865, 2022-12-01)"
   xmlns:inkscape="http://www.inkscape.org/namespaces/inkscape"
   xmlns:sodipodi="http://sodipodi.sourceforge.net/DTD/sodipodi-0.dtd"
   xmlns="http://www.w3.org/2000/svg"
   xmlns:svg="http://www.w3.org/2000/svg">
  <sodipodi:namedview
     id="namedview165"
     pagecolor="#ffffff"
     bordercolor="#000000"
     borderopacity="0.25"
     inkscape:showpageshadow="2"
     inkscape:pageopacity="0.0"
     inkscape:pagecheckerboard="0"
     inkscape:deskcolor="#d1d1d1"
     showgrid="false"
     inkscape:zoom="1.84375"
     inkscape:cx="-64.813559"
     inkscape:cy="64"
     inkscape:window-width="1440"
     inkscape:window-height="872"
     inkscape:window-x="0"
     inkscape:window-y="0"
     inkscape:window-maximized="0"
     inkscape:current-layer="svg163" />
  <defs
     id="defs157">
    <linearGradient
       id="bootstrap-original-a"
       x1="76.079"
       x2="523.48"
       y1="10.798"
       y2="365.95"
       gradientTransform="translate(1.11 14.613) scale(.24566)"
       gradientUnits="userSpaceOnUse">
      <stop
         stop-color="#9013fe"
         offset="0"
         id="stop132"
         style="stop-color:#ffffff;stop-opacity:1;" />
      <stop
         stop-color="#6610f2"
         offset="1"
         id="stop134"
         style="stop-color:#f2f2f2;stop-opacity:1;" />
    </linearGradient>
    <linearGradient
       id="bootstrap-original-b"
       x1="193.51"
       x2="293.51"
       y1="109.74"
       y2="278.87"
       gradientTransform="translate(0 52)"
       gradientUnits="userSpaceOnUse">
      <stop
         stop-color="#fff"
         offset="0"
         id="stop137"
         style="stop-color:#666666;stop-opacity:1;" />
      <stop
         stop-color="#f1e5fc"
         offset="1"
         id="stop139"
         style="stop-color:#000000;stop-opacity:1;" />
    </linearGradient>
    <filter
       id="bootstrap-original-c"
       x="161.9"
       y="135.46"
       width="197"
       height="249"
       color-interpolation-filters="sRGB"
       filterUnits="userSpaceOnUse">
      <feFlood
         flood-opacity="0"
         result="BackgroundImageFix"
         id="feFlood142" />
      <feColorMatrix
         in="SourceAlpha"
         values="0 0 0 0 0 0 0 0 0 0 0 0 0 0 0 0 0 0 127 0"
         id="feColorMatrix144" />
      <feOffset
         dy="4"
         id="feOffset146" />
      <feGaussianBlur
         stdDeviation="8"
         id="feGaussianBlur148" />
      <feColorMatrix
         values="0 0 0 0 0 0 0 0 0 0 0 0 0 0 0 0 0 0 0.15 0"
         id="feColorMatrix150" />
      <feBlend
         in2="BackgroundImageFix"
         result="effect1_dropShadow"
         id="feBlend152" />
      <feBlend
         in="SourceGraphic"
         in2="effect1_dropShadow"
         result="shape"
         id="feBlend154" />
    </filter>
  </defs>
  <path
     id="path159"
     d="M 27.234375 14.613281 C 20.057382 14.613281 14.747375 20.897897 14.984375 27.712891 C 15.211375 34.258884 14.916248 42.738351 12.78125 49.652344 C 10.641252 56.588337 7.0223691 60.972157 1.109375 61.535156 L 1.109375 67.921875 C 7.0223691 68.485874 10.641252 72.869694 12.78125 79.804688 C 14.916248 86.718681 15.212375 95.198147 14.984375 101.74414 C 14.747375 108.55813 20.057382 114.84375 27.234375 114.84375 L 100.77344 114.84375 C 107.95043 114.84375 113.26044 108.55913 113.02344 101.74414 C 112.79544 95.198147 113.09061 86.718681 115.22461 79.804688 C 117.36561 72.868694 120.97568 68.485874 126.88867 67.921875 L 126.88867 61.535156 C 120.97568 60.971157 117.36561 56.588337 115.22461 49.652344 C 113.09061 42.738351 112.79544 34.258884 113.02344 27.712891 C 113.26044 20.897897 107.95043 14.613281 100.77344 14.613281 L 27.234375 14.613281 z M 45.197266 38.427734 L 66.996094 38.427734 C 76.684914 38.427734 83.042969 43.675052 83.042969 51.728516 C 83.042969 57.380655 78.766368 62.441539 73.316406 63.328125 L 73.316406 63.623047 C 80.734348 64.435935 85.730469 69.571128 85.730469 76.664062 C 85.730469 86.047528 78.728344 91.736328 67.109375 91.736328 L 45.197266 91.736328 L 45.197266 38.427734 z M 53.673828 45.189453 L 53.673828 61.111328 L 63.173828 61.111328 C 70.516107 61.111328 74.566406 58.15596 74.566406 52.873047 C 74.566406 47.922757 71.084301 45.189453 64.953125 45.189453 L 53.673828 45.189453 z M 53.673828 67.427734 L 53.673828 84.976562 L 65.369141 84.976562 C 73.014318 84.976562 77.0625 81.909417 77.0625 76.146484 C 77.0625 70.383307 72.900446 67.427734 64.876953 67.427734 L 53.673828 67.427734 z "
     style="stroke:none;stroke-opacity:0;fill:#ffffff;fill-opacity:1" />
</svg>
