<?xml version="1.0" encoding="UTF-8" standalone="no"?>
<svg
   viewBox="0 0 128 128"
   version="1.1"
   id="svg163"
   sodipodi:docname="bootstrap.svg"
   inkscape:version="1.2.2 (b0a84865, 2022-12-01)"
   xmlns:inkscape="http://www.inkscape.org/namespaces/inkscape"
   xmlns:sodipodi="http://sodipodi.sourceforge.net/DTD/sodipodi-0.dtd"
   xmlns="http://www.w3.org/2000/svg"
   xmlns:svg="http://www.w3.org/2000/svg">
  <sodipodi:namedview
     id="namedview165"
     pagecolor="#ffffff"
     bordercolor="#000000"
     borderopacity="0.25"
     inkscape:showpageshadow="2"
     inkscape:pageopacity="0.0"
     inkscape:pagecheckerboard="0"
     inkscape:deskcolor="#d1d1d1"
     showgrid="false"
     inkscape:zoom="1.84375"
     inkscape:cx="-17.898305"
     inkscape:cy="64"
     inkscape:window-width="1440"
     inkscape:window-height="900"
     inkscape:window-x="0"
     inkscape:window-y="0"
     inkscape:window-maximized="0"
     inkscape:current-layer="svg163" />
  <defs
     id="defs157">
    <linearGradient
       id="bootstrap-original-a"
       x1="76.079"
       x2="523.48"
       y1="10.798"
       y2="365.95"
       gradientTransform="translate(1.11 14.613) scale(.24566)"
       gradientUnits="userSpaceOnUse">
      <stop
         stop-color="#9013fe"
         offset="0"
         id="stop132"
         style="stop-color:#ffffff;stop-opacity:1;" />
      <stop
         stop-color="#6610f2"
         offset="1"
         id="stop134"
         style="stop-color:#f2f2f2;stop-opacity:1;" />
    </linearGradient>
    <linearGradient
       id="bootstrap-original-b"
       x1="193.51"
       x2="293.51"
       y1="109.74"
       y2="278.87"
       gradientTransform="translate(0 52)"
       gradientUnits="userSpaceOnUse">
      <stop
         stop-color="#fff"
         offset="0"
         id="stop137"
         style="stop-color:#666666;stop-opacity:1;" />
      <stop
         stop-color="#f1e5fc"
         offset="1"
         id="stop139"
         style="stop-color:#000000;stop-opacity:1;" />
    </linearGradient>
    <filter
       id="bootstrap-original-c"
       x="161.9"
       y="135.46"
       width="197"
       height="249"
       color-interpolation-filters="sRGB"
       filterUnits="userSpaceOnUse">
      <feFlood
         flood-opacity="0"
         result="BackgroundImageFix"
         id="feFlood142" />
      <feColorMatrix
         in="SourceAlpha"
         values="0 0 0 0 0 0 0 0 0 0 0 0 0 0 0 0 0 0 127 0"
         id="feColorMatrix144" />
      <feOffset
         dy="4"
         id="feOffset146" />
      <feGaussianBlur
         stdDeviation="8"
         id="feGaussianBlur148" />
      <feColorMatrix
         values="0 0 0 0 0 0 0 0 0 0 0 0 0 0 0 0 0 0 0.15 0"
         id="feColorMatrix150" />
      <feBlend
         in2="BackgroundImageFix"
         result="effect1_dropShadow"
         id="feBlend152" />
      <feBlend
         in="SourceGraphic"
         in2="effect1_dropShadow"
         result="shape"
         id="feBlend154" />
    </filter>
  </defs>
  <path
     d="M14.985 27.712c-.237-6.815 5.072-13.099 12.249-13.099h73.54c7.177 0 12.486 6.284 12.249 13.099-.228 6.546.068 15.026 2.202 21.94 2.141 6.936 5.751 11.319 11.664 11.883v6.387c-5.913.564-9.523 4.947-11.664 11.883-2.134 6.914-2.43 15.394-2.202 21.94.237 6.815-5.072 13.098-12.249 13.098h-73.54c-7.177 0-12.486-6.284-12.249-13.098.228-6.546-.068-15.026-2.203-21.94-2.14-6.935-5.76-11.319-11.673-11.883v-6.387c5.913-.563 9.533-4.947 11.673-11.883 2.135-6.914 2.43-15.394 2.203-21.94z"
     fill="url(#bootstrap-original-a)"
     id="path159" />
  <path
     transform="translate(1.494 2.203) scale(.24566)"
     d="M267.1 364.46c47.297 0 75.798-23.158 75.798-61.355 0-28.873-20.336-49.776-50.532-53.085v-1.203c22.185-3.609 39.594-24.211 39.594-47.219 0-32.783-25.882-54.138-65.322-54.138h-88.74v217zm-54.692-189.48h45.911c24.958 0 39.131 11.128 39.131 31.279 0 21.505-16.484 33.535-46.372 33.535h-38.67zm0 161.96v-71.431h45.602c32.661 0 49.608 12.03 49.608 35.49 0 23.459-16.484 35.941-47.605 35.941z"
     fill="url(#bootstrap-original-b)"
     filter="url(#bootstrap-original-c)"
     stroke="#fff"
     id="path161" />
</svg>
