<?xml version="1.0" encoding="UTF-8" standalone="no"?>
<!-- Svg Vector Icons : http://www.onlinewebfonts.com/icon -->

<svg
   version="1.1"
   x="0px"
   y="0px"
   viewBox="0 0 256 256"
   enable-background="new 0 0 256 256"
   xml:space="preserve"
   id="svg2150"
   sodipodi:docname="leo.svg"
   inkscape:version="1.2.2 (b0a84865, 2022-12-01)"
   xmlns:inkscape="http://www.inkscape.org/namespaces/inkscape"
   xmlns:sodipodi="http://sodipodi.sourceforge.net/DTD/sodipodi-0.dtd"
   xmlns="http://www.w3.org/2000/svg"
   xmlns:svg="http://www.w3.org/2000/svg"><defs
   id="defs2154" /><sodipodi:namedview
   id="namedview2152"
   pagecolor="#ffffff"
   bordercolor="#000000"
   borderopacity="0.25"
   inkscape:showpageshadow="2"
   inkscape:pageopacity="0.0"
   inkscape:pagecheckerboard="0"
   inkscape:deskcolor="#d1d1d1"
   showgrid="false"
   inkscape:zoom="0.921875"
   inkscape:cx="31.457627"
   inkscape:cy="128"
   inkscape:window-width="1309"
   inkscape:window-height="430"
   inkscape:window-x="0"
   inkscape:window-y="0"
   inkscape:window-maximized="0"
   inkscape:current-layer="svg2150" />
<metadata
   id="metadata2142"> Svg Vector Icons : http://www.onlinewebfonts.com/icon </metadata>
<g
   id="g2148"><g
     id="g2146"><path
       fill="#000000"
       d="M213.1,220.6c-32.4-17.7-21.9-66.8-8.4-115.6c4.3-15.5,7.7-27.7,7.7-36.5c0-34.5-23.9-58.5-58.2-58.5C121.5,10,97,35.2,97,68.5c0,4.9,0.4,9.9,1.2,14.9l0.6,3.7l-4.4,0c-32.2,0-58.6,25.6-58.6,57c0,31.5,26.4,57,58.8,57s58.8-25.6,58.8-57c0-15.9-6.6-30.6-18.7-41.6l-0.6-0.7c-2.7-4.6-9.2-17-9.2-33.3c0-15.1,9.1-31.4,29.2-31.4c18.6,0,30.2,12,30.2,31.4c0,5.2-3.3,17-6.7,29.5c-12.1,43.7-32.3,116.7,21.7,146.3c2.1,1.2,4.5,1.8,6.9,1.8c5.1,0,9.7-2.6,12.2-6.9C222.2,232.6,219.8,224.3,213.1,220.6z M125.4,144.2c0,16.5-13.8,29.9-30.8,29.9s-30.8-13.4-30.8-29.9c0-16.5,13.8-29.9,30.8-29.9S125.4,127.7,125.4,144.2z"
       id="path2144"
       style="fill:#ffffff;fill-opacity:1" /></g></g>
</svg>
