<?xml version="1.0" encoding="UTF-8" standalone="no"?>
<!-- Svg Vector Icons : http://www.onlinewebfonts.com/icon -->

<svg
   version="1.1"
   x="0px"
   y="0px"
   viewBox="0 0 256 256"
   enable-background="new 0 0 256 256"
   xml:space="preserve"
   id="svg2150"
   sodipodi:docname="leo.svg"
   inkscape:version="1.2.2 (b0a84865, 2022-12-01)"
   xmlns:inkscape="http://www.inkscape.org/namespaces/inkscape"
   xmlns:sodipodi="http://sodipodi.sourceforge.net/DTD/sodipodi-0.dtd"
   xmlns="http://www.w3.org/2000/svg"
   xmlns:svg="http://www.w3.org/2000/svg"><defs
   id="defs2154" /><sodipodi:namedview
   id="namedview2152"
   pagecolor="#ffffff"
   bordercolor="#000000"
   borderopacity="0.25"
   inkscape:showpageshadow="2"
   inkscape:pageopacity="0.0"
   inkscape:pagecheckerboard="0"
   inkscape:deskcolor="#d1d1d1"
   showgrid="false"
   inkscape:zoom="1.34287"
   inkscape:cx="28.297601"
   inkscape:cy="174.25365"
   inkscape:window-width="1440"
   inkscape:window-height="900"
   inkscape:window-x="0"
   inkscape:window-y="0"
   inkscape:window-maximized="0"
   inkscape:current-layer="svg2150" />
<metadata
   id="metadata2142"> Svg Vector Icons : http://www.onlinewebfonts.com/icon </metadata>
<g
   inkscape:groupmode="layer"
   id="layer1"
   inkscape:label="bg"
   style="display:none"><rect
     style="opacity:1;fill:#000000;fill-opacity:0.997215;stroke:#ffffff;stroke-width:10"
     id="rect538"
     width="313.49152"
     height="295.05084"
     x="-31.457626"
     y="-20.61017" /></g><g
   id="g2148"><g
     id="g2146"><path
       fill="#000000"
       d="M 214.7711,193.08649 C 188.85372,199.15611 191.2,153.8 204.7,105 209,89.5 212.4,77.3 212.4,68.5 212.4,34 188.5,10 154.2,10 121.5,10 97,35.2 97,68.5 c 0,4.9 0.4,9.9 1.2,14.9 l 0.6,3.7 h -4.4 c -32.2,0 -58.6,25.6 -58.6,57 0,31.5 26.4,57 58.8,57 32.4,0 58.8,-25.6 58.8,-57 0,-15.9 -6.6,-30.6 -18.7,-41.6 l -0.6,-0.7 c -2.7,-4.6 -14.41272,-17 -14.41272,-33.3 0,-15.1 15.05739,-37.35739 35.15739,-37.35739 18.6,0 35.41272,16.468043 35.41272,35.868043 0,5.2 -3.8552,19.029566 -7.2552,31.529566 -0.75541,35.056501 -38.66895,111.881161 25.59521,117.171321 17.76634,-1.50109 16.43708,-5.8135 31.80233,-24.72116 3.21637,-3.9579 15.83319,-25.58634 1.04619,-28.8059 -14.56743,-4.43913 -14.57264,18.39545 -26.67482,30.90201 z m -86.39241,-48.14182 c 0,16.5 -16.77869,32.13402 -33.77869,32.13402 -17,0 -32.289347,-15.63402 -32.289347,-32.13402 0,-16.5 16.034021,-34.36804 33.034021,-34.36804 16.999996,0 33.034016,17.86804 33.034016,34.36804 z"
       id="path2144"
       style="display:inline;fill:#ffffff;fill-opacity:1;stroke-width:0.9;stroke-dasharray:none"
       sodipodi:nodetypes="ccsssccssssccsssccsccsssss" /></g></g>
</svg>
