<?xml version="1.0" encoding="UTF-8" standalone="no"?>
<!-- Created with Inkscape (http://www.inkscape.org/) -->

<svg
   version="1.1"
   id="svg21817"
   width="744"
   height="1052"
   viewBox="0 0 744 1052"
   sodipodi:docname="lion-head-art-free-svg-file-1.png"
   inkscape:dataloss="true"
   xmlns:inkscape="http://www.inkscape.org/namespaces/inkscape"
   xmlns:sodipodi="http://sodipodi.sourceforge.net/DTD/sodipodi-0.dtd"
   xmlns="http://www.w3.org/2000/svg"
   xmlns:svg="http://www.w3.org/2000/svg">
  <defs
     id="defs21821" />
  <sodipodi:namedview
     id="namedview21819"
     pagecolor="#ffffff"
     bordercolor="#000000"
     borderopacity="0.25"
     inkscape:showpageshadow="2"
     inkscape:pageopacity="0.0"
     inkscape:pagecheckerboard="0"
     inkscape:deskcolor="#d1d1d1"
     showgrid="false"
     inkscape:zoom="0.72344002"
     inkscape:cx="234.29724"
     inkscape:cy="476.88819"
     inkscape:window-width="1440"
     inkscape:window-height="872"
     inkscape:window-x="0"
     inkscape:window-y="28"
     inkscape:window-maximized="0"
     inkscape:current-layer="g21823" />
  <g
     inkscape:groupmode="layer"
     inkscape:label="Image"
     id="g21823">
    <path
       id="path22307"
       style="fill:#000000"
       d="m 399.29688,172.89648 c -0.76355,-0.76353 -57.34666,6.2768 -61.04688,7.59571 -2.37484,0.84649 -1.2212,3.24071 6.25,12.97461 6.87587,8.95829 8.42886,11.5332 6.95898,11.5332 -0.29718,0 -7.9601,-4.72502 -17.02929,-10.5 C 325.3605,188.72502 317.27932,184 316.4707,184 315.2809,184 315,185.80111 315,193.44141 c 0,5.19252 -0.43227,9.70842 -0.96094,10.03515 -0.52866,0.32674 -12.88152,-1.09562 -27.44922,-3.16015 -14.56768,-2.06456 -26.80578,-3.43444 -27.19726,-3.04297 -0.39147,0.39148 0.5322,4.76777 2.05273,9.72461 1.52054,4.95683 2.54276,9.59191 2.27149,10.29883 -0.27127,0.7069 -4.03158,2.09046 -8.35547,3.07421 C 244.50289,222.84155 244,223.00703 244,224.10938 c 0,0.53564 2.25,2.37254 5,4.08203 2.75,1.70947 5,3.60989 5,4.22461 0,0.61472 -3.7125,2.40843 -8.25,3.98437 -10.62119,3.68891 -12.72049,4.99325 -12.06445,7.50195 0.62383,2.38552 -0.51016,2.62231 -19.68555,4.09766 -22.80515,1.75462 -23.36212,2.06374 -15,8.30664 2.75,2.05306 5,4.10933 5,4.57031 0,0.46098 -10.01252,3.59325 -22.25,6.96094 -12.23748,3.36769 -30.80002,8.49442 -41.25,11.39258 l -19,5.26953 -0.2832,10.75 c -0.25761,9.75675 -0.11902,10.74914 1.5,10.74414 0.98111,-0.003 13.67899,-4.96935 28.21875,-11.03711 14.53974,-6.06773 27.13723,-10.89745 27.99414,-10.73242 0.85692,0.16502 -14.22185,11.62884 -33.50977,25.47461 -19.28793,13.84576 -35.55988,25.76598 -36.1582,26.48828 -0.74614,0.90075 -0.81476,3.66845 -0.21875,8.8125 0.47794,4.125 0.88986,8.2875 0.91406,9.25 0.0241,0.9625 0.45804,1.75 0.96485,1.75 0.50678,0 12.54432,-7.5741 26.75,-16.83203 14.20565,-9.25793 26.39062,-17.16104 27.07812,-17.56055 2.81605,-1.63641 0.84751,1.74379 -6.25,10.73047 -4.125,5.22297 -7.5,9.75954 -7.5,10.08008 0,1.18677 4.44093,0.477 24.68359,-3.94531 11.39993,-2.49049 21.31082,-4.30471 22.02344,-4.03125 1.73056,0.66407 20.29297,15.6194 20.29297,16.34961 0,0.31504 -2.44525,4.24729 -5.43359,8.73828 -3.89938,5.86006 -10.3464,12.86701 -22.83594,24.82031 -16.59076,15.87841 -18.2082,17.78056 -34.63477,40.74609 -9.47686,13.24938 -17.49294,24.77544 -17.81445,25.61328 -0.73343,1.91127 -0.9712,2.03671 18.16797,-9.61132 8.22219,-5.00401 15.30971,-9.09766 15.75,-9.09766 0.44028,0 0.80078,0.49093 0.80078,1.0918 0,1.10477 -19.11375,35.45815 -20.88086,37.52929 -0.52581,0.61628 -4.23925,10.73752 -8.25195,22.49219 l -7.29492,21.3711 -11.39063,11.00781 c -11.44501,11.06159 -13.92041,13.10303 -14.81641,12.20703 -0.26679,-0.26679 2.7535,-6.94569 6.71289,-14.8418 C 122.90638,509.24007 131,489.3983 131,486.27539 c 0,-0.79313 -0.40577,-1.29271 -0.90234,-1.10937 -0.49657,0.18333 -8.42571,7.309 -17.61914,15.83398 L 95.763672,516.5 85.380859,537.63672 C 79.670892,549.26235 75,559.49987 75,560.38672 75,561.77604 76.583696,562 86.441406,562 c 6.292529,0 11.700068,0.41985 12.017578,0.93359 0.317512,0.51375 -0.162506,2.78195 -1.066406,5.04102 -0.903899,2.25907 -1.36569,4.38431 -1.027344,4.72266 0.338347,0.33835 8.157016,-2.1541 17.374996,-5.54102 C 129.16426,561.48908 134,560.14386 134,561.52344 c 0,0.28788 -3.375,9.32089 -7.5,20.07422 -4.125,10.75333 -7.5,20.20044 -7.5,20.99218 0,0.79173 1.575,5.34524 3.5,10.11914 1.925,4.77392 3.5,9.77591 3.5,11.11524 0,1.79322 -4.67487,7.31247 -17.73633,20.9375 l -17.738279,18.50195 6.302734,18.4375 c 4.267155,12.4855 5.987865,18.81999 5.330075,19.61914 C 101.1851,702.50253 72,764.85888 72,765.75586 72,767.1382 77.417773,764.1494 94.853516,753.14453 111.55002,742.60623 117,739.7162 117,741.4043 c 0,0.22288 -3.15,15.14776 -7,33.16601 -3.85,18.01825 -7,32.91188 -7,33.09571 0,1.20122 5.25359,-0.70902 23.83594,-8.66602 11.55992,-4.95 21.50165,-9 22.09179,-9 0.59013,0 1.08672,0.5625 1.10352,1.25 0.20996,8.61481 2.96249,37.14413 3.65039,37.83203 0.54823,0.54823 6.7012,-2.97167 15.44531,-8.83594 7.99311,-5.36057 15.4191,-10.25677 16.50391,-10.88086 1.08481,-0.6241 3.9458,-5.5741 6.35742,-11 2.41162,-5.42589 4.75772,-10.36862 5.21289,-10.98437 0.81637,-1.10439 15.66266,-2.4995 29.29688,-2.75195 L 233.49609,784.5 239.4082,767 c 3.25207,-9.62498 6.09027,-17.71163 6.30664,-17.9707 1.09224,-1.30775 2.14924,3.9177 5.19532,25.69336 1.82933,13.07757 3.72376,24.5362 4.20898,25.46289 1.05087,2.00703 29.87962,16.81445 32.73633,16.81445 1.35685,0 2.17083,-0.86999 2.57031,-2.75 1.43953,-6.77446 8.58525,-59.05989 8.43945,-61.75 -0.0894,-1.65 0.18237,-6.4875 0.60352,-10.75 0.42111,-4.2625 0.39818,-7.75 -0.0527,-7.75 -0.45093,0 -2.30548,1.43742 -4.11914,3.19531 L 292,740.39258 v -2.76563 c 0,-1.52057 1.18945,-9.28628 2.64258,-17.25781 l 2.64062,-14.49414 -2.14062,-2.9375 c -1.17813,-1.61578 -3.10351,-4.25529 -4.27735,-5.86523 l -2.13281,-2.92579 5.63281,-8.04101 C 297.46407,681.6831 300,677.66232 300,677.16992 300,675.73025 290.2288,667 288.61719,667 c -0.80806,0 -4.53714,1.77957 -8.28711,3.95508 -3.85007,2.23357 -7.19579,3.57765 -7.68555,3.08789 -0.9093,-0.9093 4.0039,-16.85471 7.87109,-25.54297 2.93858,-6.60195 6.09915,-9.37911 17.48438,-15.36523 5.22498,-2.7472 14.42869,-7.67688 20.45312,-10.95508 6.02446,-3.27821 11.47366,-5.76152 12.10938,-5.51758 0.63864,0.24507 1.42078,3.606 1.74805,7.50977 0.32579,3.88594 0.85237,7.32501 1.16992,7.64257 0.31756,0.31755 5.0209,-1.60942 10.45117,-4.28125 l 9.87305,-4.85742 12.03515,6.6543 c 6.61976,3.65988 12.65227,6.41747 13.4043,6.1289 0.75202,-0.28858 3.04198,-3.43502 5.08789,-6.99218 2.32225,-4.03764 4.36676,-6.46303 5.44336,-6.45703 0.94848,0.005 5.51591,1.91799 10.15039,4.25 l 8.42774,4.24023 7.3789,15.8418 c 4.05864,8.71279 7.24235,16.53413 7.07422,17.38086 -0.25246,1.27131 -40.90671,26.11098 -42.94336,26.23828 -0.35028,0.0219 -5.62401,-7.61096 -11.71875,-16.96094 -6.09473,-9.34998 -11.6583,-16.98414 -12.36328,-16.96484 -0.70497,0.0193 -5.91099,4.48848 -11.56836,9.93164 -8.75519,8.42364 -10.19553,10.25125 -9.6875,12.27539 0.33732,1.34398 -0.95252,8.52672 -2.96484,16.51758 -4.54347,18.04175 -4.54055,18.24996 0.18945,14.30859 8.64288,-7.20184 10.36958,-8.34938 11.23828,-7.47266 0.52832,0.53319 -0.3846,6.33761 -2.22461,14.15235 l -3.11914,13.24804 2.54688,6.20899 c 1.40081,3.41485 2.9748,6.34968 3.49609,6.52344 0.5213,0.17377 5.05298,-5.69072 10.07031,-13.03321 11.35332,-16.61467 11.79272,-17.02076 13.64649,-12.56836 2.82945,6.79591 4.74108,15.0105 4.2832,18.40821 -0.71597,5.3128 -28.78295,85.80299 -30.37305,87.10351 -1.18805,0.97172 -1.18239,1.35082 0.0469,2.58008 0.79256,0.79255 7.38791,9.05542 14.65429,18.36133 7.26639,9.30592 13.61019,17.07066 14.09766,17.2539 1.4524,0.54595 1.67517,-1.01348 4.85742,-33.83398 3.419,-35.262 3.77573,-38 4.94532,-38 0.45396,0 4.39027,9.33454 8.74804,20.74414 4.93182,12.91256 8.47257,20.82943 9.37891,20.9668 0.80084,0.12138 5.50703,-4.77228 10.45703,-10.87305 4.95,-6.10077 10.8,-12.94931 13,-15.21875 2.2,-2.26943 11.78548,-13.67326 21.30078,-25.34375 9.5153,-11.67049 17.69055,-21.4608 18.16797,-21.75586 1.06802,-0.66007 1.74642,2.65334 2.60742,12.74805 l 0.66211,7.76758 -9.19531,14.16992 c -5.05743,7.79325 -9.17603,14.87271 -9.15235,15.73242 0.0648,2.35093 11.31117,61.48938 11.79688,62.0332 0.98415,1.10189 2.43752,-3.47367 7.27539,-22.90234 C 472.855,814.37403 474.12501,810 475.43164,810 c 0.66708,0 9.25738,11.58752 19.08984,25.75 9.83246,14.16248 19.60146,28.1125 21.70899,31 2.10753,2.8875 4.18653,5.25 4.61914,5.25 0.43262,0 8.35758,-16.21562 17.61133,-36.03516 9.35594,-20.03841 17.31615,-35.87518 17.93164,-35.67382 0.60876,0.19915 7.40744,14.61512 15.10742,32.03515 7.69998,17.42002 14.45,31.6717 15,31.67188 0.55,1.7e-4 8.35979,-14.42098 17.35547,-32.04883 l 16.35547,-32.05078 -6.10547,-31.25977 c -4.61301,-23.61615 -6.07658,-33.20025 -5.98828,-39.19922 0.17024,-11.56457 1.22874,-20.73082 2.43945,-21.1289 0.58312,-0.19173 4.78477,10.29684 9.38281,23.41992 4.58044,13.07278 8.74421,24.87996 9.25196,26.23633 2.03296,5.43061 2.68326,-1.03627 2.25781,-22.43555 -1.0431,-52.4654 -1.27195,-103.52386 -0.4668,-104.02148 1.15488,-0.71375 1.61749,1.74657 11.44336,60.84765 4.65042,27.97146 8.73081,51.13317 9.06836,51.4707 0.33755,0.33755 0.92796,0.10425 1.31055,-0.51757 0.3826,-0.62182 4.96255,-17.9723 10.17773,-38.5586 8.73205,-34.46867 9.35374,-37.55834 7.86524,-39.04687 -0.88902,-0.88902 -11.45627,-16.92032 -23.48243,-35.625 -12.02614,-18.70469 -22.42773,-34.02522 -23.11523,-34.04492 -0.6875,-0.0197 -1.25,0.1428 -1.25,0.36132 0,0.79945 -8.05453,52.18818 -8.59766,54.85352 -0.30821,1.5125 -1.06369,2.75 -1.67773,2.75 -0.61404,0 -3.08041,-2.1375 -5.48047,-4.75 l -4.36328,-4.75 0.48828,4 c 0.26824,2.2 0.78329,6.25 1.14453,9 l 0.65625,5 -4.23828,-4.5 c -2.33115,-2.475 -8.10792,-8.7416 -12.83594,-13.92578 -4.72801,-5.18419 -10.42997,-11.43307 -12.67187,-13.88672 -3.10762,-3.40116 -6.19674,-5.34166 -12.99805,-8.16406 l -8.91992,-3.70117 -8.25195,-25.41211 c -4.53796,-13.97599 -8.25096,-26.19766 -8.25196,-27.16016 -0.002,-2.23213 -0.37106,-2.24999 18.32032,0.93555 12.23788,2.08566 15.9966,2.41719 16.58398,1.46679 0.41771,-0.67586 1.55172,-5.8249 2.51953,-11.4414 C 577.27418,540.18075 578.08502,537 579.45117,537 c 0.70668,0 8.09816,5.40002 16.42578,12 8.32762,6.59998 15.39515,12 15.70703,12 0.70204,0 8.73384,6.11962 26.91602,20.50977 7.69998,6.09408 14.45,11.35735 15,11.69531 0.55,0.33797 -4.39592,-10.12748 -10.99023,-23.25586 -9.08852,-18.09396 -11.70849,-24.15089 -10.83008,-25.0293 1.25459,-1.25459 0.69012,-1.42079 27.17969,8.00586 l 14.35937,5.11133 -1.94922,-3.26953 c -1.07281,-1.79756 -11.53739,-18.09099 -23.25391,-36.20899 -11.71649,-18.11799 -21.51533,-33.75553 -21.77539,-34.75 -0.93344,-3.5695 2.95281,-1.76353 15.48633,7.19727 6.92791,4.95306 12.80638,8.79323 13.06446,8.53516 0.25807,-0.25808 -2.38234,-8.85496 -5.86719,-19.10547 l -6.33594,-18.63672 -5.36523,-3.4336 c -2.95144,-1.888 -5.18387,-3.97947 -4.96094,-4.64843 0.2272,-0.68176 4.5067,-1.87603 9.73828,-2.7168 5.1513,-0.82787 9.5135,-2.03836 9.73438,-2.70117 0.22009,-0.66052 -6.36724,-11.05379 -14.63868,-23.09571 -8.27145,-12.04191 -15.30886,-22.59285 -15.63672,-23.44726 -0.78746,-2.05213 0.22967,-2.58231 9.79297,-5.11328 4.45118,-1.17802 8.25513,-2.63656 8.45313,-3.24024 0.20037,-0.61092 -7.08082,-4.10773 -16.42188,-7.88672 -19.94216,-8.06772 -21.22005,-8.93217 -15.42187,-10.43945 2.27615,-0.59171 5.93867,-1.54403 8.13867,-2.11523 4.22983,-1.09822 5.15912,-2.48045 2.25,-3.34766 -0.9625,-0.28692 -10.07502,-2.369 -20.25,-4.62695 -22.43768,-4.97918 -22.19155,-4.90974 -21.76953,-6.17578 0.18696,-0.56089 4.1133,-2.51894 8.72656,-4.35157 7.95095,-3.15851 9.0566,-4.00047 21.23633,-16.14648 7.06686,-7.0473 12.72746,-13.41947 12.57812,-14.16211 -0.14933,-0.74264 -12.87152,-6.74811 -28.27148,-13.34375 -27.29916,-11.69196 -30.42604,-13.21461 -29.34375,-14.29687 0.28792,-0.28792 7.2332,0.37675 15.43359,1.47656 16.89836,2.26636 18.75411,2.37982 17.96289,1.09961 -0.31077,-0.50283 -8.54941,-5.75786 -18.30859,-11.67774 -30.48239,-18.4905 -30.98962,-19.0503 -15.24609,-16.83984 5.46327,0.76707 9.87316,0.96082 10.3789,0.45508 0.50573,-0.50573 -4.27251,-3.46226 -11.24804,-6.95899 C 553.45847,260.72067 548,257.40921 548,256.70703 c 0,-0.70218 1.35,-2.07415 3,-3.04883 4.98195,-2.94289 3.8244,-4.32264 -4.25,-5.07031 -12.36973,-1.14541 -16.75,-1.81834 -16.75,-2.57031 0,-0.39848 6.41252,-2.40532 14.25,-4.45899 7.83748,-2.05366 14.63953,-4.10534 15.11523,-4.56054 1.26001,-1.20567 -3.88483,-4.13372 -32.94726,-18.7461 l -26.08399,-13.11328 -26.41601,-1.06836 c -14.52943,-0.58709 -27.20547,-1.06747 -28.16797,-1.06836 -4.24799,-0.004 -0.65681,-2.15736 15,-8.99218 9.21248,-4.02163 17.16005,-7.67649 17.66211,-8.12305 0.51429,-0.45743 -0.14061,-1.20931 -1.5,-1.72266 C 474.03863,183.07893 426.196,175 422.64258,175 c -1.35737,0 -8.57571,2.89375 -16.03906,6.43164 -7.46338,3.53789 -13.76947,6.10998 -14.01368,5.71484 -0.2442,-0.39513 1.36559,-3.56221 3.57618,-7.03906 2.34377,-3.68631 3.64905,-6.69273 3.13086,-7.21094 z m 17.04296,121.95704 28.08008,28.1289 12.7168,12.73828 c 0.61008,0.19993 1.31134,0.37551 1.31445,0.92383 7.4e-4,0.12684 -0.011,0.25236 -0.0137,0.37891 l 14.0625,14.08789 3.80664,11.69531 c 3.8879,11.94413 4.33796,14.19336 2.84378,14.19336 -0.46698,0 -9.3545,1.12502 -19.75,2.5 -10.39549,1.37498 -19.45162,2.49998 -20.125,2.5 -0.67338,2e-5 -1.87694,-1.26172 -2.67383,-2.80273 -0.7969,-1.54103 -3.62067,-4.76301 -6.27539,-7.16016 -2.65473,-2.39715 -7.68149,-7.07261 -11.17187,-10.39063 -3.51897,-3.34516 -5.01155,-4.86357 -5.31446,-5.83203 -0.12115,-0.0624 -0.24376,-0.12366 -0.36718,-0.18164 -0.48712,-0.19568 -0.90899,-0.49091 -1.31446,-0.81836 -0.39112,-0.30368 -0.64762,-0.71605 -0.91015,-1.125 -0.10158,-0.18919 -0.21554,-0.36979 -0.33008,-0.55078 -1.56228,-0.78861 -2.71685,-2.0217 -3.70508,-3.45703 -0.32775,-0.52841 -0.60708,-1.07546 -0.86328,-1.63086 -1.83018,-1.57229 -3.0883,-2.53909 -6.03906,-5.26172 -3.6516,-3.36926 -6.0231,-4.78439 -8,-4.77539 -1.54542,0.007 -8.63466,1.57195 -15.75196,3.47656 -7.11728,1.90464 -13.16311,3.23922 -13.43554,2.9668 -0.97666,-0.97667 0.0181,-9.92571 1.18554,-10.66797 0.65571,-0.41689 2.19326,-0.76544 3.41797,-0.77344 1.47619,-0.0101 3.596,-1.74586 6.28711,-5.15039 3.60035,-4.55476 13.88427,-12.68107 20.41406,-16.19726 0.70908,-1.30045 1.96858,-2.56164 3.87891,-3.57813 0.99624,-1.18481 4.18777,-3.77436 8.61328,-6.79882 z m -0.13867,40.73437 c 0.002,0.005 0.004,0.003 0.006,0.008 -0.002,-0.003 -0.004,-0.005 -0.006,-0.008 z m -95.92578,18.70508 c 0.67345,0.26777 5.02649,7.34705 9.67383,15.73242 4.64732,8.38538 9.2044,16.17906 10.12695,17.31836 1.67037,2.06283 1.69575,2.06374 5.92578,0.15625 l 4.24805,-1.91602 4.625,5.16602 c 4.12547,4.60789 7.16398,6.41723 28.125,16.75586 12.92498,6.375 26.55368,13.25731 30.28516,15.29297 7.04754,3.84467 7.207,4.14617 5.11132,9.60742 -1.96029,5.10846 7.88264,-2.44137 14.10352,-10.81836 l 2,-2.69336 8.5,2.04688 c 4.675,1.12503 9.18863,2.04678 10.03125,2.05078 0.84261,0.004 4.96555,-2.46719 9.16016,-5.49219 5.66625,-4.08631 8.49789,-5.5 11.01757,-5.5 3.54894,0 5.79102,1.45567 5.79102,3.75977 0,1.94734 -7.26223,11.24131 -19.5,24.95507 l -3,3.36133 -8.32422,-4.03711 C 443.59739,437.81796 439.27775,436 438.57617,436 c -0.70158,0 -2.42788,2.8125 -3.83594,6.25 -2.31771,5.65823 -2.47862,6.91278 -1.70117,13.25 0.47231,3.85 0.88196,7.97553 0.91016,9.16797 0.0416,1.75572 -7.02383,11.72247 -19.16797,27.04101 -0.66857,0.84333 0.72233,3.35882 4.59375,8.30664 l 5.55273,7.09571 -2.03515,5.19336 c -4.1825,10.68348 -4.41043,10.88746 -15.95117,14.19531 -5.7567,1.65 -10.5766,3.45 -10.71094,4 -0.14328,0.5866 3.08618,1.1202 7.81055,1.29102 9.04877,0.32718 10.07006,1.16049 7.50586,6.11914 L 409.94922,541 h -13.89258 c -7.64088,0 -14.62425,0.28025 -15.51758,0.62305 -1.43273,0.54979 -1.58999,-0.36394 -1.33203,-7.75 L 379.5,525.5 l 7.59766,-3.84961 c 7.50995,-3.8042 7.64251,-3.93757 11.38867,-11.62109 3.71433,-7.61833 3.92322,-10.0293 0.87109,-10.0293 -3.44186,0 -0.28967,-2.64982 5.71875,-4.80664 3.53295,-1.26821 6.80207,-2.68028 7.26367,-3.13867 0.4616,-0.45839 -1.1134,-2.84653 -3.5,-5.30664 -4.31638,-4.4494 -4.38466,-4.47523 -12.83984,-5.09571 -4.675,-0.34306 -20.05609,-1.62257 -34.17969,-2.84179 l -25.67969,-2.2168 -24.2832,6.74023 c -13.35623,3.70651 -24.57679,7.21175 -24.93359,7.78907 -1.19545,1.93426 -1.84205,16.27069 -0.79102,17.53711 0.55669,0.67077 1.95644,1.35877 3.11133,1.52929 1.15489,0.17051 3.52268,2.33555 5.25977,4.81055 l 3.1582,4.5 8.41601,0.70312 c 4.62945,0.3871 9.31879,0.93553 10.41993,1.2168 1.10115,0.28128 6.71985,5.25145 12.48633,11.04688 l 10.48437,10.53711 0.68555,8.24804 c 0.37729,4.53619 0.72192,11.70088 0.76562,15.91993 L 341,574.8418 324.60547,589.84375 c -17.86296,16.34532 -15.52887,15.07727 -30.71094,16.67383 -6.08104,0.63949 -6.80197,1.14947 -25.86914,18.26562 -4.46185,4.00531 -8.54206,7.01473 -9.06836,6.68946 -1.11114,-0.68673 -1.05762,-1.02555 -1.2832,8.02734 l -0.17383,7 h 4.91211 c 2.70156,0 5.06897,0.46667 5.26172,1.03711 0.19275,0.57045 -1.88795,8.40277 -4.625,17.4043 -2.73706,9.00153 -4.74075,16.75019 -4.45117,17.21875 0.28959,0.46856 2.52258,-0.31907 4.96093,-1.74805 3.39597,-1.99017 4.55286,-2.28233 4.94727,-1.25391 0.51722,1.34864 -7.50064,26.18225 -15.52734,48.0918 -2.36758,6.46248 -4.86573,11.75 -5.55274,11.75 -0.81412,0 -1.67425,-3.09888 -2.4668,-8.89844 -0.66878,-4.89403 -1.57906,-9.48606 -2.02343,-10.20508 -0.64963,-1.0511 -4.08663,-0.68744 -17.53711,1.85547 -9.20081,1.7395 -17.10317,2.93037 -17.5625,2.64649 C 207.37661,724.11456 207,722.87092 207,721.63477 207,718.40128 216.79218,669.98 218.04883,667 c 0.57983,-1.375 4.18057,-4.975 8,-8 3.81941,-3.025 6.74555,-6.03277 6.5039,-6.68359 -0.24164,-0.65082 -1.18517,-7.85084 -2.09765,-16 -0.91248,-8.14918 -1.99157,-15.17192 -2.39844,-15.60743 -0.40687,-0.43551 -11.10126,11.03953 -23.76562,25.5 -23.07402,26.34647 -26.93512,30.47894 -27.72852,29.68555 -0.23434,-0.23435 1.56419,-10.92988 3.99805,-23.76758 2.43383,-12.83767 4.13462,-23.81179 3.77929,-24.38672 -0.35533,-0.57494 -9.29946,7.91125 -19.87695,18.85743 -10.57749,10.94619 -19.55551,19.59303 -19.95117,19.21484 -0.39566,-0.37819 1.22553,-11.80378 3.60351,-25.39062 l 4.32422,-24.70313 9.57032,-16.58984 9.57031,-16.58985 14.96094,-9.20312 c 15.0344,-9.25001 17.49296,-10.39189 17.41796,-8.08594 -0.0224,0.6875 -3.34594,9.80002 -7.38671,20.25 -4.04078,10.44998 -7.14976,19.33237 -6.90821,19.73828 0.38094,0.64015 21.98894,-13.39747 23.33594,-15.16016 0.78649,-1.02919 28.30728,-20.25941 29.83008,-20.84374 1.03546,-0.39734 1.20436,-1.79686 0.70312,-5.8086 -1.18843,-9.51188 -8.283,-42.57597 -9.36914,-43.66211 -1.00907,-1.00907 -1.98004,-0.54615 -7.75586,3.70117 -0.72148,0.53055 -1.61584,0.66151 -1.98632,0.29102 -0.56622,-0.56623 -4.8414,-15.39422 -9.37305,-32.50586 -1.30758,-4.93742 -2.68829,-5.2652 -6.97266,-1.66016 -1.94789,1.63904 -3.07619,2.09766 -3.07617,1.25 3e-5,-0.73639 1.33099,-13.16622 2.95703,-27.62109 1.62605,-14.45486 2.70249,-26.94238 2.39258,-27.75 -0.67214,-1.75155 -2.56471,-1.82938 -9.30078,-0.38477 -2.77754,0.59567 -5.53719,0.92055 -6.13086,0.72266 -0.59367,-0.19789 4.75187,-5.39904 11.87891,-11.55664 l 12.95898,-11.19531 9.37305,-1.39258 c 5.15836,-0.76704 10.08297,-1.0293 10.95507,-0.58203 0.87149,0.44695 2.67151,2.40879 4,4.35937 1.32852,1.9506 2.94761,3.55069 3.59766,3.55469 0.65004,0.004 2.15315,1.36858 3.33984,3.03516 l 2.15821,3.03125 13.80273,-0.56641 c 15.09128,-0.61932 15.05048,-0.63053 18.69727,5.54297 3.00085,5.08005 4.70273,3.87857 3.94922,-2.78711 -0.3575,-3.1625 -0.93372,-9.4199 -1.28125,-13.90625 -0.67669,-8.73553 -0.72519,-8.80693 -7.65821,-11.32031 -1.78526,-0.6472 -2.56229,-1.4762 -2.13281,-2.27149 0.37183,-0.68853 6.58484,-10.14092 13.80859,-21.00586 L 305.5,358.99023 l 6.77539,-2.59179 c 3.72655,-1.42599 7.32655,-2.37325 8,-2.10547 z m 133.58399,54.23828 c 0.19748,0.19478 -0.62093,1.73045 -1.81836,3.41211 -1.19745,1.68167 -2.48434,3.01138 -2.85938,2.95508 -9.63224,-1.44591 -10.56658,-3.37707 -2.50976,-5.1875 3.75512,-0.8438 6.99,-1.37446 7.1875,-1.17969 z m -198.29102,4.875 c 0.27706,-0.0961 0.70978,-0.0985 1.28906,0 0.77238,0.13137 1.80592,0.44331 3.08008,0.95313 2.74477,1.09821 5.45523,1.41124 8.54102,0.98828 5.08066,-0.69638 6.33148,1.01456 1.95703,2.67773 -4.52799,1.72154 -9.71214,1.14311 -12.93555,-1.44141 -2.19536,-1.76023 -2.76281,-2.88949 -1.93164,-3.17773 z m 283.30469,9.4043 1.02734,3.8457 c 0.56608,2.11439 4.42326,18.43139 8.57031,36.25977 8.45679,36.35604 8.39075,31.96255 0.60938,40.33398 -1.91713,2.0625 -3.95734,3.72065 -4.5332,3.68555 -2.40267,-0.14634 -22.18504,-17.21377 -31.50196,-27.17969 C 507.52001,473.84608 503,468.74543 503,468.42188 c 0,-1.76728 4.27357,-17.05303 4.9668,-17.76563 0.45106,-0.46366 4.26815,3.7106 8.48242,9.27539 7.08323,9.35318 9.9262,11.66835 8.98437,7.31641 -1.68684,-7.79454 -6.48672,-42.52949 -5.95117,-43.06641 0.3744,-0.37535 4.89021,-0.836 10.03516,-1.02539 z m -266.21094,103.16797 -14.33008,8.15234 C 250.44971,538.61441 244,542.66815 244,543.14062 c 0,1.1866 -0.93337,1.36774 19.29102,-3.73632 17.76079,-4.48234 18.52942,-4.58709 31.20898,-4.25 12.83948,0.34134 13.00471,0.31792 13.32031,-1.9043 0.17575,-1.2375 0.10398,-2.25 -0.1582,-2.25 -0.26219,0 -8.24457,-1.13067 -17.73828,-2.51172 z M 320.5,542.5 l -17,0.33984 -17,0.3418 -11.25,7.15625 c -6.18748,3.93673 -11.25,7.49662 -11.25,7.91016 0,1.26067 1.41016,0.9035 13.16602,-3.32813 L 288.5,550.8418 l 16,-0.17188 16,-0.16992 v -4 z m 58.5,2.27734 3.25,0.55469 c 1.7875,0.30549 6.85,0.83329 11.25,1.17188 11.66977,0.89804 13.5,1.37023 13.5,3.48242 0,1.00503 -1.332,4.79365 -2.95898,8.41992 L 401.08398,565 l -4.29296,-0.10156 c -6.24998,-0.14922 -15.89455,-2.45171 -16.89649,-4.03321 -0.47566,-0.75078 -0.87091,-4.67785 -0.87891,-8.72656 z M 313.88477,563 c -0.61289,0 -5.45041,1.33954 -10.75,2.97656 -5.29961,1.63703 -12.33205,3.72651 -15.62891,4.64258 -4.99972,1.38922 -7.13173,2.76181 -12.8457,8.27344 -3.76785,3.63439 -7.27389,7.39492 -7.79102,8.35742 -0.61657,1.14749 -0.58218,1.75 0.0996,1.75 0.57188,0 8.57521,-3.95464 17.78516,-8.78906 9.20995,-4.83443 19.78359,-10.26443 23.49609,-12.06446 C 314.38708,565.1709 316.76402,563 313.88477,563 Z m 71.79687,5.20117 c 0.83075,-0.0554 2.00371,0.0993 3.56836,0.30664 2.8875,0.38262 5.6337,1.05478 6.10156,1.49414 0.46786,0.43936 -0.39671,3.6563 -1.91992,7.14844 -4.35041,9.97383 -4.77135,10.05999 -7.26367,1.48242 -2.38474,-8.20733 -2.97858,-10.26542 -0.48633,-10.43164 z M 498.91797,618 c 1.56252,0 16.06975,14.24477 27.08203,26.5918 5.77498,6.47495 22.53752,23.98089 37.25,38.90039 14.71248,14.91947 26.75,27.60956 26.75,28.20117 0,0.59161 -2.47269,18.56547 -5.49414,39.94141 -3.02144,21.37592 -5.496,39.20273 -5.5,39.61523 -0.0328,3.80839 -4.95956,-5.11243 -22.64844,-41 C 545.0393,727.28754 528.64361,694.02622 519.92383,676.33594 508.84857,653.86697 503.15523,641.09155 501.03516,633.95508 497.97719,623.66158 497.2263,618 498.91797,618 Z" />
  </g>
</svg>
