<?xml version="1.0" encoding="UTF-8" standalone="no"?>
<svg
   version="1.1"
   x="0px"
   y="0px"
   viewBox="0 0 90 112.5"
   enable-background="new 0 0 90 90"
   xml:space="preserve"
   id="svg894"
   sodipodi:docname="noun-lion-184473.svg"
   inkscape:version="1.2.2 (b0a84865, 2022-12-01)"
   xmlns:inkscape="http://www.inkscape.org/namespaces/inkscape"
   xmlns:sodipodi="http://sodipodi.sourceforge.net/DTD/sodipodi-0.dtd"
   xmlns="http://www.w3.org/2000/svg"
   xmlns:svg="http://www.w3.org/2000/svg"><defs
     id="defs898" /><sodipodi:namedview
     id="namedview896"
     pagecolor="#ffffff"
     bordercolor="#000000"
     borderopacity="0.25"
     inkscape:showpageshadow="2"
     inkscape:pageopacity="0.0"
     inkscape:pagecheckerboard="0"
     inkscape:deskcolor="#d1d1d1"
     showgrid="false"
     inkscape:zoom="2.0977778"
     inkscape:cx="44.809322"
     inkscape:cy="56.25"
     inkscape:window-width="1309"
     inkscape:window-height="430"
     inkscape:window-x="0"
     inkscape:window-y="0"
     inkscape:window-maximized="0"
     inkscape:current-layer="svg894" /><g
     id="g888"><g
       id="g850"><path
         fill="#000000"
         d="M62.773,26.101c0,0,2.3-6.963-2.914-9.066c0,0,0.656,4.776-0.315,3.899    c-0.974-0.878-1.901-1.164-1.901-1.164s-0.047,6.717-1.422,6.654c-1.377-0.06-1.884-2.186-3.199-3.552    c-1.315-1.369-4.412-2.863-5.955-0.901c-1.543,1.959-1.062,3.348-1.062,3.348s-13.637,3.205-14.892,4.18l2.839,0.432L12.84,40.479    l5.837-6.574l-2.492,0.941c0,0,3.513-7.659,10.981-9.448c0,0-7.943-2.381-8.428-3.767c0,0,13.733,1.639,18.156-1.056    c4.422-2.691-0.229-1.206-1.109-0.898c-0.874,0.308-8.874,0.119-8.874,0.119s9.22-3.284,8.137-3.447    c-1.086-0.163-6.965-3.394-6.033-5.883c0,0,6.444,3.167,7.767,2.635c1.327-0.531,25.098-4.832,27.466,6.938    c0,0,0.515,3.001-0.076,5.984L62.773,26.101z"
         id="path848" /></g><g
       id="g854"><path
         fill="#000000"
         d="M54.012,26.385l-3.344,1.979c0,0,0.074-2.329-1.209-2.081c-1.281,0.241,2.17-2.456-1.703-2.456    c0,0,0.371-1.551,1.885-1.465C51.148,22.44,53.027,23.749,54.012,26.385z"
         id="path852" /></g><g
       id="g858"><path
         fill="#000000"
         d="M45.362,26.831l0.444,2.551c0,0-5.481,3.269-7.104,6.678l7.65-4.839c0,0-8.316,6.493-9.526,8.064    c-1.204,1.573-3.843,5.27-3.843,5.27s9.314-9.416,14.104-10.878c0,0-13.509,8.774-17.438,18.271    c-3.933,9.492-6.31,17.912,4.178,23.59c0,0-24.912-5.52-16.21-27.312c0,0-4.793,5.125-6.188,12.518c0,0-2.589-10.332,4.15-17.357    c6.739-7.025,21.69-13.394,21.69-13.394l-2.396-0.651C34.876,29.338,42.864,26.889,45.362,26.831z"
         id="path856" /></g><g
       id="g862"><path
         fill="#000000"
         d="M47.945,28.975c0,0,0.863,1.594,1.293,1.511c0.426-0.082-2.088,1.88-2.088,1.88L47.945,28.975z"
         id="path860" /></g><g
       id="g866"><path
         fill="#000000"
         d="M43.991,38.614c0,0-1.202,2.448-0.923,3.371c0.271,0.917,1.08,3.817,1.08,3.817s-3.682,2.367-3.899,3.802    c-0.215,1.428,10.409,3.477,13.804,13.057c3.395,9.582,2.127,12.459,2.127,12.459s-2.805-12.564-8.423-13.852    c0,0,5.169,5.17,5.798,8.336s1.368,6.494,0.492,6.803c-0.879,0.307-15.72,1.42-18.125-0.992c-2.4-2.412-12.353-8.008-6.761-19.303    C34.743,44.821,40.862,39.162,43.991,38.614z"
         id="path864" /></g><g
       id="g870"><path
         fill="#000000"
         d="M71.585,32.847c0,0-2.845-0.43-3.586-0.106c-0.74,0.326-2.16,0.552-2.16,0.552s-1.345-2.105-2.604-2.006    c-1.262,0.106-4.147-0.038-4.147-0.038l2.511-2.841l-0.601,2.107c0,0,4.252-1.552,5.217,1.222c0,0,1.733,0.412,1.324-0.53    c-0.41-0.938-1.414-2.549-1.414-2.549s2.844,0.431,2.924,2.633L71.585,32.847z"
         id="path868" /></g><g
       id="g874"><path
         fill="#000000"
         d="M78.281,37.953c0,0-0.485,1.387-1.799,0.9c-1.305-0.49-1.99-1.476-1.99-1.476s-0.283,0.984,0.779,2.167    c1.068,1.188,0.943,2.923,0.584,3.454c-0.358,0.533-2.861,3.372-3.56,3.409c-0.698,0.04-0.612,3.125,0.201,3.25    c0.812,0.123,2.044-0.716,2.174-1.573c0.129-0.855-0.305-1.65,0.32-3.023c0.618-1.365,1.946-1.896,2.303-2.43    C77.652,42.099,80.359,38.853,78.281,37.953z"
         id="path872" /></g><g
       id="g878"><path
         fill="#000000"
         d="M72.833,41.954c0,0,0.521,1.105-0.694,0.922c-1.216-0.187-4.035-0.761-4.035-0.761    s0.457,1.531,1.402,1.674c0.947,0.145,2.916,0.882,2.916,0.882s-6.259,1.103-7.206-2.699c-0.946-3.798,4.722-5.571,4.722-5.571    S67.238,41.403,72.833,41.954z"
         id="path876" /></g><g
       id="g882"><path
         fill="#000000"
         d="M54.643,34.085l3.108,3.247c0,0-4.31,2.859-4.589,4.719c-0.285,1.855-0.988,4.676,2.559,5.944    s5.487,2.146,5.985-1.146c0,0,1.44,3.293,3.558,3.029c0,0-0.798,2.51,0.789,3.922c1.586,1.41,1.749,2.166,2.398,1.531    c0.65-0.637,2.812-0.309,3.586,0.105c0.768,0.403,1.49,1.104,1.49,1.104s0.189,1.49-0.35,1.406    c-0.546-0.08-1.398,0.082-2.025,0.572c-0.629,0.489-2.523,0.205-3.248-0.494c-0.725-0.693-2.937-4.387-4.059-4.271    c-1.125,0.123-1.439,0.373-0.762,1.348c0.682,0.982,7.555,11.388,3.914,24.433c0,0-4.663-14.888-7.214-15.42l-1.935,8.188    c0,0-2.396-16.157-8.975-19.346c-6.573-3.188-7.278-4.026-2.682-4.21c0,0,1.162-8.597,8.447-11.003L54.643,34.085z"
         id="path880" /></g><g
       id="g886"><path
         fill="#000000"
         d="M71.17,46.53l-0.602,1.223c0,0-2.865-0.284-3.467,0.063c-0.609,0.348-4.771,1.322-3.664-1.437    c1.112-2.753,4.121-0.688,4.752-0.301C68.827,46.468,71.17,46.53,71.17,46.53z"
         id="path884" /></g></g></svg>
