<?xml version="1.0" encoding="UTF-8" standalone="no"?>
<!-- Created with Inkscape (http://www.inkscape.org/) -->

<svg
   width="201.52934"
   height="129.52533"
   viewBox="0 0 201.52934 129.52533"
   version="1.1"
   id="SVGRoot"
   sodipodi:docname="moroccoflag.svg"
   inkscape:version="1.2.2 (b0a84865, 2022-12-01)"
   xmlns:inkscape="http://www.inkscape.org/namespaces/inkscape"
   xmlns:sodipodi="http://sodipodi.sourceforge.net/DTD/sodipodi-0.dtd"
   xmlns="http://www.w3.org/2000/svg"
   xmlns:svg="http://www.w3.org/2000/svg">
  <sodipodi:namedview
     id="namedview321"
     pagecolor="#ffffff"
     bordercolor="#000000"
     borderopacity="0.25"
     inkscape:showpageshadow="2"
     inkscape:pageopacity="0.0"
     inkscape:pagecheckerboard="0"
     inkscape:deskcolor="#d1d1d1"
     inkscape:document-units="px"
     showgrid="false"
     inkscape:zoom="2.7771203"
     inkscape:cx="70.036578"
     inkscape:cy="45.730825"
     inkscape:window-width="1440"
     inkscape:window-height="872"
     inkscape:window-x="0"
     inkscape:window-y="0"
     inkscape:window-maximized="0"
     inkscape:current-layer="layer1">
    <inkscape:grid
       type="xygrid"
       id="grid444"
       originx="0.00040635467"
       originy="0.00040635467" />
  </sodipodi:namedview>
  <defs
     id="defs316" />
  <g
     inkscape:label="flag"
     inkscape:groupmode="layer"
     id="layer1"
     style="display:inline"
     transform="matrix(-0.99763998,0,0,0.99630371,200.26475,0.4633602)">
    <rect
       style="display:inline;opacity:1;fill:#010000;fill-opacity:0;stroke:#ffffff;stroke-width:2.00608;stroke-dasharray:none;stroke-opacity:1"
       id="rect4020"
       width="200"
       height="128"
       x="-0.264541"
       y="0.53775144"
       inkscape:label="background" />
  </g>
  <g
     inkscape:groupmode="layer"
     id="layer2"
     inkscape:label="star"
     style="display:inline"
     transform="matrix(-1,0,0,1,149.83128,19.463203)">
    <g
       id="path11738"
       inkscape:label="bigWhite"
       inkscape:transform-center-x="-0.0051033587"
       inkscape:transform-center-y="-3.2997749"
       transform="matrix(-0.99999604,0,0,1,99.598282,36.304484)"
       style="display:inline">
      <path
         style="color:#000000;display:inline;fill:#010000;fill-opacity:0;stroke-width:8;-inkscape-stroke:none"
         d="M 70.675738,39.29571 50.327439,-22.966265 29.993264,39.315146 82.919952,0.72275628 17.403204,0.62982123 70.461994,39.040388 50.304592,-23.298461 30.17004,39.032965 83.228828,0.59837264 17.726201,0.71074584 Z"
         id="path37403" />
      <path
         style="color:#000000;display:inline;fill:#ffffff;-inkscape-stroke:none"
         d="M 50.302734,-36.304687 39.654297,-3.3398438 5.03125,-3.3886719 33.095703,16.927734 22.349609,49.839844 50.341797,29.427734 78.322266,49.818359 74.478516,38.052734 67.560547,16.886719 95.599609,-3.4238281 60.955078,-3.3632813 Z m 0.02734,26.220703 2.201172,6.7343746 -4.402344,0.00781 z m -4.816406,14.7539059 9.634765,0.013672 2.964844,9.1699221 -7.802734,5.652343 -7.789063,-5.675781 z m -8.449219,0.00781 -1.353516,4.1894531 -5.732421,-4.1777344 z m 26.511719,0.017578 7.091797,0.00977 -5.72461,4.1738282 z m -23.658203,17.1718741 3.566406,2.582032 -5.744141,4.160156 z m 20.789062,0.0039 2.181641,6.75 -5.740235,-4.15625 z"
         id="path37405" />
    </g>
    <g
       id="path11736"
       inkscape:label="bigBlack"
       inkscape:transform-center-x="-0.0051033587"
       inkscape:transform-center-y="-3.2997749"
       transform="matrix(-0.99999604,0,0,1,99.598282,36.304484)"
       style="display:inline">
      <path
         style="color:#000000;display:inline;fill:#030303;-inkscape-stroke:none"
         d="M 50.302734,-34.679687 40.017578,-2.8378906 6.578125,-2.8847656 33.683594,16.736328 23.304687,48.523437 50.341797,28.808594 77.367187,48.501953 74.001953,38.208984 66.972656,16.697266 94.052734,-2.9199219 l -33.46289,0.056641 z m 0.02539,22.984374 2.890625,8.8457036 -5.78125,0.00977 z m -5.177734,15.8632817 10.361328,0.015625 3.189453,9.8613283 -8.392578,6.078125 -8.375,-6.101563 z m -7.398438,0.00781 -1.777344,5.5019532 -7.529297,-5.484375 z m 25.134766,0.017578 9.3125,0.013672 -7.517578,5.4824219 z m -23.232422,16.8652343 4.683594,3.390625 -7.544922,5.464843 z m 21.314453,0.002 2.865234,8.861328 -7.537109,-5.455078 z"
         id="path37411" />
      <path
         style="color:#000000;display:inline;fill:#010000;fill-opacity:0;stroke-width:7;-inkscape-stroke:none"
         d="M 70.675738,39.29571 50.327439,-22.966265 29.993264,39.315146 82.919952,0.72275628 17.403204,0.62982123 70.461994,39.040388 50.304592,-23.298461 30.17004,39.032965 83.228828,0.59837264 17.726201,0.71074584 Z"
         id="path37409"
         inkscape:label="path37412" />
    </g>
    <g
       id="path12791"
       inkscape:label="smallWhite"
       inkscape:transform-center-x="-0.0051033587"
       inkscape:transform-center-y="-3.2997749"
       transform="matrix(-0.99999604,0,0,1,99.598282,36.304484)"
       style="display:inline">
      <path
         style="color:#000000;display:inline;fill:#010000;fill-opacity:0;stroke-width:6;-inkscape-stroke:none"
         d="M 70.675738,39.29571 50.327439,-22.966265 29.993264,39.315146 82.919952,0.72275628 17.403204,0.62982123 70.461994,39.040388 50.304592,-23.298461 30.17004,39.032965 83.228828,0.59837264 17.726201,0.71074584 Z"
         id="path37415" />
      <path
         style="color:#000000;display:inline;fill:#fffafa;-inkscape-stroke:none"
         d="M 50.302734,-33.054687 40.380859,-2.3378906 8.125,-2.3828125 34.271484,16.544922 24.259766,47.208984 50.341797,28.191406 76.410156,47.1875 73.527344,38.363281 66.382812,16.503906 92.505859,-2.4179688 60.226562,-2.3632813 Z m 0.02734,19.749999 3.578125,10.9531255 L 46.75,-2.3398438 Z M 44.787109,3.6679688 55.875,3.6835938 59.287109,14.236328 50.306641,20.742187 41.345703,14.210938 Z M 38.4375,3.6757813 36.238281,10.488281 26.914062,3.6953125 Z m 23.759766,0.017578 11.535156,0.015625 -9.3125,6.7890627 z M 39.390625,20.25 l 5.798828,4.199219 -9.341797,6.765625 z m 21.841797,0 3.548828,10.974609 -9.333984,-6.757812 z"
         id="path37417" />
    </g>
    <g
       id="path8005"
       inkscape:label="thickBlack"
       inkscape:transform-center-x="-0.0051033587"
       inkscape:transform-center-y="-3.2997749"
       transform="matrix(-0.99999604,0,0,1,99.598282,36.304484)"
       style="display:inline">
      <path
         style="color:#000000;display:inline;fill:#010000;fill-opacity:0;stroke-width:5;-inkscape-stroke:none"
         d="M 70.675738,39.29571 50.327439,-22.966265 29.993264,39.315146 82.919952,0.72275628 17.403204,0.62982123 70.461994,39.040388 50.304592,-23.298461 30.17004,39.032965 83.228828,0.59837264 17.726201,0.71074584 Z"
         id="path37421" />
      <path
         style="color:#000000;display:inline;fill:#000000;fill-opacity:1;-inkscape-stroke:none"
         d="M 50.302734,-31.427734 40.744141,-1.8359375 9.671875,-1.8808594 34.861328,16.353516 25.216797,45.892578 50.341797,27.572266 75.455078,45.871094 73.052734,38.519531 65.794922,16.314453 90.958984,-1.9140625 59.863281,-1.8613281 Z m 0.02539,16.511718 4.269531,13.0644535 -8.539062,0.013672 z m -5.904297,18.0839848 11.816406,0.015625 3.636719,11.2441402 -9.570312,6.931641 -9.548829,-6.958984 z m -5.296875,0.00586 -2.625,8.1250002 -11.117187,-8.1015627 z m 22.378906,0.017578 13.757813,0.019531 -11.103516,8.0976562 z M 61.496094,19.4375 65.730469,32.529297 54.597656,24.46875 Z M 39.125,19.4414 l 6.917969,5.00586 -11.140625,8.070312 z"
         id="path37423" />
    </g>
    <g
       inkscape:groupmode="layer"
       id="layer7"
       inkscape:label="patching"
       style="display:inline">
      <path
         id="path39695"
         style="color:#000000;display:inline;fill:#ffffff;-inkscape-stroke:none"
         class="UnoptimicedTransforms"
         inkscape:label="patches"
         d="m 10.840258,16.292817 6.435052,4.686672 0.294011,-0.405557 -6.435052,-4.686673 z m 0.588022,-0.811115 6.435052,4.686672 0.293407,-0.4037 -6.435052,-4.686672 z m 4.704683,-12.2800121 0.477386,0.155112 2.469353,-7.5682837 -0.477386,-0.1551121 z m 0.952914,0.3096205 0.475528,0.1545085 2.469353,-7.5682837 -0.475528,-0.1545085 z m -2.411775,7.5048466 6.44666,4.669907 0.293407,-0.403699 -6.446659,-4.669908 z m 0.586815,-0.8074 6.447263,4.66805 0.293408,-0.4037 -6.44666,-4.6699077 z m 9.543699,-12.5601014 -2.44892,7.5749228 0.475529,0.1545085 2.448919,-7.5749228 z m 0.951057,0.309017 -2.44892,7.5749228 0.475528,0.1545085 2.44892,-7.5749228 z m 4.316057,-1.3125362 -0.0011,0.5027758 6.95049,0.00962 5.57e-4,-0.00803 6.246362,0.00879 5.21e-4,-0.5009182 -6.948029,-0.010873 -5.57e-4,0.00803 z m -10e-4,1.0018365 -5.2e-4,0.5009182 6.95049,0.00962 5.56e-4,-0.00803 6.248221,0.00939 -0.0013,-0.5015218 -6.948633,-0.00901 -5.56e-4,0.00803 z m -6.764158,25.9185381 0.295231,0.406025 6.446167,-4.670194 -0.295231,-0.406025 z m 6.76484,-20.3776038 -5.21e-4,0.5009183 6.248683,-0.010995 9.4e-5,0.012352 6.949095,-0.011371 5.21e-4,-0.5009182 -6.248683,0.010995 -9.4e-5,-0.012352 z m -4.39e-4,0.999979 -5.21e-4,0.5009182 6.248684,-0.010995 9.3e-5,0.012352 6.949096,-0.011371 5.21e-4,-0.5009182 -6.248683,0.010995 -9.4e-5,-0.012352 z m -6.175797,20.1890718 0.293977,0.403565 6.446167,-4.670194 -0.293373,-0.405422 z m 3.258778,4.482255 0.293374,0.405422 6.433674,-4.688629 -0.295231,-0.406026 z m 0.587351,0.808986 0.293373,0.405422 6.433674,-4.688629 -0.293373,-0.405422 z m 8.634932,-16.898989 0.394572,1.206364 -0.02034,0.0057 2.158185,6.605444 0.475041,-0.153695 -0.394571,-1.206364 0.02094,-0.0076 -2.158185,-6.605443 z m 0.950687,-0.309248 0.394572,1.206364 -0.02034,0.0057 2.158184,6.605444 0.475042,-0.153695 -0.394572,-1.206364 0.0228,-0.007 -2.158184,-6.605444 z m 5.271613,-1.712615 0.390254,1.207014 -0.01848,0.0063 2.139703,6.61176 0.475645,-0.155553 -0.390253,-1.207014 0.01602,-0.0051 -2.137846,-6.611157 z m 0.950687,-0.309248 0.38965,1.208871 -0.01602,0.0051 2.137846,6.611157 0.477502,-0.154949 -0.390253,-1.207014 0.01602,-0.0051 -2.137242,-6.613015 z"
         transform="matrix(-0.30901577,0.95105652,0.95105275,0.30901699,47.467606,16.617441)" />
    </g>
    <path
       id="path55664-0-4-9"
       style="display:inline;fill:#ff00ff;fill-opacity:1;stroke:#000000;stroke-width:0.487629;stroke-linecap:butt;stroke-linejoin:miter;stroke-miterlimit:0;stroke-dasharray:none;stroke-opacity:1"
       inkscape:label="lining"
       d="m 32.725818,44.72251 2.44068,1.74314 m -4.689691,4.682304 2.44068,1.74314 m 5.604298,4.092647 2.44068,1.74314 m -0.282868,-8.220613 2.44068,1.74314 m 4.467192,13.770838 1.614084,-1.172654 m 0.0757,-8.101888 1.614073,-1.172654 m 11.064613,-8.056278 1.614078,-1.172654 m -5.797333,4.2246 1.614077,-1.172654 m 0.332847,7.815899 1.614078,-1.172654 m 2.915124,-2.108729 1.614078,-1.172654 m -8.473271,-4.121529 0.616478,1.897456 m 3.068959,-11.655323 0.616477,1.897456 m -2.333511,-7.189548 0.616477,1.897456 m -19.836428,16.41128 0.616557,-1.897432 m -8.235997,7.754397 0.616548,-1.897432 m 1.507574,-8.173536 0.616547,-1.897432 m 3.181007,11.340613 0.616548,-1.897432 m 4.195133,-13.009575 0.616548,-1.897432 M 39.156323,33.79399 39.77287,31.896558 m 12.942999,8.328576 1.995082,3.8e-5 m 4.556441,-6.513493 1.995083,3.8e-5 m -28.477697,19.674814 0.616557,-1.897432 m 3.843075,-11.245088 6.636224,-0.01158 m 13.694712,-0.583128 0.616477,1.897456 m -3.9287,-2.522407 0.616477,1.897456 m -2.617709,-7.961797 0.620407,1.812773 m 12.70048,18.02812 0.616477,1.897456 M 49.694941,65.097249 41.600923,59.226223 m 14.015017,2.107741 -8.094011,-5.871026 m -8.286737,-21.75738 6.636224,-0.01158" />
  </g>
</svg>
