<?xml version="1.0" encoding="UTF-8" standalone="no"?>
<!-- Created with Inkscape (http://www.inkscape.org/) -->

<svg
   width="201.52934"
   height="129.52533"
   viewBox="0 0 201.52934 129.52533"
   version="1.1"
   id="SVGRoot"
   sodipodi:docname="mor.svg"
   inkscape:version="1.2.2 (b0a84865, 2022-12-01)"
   xmlns:inkscape="http://www.inkscape.org/namespaces/inkscape"
   xmlns:sodipodi="http://sodipodi.sourceforge.net/DTD/sodipodi-0.dtd"
   xmlns="http://www.w3.org/2000/svg"
   xmlns:svg="http://www.w3.org/2000/svg">
  <sodipodi:namedview
     id="namedview321"
     pagecolor="#ffffff"
     bordercolor="#000000"
     borderopacity="0.25"
     inkscape:showpageshadow="2"
     inkscape:pageopacity="0.0"
     inkscape:pagecheckerboard="0"
     inkscape:deskcolor="#d1d1d1"
     inkscape:document-units="px"
     showgrid="false"
     inkscape:zoom="2.8794217"
     inkscape:cx="48.79452"
     inkscape:cy="81.61361"
     inkscape:window-width="1440"
     inkscape:window-height="872"
     inkscape:window-x="0"
     inkscape:window-y="0"
     inkscape:window-maximized="0"
     inkscape:current-layer="layer1">
    <inkscape:grid
       type="xygrid"
       id="grid444"
       originx="0.00040635467"
       originy="0.00040635467" />
  </sodipodi:namedview>
  <defs
     id="defs316" />
  <g
     inkscape:label="flag"
     inkscape:groupmode="layer"
     id="layer1"
     style="display:inline"
     transform="matrix(-0.99763998,0,0,0.99630371,200.26475,0.4633602)">
    <path
       id="rect4020"
       style="display:inline;opacity:1;fill:#101000;fill-opacity:1;stroke:#f5f5ff;stroke-width:5.15360707;stroke-dasharray:none;stroke-opacity:1"
       inkscape:label="background"
       d="M 1.4805842,2.1119114 H 198.16151 V 127.28121 H 1.4805842 Z" />
    <path
       id="path374"
       style="color:#000000;display:none;fill:none;fill-opacity:1;stroke:#0e0000;stroke-width:0.90568;stroke-dasharray:none;stroke-opacity:1"
       d="M 50.26095,-3.1254411 61.850338,34.747841 99.532796,34.693134 68.988557,58.031493 80.683592,95.841651 50.215103,72.391778 19.760568,95.816404 23.55393,83.572812 31.475538,57.985203 0.95920827,34.651054 38.667576,34.718384 Z m 0,1.9315377 L 39.076215,35.313836 2.7014035,35.248609 32.139327,57.755858 24.088151,83.755866 20.840969,94.253078 50.215103,71.657457 79.607179,94.278327 68.324768,57.804252 97.788602,35.29069 61.4417,35.34329 Z m -0.03189,23.4919554 4.034558,13.043136 -8.067123,-0.01472 z m 0.002,1.914704 -3.257148,10.52246 6.514297,0.01051 z M 56.476215,42.486614 60.353297,55.026878 50.254942,62.797214 40.13466,55.05844 43.979849,42.505551 Z m 7.154165,0.01052 12.986732,0.02315 -10.508988,8.079633 z m -26.774795,0.02104 -2.503659,8.092257 -10.495032,-8.075425 z m 19.209999,0.563896 -11.675103,0.01894 -3.594026,11.730198 9.456494,7.229588 9.438554,-7.259044 z m 8.338219,0.0084 2.001332,6.545765 8.485728,-6.524725 z m -28.323634,0.02104 -10.495033,0.01683 8.471774,6.520518 z M 62.55596,62.210165 66.548657,75.253303 56.02173,67.20523 Z m -24.612002,0 6.518284,5.016105 -10.516961,8.039656 z m 24.314992,0.963666 -5.276422,4.031399 8.501675,6.50158 z m -24.017981,0.0021 -3.22924,10.539293 8.493702,-6.488957 z"
       inkscape:label="mask"
       transform="matrix(1.1067547,0,0,1.1082391,44.290376,12.926194)" />
    <path
       style="display:none;fill:#000000;fill-opacity:1;stroke:#0e0000;stroke-width:0.347292;stroke-dasharray:none;stroke-opacity:1"
       d="m 77.185637,61.387677 c 1.09831,-0.06892 2.895546,-0.06892 3.993857,0 1.098311,0.06892 0.199693,0.12531 -1.996929,0.12531 -2.196621,0 -3.095239,-0.05639 -1.996928,-0.12531 z"
       id="path9625"
       transform="matrix(-1.0023656,0,0,1.00371,200.7385,-0.46507927)"
       inkscape:label="path9625" />
    <path
       style="display:none;fill:#ffffff;fill-opacity:1;stroke:#ffffff;stroke-width:1.04188;stroke-dasharray:none;stroke-opacity:1"
       d="M 2.7783356,64.769949 V 2.6046897 H 100.88831 198.99829 V 64.769949 126.93521 H 100.88831 2.7783356 Z M 83.350069,107.48686 c 9.094201,-6.99892 16.723551,-12.841895 16.954101,-12.984385 0.2621,-0.161988 6.87177,4.70516 17.63733,12.987545 9.46997,7.28565 17.27529,13.18948 17.34514,13.11963 0.0699,-0.0699 -2.83139,-9.65394 -6.4472,-21.29798 -3.61581,-11.64404 -6.5692,-21.327262 -6.56308,-21.518272 0.006,-0.191011 7.72873,-6.207844 17.16136,-13.370741 9.43263,-7.162896 17.15939,-13.139468 17.17059,-13.281267 0.0112,-0.141803 -9.61293,-0.298084 -21.38695,-0.347292 l -21.40731,-0.08947 -6.37802,-20.837517 C 103.92811,18.406474 100.96197,8.7951687 100.8446,8.5086529 100.51349,7.7003694 100.24827,8.4996198 93.55674,30.471063 l -6.212814,20.399596 -21.465775,0.0038 c -11.806176,0.0021 -21.384054,0.136031 -21.284176,0.297636 0.09988,0.161605 7.908063,6.198456 17.351522,13.415218 16.644824,12.720102 17.160553,13.149237 16.863438,14.031963 -0.980287,2.912422 -12.823464,41.486344 -12.823464,41.766764 0,0.48366 -0.710757,1.01164 17.364598,-12.8992 z"
       id="path17162"
       transform="matrix(-1.0023656,0,0,1.00371,200.7385,-0.46507927)" />
    <path
       style="display:none;fill:#ffffff;fill-opacity:1;stroke:#ffffff;stroke-width:1.04188;stroke-dasharray:none;stroke-opacity:1"
       d="m 95.678933,77.21259 c -2.808298,-2.175308 -4.491269,-3.710986 -4.452552,-4.062866 0.03423,-0.311138 0.815641,-3.024882 1.73646,-6.030542 l 1.674216,-5.464837 5.969773,-0.005 5.96977,-0.005 0.91426,3.038804 c 0.50285,1.671343 1.29372,4.258053 1.75748,5.748245 0.46377,1.490193 0.84321,2.840007 0.84321,2.999587 0,0.364829 -9.1223,7.320809 -9.56901,7.296607 -0.18085,-0.0098 -2.360469,-1.591537 -4.843607,-3.514975 z"
       id="path17164"
       transform="matrix(-1.0023656,0,0,1.00371,200.7385,-0.46507927)" />
    <path
       style="display:none;fill:#ffffff;fill-opacity:1;stroke:#ffffff;stroke-width:1.04188;stroke-dasharray:none;stroke-opacity:1"
       d="m 99.204543,46.971237 c 0.661938,-2.148869 1.247357,-4.063316 1.300927,-4.254327 0.0775,-0.276272 1.34432,3.535173 2.51065,7.5536 0.15683,0.540345 -0.11154,0.607761 -2.41935,0.607761 h -2.595752 z"
       id="path17166"
       transform="matrix(-1.0023656,0,0,1.00371,200.7385,-0.46507927)" />
    <path
       style="display:none;fill:#ffffff;fill-opacity:1;stroke:#ffffff;stroke-width:1.04188;stroke-dasharray:none;stroke-opacity:1"
       d="m 79.008919,64.374242 c -1.719095,-1.345753 -3.151164,-2.471451 -3.182375,-2.501549 -0.03121,-0.0301 1.790363,-0.07256 4.047945,-0.09435 l 4.104694,-0.03963 -0.518992,1.747637 c -0.606359,2.04183 -1.095452,3.37408 -1.230225,3.351033 -0.05248,-0.009 -1.501951,-1.117388 -3.221047,-2.463142 z"
       id="path17168"
       transform="matrix(-1.0023656,0,0,1.00371,200.7385,-0.46507927)" />
    <path
       style="display:none;fill:#ffffff;fill-opacity:1;stroke:#ffffff;stroke-width:1.04188;stroke-dasharray:none;stroke-opacity:1"
       d="m 82.308193,96.56766 c 0,-0.500544 4.286785,-14.287403 4.524783,-14.552291 0.144704,-0.161053 1.973743,1.018798 4.06453,2.621893 l 3.801433,2.914717 -5.88497,4.497592 c -5.83676,4.460748 -6.505776,4.925362 -6.505776,4.518089 z m 6.263585,-5.837637 c 2.085548,-1.575837 3.7955,-2.982533 3.799894,-3.12599 0.0079,-0.259181 -3.936787,-3.45443 -4.536304,-3.674432 -0.172437,-0.06328 -0.451887,0.249284 -0.621,0.694584 -0.638686,1.681761 -2.746198,8.970996 -2.593753,8.970996 0.08759,0 1.865615,-1.289321 3.951163,-2.865158 z"
       id="path17170"
       transform="matrix(-1.0023656,0,0,1.00371,200.7385,-0.46507927)" />
    <path
       style="display:none;fill:#ffffff;fill-opacity:1;stroke:#ffffff;stroke-width:1.04188;stroke-dasharray:none;stroke-opacity:1"
       d="m 112.57441,90.106361 c -1.74759,-1.352486 -3.17744,-2.502246 -3.17744,-2.555023 0,-0.05278 0.9163,-0.80753 2.03622,-1.67723 l 2.03623,-1.581274 1.24902,4.028496 c 0.68696,2.215673 1.20051,4.077006 1.14122,4.136297 -0.0593,0.05929 -1.53765,-0.99878 -3.28525,-2.351266 z"
       id="path17172"
       transform="matrix(-1.0023656,0,0,1.00371,200.7385,-0.46507927)" />
    <path
       style="display:none;fill:#ffffff;fill-opacity:1;stroke:#ffffff;stroke-width:1.04188;stroke-dasharray:none;stroke-opacity:1"
       d="m 118.0963,64.56969 c -0.39139,-1.267172 -0.71162,-2.443768 -0.71162,-2.614658 0,-0.170891 1.89072,-0.31071 4.20161,-0.31071 h 4.20161 l -3.07291,2.365243 c -1.6901,1.300883 -3.2606,2.47748 -3.48999,2.614658 -0.2861,0.171084 -0.64058,-0.474162 -1.1287,-2.054533 z"
       id="path17174"
       transform="matrix(-1.0023656,0,0,1.00371,200.7385,-0.46507927)" />
  </g>
  <g
     inkscape:groupmode="layer"
     id="layer2"
     inkscape:label="star"
     style="display:inline"
     transform="matrix(-1.1041427,0,0,1.1041427,156.0789,13.341775)">
    <g
       id="path11738"
       inkscape:label="bigWhite"
       inkscape:transform-center-x="-0.0057427219"
       inkscape:transform-center-y="-3.7111161"
       transform="matrix(-1.1246531,0,0,1.1246575,105.7584,34.969148)"
       style="display:none">
      <path
         style="color:#000000;display:inline;fill:#ffffff;stroke-width:1;stroke-dasharray:none"
         d="M 50.302734,-36.304687 39.654297,-3.3398438 5.03125,-3.3886719 33.095703,16.927734 22.349609,49.839844 50.341797,29.427734 78.322266,49.818359 74.478516,38.052734 67.560547,16.886719 95.599609,-3.4238281 60.955078,-3.3632813 Z m 0.02734,26.220703 2.201172,6.7343746 -4.402344,0.00781 z m -4.816406,14.7539059 9.634765,0.013672 2.964844,9.1699221 -7.802734,5.652343 -7.789063,-5.675781 z m -8.449219,0.00781 -1.353516,4.1894531 -5.732421,-4.1777344 z m 26.511719,0.017578 7.091797,0.00977 -5.72461,4.1738282 z m -23.658203,17.1718741 3.566406,2.582032 -5.744141,4.160156 z m 20.789062,0.0039 2.181641,6.75 -5.740235,-4.15625 z"
         id="path37405"
         inkscape:label="path37405" />
    </g>
    <g
       id="path11736"
       inkscape:label="bigBlack"
       inkscape:transform-center-x="-0.0051033587"
       inkscape:transform-center-y="-3.2997749"
       transform="matrix(-0.99999604,0,0,1,99.598282,36.304484)"
       style="display:none">
      <path
         style="color:#000000;display:inline;fill:#010000;fill-opacity:0;stroke-width:7;-inkscape-stroke:none"
         d="M 70.675738,39.29571 50.327439,-22.966265 29.993264,39.315146 82.919952,0.72275628 17.403204,0.62982123 70.461994,39.040388 50.304592,-23.298461 30.17004,39.032965 83.228828,0.59837264 17.726201,0.71074584 Z"
         id="path37409"
         inkscape:label="path37412" />
    </g>
    <g
       id="path12791"
       inkscape:label="smallWhite"
       inkscape:transform-center-x="-0.0051033587"
       inkscape:transform-center-y="-3.2997749"
       transform="matrix(-0.99999604,0,0,1,99.598282,36.304484)"
       style="display:none">
      <path
         style="color:#000000;display:inline;fill:#010000;fill-opacity:0;stroke-width:6;-inkscape-stroke:none"
         d="M 70.675738,39.29571 50.327439,-22.966265 29.993264,39.315146 82.919952,0.72275628 17.403204,0.62982123 70.461994,39.040388 50.304592,-23.298461 30.17004,39.032965 83.228828,0.59837264 17.726201,0.71074584 Z"
         id="path37415" />
    </g>
    <g
       id="path8005"
       inkscape:label="thickBlack"
       inkscape:transform-center-x="-0.0051033587"
       inkscape:transform-center-y="-3.2997749"
       transform="matrix(-0.99999604,0,0,1,99.598282,36.304484)"
       style="display:none">
      <path
         style="color:#000000;display:inline;fill:#010000;fill-opacity:0;stroke-width:5;-inkscape-stroke:none"
         d="M 70.675738,39.29571 50.327439,-22.966265 29.993264,39.315146 82.919952,0.72275628 17.403204,0.62982123 70.461994,39.040388 50.304592,-23.298461 30.17004,39.032965 83.228828,0.59837264 17.726201,0.71074584 Z"
         id="path37421" />
      <path
         style="color:#000000;display:inline;fill:#000000;fill-opacity:1;-inkscape-stroke:none"
         d="M 50.302734,-31.427734 40.744141,-1.8359375 9.671875,-1.8808594 34.861328,16.353516 25.216797,45.892578 50.341797,27.572266 75.455078,45.871094 73.052734,38.519531 65.794922,16.314453 90.958984,-1.9140625 59.863281,-1.8613281 Z m 0.02539,16.511718 4.269531,13.0644535 -8.539062,0.013672 z m -5.904297,18.0839848 11.816406,0.015625 3.636719,11.2441402 -9.570312,6.931641 -9.548829,-6.958984 z m -5.296875,0.00586 -2.625,8.1250002 -11.117187,-8.1015627 z m 22.378906,0.017578 13.757813,0.019531 -11.103516,8.0976562 z M 61.496094,19.4375 65.730469,32.529297 54.597656,24.46875 Z M 39.125,19.4414 l 6.917969,5.00586 -11.140625,8.070312 z"
         id="path37423" />
    </g>
    <g
       inkscape:groupmode="layer"
       id="layer7"
       inkscape:label="patching"
       style="display:none">
      <path
         id="path39695"
         style="color:#000000;display:inline;fill:#ffffff;-inkscape-stroke:none"
         class="UnoptimicedTransforms"
         inkscape:label="patches"
         d="m 10.840258,16.292817 6.435052,4.686672 0.294011,-0.405557 -6.435052,-4.686673 z m 0.588022,-0.811115 6.435052,4.686672 0.293407,-0.4037 -6.435052,-4.686672 z m 4.704683,-12.2800121 0.477386,0.155112 2.469353,-7.5682837 -0.477386,-0.1551121 z m 0.952914,0.3096205 0.475528,0.1545085 2.469353,-7.5682837 -0.475528,-0.1545085 z m -2.411775,7.5048466 6.44666,4.669907 0.293407,-0.403699 -6.446659,-4.669908 z m 0.586815,-0.8074 6.447263,4.66805 0.293408,-0.4037 -6.44666,-4.6699077 z m 9.543699,-12.5601014 -2.44892,7.5749228 0.475529,0.1545085 2.448919,-7.5749228 z m 0.951057,0.309017 -2.44892,7.5749228 0.475528,0.1545085 2.44892,-7.5749228 z m 4.316057,-1.3125362 -0.0011,0.5027758 6.95049,0.00962 5.57e-4,-0.00803 6.246362,0.00879 5.21e-4,-0.5009182 -6.948029,-0.010873 -5.57e-4,0.00803 z m -10e-4,1.0018365 -5.2e-4,0.5009182 6.95049,0.00962 5.56e-4,-0.00803 6.248221,0.00939 -0.0013,-0.5015218 -6.948633,-0.00901 -5.56e-4,0.00803 z m -6.764158,25.9185381 0.295231,0.406025 6.446167,-4.670194 -0.295231,-0.406025 z m 6.76484,-20.3776038 -5.21e-4,0.5009183 6.248683,-0.010995 9.4e-5,0.012352 6.949095,-0.011371 5.21e-4,-0.5009182 -6.248683,0.010995 -9.4e-5,-0.012352 z m -4.39e-4,0.999979 -5.21e-4,0.5009182 6.248684,-0.010995 9.3e-5,0.012352 6.949096,-0.011371 5.21e-4,-0.5009182 -6.248683,0.010995 -9.4e-5,-0.012352 z m -6.175797,20.1890718 0.293977,0.403565 6.446167,-4.670194 -0.293373,-0.405422 z m 3.258778,4.482255 0.293374,0.405422 6.433674,-4.688629 -0.295231,-0.406026 z m 0.587351,0.808986 0.293373,0.405422 6.433674,-4.688629 -0.293373,-0.405422 z m 8.634932,-16.898989 0.394572,1.206364 -0.02034,0.0057 2.158185,6.605444 0.475041,-0.153695 -0.394571,-1.206364 0.02094,-0.0076 -2.158185,-6.605443 z m 0.950687,-0.309248 0.394572,1.206364 -0.02034,0.0057 2.158184,6.605444 0.475042,-0.153695 -0.394572,-1.206364 0.0228,-0.007 -2.158184,-6.605444 z m 5.271613,-1.712615 0.390254,1.207014 -0.01848,0.0063 2.139703,6.61176 0.475645,-0.155553 -0.390253,-1.207014 0.01602,-0.0051 -2.137846,-6.611157 z m 0.950687,-0.309248 0.38965,1.208871 -0.01602,0.0051 2.137846,6.611157 0.477502,-0.154949 -0.390253,-1.207014 0.01602,-0.0051 -2.137242,-6.613015 z"
         transform="matrix(-0.30901577,0.95105652,0.95105275,0.30901699,47.467606,16.617441)" />
    </g>
    <path
       id="path55664-0-4-9"
       style="display:none;fill:#ff00ff;fill-opacity:1;stroke:#000000;stroke-width:0.487629;stroke-linecap:butt;stroke-linejoin:miter;stroke-miterlimit:0;stroke-dasharray:none;stroke-opacity:1"
       inkscape:label="lining"
       d="m 32.725818,44.72251 2.44068,1.74314 m -4.689691,4.682304 2.44068,1.74314 m 5.604298,4.092647 2.44068,1.74314 m -0.282868,-8.220613 2.44068,1.74314 m 4.467192,13.770838 1.614084,-1.172654 m 0.0757,-8.101888 1.614073,-1.172654 m 11.064613,-8.056278 1.614078,-1.172654 m -5.797333,4.2246 1.614077,-1.172654 m 0.332847,7.815899 1.614078,-1.172654 m 2.915124,-2.108729 1.614078,-1.172654 m -8.473271,-4.121529 0.616478,1.897456 m 3.068959,-11.655323 0.616477,1.897456 m -2.333511,-7.189548 0.616477,1.897456 m -19.836428,16.41128 0.616557,-1.897432 m -8.235997,7.754397 0.616548,-1.897432 m 1.507574,-8.173536 0.616547,-1.897432 m 3.181007,11.340613 0.616548,-1.897432 m 4.195133,-13.009575 0.616548,-1.897432 M 39.156323,33.79399 39.77287,31.896558 m 12.942999,8.328576 1.995082,3.8e-5 m 4.556441,-6.513493 1.995083,3.8e-5 m -28.477697,19.674814 0.616557,-1.897432 m 3.843075,-11.245088 6.636224,-0.01158 m 13.694712,-0.583128 0.616477,1.897456 m -3.9287,-2.522407 0.616477,1.897456 m -2.617709,-7.961797 0.620407,1.812773 m 12.70048,18.02812 0.616477,1.897456 M 49.694941,65.097249 41.600923,59.226223 m 14.015017,2.107741 -8.094011,-5.871026 m -8.286737,-21.75738 6.636224,-0.01158" />
    <path
       style="color:#000000;display:none;fill:#010000;fill-opacity:0;stroke:#ffffff;stroke-width:9.9625;stroke-dasharray:none;stroke-opacity:1"
       d="M 70.675738,39.29571 50.327439,-22.966265 29.993264,39.315146 82.919952,0.72275628 17.403204,0.62982123 70.461994,39.040388 50.304592,-23.298461 30.17004,39.032965 83.228828,0.59837264 17.726201,0.71074584 Z"
       id="path37403"
       transform="matrix(-1.1246531,0,0,1.1246575,105.7584,34.969148)" />
    <path
       id="path37411"
       style="color:#000000;display:inline;fill:#250000;fill-opacity:1;stroke:#f5f5f7;stroke-width:2.36435;stroke-dasharray:none;stroke-opacity:1"
       d="M 49.000907,2.5629314 59.085953,35.520134 91.877101,35.472527 65.297607,55.781489 75.474587,88.68376 48.961011,68.27776 22.459577,88.661791 25.760548,78.007458 32.653905,55.741208 6.0986977,35.43591 38.912392,35.494497 Z m 0,1.6808175 L 39.267988,36.012661 7.6147494,35.9559 33.231532,55.541633 26.225426,78.166751 23.399738,87.301389 48.961011,67.638757 74.537896,87.323361 64.71998,55.583744 90.359309,35.992519 58.730358,36.038291 Z m -0.02775,20.4426211 3.510858,11.350092 -7.019983,-0.01281 z m 0.0017,1.666168 -2.83436,9.15661 5.66872,0.0091 z m 5.434513,15.90185 3.373824,10.912495 -8.787555,6.76172 -8.806635,-6.734255 3.34607,-10.923481 z m 6.22553,0.0091 11.301011,0.02014 -9.144887,7.03087 z m -23.299337,0.0183 -2.178675,7.041854 -9.132741,-7.027207 z m 16.716477,0.4907 -10.159635,0.01648 -3.127509,10.207579 8.229008,6.291163 8.213399,-6.316796 z m 7.25589,0.0073 1.741552,5.696103 7.384252,-5.677794 z m -24.64713,0.01831 -9.132743,0.01464 7.372109,5.674133 z m 23.039183,16.619657 3.474431,11.350095 -9.160496,-7.003406 z m -21.417281,0 5.672188,4.364997 -9.151824,6.996082 z m 21.158823,0.838579 -4.591523,3.50811 7.398128,5.657653 z m -20.900365,0.0018 -2.810074,9.171257 7.391191,-5.646668 z" />
  </g>
</svg>
