<?xml version="1.0" encoding="UTF-8" standalone="no"?>
<!-- Created for MapSVG plugin: http://mapsvg.com -->

<svg
   mapsvg:geoViewBox="-17.107061 35.922390 -0.995761 20.768035"
   width="612.51373"
   height="654.53473"
   version="1.1"
   id="svg498"
   sodipodi:docname="morocco.svg"
   inkscape:version="1.2.2 (b0a84865, 2022-12-01)"
   inkscape:export-filename="../Documents/Work/svelte/svelte_portfolio/static/media/icons/morocco.svg"
   inkscape:export-xdpi="96"
   inkscape:export-ydpi="96"
   xmlns:inkscape="http://www.inkscape.org/namespaces/inkscape"
   xmlns:sodipodi="http://sodipodi.sourceforge.net/DTD/sodipodi-0.dtd"
   xmlns="http://www.w3.org/2000/svg"
   xmlns:svg="http://www.w3.org/2000/svg"
   xmlns:mapsvg="http://mapsvg.com">
  <defs
     id="defs502" />
  <sodipodi:namedview
     id="namedview500"
     pagecolor="#ffffff"
     bordercolor="#000000"
     borderopacity="0.25"
     inkscape:showpageshadow="2"
     inkscape:pageopacity="0.0"
     inkscape:pagecheckerboard="0"
     inkscape:deskcolor="#d1d1d1"
     showgrid="false"
     inkscape:zoom="0.5830315"
     inkscape:cx="278.71564"
     inkscape:cy="217.827"
     inkscape:window-width="1440"
     inkscape:window-height="872"
     inkscape:window-x="0"
     inkscape:window-y="0"
     inkscape:window-maximized="0"
     inkscape:current-layer="svg498" />
  <path
     id="path15145-5"
     style="display:inline;fill:none;stroke:#000000;stroke-width:1;stroke-dasharray:none;stroke-opacity:1"
     d="m 439.49805,3.9316406 -0.47657,0.4199219 c -1.33546,1.1763428 -2.35754,1.4966149 -4.15234,1.2988281 -1.67382,-0.1844528 -2.74212,0.097591 -3.59375,0.9492188 -0.88999,0.8899911 -1.93855,1.1415245 -3.95508,0.9492187 -3.31848,-0.3164687 -3.58038,0.062028 -5.20117,7.5332029 -0.63636,2.933324 -1.83073,6.834641 -2.65234,8.667969 -0.82161,1.833329 -2.014,5.132037 -2.65039,7.332031 -0.6364,2.199992 -1.3525,4.150651 -1.5918,4.333985 -0.23928,0.183332 -1.42791,3.402284 -2.64063,7.154296 -2.75647,8.528253 -9.23478,22.967359 -13.08007,29.152344 -1.60469,2.581058 -3.71517,6.385704 -4.69141,8.455078 -1.68784,3.577708 -7.89481,11.542444 -10.98438,14.095704 -0.79205,0.654571 -3.29792,2.140892 -5.57031,3.304687 -2.2724,1.163804 -5.21538,2.945525 -6.53906,3.958985 -1.3237,1.01347 -2.5327,1.7173 -2.6875,1.5625 -0.15481,-0.1548 -1.58942,0.75297 -3.1875,2.01758 -1.85808,1.47035 -3.63073,2.29883 -4.91602,2.29883 -1.13687,0 -2.99515,0.75296 -4.27929,1.73242 -1.24866,0.9524 -2.67598,1.79048 -3.17188,1.86328 -0.4959,0.0728 -1.90357,0.62165 -3.12695,1.21875 -5.079,2.47888 -9.98657,4.51953 -10.86914,4.51953 -0.51833,0 -1.12886,0.29935 -1.35547,0.66602 -0.22662,0.36666 -0.9923,0.66601 -1.70117,0.66601 -0.70887,0 -2.11579,0.9315 -3.12695,2.06836 -2.47868,2.7868 -5.49924,4.35452 -6.20118,3.21875 -0.68924,-1.1152 -4.99678,3.40517 -5.62304,5.90039 -0.68651,2.73527 -4.24882,6.86897 -14.88086,17.27539 -9.60015,9.39644 -9.65963,9.47513 -8.60547,11.08399 0.98143,1.49785 0.96586,1.79561 -0.18945,3.95117 -1.02784,1.91772 -1.10209,2.55447 -0.42383,3.58398 1.12654,1.70995 0.88187,6.62986 -0.40039,8.07227 -0.57662,0.64864 -1.54207,2.37903 -2.14649,3.8457 -0.60442,1.46665 -2.08157,3.71667 -3.2832,5 -4.67795,4.996 -8.91007,11.0789 -9.33789,13.41992 -0.24313,1.33035 -1.18532,3.22097 -2.09375,4.20117 -0.90843,0.98021 -1.65235,2.17655 -1.65235,2.65821 0,0.48166 -0.63433,1.68168 -1.41015,2.66797 -1.33206,1.69347 -1.34599,1.84132 -0.24219,2.64843 0.9018,0.6594 1.06624,1.37351 0.71875,3.12891 -1.36107,6.87579 -1.30069,5.75436 -0.86523,15.94336 0.22256,5.20753 0.0515,6.77289 -0.96485,8.80664 -1.66951,3.3408 -1.61727,5.19336 0.14844,5.19336 1.75666,0 6.61523,4.84794 6.61523,6.60156 0,0.72685 0.59398,1.73931 1.32032,2.24805 1.30338,0.91294 1.30586,1.00549 0.12304,7.20312 -1.50221,7.87128 -5.62518,16.7679 -9.9707,21.51368 -3.81765,4.16928 -5.78319,6.92846 -6.46484,9.07617 -0.97269,3.06466 -5.75981,10.206 -7.79688,11.63281 -1.36363,0.95511 -2.36996,2.13896 -7.38086,8.67578 -1.75096,2.28413 -7.79312,6.28342 -15.99804,10.58789 -6.33379,3.32282 -14.16405,10.43536 -20.00196,18.16992 -2.97483,3.9413 -3.24242,4.11678 -10.60742,6.93164 -4.15573,1.58829 -9.05533,3.72106 -10.88867,4.74024 -3.44422,1.91472 -17.56613,5.15857 -28.91016,6.64062 -3.06722,0.40072 -6.1221,1.06906 -6.78711,1.48438 -1.29725,0.81014 -2.63672,3.27786 -2.63672,4.85742 0,0.53275 -0.29934,0.96875 -0.66601,0.96875 -0.36666,0 -0.66797,0.43049 -0.66797,0.95703 0,0.52653 -1.13069,1.59382 -2.51367,2.3711 -2.36357,1.3284 -2.66424,1.88077 -5.01367,9.20898 -1.37469,4.28785 -3.35737,9.16047 -4.4043,10.82813 -1.04695,1.66766 -2.12426,4.06834 -2.39453,5.33398 -0.747,3.49815 -3.66342,12 -5.04883,14.7168 -1.48282,2.90775 -3.87369,4.99139 -10.04102,8.75195 -7.48905,4.56652 -10.08786,5.83203 -11.98046,5.83203 -1.21649,0 -2.1539,0.58252 -2.95118,1.83399 -1.54646,2.42744 -4.37597,4.77879 -5.78515,4.80859 -2.12508,0.045 -4.75611,4.46003 -4.91211,8.24219 -0.151479,3.67267 -2.238572,9.24879 -4.285158,11.44922 -0.682065,0.73333 -1.838888,3.63196 -2.572266,6.4414 -0.733377,2.80942 -2.077071,6.25879 -2.984375,7.66602 -2.091627,3.24409 -3.800713,10.41881 -3.310547,13.89258 0.606218,4.29621 0.225838,10.10327 -0.826172,12.62109 -0.536857,1.28488 -0.976562,3.1092 -0.976562,4.05469 0,1.20773 -0.589547,2.05762 -1.982422,2.85547 -1.090443,0.62461 -2.147489,1.88608 -2.349609,2.80273 -0.264912,1.20144 -1.210018,2.01347 -3.384766,2.91211 -1.85988,0.76854 -3.961934,2.40745 -5.482422,4.27148 -1.35649,1.66299 -4.606312,5.18144 -7.220703,7.82032 -2.614393,2.63888 -5.271117,5.58832 -5.904297,6.55468 -0.633189,0.96637 -2.69434,2.64123 -4.580078,3.72071 -4.088446,2.3404 -6.354258,4.67178 -8.478515,8.7207 -0.86566,1.65 -1.978817,3.49435 -2.472657,4.09961 -0.628199,0.76993 -0.677798,1.23569 -0.167969,1.55078 0.95507,0.59025 3.173853,-2.13221 3.732422,-4.58008 0.44612,-1.95511 4.338927,-6.40429 5.603516,-6.40429 0.37888,0 0.6875,-0.50022 0.6875,-1.11133 0,-0.61108 0.191851,-0.91947 0.425781,-0.68555 0.884119,0.88412 -1.386271,6.93108 -3.855469,10.26758 -1.412958,1.90927 -2.570312,3.7323 -2.570312,4.05078 0,0.31849 -0.716108,1.25155 -1.591797,2.07422 -0.886949,0.83325 -1.459972,1.99777 -1.294922,2.6289 0.16295,0.62313 -0.469778,2.17863 -1.404297,3.45508 -0.934519,1.27645 -2.381887,3.68544 -3.216796,5.35352 -0.83491,1.66808 -2.186088,3.88413 -3.003907,4.92383 -1.714108,2.17914 -1.873022,3.04297 -0.558593,3.04297 1.106488,0 1.92004,1.80149 1.30664,2.89257 -1.060979,1.88723 -3.235553,3.77344 -4.351562,3.77344 -0.86213,0 -1.216797,0.49933 -1.216797,1.71094 0,0.94077 -0.357729,2.36512 -0.792969,3.16601 -0.43524,0.80089 -1.018055,3.10704 -1.296875,5.12305 -0.34045,2.46167 -0.9581,4.03015 -1.880859,4.77735 -0.75569,0.61192 -1.554288,2.11192 -1.773438,3.33398 -0.701829,3.91379 -1.861542,5.86733 -4.125,6.94141 -1.760848,0.83558 -2.4076,0.88061 -3.193359,0.22851 -0.806189,-0.66909 -1.346492,-0.47243 -2.962891,1.07617 -1.086739,1.04117 -1.974609,2.26204 -1.974609,2.71289 0,0.45084 -0.311034,0.92269 -0.689453,1.04883 -0.37842,0.12614 -1.518448,2.62529 -2.535157,5.55469 -1.0167181,2.92941 -2.3578759,6.09839 -2.9785152,7.04102 -0.7035493,1.06855 -1.2685834,3.70427 -1.5019532,7 -0.2058798,2.90736 -0.6545072,6.53873 -0.9980468,8.07031 -1.2887788,5.74564 -2.6198101,18.10744 -2.625,24.38281 l -0.00195,1.63867 H 3.46875 l 0.00781,-1.48047 c 0.0115,-1.92791 0.9858057,-6.3356 2.3027344,-10.42578 l 2.28125,-7.08789 18.7226556,-0.48437 c 10.297151,-0.26631 43.843933,-0.36811 74.54883,-0.22657 l 55.82617,0.25782 -0.36132,-2.67969 c -0.74392,-5.50888 -5.00391,-51.61739 -5.00391,-54.15625 0,-8.70846 6.40191,-21.63092 12.75391,-25.74414 1.04562,-0.67709 5.41053,-1.38068 12.9121,-2.08008 6.23331,-0.58114 12.71469,-1.22205 14.40235,-1.42578 l 3.06836,-0.37109 -0.33008,-52.61719 -0.33008,-52.61719 h 62.98438 62.98632 l 0.44141,-36.5 c 0.24297,-20.07494 0.44299,-46.00439 0.44336,-57.61914 v -21.11719 l 3.74219,-1.71289 c 2.05771,-0.94205 5.541,-3.37796 7.74023,-5.41406 2.19922,-2.03607 4.78976,-4.18922 5.75781,-4.78516 4.83716,-2.97769 9.1296,-5.81229 9.42774,-6.22656 0.97268,-1.35152 7.17743,-5.53748 9.25976,-6.24609 1.32317,-0.45026 2.70251,-1.46972 3.06446,-2.26563 0.537,-1.18087 1.22453,-1.44726 3.73437,-1.44726 4.14797,0 7.11635,-1.10478 10.08985,-3.75391 2.82673,-2.51836 5.16978,-3.31999 6.95507,-2.37891 0.67582,0.35624 2.01681,0.64463 2.97852,0.64063 0.96169,-0.004 3.27728,0.38422 5.14648,0.86328 3.08371,0.79033 3.52271,0.75772 4.74414,-0.34766 0.7992,-0.72327 2.77156,-1.34883 4.85352,-1.53906 1.9287,-0.17624 3.88623,-0.62282 4.34961,-0.99219 0.98185,-0.78267 3.64919,-1.0504 14.15625,-1.42773 4.21664,-0.15143 8.62145,-0.6258 9.78711,-1.05274 2.78844,-1.02127 4.92689,-0.004 4.38086,2.08399 -0.31772,1.21498 -0.15152,1.38887 1.0293,1.08008 0.77365,-0.20232 1.49622,-0.10056 1.60546,0.22656 0.10925,0.32711 1.12753,0.86173 2.26368,1.1875 2.03886,0.58461 2.12446,0.50977 6.54687,-5.78125 2.46434,-3.50559 4.59052,-7.25323 4.72656,-8.32813 0.29694,-2.34623 1.55009,-3.81281 5.98243,-7.00195 1.83989,-1.32383 4.46382,-3.39121 5.83203,-4.5957 1.36821,-1.2045 5.26951,-3.57328 8.66797,-5.26367 4.87637,-2.42552 7.37368,-4.23715 11.8457,-8.59375 6.17305,-6.0137 8.43404,-7.13444 16.73828,-8.29297 4.14333,-0.57804 12.5844,-3.44755 14.42773,-4.9043 0.99255,-0.78437 1.1172,-3.16211 0.16602,-3.16211 -0.97473,0 -0.8147,-3.17317 0.19141,-3.79883 3.31391,-2.06076 4.94481,-7.54621 2.61523,-8.79297 -0.65618,-0.35118 -1.61784,-1.43308 -2.13867,-2.40625 -0.84671,-1.58213 -0.99872,-1.64161 -1.42774,-0.55273 -0.42322,1.07416 -0.48409,1.0462 -0.52539,-0.24219 -0.061,-1.90286 -1.38593,-2.6982 -2.16796,-1.30078 -0.3366,0.60148 -0.8233,1.09368 -1.08008,1.09375 -0.37891,1.1e-4 -0.47555,-4.32493 -0.18946,-8.47851 0.0308,-0.44677 0.50664,-0.6388 1.05664,-0.42774 0.55,0.21106 1,0.0706 1,-0.31055 0,-0.38119 0.52435,-0.85782 1.16602,-1.06054 1.0108,-0.31936 1.13981,-1.10439 0.95703,-5.87891 l -0.21094,-5.51172 7.21094,-1.54297 c 3.966,-0.84869 11.02775,-2.47603 15.69336,-3.61718 9.67615,-2.36665 9.36776,-1.91173 6.12305,-9.02344 -0.88286,-1.935 -1.60547,-4.25937 -1.60547,-5.16602 0,-1.63504 0.0489,-1.64843 6.18359,-1.64843 4.22784,0 6.60894,-0.29637 7.52149,-0.93555 1.48836,-1.04248 10.09837,-1.57635 13.3164,-0.82617 1.26914,0.29585 3.11372,0.0865 4.95313,-0.5625 1.99132,-0.70258 3.14966,-0.81714 3.61133,-0.35547 0.37377,0.37376 1.30792,0.67969 2.07421,0.67969 0.7663,0 3.17988,0.47207 5.36524,1.04882 2.18536,0.57675 5.62396,1.16774 7.64062,1.31446 13.59984,0.98946 14.33527,0.99266 15.55274,0.0371 0.98957,-0.77666 1.0794,-1.2193 0.47656,-2.34571 -0.40855,-0.76338 -1.27655,-1.38867 -1.92969,-1.38867 -1.05632,0 -1.13551,-0.42222 -0.71289,-3.83203 0.62482,-5.04115 1.14002,-6.16797 2.82032,-6.16797 1.50433,0 5.79296,-3.74473 5.79296,-5.05859 0,-0.90535 -8.54562,-7.56433 -11.82617,-9.21485 -1.29025,-0.64915 -3.22824,-2.7558 -4.81836,-5.23828 -2.88377,-4.5021 -3.17582,-5.49068 -1.77734,-6.02734 0.5015,-0.19244 1.06722,-1.15776 1.25586,-2.14453 0.25749,-1.347 -0.0701,-2.1511 -1.3125,-3.22266 -0.91015,-0.78501 -2.67524,-2.95684 -3.92188,-4.82812 -2.66431,-3.99934 -2.88867,-6.70463 -0.93359,-11.26563 1.58194,-3.69055 1.72223,-7.17988 0.33398,-8.33203 -0.55,-0.45646 -1,-1.24295 -1,-1.74805 0,-0.53516 -0.69481,-0.91992 -1.66601,-0.91992 -2.01332,0 -2.14646,-1.05659 -0.32227,-2.55859 1.14508,-0.94283 1.24763,-1.438 0.69336,-3.341799 -0.46766,-1.606321 -0.36533,-3.739183 0.36328,-7.580079 0.93383,-4.922698 0.92352,-5.560704 -0.12304,-8.097656 -0.62488,-1.514776 -1.08705,-3.678337 -1.02735,-4.80664 0.0696,-1.315317 -0.37498,-2.48826 -1.23828,-3.269532 -1.72869,-1.564442 -1.69826,-1.973438 0.35547,-4.666015 1.61231,-2.113863 1.63608,-2.254446 0.43164,-2.636719 -0.6996,-0.222044 -1.83451,-1.447026 -2.52148,-2.722656 -0.68697,-1.275632 -1.49403,-2.320313 -1.79492,-2.320313 -0.3009,0 0.36493,-1.325895 1.48046,-2.947265 l 2.02735,-2.947266 -2.4961,-1.525391 c -3.30859,-2.022065 -6.16211,-4.892166 -6.16211,-6.195312 0,-0.681926 -0.5965,-1.050781 -1.69726,-1.050781 -0.93331,0 -2.44661,-0.749352 -3.36328,-1.666016 -0.91666,-0.916663 -1.92878,-1.667969 -2.24805,-1.667969 -0.31927,0 -0.97969,-0.910114 -1.46875,-2.023437 -0.72583,-1.652281 -1.62296,-2.250342 -4.88476,-3.253906 -3.89745,-1.199133 -4.03535,-1.199329 -5.58985,0.02344 -1.90761,1.500527 -5.69949,1.629716 -8.83398,0.300781 -1.23644,-0.524216 -3.85692,-2.592509 -5.82422,-4.597656 -3.38095,-3.445994 -3.57617,-3.832066 -3.57617,-7.046875 0,-4.406693 -1.04749,-4.373014 -3.17969,0.101563 -1.01272,2.125301 -2.17071,3.589619 -2.95117,3.734374 -0.70643,0.131024 -1.75708,0.769844 -2.33399,1.417969 -3.18477,3.577963 -14.29433,3.004492 -18.24023,-0.941406 -1.44393,-1.44395 -3.37131,-0.869748 -4.35938,1.298828 -0.99608,2.186145 -4.71565,2.38631 -5.26562,0.283203 -0.2496,-0.954443 -0.68632,-1.234148 -1.4375,-0.917968 -0.98357,0.41399 -14.17822,4.152204 -15.7461,4.460937 -1.22587,0.241391 -10.33398,-1.712441 -10.33398,-2.216797 0,-0.273615 -0.54014,-0.356457 -1.20117,-0.183594 -0.6873,0.179731 -2.71474,-0.703389 -4.73438,-2.0625 -1.94247,-1.307188 -3.78649,-2.376953 -4.09765,-2.376953 -0.31116,0 -1.3649,-1.0487 -2.34375,-2.332031 -0.97884,-1.283331 -2.18416,-2.333984 -2.67774,-2.333984 -0.49358,0 -1.25477,-0.675003 -1.6914,-1.5 -1.10816,-2.09381 -3.43347,-4.474532 -4.38282,-4.488282 -1.23296,-0.01785 -2.87109,-2.771354 -2.87109,-4.826172 0,-1.122829 -0.35861,-1.851562 -0.91211,-1.851562 -0.93939,0 -1.73259,-3.231701 -1.74609,-7.1113281 -0.002,-0.6596454 -0.13983,-1.2430777 -0.33008,-1.7070313 z m 99.94726,31.1445314 c 0.5569,-0.02599 1.34336,0.680405 2.96289,2.511719 1.09671,1.240122 1.31035,1.813823 0.66602,1.783203 -2.65837,-0.126321 -5.38089,-2.789034 -4.13086,-4.039063 0.15687,-0.156886 0.31631,-0.247196 0.50195,-0.255859 z M 411.49805,50.75 c 0.16169,0 0.29492,0.29935 0.29492,0.666016 0,0.366666 -0.31872,0.666015 -0.70703,0.666015 -0.38829,0 -0.51958,-0.299349 -0.29297,-0.666015 C 411.01959,51.04935 411.33635,50.75 411.49805,50.75 Z"
     inkscape:label="outline" />
  <path
     id="MA-02"
     style="display:inline;fill:none;stroke:#000000;stroke-opacity:1"
     d="m 412.71484,43.84375 -1.77929,5.230469 0.31054,-0.08008 0.25,0.320312 1.26953,0.410156 0.0293,0.990235 -0.33984,0.09961 -0.35938,0.75 -0.13086,-0.349609 -0.86914,-0.310547 -0.11132,-0.410156 0.37109,-1.050782 -0.64063,-0.179687 -3.30859,7.910156 -5.0918,10.400391 -5.75976,9.419922 -0.14844,0.429687 -1.23047,3.150391 -2.84961,4.519531 -1.98047,2.210938 -2.88086,3.46875 -1.58007,1.371093 -0.28907,0.539063 -0.56054,0.189453 -0.10938,0.431641 -0.83984,0.318359 0.0293,0.25 -1.03906,0.851562 -0.9707,0.398438 -0.41016,-0.09961 -2.30078,1.90039 0.51172,0.919922 1.68945,0.130859 0.87891,1.5 0.33008,1.199223 0.0312,1.99023 1.17968,2 -0.33984,1.11914 0.54883,0.0312 0.041,-0.40039 h 0.59961 l 1.36915,0.59961 0.78124,1.25977 0.73047,0.33008 0.36914,0.64062 2.74024,-0.16016 0.57031,-0.39062 0.98047,0.0898 -0.35156,1.68164 -2.38867,3.63868 0.0488,1.04101 0.47071,1.24024 1.25976,1.75976 -0.2207,1.19922 -0.94922,1.2207 -0.13086,0.63867 0.41992,2.81055 -0.44922,1.16016 2.11915,0.99023 1.36132,-0.67968 1.82032,0.83007 0.83007,-0.31054 2.97852,-0.23047 1.50977,1.06054 1.62109,2.25977 0.5293,-0.33008 1.02148,-1.84961 1.56836,-1.01953 0.79101,0.0488 2.21876,-1.21875 -0.97852,-1.89063 0.76953,-1.76953 -0.41016,-0.6914 0.5,-1.79883 0.57032,-0.4707 2.32031,-0.53907 1.01953,-0.01 1.17969,0.70898 0.54101,-0.11914 0.54883,-0.64062 0.54102,0.26953 0.41992,0.91015 0.42969,0.18946 0.91992,-0.13867 0.31055,0.28906 -0.01,0.81054 0.32813,0.43946 0.14062,2.1914 0.55078,0.76954 1.51953,0.16015 0.42969,0.55859 0.73047,0.13086 0.7793,-0.38086 1.5,-1.73828 1.4414,-0.46093 4.73828,1.38086 0.88086,-0.32032 0.71094,-1.34961 0.0684,-1.28125 -0.59961,-1.59961 -0.12891,-3.39062 0.41016,-4.91992 0.71875,-2.76953 0.55078,-5.65039 -0.0898,-1.718756 -0.45117,-0.691407 -0.99024,-0.638671 -0.2793,-0.669922 -0.0703,-0.871094 0.38086,-1.029297 -0.62109,-0.28125 -0.7793,0.261719 -0.24023,-0.521485 0.0195,-0.958984 2.05078,-1.941406 -0.33985,-1.708985 -2.46093,-2.041015 -0.49024,-0.738281 -0.13867,-2.291016 -0.65039,-2.390625 -0.46094,-0.259766 -0.75976,0.111328 -0.41992,-1.089843 0.37109,-0.330078 1.38867,-0.210938 0.53125,-0.330078 0.46875,-0.509766 -0.0801,-1.189453 1.3711,-1.041015 1.34961,0.130859 0.49023,0.699219 1.34961,0.130859 0.49023,0.609375 -0.83984,1.609375 0.24023,0.691406 0.85938,0.269531 1.34961,-0.269531 2.31055,0.398438 0.59961,0.410156 0.0898,0.830078 -0.28906,0.701172 0.33984,0.779297 0.56055,0.179687 1.43945,-1.86914 2.28906,-0.660157 -0.75,-1.041015 0.25,-0.580078 0.91993,-0.5 0.83007,-1 0.15039,-1.75 1.08008,0.02148 0.5,-0.451172 -0.99023,-1.439453 v -1.130859 l 0.13086,-0.529297 -0.51953,-0.240234 -0.71094,0.419921 -0.5,-0.109375 -0.18946,-0.730468 0.31055,-0.560547 -0.7207,-0.828125 0.31055,-0.640625 1.71875,-0.460938 2.52148,-1.509765 0.55859,-1.070313 1.07032,-0.25 0.56054,-0.490234 -0.0312,-1.089844 0.27149,-0.5 1.38867,-0.318359 0.63086,-0.470704 0.48047,-0.429687 0.19922,-0.890625 1.26953,-0.529297 1.03125,0.189453 0.43945,-0.36914 0.20899,-0.691407 -0.57813,-0.289062 -0.0508,-0.519531 0.57031,-2.560547 0.01,-1.650391 0.44922,-1.490234 -2.58985,-0.679688 -3.25,1.390625 -4.13867,-0.871093 -1.86133,-1.070313 -1.50976,-2.410156 -1.10938,-0.589844 -0.53125,-0.789063 -0.26953,-0.08984 -1.23047,0.878906 -1.26953,-0.259766 -1.61914,0.07031 -0.65039,-0.429688 -1.35938,-2.029296 -1.45117,-0.681641 -0.73047,-0.818359 -1.69922,-0.25 -0.84961,-0.990235 -2.08007,-0.169922 -2.30078,-0.90039 -5.25977,-0.951172 -2.5293,0.15039 z"
     inkscape:label="rabat" />
</svg>
