<?xml version="1.0" encoding="UTF-8" standalone="no"?>
<!--********* Copyright (c) 2024 Pareto Softare, LLC DBA Simplemaps.com ***************************************
************* Free for Commercial Use, full terms at  https://simplemaps.com/resources/svg-license ************
************* Attribution is appreciated! https://simplemaps.com *******************************************-->

<svg
   baseprofile="tiny"
   fill="#6f9c76"
   height="788"
   stroke="#ffffff"
   stroke-linecap="round"
   stroke-linejoin="round"
   stroke-width=".5"
   version="1.2"
   viewbox="0 0 1000 788"
   width="1000"
   id="svg39389"
   sodipodi:docname="ae.svg"
   xml:space="preserve"
   inkscape:version="1.2.2 (b0a84865, 2022-12-01)"
   xmlns:inkscape="http://www.inkscape.org/namespaces/inkscape"
   xmlns:sodipodi="http://sodipodi.sourceforge.net/DTD/sodipodi-0.dtd"
   xmlns="http://www.w3.org/2000/svg"
   xmlns:svg="http://www.w3.org/2000/svg"><defs
     id="defs39393" /><sodipodi:namedview
     id="namedview39391"
     pagecolor="#ffffff"
     bordercolor="#000000"
     borderopacity="0.25"
     inkscape:showpageshadow="2"
     inkscape:pageopacity="0.0"
     inkscape:pagecheckerboard="0"
     inkscape:deskcolor="#d1d1d1"
     showgrid="false"
     inkscape:zoom="0.60381382"
     inkscape:cx="249.24901"
     inkscape:cy="490.21733"
     inkscape:window-width="1440"
     inkscape:window-height="900"
     inkscape:window-x="0"
     inkscape:window-y="0"
     inkscape:window-maximized="0"
     inkscape:current-layer="svg39389" /><g
     id="features"
     style="display:inline"><path
       d="m 844.3,324.6 2.9,6.3 0.6,4 -5.3,4.9 -1.2,7 -2.6,2.9 -1.9,2.9 0.2,4.3 2.4,8.8 -0.5,11.2 0.6,3.2 1.3,1.4 3.7,2.6 1.5,1.8 0.4,1.8 -0.7,10 -1.2,3 -7.3,13.1 -1.5,3.7 0.3,3.1 2.2,1.1 11.9,2.6 3.1,0.2 10.6,-4.3 5.7,2.4 3,7.4 2.2,8.8 7,12.7 -2.1,3.2 -11.9,3 -22,9 -3.5,-0.4 -5,-3.9 -3.4,0.6 -3.1,1.2 -2.9,0.1 -6.1,-1.1 -6.3,-0.1 -5.4,1 -5.1,2.1 -5.6,3 -3.6,2.1 -8.1,3 -8.1,1.6 -0.7,3 1.6,3.7 3.2,2.9 6.8,4.1 3.1,4.5 0.8,6 0.6,15.6 -0.8,2.8 -8.8,13.1 -1.7,3.5 -6.2,25.5 -2.7,4 -7,7.8 -3.6,5.3 -2.1,6.9 -3.9,20.5 -4.2,12.6 -18,31.6 -5.8,19.7 -0.7,6.1 1.2,29.9 -2,29.9 -12.6,16.4 -2.8,0.5 -25.9,-3.4 -26.2,-3.5 -26.3,-3.5 -26.3,-3.5 -26.2,-3.5 -26.3,-3.5 -26.2,-3.5 -26.3,-3.5 -26.2,-3.5 -26.3,-3.5 -26.2,-3.5 -26.3,-3.5 -26.3,-3.5 -26.2,-3.5 -26.3,-3.5 -26.2,-3.5 -26.3,-3.5 -30.3,-4.1 -4.7,-1.5 -3.7,-3.4 -10.2,-13 -9.8,-12.7 -9.9,-12.8 -9.8,-12.7 -9.9,-12.7 -9.8,-12.8 -9.8,-12.8 -9.9,-12.7 -9.8,-12.8 -9.9,-12.7 -9.8,-12.8 -9.9,-12.8 -9.8,-12.8 -9.9,-12.8 -9.8,-12.8 -9.9,-12.8 -9.8,-12.8 -10.8,-14 -2.8,-4.9 -1,-5.4 0.4,-13.2 v -5.4 l -1.1,-7.9 4,-5.9 0.2,-9.2 -3.4,-7.4 3.8,-4.2 1.6,3.5 4,5.9 0.8,4.1 V 414 l 1.2,7.3 2.7,1.7 2.7,-2.9 1.9,-9.4 1.2,2.6 1.9,6.4 1.3,2.1 0.9,0.5 1.7,0.2 1.6,-0.4 1,-1 0.2,-1 -0.7,-0.4 3.6,-8.9 3.5,-2.7 3.9,5.9 0.6,4.5 -2,13.3 0.3,4.8 2.3,10.2 0.2,2.2 -0.2,7 0.4,2.2 1.8,4.2 0.4,2.1 1.9,3.6 4.5,1.2 9.2,0.2 2.2,0.7 1.7,1 3.2,3.2 1.7,1.1 h 1.5 l 0.5,-0.9 -1.1,-1.6 -0.4,-2.3 4.1,-0.6 10.8,0.7 1.3,-0.4 1.3,0.4 2.3,2.2 5.9,2.8 1.6,-0.1 7.9,-1.4 3.4,0.9 1.9,-1.2 1.8,1.2 3,-1.4 3.2,-0.2 3.4,0.2 3.4,-0.2 3.2,-1.1 7.2,-4.5 3.2,-0.5 h 6 l 2.5,-0.8 2.1,-1.8 2.4,-2.4 2.5,-2.1 2.7,-0.9 3.1,-0.6 3.6,-1.5 3.1,-2.1 1.2,-2.2 1.1,-2.4 5.7,-2.4 2.8,-2.3 2.5,-2.5 3.3,-2.5 3.3,-1.9 2.6,-0.8 2.1,-1.5 0.6,-3.5 v -3.8 l 0.5,-2.5 3.7,-2.1 3.5,1.2 2.9,2.9 6.8,9.3 2.1,0.8 0.8,-0.5 0.6,-1.1 1.7,-0.7 4.2,0.1 7.8,2.3 4.1,0.5 2.4,-0.4 4,-1.9 2.1,-0.6 h 2.1 l 1.7,0.5 1.3,0.6 1.3,0.4 16.1,1.4 1.8,-0.3 6.7,-2.6 0.9,-0.8 0.3,-1.1 0.3,-0.9 h 1.1 l 1,0.6 0.7,0.9 0.5,0.8 0.4,0.5 5.5,4.6 3.5,1.6 7.5,-3.3 3.9,1.5 3.6,2 3.2,-0.8 -2.6,-1.5 -0.8,-2 v -2.3 l -0.6,-2.6 4.3,-1 5,2.3 4.5,3.7 3.1,3.4 2.6,4.3 1.5,1.1 10.5,0.7 24.1,-5 h 1.7 l 1.7,1.1 2.5,2.9 2,1.4 2.7,0.6 2.8,-0.2 2.2,-1.1 3.4,2.6 2,1.2 1.8,0.5 0.7,0.7 2.5,3.8 1.3,1.2 1.5,0.3 h 2.2 l 2.1,-0.4 3.2,-1.6 1.9,0.4 1.8,0.9 1.6,0.4 5.8,-2.8 1.3,-0.9 1.5,-0.8 1.8,0.3 1.9,0.8 1.9,0.5 22.9,0.1 4.8,-0.6 2,-1.7 11.6,-6.3 11.9,-2 3.8,-1.9 4,-0.8 4.9,-2.4 5.8,-0.8 2,-0.6 2.4,-1.5 3.5,-2.7 3.1,-3.3 1.3,-3.1 1.9,-1.6 12.4,-3.6 10,-7.4 1.7,-0.3 1.5,-2.5 3.6,0.1 7.7,3.2 1.4,-2.4 7,-5.4 3.6,-5 7.4,-14.9 -1,-5.2 0.6,-2.5 3,-1.5 -1.7,-1.2 -0.9,-0.3 v -1.5 l 3,0.3 4.6,2.1 2.8,0.6 -1.2,-2.6 -3.3,-3.6 -0.6,-2.5 2.8,1.3 3,1 2.7,1.2 1.8,2.2 h 1.2 l -0.6,-5.5 -3.5,-1.7 -5,-0.2 -5.1,-1.1 -11,-7.5 -4.5,-1 v -1.3 l 2.3,-0.6 2.3,-1.6 2,-2.2 0.3,1.3 0.6,1.7 1.6,1.4 -0.5,-2.1 0.6,-1.9 2.4,-3.2 h 1.3 l 1.5,5.7 3.7,5.6 4.6,3.5 4.5,-0.6 -1.1,-0.6 -2.8,-2.4 2.1,0.1 4.1,1.3 1.6,0.1 0.6,-0.7 1.7,-2.9 0.9,-0.6 7.1,-14.3 -3.1,-1.4 -1.5,-1.8 0.7,-1.7 3.3,-0.6 1.9,-1.3 0.6,-2.8 1.1,-3 3.5,-1.6 v -1.3 l -1.7,-1.2 -0.8,-2.1 -0.5,-2.6 -0.9,-2.7 1,-1.5 -1.3,-0.9 -1.5,-1.5 0.5,-3.4 1.8,-1.9 7.3,-5 1,-1.4 0.9,-2 1.1,-1.1 5.8,2.7 0.3,0.2 2.7,-0.6 2.8,-1.8 0.9,-2.8 -2.5,-3.3 20.5,-12.1 9.2,-6.7 5.8,-5.3 3.7,-2.5 4.7,-1.6 0.4,-0.1 0.8,-0.3 0.8,-0.2 0.5,-0.2 1.6,2.1 23.3,67.2 1.9,4 2.4,3 3.6,1.2 3.9,0.5 40,-1.6 5.3,-1.2 5.7,-2.1 12.7,-7.4 20.8,-8.5 4.4,-2.9 14.7,3.8 7.7,-0.1 z m -404.6,110.9 -3.3,-0.4 -2.2,-0.8 v -1.6 l 2.9,-3 2.1,-1.3 0.3,-0.2 4.6,-1.7 2,-1 3.6,-3.2 1.1,-0.7 1.3,-0.9 0.8,-0.3 2.2,-0.7 1.8,0.1 2.8,1.1 0.4,0.1 1,0.2 1.3,-0.5 4.5,-3.7 5.2,-2.2 2.1,-1.2 1.6,-2.3 1,2.6 -0.3,0.6 -0.7,1.1 1.9,3.2 0.9,0.9 4.8,3.1 0.7,0.4 6.5,1.3 1.4,0.6 3.9,1.6 1.9,5.9 -2.6,4.7 -5.8,2 -6.7,-0.2 -5.6,-2.3 0.4,-1.9 -1.5,-2.7 -2.3,-0.6 -1.9,3.9 1.4,1.3 -5.1,3.3 -6.2,1.2 -6.3,-0.7 -5.6,-2.3 -3.3,-1.8 -1.9,-0.7 z m 100.8,-14.3 -1.9,-3.6 -4.1,-1.9 -4.7,-1.3 -4.1,-2.4 -2.1,-5.3 v -0.1 l 2.6,-4.3 4.1,-1.7 1,0.9 1.5,1.4 4.8,5.3 2.4,2.6 2,5.1 z m -305.2,-24.1 2.4,-3.5 4.5,-2.6 4.4,1.4 2,3.3 1.1,5.3 -0.4,3.2 -4.1,5.4 -3.5,3.1 -3.1,3.1 -2.5,-2.6 -2,-3.5 -2.3,-5 0.4,-4.1 z m 141.3,16.8 -2.7,-3.3 -2.7,-0.2 -3.5,-1.9 -1.8,3.1 -7.2,-1.1 -2.7,-0.4 -4,0.8 -0.7,0.3 h -0.5 l -0.4,-1.1 0.1,-1.2 0.5,-1.5 0.7,-1.3 0.6,-0.5 7.1,1.5 1.9,-0.5 4.8,-2.1 1,-0.9 1,-0.8 6.2,-2.5 3.5,-1.6 h 1.7 l 1.8,3.3 1.9,1 1.7,-0.8 0.4,-2.3 -0.3,-2.2 -1.1,-2.1 7.1,-10.5 3.3,-2.3 0.2,1.2 0.8,2 0.3,1.2 4.4,2.4 -1.2,8 -2.4,2.6 -7.5,3.5 -3.5,2.2 -4.5,0.6 -2.7,2.1 v 2.2 z m 200.1,-36.7 -9,-2.8 v -3.3 l 7.6,-7.1 2.7,-4 h 1.3 l -1.3,4.4 1.3,3.7 3.4,2.7 7,3.6 3.4,3.5 0.2,2.4 -2.6,0.8 -5,-0.9 z m -22,30.1 -1.7,1.4 -1.8,1 -1.6,0.4 -2.1,-0.1 -1.1,-0.6 -3.2,-3.8 -2.4,-1.7 -1.8,-0.8 -0.7,-1.4 1,-3.2 1.4,-1.9 2.2,-1.6 2.7,-0.8 h 2.7 l 1.7,3.5 1.9,3 4.2,4.9 z M 566,391 l 1.8,1.9 0.1,2.8 -2,6.1 -3.1,1.5 -5.2,-9 -0.5,-1.5 1.4,-0.2 2.1,0.5 1.8,1.2 0.8,0.4 0.3,-0.9 -0.5,-1.1 -2.8,-2.1 -0.6,-1.9 2.4,-0.3 z m -380.7,-34.5 4.3,2.9 1.2,5 -2.4,4.3 -2.3,1.1 -2.7,-1.5 -1,-1.3 -0.9,-0.6 -1.2,-1.1 -0.2,-2.8 1.6,-2.2 1.5,-2.5 z m -57.6,59.4 2.2,-0.9 1.7,2.4 -0.2,0.8 -0.3,0.6 0.3,0.9 -1.2,2.9 -1.9,2 -0.7,-0.6 -1.2,-0.5 -0.7,-0.6 0.8,-1.5 v -2.2 z m -53,-73.5 2.1,1.7 0.8,1.8 -0.4,1.3 -0.1,0.6 -0.8,1.8 -0.5,1.6 -0.9,-0.8 -0.2,-2.8 0.4,-1.3 -0.7,0.3 -0.1,-0.7 v -0.8 l -0.1,0.2 h -0.3 -0.3 l 0.1,0.3 -0.2,0.1 0.2,0.8 -1.2,-1 -0.2,-2 1.5,-1.2 z m 252.4,-59.5 3.5,0.5 0.7,3.6 -0.7,4.2 -1.2,-1.1 -0.3,-1 -1.6,-2 -0.9,-2.7 z m 217.2,-74.2 3.8,1.3 1.6,7.2 -2.4,-1.1 h -2.4 l -3.1,-3.7 z"
       id="AEAZ"
       name="Abu Dhabi"
       style="display:inline;fill:none;stroke:#101010;stroke-opacity:1;stroke-width:1;stroke-dasharray:none"
       inkscape:label="adhabi" /></g><path
     style="fill:none;stroke:#101010;stroke-width:1;stroke-opacity:1;stroke-dasharray:none"
     d="M 473.68347,720.24897 C 343.77471,702.90375 236.3451,688.37404 234.95098,687.96064 c -3.31463,-0.98276 -5.75407,-3.08354 -10.36724,-8.92783 -4.68434,-5.93447 -36.31875,-46.82277 -56.13299,-72.5533 -8.12218,-10.5474 -18.33181,-23.77959 -22.68804,-29.40486 C 107.56908,527.75449 50.114823,452.76076 48.448376,450.05246 l -2.06963,-3.3636 -0.405275,-15.9901 -0.405273,-15.99011 1.831247,-2.74879 c 2.554588,-3.83457 2.608089,-10.06272 0.133801,-15.57618 l -1.697443,-3.78242 2.135183,-2.20293 2.135183,-2.20295 1.659063,3.02885 c 0.912485,1.66588 2.340509,3.9486 3.173387,5.07273 1.388724,1.87434 1.554063,2.90819 1.993462,12.4651 0.510889,11.11181 0.74745,12.34576 2.551972,13.31151 0.940129,0.50313 1.399445,0.21969 2.481739,-1.53149 0.730451,-1.18192 1.328094,-2.46037 1.328094,-2.84104 0,-1.94015 1.457198,-7.11241 1.922748,-6.82468 0.295044,0.18234 1.024388,1.83834 1.620762,3.68 2.138223,6.60303 2.809516,7.59251 5.00511,7.37758 1.619169,-0.15851 2.001177,-0.49752 2.103601,-1.86678 0.211045,-2.82121 3.800707,-9.95983 5.601705,-11.13987 0.926528,-0.60709 1.778483,-0.99292 1.893253,-0.8574 0.11476,0.13552 1.112587,1.5121 2.217378,3.05907 2.270064,3.17861 2.578296,6.5273 1.300358,14.12709 -1.003377,5.96698 -0.828498,10.36616 0.681347,17.14108 0.77003,3.45529 1.286751,7.88219 1.231123,10.5474 -0.09276,4.44102 0.275468,5.95795 3.079768,12.69035 0.917332,2.20226 1.217244,2.38619 4.950831,3.03638 2.18591,0.38064 5.47989,0.6921 7.32,0.6921 3.79298,0 5.13752,0.56824 8.53715,3.60805 1.31944,1.17978 2.6467,2.14506 2.94947,2.14506 0.30277,0 0.51769,-1.0787 0.4776,-2.39713 l -0.0729,-2.39713 8.31006,-0.0281 c 7.55085,-0.0256 8.48527,0.0992 10.22777,1.36527 4.44783,3.23172 6.85945,4.02452 10.25054,3.36977 1.74539,-0.33702 5.76233,-0.73857 8.92655,-0.89234 17.60191,-0.85548 18.93292,-1.08098 23.58021,-3.9948 3.90513,-2.44853 4.68079,-2.69636 8.43904,-2.69636 5.084,0 7.50501,-0.99047 10.79541,-4.41655 1.99038,-2.07245 3.51802,-2.93541 7.0316,-3.97213 5.85548,-1.72773 8.40806,-3.34556 9.90349,-6.27685 0.90901,-1.7818 2.00361,-2.72006 4.29498,-3.68149 1.69128,-0.70965 4.89689,-2.92435 7.12356,-4.92156 2.22668,-1.9972 5.89431,-4.50338 8.15028,-5.56927 l 4.10173,-1.93799 v -3.07 c 0,-5.19468 0.55462,-6.72896 2.88629,-7.98464 2.05939,-1.10906 2.2176,-1.10749 4.57749,0.0451 1.63055,0.79638 3.80251,3.00292 6.52357,6.62739 4.73892,6.31229 5.48971,6.89755 7.04393,5.49098 1.55277,-1.40523 6.4931,-1.28874 11.46692,0.27039 5.12136,1.60538 7.81087,1.60337 10.96988,-0.008 2.6918,-1.37327 6.5954,-1.65572 9.19948,-0.66564 0.88654,0.33706 5.30307,0.95002 9.81449,1.36214 7.93454,0.72481 8.33444,0.70123 12.23654,-0.72155 2.74577,-1.00115 4.25063,-1.94646 4.71254,-2.96023 0.37324,-0.81916 0.95355,-1.48939 1.28961,-1.48939 0.33604,0 2.34764,1.60784 4.47022,3.57297 2.12256,1.96513 4.75993,4.00246 5.86078,4.52742 1.8704,0.89194 2.24697,0.84598 5.7461,-0.70151 l 3.74453,-1.65602 3.50191,1.60322 c 1.92604,0.88179 4.04244,1.60324 4.70311,1.60324 1.14973,0 1.14643,-0.0548 -0.0774,-1.27848 -0.70316,-0.70315 -1.28239,-2.06952 -1.2872,-3.03637 -0.005,-0.96684 -0.17441,-2.37548 -0.37695,-3.1303 -0.31972,-1.19171 -0.0346,-1.42877 2.16492,-1.80038 1.71643,-0.28999 3.31389,-0.10175 4.95476,0.58384 3.48385,1.45565 8.9557,6.35018 11.43885,10.23194 l 2.13912,3.34399 5.41201,0.416 c 4.81197,0.36987 6.75127,0.13323 17.49099,-2.13445 6.64343,-1.40276 12.59593,-2.55183 13.22781,-2.55352 0.63187,-0.002 2.4964,1.32544 4.1434,2.94915 l 2.99455,2.95219 4.10332,-0.32938 c 3.77599,-0.3031 4.30724,-0.18166 6.65971,1.52247 1.40602,1.01851 2.9411,1.85183 3.41132,1.85183 0.47021,0 1.57348,1.13826 2.4517,2.52946 0.87823,1.39121 2.19317,2.84865 2.92208,3.23873 1.42559,0.76296 4.41,0.34712 6.96291,-0.97018 1.27377,-0.65725 2.05967,-0.63261 4.31324,0.13526 2.72984,0.93014 2.7959,0.91684 7.04523,-1.41888 l 4.28956,-2.35784 3.59836,1.0895 c 5.03004,1.52297 27.93886,1.21094 29.78855,-0.40576 0.65209,-0.56994 3.91836,-2.48734 7.25835,-4.26088 4.7655,-2.53045 7.1736,-3.39103 11.18665,-3.99771 2.81263,-0.4252 6.30643,-1.28301 7.76399,-1.90624 1.45754,-0.62322 3.61495,-1.34152 4.79425,-1.59619 1.17931,-0.25469 3.15773,-0.97588 4.39651,-1.60264 1.23879,-0.62676 3.68386,-1.34862 5.43352,-1.60408 1.74964,-0.25548 4.18796,-0.97691 5.4185,-1.60317 3.43671,-1.74908 7.73955,-5.73327 8.7162,-8.07072 1.1345,-2.71524 2.56997,-3.54881 9.1824,-5.3321 4.27211,-1.15214 6.38995,-2.17331 9.90816,-4.77749 2.46106,-1.82168 5.1938,-3.69347 6.07275,-4.15952 0.87896,-0.46605 1.97398,-1.37703 2.43338,-2.0244 1.13219,-1.59537 3.27812,-1.4798 7.79084,0.41957 l 3.79333,1.59659 3.02507,-2.71526 c 7.08378,-6.35826 8.37291,-8.03282 12.48504,-16.21767 3.77138,-7.50663 4.09258,-8.4568 3.64682,-10.78855 -0.56413,-2.95099 -0.17627,-4.75766 1.27749,-5.95063 0.7635,-0.62656 0.8214,-0.92671 0.22659,-1.17439 -0.43947,-0.18301 -0.79904,-0.88408 -0.79904,-1.55795 0,-1.61209 1.55049,-1.5726 5.68293,0.14476 3.89631,1.61922 4.75414,1.2015 2.49883,-1.21681 -1.7344,-1.85976 -3.06787,-4.11839 -3.06787,-5.19636 0,-1.00582 8.48233,2.36729 9.76432,3.8829 1.46781,1.73528 1.929,1.20942 1.40216,-1.59879 -0.49719,-2.65029 -1.55357,-3.1714 -8.60723,-4.24589 -4.23714,-0.64546 -5.52334,-1.20735 -11.10889,-4.85294 -3.47431,-2.26763 -6.99912,-4.12297 -7.83294,-4.12297 -1.08987,0 -1.51604,-0.35937 -1.51604,-1.27848 0,-0.70316 0.42147,-1.27847 0.93661,-1.27847 0.51514,0 1.97709,-0.91354 3.24879,-2.03012 1.8784,-1.64925 2.42041,-1.85913 2.88901,-1.11866 0.31727,0.5013 0.59251,1.34294 0.61166,1.87031 0.019,0.52737 0.46779,-0.0394 0.99698,-1.25945 1.1418,-2.63243 2.7179,-4.49367 3.80524,-4.49367 0.43115,0 1.12665,1.3612 1.54557,3.02488 1.47824,5.87061 6.64775,11.67754 10.39569,11.67754 h 1.85043 l -1.79355,-1.64428 -1.79354,-1.64428 2.55693,0.35309 c 1.40633,0.19419 3.27609,0.50987 4.15505,0.70146 1.35966,0.29639 1.89893,-0.10704 3.61459,-2.70404 1.10907,-1.67881 3.33776,-5.70617 4.95262,-8.94966 l 2.93613,-5.89727 -1.8388,-0.95089 c -3.2085,-1.65917 -3.27856,-4.83357 -0.10668,-4.83357 2.15255,0 3.40886,-1.40789 4.42072,-4.95408 0.42633,-1.49421 0.9963,-2.71675 1.26656,-2.71675 0.27026,0 1.04596,-0.40551 1.72376,-0.90112 1.14113,-0.83442 1.15583,-0.9882 0.19865,-2.07752 -1.20931,-1.37625 -3.1444,-7.6795 -2.70727,-8.8186 0.16518,-0.43046 -0.14424,-1.15162 -0.68762,-1.60258 -0.54337,-0.45095 -0.98794,-1.793 -0.98794,-2.98232 0,-1.88488 0.46608,-2.51069 3.63145,-4.87582 3.92772,-2.93476 6.35127,-5.23764 7.89864,-7.50532 l 0.98271,-1.44016 3.17232,1.58827 c 3.2052,1.6047 3.86515,1.63404 6.60383,0.29361 2.2652,-1.1087 2.7126,-2.99462 1.21346,-5.11534 -0.69774,-0.98709 -1.16534,-1.89657 -1.03908,-2.02107 0.12625,-0.12448 4.68821,-2.86689 10.13772,-6.09421 11.41118,-6.75799 15.49143,-9.58163 22.9276,-15.86646 3.83829,-3.24404 6.42714,-4.88471 9.16825,-5.8104 2.10077,-0.70947 5.67276,-2.32626 7.93777,-3.59291 3.99939,-2.23658 4.11285,-2.37081 3.93611,-4.65641 l -0.18206,-2.35342 3.68244,-0.58394 3.68251,-0.58392 6.54527,-7.7032 c 9.66979,-11.38039 25.41237,-31.71769 26.48483,-34.21469 0.51368,-1.19605 0.80128,-2.68205 0.6391,-3.30223 -0.18154,-0.69423 0.47514,-1.86676 1.70875,-3.05092 2.79769,-2.68558 4.99102,-2.19009 7.23193,1.63377 1.98298,3.38366 2.05636,5.8924 0.24675,8.43377 l -1.32239,1.8571 2.22851,-0.68394 c 3.85447,-1.18297 3.75353,-4.71163 -0.35656,-12.46918 -2.8822,-5.44001 -2.9127,-5.28813 2.12942,-10.62009 2.13715,-2.25999 3.9249,-3.59501 4.81421,-3.59501 1.24696,0 1.41457,-0.33537 1.41457,-2.83016 0,-2.28121 0.32006,-3.08191 1.64999,-4.12805 1.34438,-1.05748 1.87212,-1.15913 2.84947,-0.54877 1.49804,0.93553 3.26751,-0.59111 7.41398,-6.3964 2.9291,-4.10094 4.57252,-4.96607 5.16073,-2.71675 0.47376,1.81162 1.18082,1.58695 2.11672,-0.67258 0.44446,-1.07307 1.15068,-1.81957 1.56938,-1.65891 0.47265,0.18137 1.29209,-1.35601 2.16138,-4.05509 0.7701,-2.39096 2.02985,-5.14778 2.79955,-6.12627 0.95456,-1.21351 1.15286,-1.86126 0.62383,-2.03759 -1.20407,-0.40136 -0.93477,-1.5684 1.10357,-4.7825 1.03352,-1.6297 2.47244,-4.95531 3.19759,-7.39027 1.47305,-4.94633 4.28084,-8.95145 7.10901,-10.14061 2.53943,-1.06774 2.45647,-0.21632 -0.43558,4.4691 -1.97384,3.19791 -2.21131,3.97042 -1.61982,5.26868 0.38124,0.83672 1.42762,1.70566 2.32529,1.93095 1.89891,0.47659 11.73618,-1.88767 12.83886,-3.08565 0.40725,-0.44249 1.5543,-3.10575 2.54896,-5.91839 1.59265,-4.50355 2.34688,-5.64795 6.31943,-9.58855 3.34997,-3.3231 5.358,-4.76342 7.80244,-5.59671 2.71663,-0.92607 3.63898,-1.66354 5.28099,-4.22239 2.60212,-4.05507 3.65681,-4.93612 6.96262,-5.81644 1.51281,-0.40284 3.33259,-1.31454 4.04412,-2.02603 0.71147,-0.71147 2.80568,-1.79244 4.65371,-2.40211 4.51236,-1.48865 8.4002,-4.87906 14.3862,-12.54558 4.87648,-6.245508 10.08728,-11.586607 10.70311,-10.970738 0.16889,0.168876 0.0332,0.838469 -0.30141,1.487968 -2.00597,3.893359 -3.42987,8.67345 -2.77792,9.32544 0.80768,0.80763 0.74543,0.94886 2.62171,-5.947976 0.72342,-2.659274 1.31535,-5.511336 1.31535,-6.33791 0,-1.046414 1.65729,-3.11234 5.45671,-6.802175 5.23324,-5.082332 7.17486,-8.05346 8.2354,-12.601958 0.27621,-1.18481 0.19235,-1.669312 -0.24252,-1.400556 -0.36571,0.225998 -0.66486,0.775271 -0.66486,1.220606 0,0.953682 -2.39683,3.229685 -3.99524,3.793803 -1.53978,0.54345 -1.44773,0.247737 1.2175,-3.910617 3.79028,-5.913654 7.0275,-13.610233 8.55994,-20.351643 1.73776,-7.644621 2.16178,-8.543086 4.03186,-8.543086 0.80249,0 3.59698,-0.568542 6.21005,-1.263427 2.61307,-0.694885 5.66528,-1.270198 6.78268,-1.278473 1.89041,-0.014 2.12661,0.239005 3.39978,3.641897 2.59855,6.945194 2.81774,8.982953 1.68278,15.641388 -0.57275,3.360423 -1.0431,8.663134 -1.04515,11.783804 -0.006,8.595153 -0.82582,12.368666 -3.59499,16.539386 -3.13329,4.719077 -3.08374,6.709574 0.28905,11.606707 3.7986,5.5154 3.82207,5.9553 0.50815,9.51372 -3.36796,3.61644 -3.61304,4.58211 -2.86329,11.28319 0.6023,5.38362 1.36183,7.54787 2.65092,7.55378 0.42708,0.002 1.85615,0.30338 3.1756,0.66982 1.97153,0.54752 2.65507,1.20197 3.83542,3.67204 2.13171,4.46095 3.53523,4.88792 10.20904,3.10579 l 5.47676,-1.46248 4.0619,2.04008 c 2.23402,1.12203 4.95555,2.23346 6.04787,2.46981 2.37968,0.51497 2.78835,1.2667 5.40938,9.95203 l 2.02405,6.70707 -0.56496,9.91307 c -0.31076,5.45219 -0.35075,11.75233 -0.0891,14.00031 0.37078,3.18382 0.24902,4.56581 -0.55144,6.25244 -1.00775,2.12389 -0.98311,2.25367 1.29215,6.79703 2.98319,5.95687 2.98913,7.85803 0.0757,24.41365 -0.49554,2.81571 -1.08197,12.15204 -1.30499,20.77517 l -0.40502,15.66129 1.98031,8.20565 c 1.08917,4.51312 1.84426,8.4259 1.6779,8.69506 -0.16635,0.26916 -2.35926,0.66183 -4.87308,0.87258 -6.23381,0.52261 -6.76923,1.11102 -7.28595,8.00694 -0.52239,6.97038 -1.05992,8.35299 -4.01895,10.33659 -1.31123,0.87897 -4.42818,3.51484 -6.92654,5.85752 -4.44537,4.1683 -7.32553,5.63658 -11.07337,5.64518 -3.81643,0.008 -5.4831,1.27499 -7.05639,5.36078 -0.82838,2.15143 -2.44315,5.06365 -3.58836,6.47158 -1.14526,1.40791 -2.27363,3.32233 -2.50753,4.25421 -0.70821,2.8218 -2.97558,4.40944 -6.8716,4.81154 l -3.51438,0.36272 -0.29898,-2.47838 c -0.31642,-2.6227 0.70693,-6.20571 3.62902,-12.70614 l 1.72407,-3.83542 -4.36438,-4.04095 c -2.40039,-2.22252 -5.80931,-5.13185 -7.57532,-6.46518 -3.12006,-2.35562 -3.23378,-2.55713 -4.01588,-7.11792 -1.34029,-7.81606 -2.53757,-10.42481 -5.64618,-12.30247 -5.29966,-3.20112 -14.06468,-2.86397 -19.72805,0.75883 -7.65127,4.89445 -15.44177,13.58954 -16.92627,18.89174 -0.69197,2.47156 -0.70233,4.52742 -0.0568,11.28874 0.4837,5.06555 0.61533,10.95289 0.33989,15.20319 l -0.44958,6.93638 2.31377,5.12442 c 3.04897,6.7528 3.02328,8.48809 -0.16364,11.04914 -2.05047,1.64783 -2.59957,2.59982 -3.18717,5.52557 -0.44554,2.21857 -1.54631,4.67414 -2.9562,6.5948 -2.61269,3.55926 -2.69399,4.49499 -0.94025,10.82363 1.0162,3.66698 1.27194,6.26947 1.15234,11.72631 l -0.15373,7.01334 3.74285,3.32098 3.74286,3.32097 -0.44632,6.03467 c -0.48019,6.49393 -0.89505,7.59495 -7.34827,19.50192 -3.22935,5.95864 -3.66666,8.69294 -1.5219,9.51597 2.08187,0.7989 12.66736,2.90497 14.51828,2.88854 1.07116,-0.009 3.95291,-0.87249 6.40386,-1.9177 5.26034,-2.24337 5.20313,-2.23879 8.75491,-0.70208 2.45283,1.06122 2.93218,1.62814 4.18892,4.95408 0.78058,2.06566 1.88799,5.62551 2.46092,7.91077 0.57296,2.28527 2.59519,7.00211 4.49378,10.4819 1.89858,3.47977 3.44561,6.64399 3.43782,7.0316 -0.0403,1.99738 -2.47097,3.46888 -7.9491,4.81225 -3.14934,0.77227 -10.60033,3.40014 -16.55782,5.83972 -6.10445,2.49975 -11.78207,4.43557 -13.00916,4.43557 -1.48167,0 -2.97073,-0.63757 -4.66062,-1.99558 -2.60601,-2.09427 -2.93107,-2.11913 -8.57975,-0.65623 -1.71282,0.44361 -3.6386,0.4378 -6.07273,-0.0183 -1.96043,-0.36733 -6.00953,-0.52687 -8.99796,-0.35453 -5.78361,0.33354 -9.22654,1.53265 -16.42869,5.72187 -4.4719,2.60117 -10.08171,4.68624 -15.59979,5.79816 -3.85658,0.77712 -4.09909,0.93229 -4.27828,2.73695 -0.28229,2.84337 2.13971,5.90615 6.95631,8.79683 7.18533,4.3123 8.10569,6.8888 8.37411,23.44286 l 0.11922,7.35522 -4.49729,6.70796 c -2.47352,3.6894 -4.9788,7.64166 -5.56735,8.78283 -0.58855,1.14115 -2.47123,7.79131 -4.18374,14.77809 -1.71252,6.9868 -3.43865,13.31053 -3.83581,14.05274 -0.39722,0.7422 -2.46522,3.29705 -4.59552,5.67746 -8.00874,8.94887 -8.98174,11.15995 -12.08272,27.45901 -3.03707,15.96292 -4.93605,20.80627 -15.20551,38.78231 -8.40244,14.70794 -9.07306,16.13862 -11.61179,24.77162 -3.7947,12.90376 -3.91979,14.1213 -3.17496,30.88874 0.53888,12.13173 0.47015,17.46993 -0.38763,30.08985 l -1.04279,15.34167 -5.38377,7.07442 c -7.53876,9.90619 -7.50591,9.87602 -10.67575,9.80532 -1.48047,-0.0332 -108.98082,-14.25152 -238.88958,-31.59674 z M 930.82539,213.9039 c 1.88525,-1.27707 4.00307,-2.80716 4.70619,-3.40021 0.70313,-0.59304 3.20728,-1.8763 5.56461,-2.85167 4.90723,-2.0304 5.30295,-2.40546 5.87116,-5.56349 l 0.41586,-2.31144 -3.80099,-0.74778 c -3.51727,-0.692 -3.92268,-0.95567 -5.43326,-3.53311 -1.45305,-2.47952 -1.93199,-2.8162 -4.36221,-3.06663 -2.28561,-0.23556 -3.11989,0.0221 -5.12697,1.58341 -2.62194,2.03959 -2.87835,3.20362 -1.45566,6.60859 1.19135,2.85117 0.50499,4.0903 -3.28535,5.93179 -2.75141,1.33676 -2.77,1.3686 -2.77,4.74649 0,3.1153 0.14753,3.459 1.75789,4.09534 2.97884,1.1771 4.36491,0.91608 7.91873,-1.49129 z m 0.19382,-6.23052 c -0.21,-0.83647 -0.28734,-2.34666 -0.17202,-3.35599 0.16257,-1.42248 0.56908,-1.87014 1.80783,-1.99081 4.11262,-0.40064 5.04885,4.81826 1.11064,6.19114 -2.4852,0.86635 -2.30307,0.92235 -2.74645,-0.84434 z M 458.02219,441.28683 c -1.7579,-0.21636 -5.49743,-1.44621 -8.31007,-2.73302 -3.56046,-1.62893 -6.42216,-2.45572 -9.42069,-2.72178 -5.50813,-0.48874 -6.24059,-0.79704 -6.24059,-2.62666 0,-1.92138 3.02019,-4.3576 7.82102,-6.30881 2.01489,-0.8189 4.67901,-2.38062 5.92029,-3.47048 4.4684,-3.9233 6.27703,-4.36824 11.95654,-2.94138 1.37928,0.34651 2.27923,-0.006 4.47466,-1.75117 1.51149,-1.20172 4.0426,-2.74218 5.62471,-3.42326 1.58211,-0.68109 3.54118,-1.94689 4.35347,-2.8129 1.23692,-1.31869 1.57699,-1.42277 2.09265,-0.64049 0.33867,0.51374 0.49224,1.64805 0.34129,2.52068 -0.15096,0.87264 0.10298,2.31091 0.56432,3.19617 1.10966,2.12934 6.96295,5.54098 10.46111,6.09737 1.53494,0.24413 4.03007,0.99207 5.54475,1.66208 2.37505,1.05059 2.89756,1.65058 3.7978,4.36096 1.02779,3.09441 1.01977,3.1809 -0.52178,5.62287 -1.12792,1.78675 -2.27579,2.69289 -4.10581,3.24119 -5.87415,1.75993 -15.4962,0.16788 -15.4962,-2.564 0,-1.76847 -1.16986,-3.70655 -2.23733,-3.70655 -1.213,0 -2.40226,2.30874 -1.9398,3.76581 0.47484,1.49611 -3.42058,4.16291 -7.0095,4.7987 -1.40632,0.24912 -2.98844,0.53736 -3.51581,0.64051 -0.52737,0.10319 -2.39713,0.0106 -4.15503,-0.20584 z m -331.58364,-17.3492 c -0.82805,-0.48265 -1.00348,-1.14689 -0.71239,-2.69733 0.69733,-3.71423 2.00356,-6.21202 3.24859,-6.21202 2.87749,0 3.63292,3.92409 1.44593,7.51102 -1.32527,2.1736 -2.15322,2.46433 -3.98213,1.39833 z m 412.70506,-4.28123 c -0.87203,-1.49326 -2.17482,-2.44437 -4.59687,-3.35598 -1.85898,-0.69968 -3.64039,-1.27214 -3.9587,-1.27214 -1.85351,0 -5.36995,-3.01908 -6.44931,-5.53711 -1.1752,-2.7416 -1.17344,-2.80263 0.14371,-5.03505 0.77978,-1.32163 2.28179,-2.65612 3.61788,-3.21436 l 2.28453,-0.95456 4.37624,4.33417 c 2.47587,2.45207 5.10142,5.8117 6.04622,7.73668 1.61414,3.28871 1.63793,3.50252 0.71159,6.39237 l -0.9584,2.98983 z m -302.1318,-5.09586 c -2.19884,-2.29644 -5.58301,-8.98955 -5.58131,-11.03851 9.7e-4,-1.8265 0.62749,-3.00649 3.96324,-7.47094 5.97321,-7.9943 12.78359,-6.18844 14.25237,3.77923 0.56435,3.82984 -1.05123,6.76851 -6.8682,12.49289 l -4.07172,4.00694 z m 138.10583,-1.70113 c -0.59527,-0.8201 -2.46505,-1.95033 -4.15504,-2.51164 -2.966,-0.98512 -3.10768,-0.97497 -4.08004,0.2925 -0.95894,1.25 -1.2479,1.2766 -6.01578,0.55388 -4.75122,-0.72022 -6.89219,-0.64264 -9.43721,0.34195 -0.93154,0.36037 -1.11867,0.0675 -1.11867,-1.75077 0,-1.20094 0.37865,-2.70136 0.84144,-3.33426 0.7595,-1.03869 1.19595,-1.07713 4.48256,-0.39483 4.02834,0.83627 6.13855,0.41075 10.01768,-2.02009 3.08093,-1.93064 11.56983,-5.62802 12.92154,-5.62802 0.60985,0 1.53705,0.82812 2.06045,1.84026 2.43732,4.71325 5.7234,1.57418 3.488,-3.33198 -0.6298,-1.38228 -0.31043,-2.11794 2.92269,-6.73194 1.99637,-2.84904 4.37235,-5.76418 5.27995,-6.47809 l 1.65018,-1.29804 1.149,2.5664 c 0.63197,1.41151 1.37882,2.57278 1.6597,2.5806 0.28086,0.007 1.1803,0.52934 1.99874,1.15897 1.43789,1.10615 1.46306,1.28356 0.74613,5.25949 -0.40807,2.26309 -1.18001,4.60242 -1.71539,5.19849 -1.25911,1.40183 -13.73368,7.54592 -15.32079,7.54592 -1.90709,0 -4.0555,1.84418 -4.0555,3.48121 0,0.82008 -0.50338,2.08954 -1.11865,2.82105 l -1.11867,1.33003 z m 168.86987,-5.45302 c -1.73096,-1.73097 -3.70429,-3.32402 -4.38515,-3.54013 -1.75163,-0.55594 -2.12099,-2.0086 -1.11245,-4.3752 1.35393,-3.17707 3.77249,-5.02371 7.0658,-5.3949 2.84934,-0.32116 2.9357,-0.27739 3.87149,1.96229 0.52645,1.25994 2.27309,3.9064 3.88147,5.88104 2.76206,3.39107 2.87132,3.67116 1.96931,5.04779 -1.08237,1.65191 -4.71716,3.56634 -6.77112,3.56634 -0.79137,0 -2.70415,-1.33203 -4.51935,-3.14723 z m 15.51342,-8.6648 c -1.49421,-2.62176 -2.71676,-5.06379 -2.71676,-5.42672 0,-0.85349 2.92066,-0.85231 4.51667,0.002 1.81899,0.97349 1.51695,-0.3309 -0.36164,-1.56179 -2.09306,-1.3715 -2.15218,-3.57463 -0.096,-3.57463 2.1815,0 6.57613,3.40269 6.95512,5.38524 0.51341,2.68573 -1.49798,8.50565 -3.20901,9.28525 -0.81016,0.36915 -1.67524,0.66811 -1.92238,0.66438 -0.24714,-0.004 -1.67189,-2.15188 -3.1661,-4.77365 z m 21.89383,-19.52235 c -3.16422,-1.05075 -7.6948,-2.49692 -10.06796,-3.21371 -3.9717,-1.19962 -4.31485,-1.44377 -4.31485,-3.06986 0,-1.34752 1.07125,-2.80992 4.51597,-6.16491 2.4838,-2.41908 4.79516,-4.91998 5.13639,-5.55757 0.34122,-0.63757 1.0282,-1.15923 1.52665,-1.15923 0.70478,0 0.82734,0.67498 0.55133,3.03638 -0.45351,3.87995 0.99154,5.85666 6.20554,8.48869 5.38304,2.71735 8.38691,5.51523 8.14625,7.58763 -0.17291,1.48891 -0.49339,1.67818 -3.06963,1.81276 -1.83286,0.0959 -4.96395,-0.54286 -8.62969,-1.76018 z M 182.60205,367.88461 c -3.54342,-2.86743 -3.72706,-4.25852 -1.07168,-8.11797 2.41907,-3.51601 3.40514,-3.85644 6.08399,-2.10044 3.14484,2.06152 4.11552,6.07848 2.21277,9.15718 -1.15468,1.86833 -2.98885,3.45836 -3.98934,3.45836 -0.15041,0 -1.60651,-1.0787 -3.23574,-2.39713 z M 74.852685,350.19537 c -0.409181,-1.02746 -0.608297,-2.22165 -0.442493,-2.65375 0.165816,-0.4321 -0.275095,-0.93641 -0.979814,-1.12071 -0.971597,-0.25407 -1.231284,-0.77144 -1.074425,-2.1405 0.288347,-2.51666 2.496243,-2.75356 4.29932,-0.46131 1.397252,1.7763 1.370664,2.42974 -0.257443,6.32671 l -0.801189,1.91771 z M 328.45726,289.25856 c -2.00304,-3.06226 -2.4878,-4.3984 -2.02926,-5.59333 0.38543,-1.00438 2.58579,-1.2734 3.84132,-0.46962 1.13483,0.72649 1.4184,8.46009 0.31021,8.46009 -0.30487,0 -1.25989,-1.07871 -2.12227,-2.39714 z m 219.3776,-72.39349 c -0.52737,-0.34081 -1.58648,-0.62407 -2.3536,-0.62945 -0.81179,-0.006 -1.96383,-0.80897 -2.75625,-1.92183 -1.32355,-1.85876 -1.32984,-1.96562 -0.22532,-3.83542 1.28633,-2.17756 1.25119,-2.16635 3.89774,-1.24376 1.55469,0.54195 2.03599,1.15694 2.37637,3.03637 0.23475,1.29622 0.5822,3.00398 0.7721,3.79504 0.36988,1.5408 -0.17181,1.79376 -1.71104,0.79905 z"
     id="path39887"
     inkscape:label="outline" /></svg>
