<?xml version="1.0" encoding="UTF-8" standalone="no"?>
<!-- Created with Inkscape (http://www.inkscape.org/) -->

<svg
   version="1.0"
   width="525"
   height="650"
   id="svg2"
   sodipodi:docname="England_Region_-_London.svg"
   inkscape:version="1.2.2 (b0a84865, 2022-12-01)"
   xmlns:inkscape="http://www.inkscape.org/namespaces/inkscape"
   xmlns:sodipodi="http://sodipodi.sourceforge.net/DTD/sodipodi-0.dtd"
   xmlns="http://www.w3.org/2000/svg"
   xmlns:svg="http://www.w3.org/2000/svg">
  <sodipodi:namedview
     id="namedview144"
     pagecolor="#ffffff"
     bordercolor="#000000"
     borderopacity="0.25"
     inkscape:showpageshadow="2"
     inkscape:pageopacity="0.0"
     inkscape:pagecheckerboard="0"
     inkscape:deskcolor="#d1d1d1"
     showgrid="false"
     inkscape:zoom="0.85641817"
     inkscape:cx="145.37291"
     inkscape:cy="354.96678"
     inkscape:window-width="1440"
     inkscape:window-height="872"
     inkscape:window-x="0"
     inkscape:window-y="28"
     inkscape:window-maximized="0"
     inkscape:current-layer="england" />
  <defs
     id="defs667" />
  <g
     transform="translate(-151.20312,-329.8125)"
     id="england">
    <path
       d="m 549.27572,784.41833 -0.84375,0.34375 -3.0625,0.21875 1,0.65625 v 0.0312 l -1,-0.6875 -0.59375,1.65625 -0.65625,0.5 -0.59375,0.5 -0.84375,-0.65625 -0.5625,1 -2.59375,0.65625 -0.40625,1.53125 -0.4375,-0.28125 -2.21875,1.03125 -0.625,-0.15625 -0.75,-0.34375 -3.125,1.90625 -0.34375,0.34375 -0.6875,0.3125 -1.75,0.53125 -2.5,-0.6875 -1.09375,0.90625 -2.90625,-1.96875 v 3.375 l 0.78125,2.375 0.90625,2.15625 -1.25,2.15625 0.3125,2.34375 0.65625,1.09375 -0.46875,1.375 -0.90625,1.5 -0.375,1.28125 3.5,1.34375 0.1875,1.96875 0.6875,-0.21875 0.46875,1 1.40625,-0.1875 1.84375,0.9375 0.40625,0.375 -0.21875,1.125 2.09375,-0.28125 2.21875,2.15625 0.6875,-0.25 0.75,1.625 -1.5,3.375 0.0625,2.25 0.4375,0.0937 1.21875,-0.96875 1.125,-3 1.8125,-1.9375 1.09375,-0.0625 v 1.40625 l 1.5625,1.0625 0.4375,1.5 -0.84375,0.75 0.65625,0.75 1.53125,-1.5625 0.65625,0.25 2.21875,2.09375 0.125,2.21875 h 1.25 l 0.90625,1.5 2.25,-1.65625 0.8125,-2 1.84375,-0.34375 0.0625,-1.09375 0.84375,-0.71875 1.03125,0.0625 0.5625,0.84375 0.25,-0.40625 0.90625,0.46875 1,4.03125 1.15625,-1.75 0.6875,1.59375 3,-0.0937 -0.15625,-2.5 2.25,-1.53125 -0.0312,-1.625 1.28125,-0.0312 0.96875,-2.8125 -0.40625,-2.4375 1,-0.0625 -0.96875,-1.78125 0.40625,-2.40625 0.59375,0.25 0.5,-1.65625 2.0625,-1.25 0.90625,-2.90625 -0.5,-1 0.15625,-0.59375 1.125,-0.5 -0.25,-0.75 1.0625,-0.1875 -0.40625,-1.25 0.5625,0.0312 0.25,-1.09375 0.34375,1.1875 0.6875,-0.0312 0.0625,-1.5625 3.84375,-1.03125 h 0.8125 l -1.5625,-2.71875 -1.5,0.21875 -1.53125,-3.8125 -1.0625,-0.1875 0.6875,-0.75 -0.84375,-1 -2,-1.5 -1.59375,0.78125 -0.25,-0.0312 -3.9375,0.34375 -0.65625,0.25 -2.46875,0.90625 -0.1875,0.9375 -1.09375,0.0625 -2.21875,-1.15625 -1.34375,-1.34375 0.21875,-0.96875 -2.5625,-0.90625 -0.0625,-3.78125 z"
       id="london"
       style="fill:none;stroke:#f5f5f7;stroke-width:2;stroke-dasharray:none;stroke-opacity:1" />
    <path
       style="fill:none;stroke:#f5f5f7;stroke-width:2.91171;stroke-dasharray:none;stroke-opacity:1"
       d="m 187.64834,973.43823 c -1.51308,-1.6766 -2.68139,-4.17303 -2.35118,-5.02392 0.87977,-2.26691 -3.20166,-8.64385 -5.5323,-8.64385 -0.63228,0 -1.34523,-0.313 -1.58434,-0.69554 -0.24124,-0.38596 -1.14923,-0.51822 -2.04002,-0.29715 -1.22937,0.30509 -1.90949,0.0159 -2.90441,-1.23467 -1.49824,-1.88333 -4.73003,-2.2506 -5.36676,-0.60989 -0.21841,0.56274 -0.24601,1.26487 -0.0614,1.5603 0.56182,0.89884 -1.03893,3.66868 -2.51818,4.35726 -2.11393,0.98403 -8.76787,2.20851 -9.51621,1.7512 -0.36328,-0.22198 -0.66053,-0.82084 -0.66053,-1.33078 0,-0.50992 -0.26148,-0.92712 -0.58107,-0.92712 -1.16079,0 -1.38042,-2.14033 -0.33668,-3.28072 0.85011,-0.92881 0.93069,-1.54753 0.39822,-3.0578 -0.56474,-1.60184 -0.42223,-2.25034 0.92552,-4.21145 1.05678,-1.53772 2.09883,-2.31807 3.09551,-2.31807 0.82634,0 2.03245,-0.57908 2.68021,-1.28681 0.64776,-0.70773 1.4984,-1.29324 1.89029,-1.30111 0.39189,-0.008 1.44458,-0.5805 2.3393,-1.2725 2.2825,-1.76537 6.91644,-1.76537 7.4831,0 0.73401,2.28668 2.74236,1.12413 4.25512,-2.46316 0.52021,-1.23359 0.95749,-1.42733 2.47689,-1.09736 1.26307,0.2743 2.10828,0.0872 2.67922,-0.59298 0.45874,-0.54654 1.17218,-0.99372 1.58542,-0.99372 1.32487,0 4.94564,-3.7418 4.94564,-5.11093 0,-0.82339 0.43006,-1.33076 1.13873,-1.34341 2.1743,-0.0389 4.78926,-3.02956 5.0427,-5.76733 0.29331,-3.1684 0.70997,-3.86338 2.31614,-3.86338 0.69466,0 1.26302,-0.4343 1.26302,-0.96511 0,-1.14001 0.75464,-1.24836 1.7614,-0.25291 0.52655,0.52064 0.97774,0.30433 1.67763,-0.80426 1.24445,-1.97125 1.89722,-5.5428 1.10183,-6.02885 -0.36662,-0.22403 -0.21204,-0.99911 0.37635,-1.88702 0.65332,-0.9859 0.84359,-2.11719 0.55038,-3.27234 -0.43954,-1.73161 -0.40312,-1.75716 1.89685,-1.33053 2.20562,0.40914 2.44837,0.28055 4.08382,-2.16303 1.69575,-2.5337 3.78864,-3.4036 4.32942,-1.79952 0.19277,0.57184 0.59576,0.47561 1.4196,-0.33897 0.84877,-0.83926 1.71783,-1.03225 3.31455,-0.73607 1.93496,0.35893 2.27272,0.19381 3.18954,-1.55926 0.56399,-1.07838 1.02544,-2.8253 1.02544,-3.88203 0,-1.65646 0.46844,-2.17087 3.39809,-3.73152 2.02086,-1.07652 3.80099,-2.59078 4.39226,-3.73618 1.17021,-2.267 2.90948,-3.95555 5.38644,-5.22934 1.95325,-1.00448 2.12266,-1.97709 1.83539,-10.53823 -0.0958,-2.85396 0.22461,-4.99944 1.00885,-6.75573 0.63207,-1.41548 1.31214,-4.16601 1.51128,-6.11231 l 0.3621,-3.53871 3.9573,0.002 c 3.33328,9.7e-4 4.3353,0.28691 6.35432,1.80961 3.09809,2.33651 4.33753,1.95644 8.76308,-2.68713 3.14146,-3.29622 3.42013,-3.82665 3.04634,-5.79839 -0.47307,-2.4954 -1.52322,-4.53378 -2.92523,-5.6781 -0.82037,-0.66955 -0.65083,-0.7999 1.06288,-0.81709 1.63929,-0.0166 2.09867,-0.32943 2.34368,-1.59673 0.20345,-1.05232 -0.0403,-1.70719 -0.73329,-1.97013 -0.86676,-0.32888 -0.77032,-0.59769 0.58452,-1.62932 0.89237,-0.67951 2.00975,-1.09688 2.48302,-0.92749 0.47329,0.16938 1.42604,0.009 2.11721,-0.35703 0.69117,-0.36575 4.1082,-0.82631 7.5934,-1.02347 3.48518,-0.19716 6.8155,-0.61181 7.4007,-0.92149 0.5852,-0.30968 1.90525,-0.55806 2.93342,-0.55196 4.60179,0.0272 6.44145,-0.17391 7.18709,-0.7858 0.54559,-0.44769 1.48547,-0.44542 2.94733,0.007 4.42712,1.37052 10.34599,2.43018 10.67085,1.91043 0.55236,-0.88372 6.31485,-0.59224 8.06847,0.40812 0.89471,0.51039 2.21239,1.19673 2.92816,1.52518 0.71578,0.32846 1.85922,1.20949 2.54101,1.95784 1.0131,1.11205 1.98988,1.36065 5.34624,1.36065 2.25867,0 5.06825,-0.40082 6.24352,-0.89069 3.97198,-1.65558 8.043,-2.31465 10.31599,-1.67009 1.65278,0.4687 2.39999,0.38871 3.21954,-0.34465 0.58697,-0.52524 1.44433,-0.955 1.90523,-0.955 0.59742,0 0.69941,-0.50798 0.35528,-1.76935 -0.26551,-0.97314 -0.44198,-3.26981 -0.39215,-5.10369 0.0499,-1.83389 -0.2063,-3.51578 -0.56919,-3.73754 -1.31628,-0.80439 -0.62351,-1.62958 1.02471,-1.22053 1.52003,0.37721 1.66295,0.25548 1.46409,-1.24681 -0.14571,-1.10068 0.22061,-1.9857 1.08102,-2.61173 1.20567,-0.87722 1.21764,-0.979 0.16268,-1.38339 -1.84021,-0.70537 -1.31626,-1.49563 1.30141,-1.96285 3.40691,-0.60811 4.50808,-1.28333 4.95331,-3.03733 0.21196,-0.83507 2.01523,-3.04244 4.00725,-4.90526 2.72822,-2.55127 3.97614,-3.30735 5.05778,-3.06435 1.12175,0.25199 1.88349,-0.28025 3.48165,-2.43268 1.12514,-1.51539 2.24202,-3.63901 2.48195,-4.71918 0.23995,-1.08015 0.88505,-2.3322 1.43358,-2.78233 0.8878,-0.72854 0.87135,-0.8621 -0.1497,-1.21625 -1.23077,-0.42688 -1.4509,-1.4965 -1.79345,-8.71397 -0.11869,-2.50105 -0.4108,-4.85934 -0.64914,-5.24063 -0.23833,-0.3813 0.0347,-0.87082 0.6065,-1.08781 0.69627,-0.26418 0.88205,-0.76479 0.56231,-1.51508 -0.61239,-1.43692 -0.43964,-4.87703 0.34771,-6.92467 0.55702,-1.44865 0.45059,-1.60179 -1.16003,-1.66907 -0.97535,-0.0407 -2.22475,-0.0327 -2.77647,0.0177 -1.15457,0.10569 -4.11638,-3.54423 -3.5767,-4.40766 0.19804,-0.31682 -0.94915,-1.39635 -2.54928,-2.39897 -1.60013,-1.00261 -2.92001,-2.18484 -2.93307,-2.62719 -0.0314,-1.06467 -0.28369,-1.02753 -3.27729,0.48256 -1.40305,0.70774 -3.00187,1.2868 -3.55295,1.2868 -0.56819,-1e-4 -1.002,-0.55721 -1.002,-1.2869 0,-0.8429 -0.4338,-1.28679 -1.25756,-1.28679 -0.73927,0 -1.43985,-0.59663 -1.69987,-1.44766 -0.24327,-0.7962 -1.10801,-2.17149 -1.92168,-3.05615 -2.31843,-2.52081 -3.73212,-5.74734 -3.28683,-7.50162 0.27034,-1.06503 -0.0275,-2.10872 -0.9231,-3.23449 -1.45476,-1.82866 -1.71678,-4.05809 -0.60602,-5.15636 0.52113,-0.5153 0.3621,-0.8193 -0.58389,-1.11616 -1.94391,-0.61007 -1.11681,-2.93685 1.044,-2.93685 1.55286,0 1.58882,-0.0625 0.49241,-0.85519 -0.96606,-0.69849 -1.04848,-1.10337 -0.44972,-2.20961 0.40319,-0.74493 0.73309,-1.92154 0.73309,-2.61469 0,-0.69315 0.43922,-1.42691 0.97606,-1.63062 0.53683,-0.20369 0.97605,-0.95848 0.97605,-1.67733 0,-0.73283 0.42879,-1.307 0.97607,-1.307 0.53683,0 0.97606,-0.44147 0.97606,-0.98102 0,-0.53957 0.80524,-1.29792 1.78944,-1.68521 0.98419,-0.38729 1.45451,-0.8283 1.04514,-0.98002 -0.40937,-0.15173 -0.64664,-0.76865 -0.52722,-1.37096 0.77733,-3.92141 1.05147,-4.51097 2.24046,-4.8184 0.71969,-0.18609 1.30853,-0.67273 1.30853,-1.0814 0,-0.51613 -0.89485,-0.61039 -2.92992,-0.30865 -2.72866,0.40461 -3.1087,0.27473 -5.53286,-1.89077 -1.43163,-1.27887 -2.92386,-2.32522 -3.31608,-2.32522 -0.39221,0 -1.52701,-0.79621 -2.52176,-1.76937 -0.99476,-0.97314 -2.2835,-2.14268 -2.8639,-2.59897 -2.04005,-1.60384 -0.47507,-6.56635 2.07251,-6.57191 0.60601,-9.6e-4 2.06057,-0.58038 3.23235,-1.2868 1.18602,-0.715 3.27745,-1.2844 4.71762,-1.2844 2.15329,0 2.5871,-0.21576 2.5871,-1.2868 0,-0.70774 0.42194,-1.28681 0.93765,-1.28681 1.33139,0 1.85241,-1.10497 1.38651,-2.94048 l -0.40121,-1.58053 -1.93752,1.4164 c -1.06565,0.77902 -1.93754,1.76005 -1.93754,2.18008 0,1.02493 -3.96275,1.76744 -4.83419,0.90578 -0.48079,-0.47538 -0.40134,-0.85215 0.26557,-1.2597 0.79383,-0.4851 0.81989,-0.94142 0.15724,-2.75335 -1.04939,-2.86948 -1.01913,-3.04562 0.52324,-3.04562 1.34774,0 2.80778,-2.48962 2.71802,-4.63471 -0.0253,-0.60281 0.52056,-1.27377 1.21285,-1.49103 0.9146,-0.28701 1.25867,-0.98446 1.25867,-2.5514 0,-2.46075 1.81859,-5.99916 3.22126,-6.26755 1.37324,-0.26276 -2.27121,-3.71398 -3.92196,-3.71398 -0.71074,0 -1.46082,-0.4343 -1.66681,-0.96511 -0.20601,-0.5308 -0.85565,-0.97536 -1.44366,-0.98788 -2.65491,-0.0567 -3.83473,-1.48521 -3.75198,-4.54308 0.044,-1.62655 0.50043,-3.45818 1.01427,-4.0703 0.75366,-0.89786 0.77166,-1.21227 0.0932,-1.62688 -0.6019,-0.36782 -0.63323,-0.6409 -0.11022,-0.96052 0.40193,-0.24563 0.56232,-0.71612 0.35641,-1.04553 -0.2059,-0.32943 0.20911,-0.59894 0.92224,-0.59894 0.93074,0 1.35469,-0.49924 1.50249,-1.76937 0.17451,-1.49969 0.54888,-1.80161 2.45632,-1.98098 1.23775,-0.11638 2.89386,-0.8402 3.68027,-1.60849 3.36934,-3.2917 3.51727,-3.33243 5.07745,-1.39776 1.22836,1.52325 1.63665,1.67791 2.80181,1.06134 2.03256,-1.0756 5.63102,0.60025 6.68347,3.11258 0.80845,1.92988 0.85212,1.94661 1.75475,0.6724 0.50912,-0.71871 1.31696,-1.30674 1.79522,-1.30674 1.99926,0 1.79444,-5.70519 -0.21132,-5.88588 -0.58155,-0.0525 -1.4966,-0.15428 -2.03344,-0.22643 -0.53684,-0.0721 -1.47476,-0.17406 -2.08426,-0.22644 -1.31226,-0.11281 -3.39976,-4.31334 -4.1941,-8.43951 -0.1682,-0.87369 -0.60649,-1.94674 -0.97398,-2.38456 -0.36749,-0.43785 -0.48474,-1.08953 -0.26056,-1.44819 0.22417,-0.35866 -0.56922,-1.05567 -1.76308,-1.5489 -1.97413,-0.81558 -4.38884,-3.446 -4.38884,-4.78088 0,-0.29524 1.02486,-0.90323 2.27746,-1.35109 1.25262,-0.44786 2.27747,-1.14273 2.27747,-1.54412 0,-1.2601 -6.46685,-6.79675 -8.43886,-7.22501 -2.05343,-0.44595 -3.08058,-1.39903 -3.12503,-2.89972 -0.0554,-1.86796 -1.79557,-5.40529 -3.6192,-7.35659 -1.014,-1.08502 -2.13128,-2.693 -2.48284,-3.5733 -0.78694,-1.9705 0.34264,-3.00211 6.81802,-6.2267 3.23065,-1.6088 4.27035,-2.4232 3.80876,-2.98341 -0.3492,-0.42381 -1.01338,-2.07345 -1.47597,-3.66587 -0.4626,-1.59243 -1.3827,-3.60015 -2.04467,-4.46161 -0.84306,-1.09709 -1.07994,-2.12298 -0.79079,-3.42469 0.55982,-2.52025 4.15243,-8.69526 7.74384,-13.31017 1.62582,-2.08916 2.95605,-3.92906 2.95605,-4.08862 0,-0.1596 -0.93759,-0.47557 -2.08353,-0.70218 -1.14591,-0.22662 -2.75641,-1.0371 -3.57888,-1.80109 -1.38739,-1.28877 -1.49536,-1.90938 -1.49536,-8.59559 0,-11.09202 -0.22514,-10.63679 6.48649,-13.11509 4.81213,-1.77689 5.66744,-2.30455 5.39645,-3.32916 -0.17711,-0.66967 -0.58069,-1.21759 -0.89683,-1.21759 -0.31616,0 -0.57483,-0.68838 -0.57483,-1.52972 0,-0.84136 -0.418,-1.87276 -0.92891,-2.29201 -0.79156,-0.64958 -0.69536,-1.10263 0.65069,-3.06388 0.86881,-1.26588 1.57965,-2.55072 1.57965,-2.85522 0,-0.30448 0.59288,-0.55361 1.31752,-0.55361 0.79123,0 1.5542,-0.61558 1.91005,-1.54103 0.32591,-0.84757 0.9775,-1.6933 1.44799,-1.87941 0.63898,-0.25275 0.64962,-0.35123 0.0421,-0.38918 -0.44735,-0.0279 -0.81337,-0.48508 -0.81337,-1.0159 0,-0.53081 -0.63444,-1.59242 -1.40986,-2.35914 -0.78255,-0.77376 -1.40985,-2.20517 -1.40985,-3.21701 0,-1.00263 -0.21034,-1.82298 -0.46742,-1.82298 -0.81402,0 -2.56922,3.11521 -2.56922,4.55996 0,1.08604 -0.18944,1.23276 -0.87027,0.67408 -0.6653,-0.54596 -1.22836,-0.33723 -2.39088,0.88633 -1.80639,1.90122 -4.31077,2.23609 -3.54885,0.47451 1.03868,-2.40146 1.05138,-4.42691 0.0331,-5.2626 -0.87327,-0.71663 -1.03147,-0.67723 -1.03147,0.25682 0,0.60679 -0.58563,1.83942 -1.3014,2.73916 -0.71578,0.89975 -1.30142,1.97436 -1.30142,2.38803 0,0.41367 -1.026,1.73541 -2.28002,2.93721 -1.54187,1.47766 -2.15966,2.56 -1.90825,3.34321 0.20446,0.63698 0.1324,1.14894 -0.16014,1.13769 -1.12996,-0.0436 -2.80934,-1.78519 -2.80934,-2.91362 0,-0.88163 -0.1881,-0.99771 -0.7371,-0.45486 -0.99374,0.98257 -0.20902,2.78962 1.39109,3.20335 2.04003,0.5275 1.58579,2.1158 -0.60511,2.1158 -1.64542,0 -2.17432,-0.49486 -3.90424,-3.65297 -1.10056,-2.00913 -2.00101,-4.42566 -2.00101,-5.37007 0,-1.96346 1.7494,-5.77521 2.65049,-5.77521 0.33169,0 0.60307,-0.3224 0.60307,-0.71646 0,-0.48257 -0.93862,-0.57728 -2.87514,-0.29013 l -2.87509,0.42629 -3.3066,-5.31272 c -2.60028,-4.17788 -3.3066,-5.89123 -3.3066,-8.02092 0,-2.06582 -0.71424,-3.90359 -3.01116,-7.74773 -3.9314,-6.57971 -6.42031,-10.13119 -8.75497,-12.4927 -2.07526,-2.09913 -2.39245,-3.59523 -0.99658,-4.70054 1.51056,-1.19613 3.8347,-9.20512 3.37474,-11.62936 -0.22494,-1.18553 -0.16903,-2.25471 0.12419,-2.37596 0.92153,-0.38104 4.05814,-4.80445 4.05814,-5.72298 0,-0.48248 1.0722,-1.96295 2.38265,-3.28991 1.92602,-1.95028 2.47576,-3.09112 2.8685,-5.95273 1.02672,-7.48104 5.3625,-13.54945 8.08477,-11.31553 1.39229,1.14253 2.03134,0.30751 0.74105,-0.96829 -0.95758,-0.94683 -0.95779,-1.16284 -0.003,-2.60425 0.57285,-0.86448 1.57623,-1.57177 2.22974,-1.57177 0.65348,0 1.36913,-0.28955 1.59033,-0.6434 0.58862,-0.94173 3.78499,-0.78501 5.22507,0.25619 1.09601,0.79242 1.38055,0.74419 2.38833,-0.40475 0.62926,-0.71739 0.9865,-1.55651 0.79386,-1.86471 -0.19236,-0.30777 0.38206,-0.55993 1.27678,-0.55993 1.83536,0 2.15531,-0.34065 2.60064,-2.76893 0.17285,-0.94252 0.50615,-2.02066 0.74068,-2.39586 0.23452,-0.3752 0.0832,-1.09114 -0.33633,-1.59093 -1.30913,-1.55971 -0.13727,-2.20736 3.27165,-1.80816 2.69468,0.31557 3.23539,0.20639 3.23539,-0.65319 0,-0.56765 0.60634,-1.35295 1.34742,-1.7451 1.52448,-0.80675 6.46103,-5.82426 6.46103,-6.56706 0,-0.26732 0.43854,-0.48603 0.97456,-0.48603 1.94754,0 7.17336,-4.3676 8.03066,-6.71181 0.56879,-1.55531 1.24577,-2.29582 2.0989,-2.29582 1.37465,0 1.78557,-2.17605 0.55312,-2.9292 -0.43066,-0.26317 0.33089,-1.41682 1.95212,-2.95717 1.46205,-1.3891 2.65828,-2.79424 2.65828,-3.12251 0,-0.32829 0.65884,-0.94475 1.46409,-1.36993 0.80525,-0.42518 2.2404,-1.59348 3.18924,-2.59625 1.76776,-1.86821 5.42164,-2.52867 6.76655,-1.22312 0.58655,0.56939 3.4341,-0.91371 3.05833,-1.59287 -0.0895,-0.16171 -0.13384,-0.51116 -0.0986,-0.77657 0.0353,-0.26539 0.10847,-1.20105 0.16268,-2.07924 0.0644,-1.0441 0.54895,-1.67866 1.39997,-1.83358 0.71576,-0.13029 1.91472,-0.79524 2.66433,-1.47766 0.76608,-0.6974 1.81345,-1.06982 2.3917,-0.85041 0.66635,0.25283 1.41431,-0.19142 2.12303,-1.26094 1.0342,-1.56065 1.02471,-1.78414 -0.17266,-4.07172 -0.69678,-1.33125 -1.44489,-3.52498 -1.66244,-4.87496 -0.24927,-1.54676 -1.00979,-2.93226 -2.05639,-3.74625 -0.91344,-0.71047 -1.66081,-1.93997 -1.66081,-2.73224 0,-0.79226 -0.633,-2.11231 -1.40667,-2.93342 -1.66794,-1.77021 -1.00448,-3.46493 1.47313,-3.76284 2.1684,-0.26073 4.48848,-1.49228 4.48848,-2.38255 0,-0.40933 0.71089,-1.4046 1.57975,-2.21168 0.86887,-0.80711 1.43769,-1.83357 1.26402,-2.28104 -0.17366,-0.44748 0.14031,-0.98663 0.69771,-1.19811 0.55741,-0.2115 1.01347,-0.82793 1.01347,-1.36984 0,-0.54191 0.31906,-0.9853 0.70908,-0.9853 1.10767,0 3.14951,-2.74665 3.17349,-4.26896 0.0199,-1.26452 2.43835,-3.45187 3.81652,-3.45187 0.8055,0 4.0136,4.88616 4.0136,6.11298 0,0.54634 1.52811,2.4345 3.39579,4.19592 3.10302,2.92643 3.66404,3.20255 6.50707,3.20255 2.88487,0 3.11125,0.11705 3.11125,1.60851 0,1.2868 -0.32534,1.6085 -1.62676,1.6085 -0.89472,0 -1.62677,-0.28953 -1.62677,-0.6434 0,-0.35387 -0.58563,-0.6434 -1.3014,-0.6434 -1.66127,0 -1.64592,0.67851 0.0561,2.48498 1.12352,1.19242 1.52831,1.30072 2.34788,0.62816 0.81635,-0.66989 1.14944,-0.5975 1.89598,0.41198 0.49811,0.67355 0.90563,1.45884 0.90563,1.74508 0,0.28622 0.54539,0.52042 1.21195,0.52042 1.59064,0 5.89855,3.41396 7.03075,5.57176 0.49077,0.93535 0.72833,2.21145 0.52792,2.8358 -0.2004,0.62434 -0.0595,1.32141 0.31279,1.54901 0.37246,0.22758 0.67719,1.12054 0.67719,1.98433 0,0.86381 0.29281,1.57054 0.6507,1.57054 0.35789,0 0.6507,1.43058 0.6507,3.17903 0,1.74849 0.29389,3.35864 0.65309,3.57816 0.71597,0.43752 0.19534,3.38552 -0.82383,4.66479 -0.92089,1.15595 -0.10375,4.39171 1.5128,5.99007 1.33108,1.31615 1.40791,3.58939 0.22434,6.63909 -0.17018,0.43848 0.35941,1.7932 1.17689,3.01045 2.45012,3.64842 3.32007,6.72844 2.33913,8.28155 -0.70141,1.11051 -0.62961,1.68908 0.45933,3.70146 0.70986,1.31187 1.21577,2.623 1.12427,2.91364 -0.21307,0.67656 3.58314,8.20277 4.86117,9.63756 0.53338,0.59881 0.82984,1.4674 0.65882,1.93021 -0.17102,0.46283 0.45036,1.64906 1.38085,2.6361 1.50894,1.60064 1.70641,2.37103 1.82689,7.12769 0.0996,3.93581 0.46938,5.9099 1.41099,7.53471 0.70175,1.2109 1.48092,3.6493 1.73153,5.41865 0.51201,3.61506 3.6485,8.01853 6.89309,9.67754 1.7997,0.92022 2.64846,2.8688 1.24958,2.8688 -2.71174,0 2.41832,5.20594 6.41536,6.51028 1.22145,0.39859 3.24672,1.4131 4.50059,2.25443 1.25387,0.84135 3.10007,1.52974 4.10268,1.52974 1.00259,0 1.98387,0.25753 2.18062,0.57231 0.19677,0.31477 1.3121,0.73534 2.47856,0.93457 5.3885,0.92042 6.48814,1.31986 7.39323,2.68567 0.60583,0.91425 1.40805,1.34863 2.14077,1.15917 0.74965,-0.19384 1.76206,0.39056 2.81011,1.62212 0.90103,1.05881 2.75166,2.22907 4.11247,2.6006 3.27014,0.89281 6.81217,4.30519 6.81217,6.56282 0,1.14089 0.5607,2.09326 1.64653,2.79673 1.5828,1.02546 6.16194,9.59305 6.16194,11.52902 0,0.50931 0.43429,1.0908 0.96508,1.2922 0.56532,0.21449 0.80077,0.78961 0.56839,1.38838 -0.53749,1.38497 1.81127,3.73896 5.17198,5.18349 3.4869,1.49876 3.51787,1.52683 2.42258,2.19617 -1.57641,0.96334 0.21108,3.59816 3.34568,4.93156 6.09942,2.59465 9.32492,4.4535 9.32492,5.37396 0,0.57837 -1.16635,1.32986 -2.91067,1.87534 -4.04559,1.26516 -5.17792,2.82166 -5.18865,7.13229 -0.0172,6.8918 2.67301,12.43766 12.95215,26.70119 8.62129,11.9631 11.74016,17.10502 11.74016,19.35541 0,1.30036 -1.50271,1.12762 -2.38833,-0.27454 -0.41208,-0.65246 -1.82488,-1.69097 -3.13951,-2.30781 -2.30897,-1.08339 -2.49679,-1.07622 -5.52229,0.21071 -2.62645,1.11718 -3.48412,1.21673 -5.31347,0.61666 -2.43395,-0.79835 -9.24881,-6.98438 -10.70674,-9.71875 -1.17762,-2.20861 -2.68512,-2.25474 -8.15295,-0.24941 -5.67918,2.08284 -12.10549,2.69446 -13.66338,1.30042 -1.203,-1.07648 -5.33072,-0.83082 -6.07605,0.36162 -0.19203,0.3072 0.6777,0.24694 1.9327,-0.1339 1.97596,-0.59964 2.4776,-0.51615 3.74248,0.62295 2.73111,2.45944 3.9243,2.76076 5.60465,1.41535 0.84218,-0.67429 2.45043,-1.22941 3.57391,-1.2336 1.1235,-0.005 3.65322,-0.43508 5.62158,-0.95748 1.9684,-0.52239 3.88845,-0.95325 4.26677,-0.95747 0.37834,-0.005 2.05463,1.83289 3.7251,4.08243 3.5268,4.74934 9.54082,10.06478 11.38754,10.06478 0.70257,0 2.45578,1.264 3.89598,2.80891 1.44018,1.54488 3.37196,2.99586 4.2928,3.22439 0.92084,0.22851 3.0719,1.22743 4.7801,2.21979 2.47095,1.43547 3.5368,2.64171 5.2141,5.90084 1.15954,2.25309 2.40611,4.39106 2.77016,4.75103 0.36406,0.35996 0.66191,1.04776 0.66191,1.52846 0,0.48071 1.81786,4.69338 4.03967,9.36152 l 4.03968,8.4875 0.0273,7.32837 c 0.0244,6.52866 -0.10729,7.40632 -1.20554,8.04254 -0.67805,0.39277 -3.50405,2.68333 -6.28002,5.09012 -5.07122,4.39679 -7.82176,7.78187 -8.73685,10.75242 -0.27111,0.88002 -1.08478,2.23974 -1.80816,3.02159 l -1.31522,1.42152 1.55269,0.60489 c 0.85398,0.3327 2.77151,0.92754 4.26119,1.32187 2.32529,0.61555 2.99639,1.2214 4.74349,4.28235 l 2.035,3.56536 2.90821,-0.43123 c 2.00816,-0.29775 3.22795,-0.16883 3.94133,0.4166 0.87046,0.71429 1.13494,0.66788 1.67974,-0.29471 0.35564,-0.62836 1.49857,-1.89305 2.53984,-2.81041 1.04129,-0.91737 1.89324,-2.15382 1.89324,-2.74767 0,-2.05726 2.53758,-8.35988 4.27019,-10.60594 1.66941,-2.16416 1.91052,-2.25648 5.89299,-2.25648 2.28379,0 4.15236,-0.27225 4.15236,-0.60499 0,-0.85454 14.28899,-0.35922 17.21886,0.59689 2.11599,0.69049 2.49005,0.64356 3.26939,-0.4103 0.85265,-1.15297 1.05885,-1.14429 6.62619,0.27921 3.1604,0.80806 7.7959,1.63755 10.30112,1.84332 8.078,0.6635 17.90125,6.64147 30.0761,18.30299 4.33245,4.14971 4.82691,4.902 6.34439,9.65177 1.13193,3.54287 1.64582,6.61177 1.64582,9.82893 0,2.60936 0.46256,6.01999 1.04605,7.71336 0.64283,1.86527 0.88245,3.83193 0.62166,5.10098 -0.23348,1.13593 -0.67593,3.80251 -0.98319,5.92574 -0.60252,4.16278 -2.36753,9.41225 -4.53457,13.48663 -0.90646,1.70433 -1.35565,3.7452 -1.35565,6.1598 0,3.68216 -1.74305,15.11133 -2.51881,16.51582 -0.23543,0.42633 -2.02914,1.88108 -3.98584,3.23277 -1.97066,1.36133 -4.203,3.59869 -5.00415,5.0155 -0.79549,1.4068 -2.57914,3.71596 -3.96358,5.13145 -1.38434,1.41548 -3.04667,3.37722 -3.69398,4.35942 -0.78759,1.19502 -1.54872,1.66913 -2.30077,1.43312 -1.1622,-0.36472 -2.10458,0.44736 -2.82042,2.43041 -0.29605,0.82005 0.0449,1.35213 1.20035,1.87263 0.90648,0.40839 1.61393,1.27134 1.61393,1.96869 0,3.93236 -8.9375,11.0039 -14.78611,11.69907 -3.25405,0.38679 -3.41668,0.3334 -3.81966,-1.25421 -0.38578,-1.51979 -0.51395,-1.57495 -1.53549,-0.66086 -0.613,0.54854 -2.48116,1.45776 -4.15146,2.02052 -3.43863,1.1585 -3.96994,2.18901 -1.12864,2.18901 1.25201,0 2.02705,0.3872 2.25366,1.12594 0.42717,1.39252 0.51238,6.01112 0.17807,9.65103 -0.1834,1.99667 -0.0127,2.73446 0.63259,2.73446 0.48606,0 0.88376,0.18297 0.88376,0.40661 0,1.13825 -2.91162,4.81407 -5.05307,6.37933 -1.33653,0.9769 -3.3689,2.64477 -4.51638,3.70639 l -2.08632,1.93019 -4.54607,-0.74233 c -4.57402,-0.74691 -8.24721,-0.91936 -6.73553,-0.31624 2.62976,1.04921 -0.78114,2.5274 -7.20559,3.12266 -3.19942,0.29645 -4.99514,0.74114 -4.99514,1.237 0,0.55922 0.94104,0.65478 3.38957,0.34418 1.86425,-0.23646 4.4264,-0.19148 5.69366,0.10001 1.26727,0.29147 3.63978,0.53686 5.27226,0.5453 2.04528,0.0104 3.39923,0.41245 4.35456,1.29247 1.54442,1.42271 5.48803,2.99672 9.921,3.95977 2.05078,0.44553 3.56185,1.33069 5.04297,2.95405 1.16313,1.27485 2.11478,2.49213 2.11478,2.70506 0,0.21296 -0.80524,0.9085 -1.78943,1.54566 l -1.78944,1.15845 2.91117,-0.39667 c 1.60114,-0.21816 3.35805,-0.77732 3.90424,-1.24256 0.54618,-0.46524 4.21404,-1.31677 8.15082,-1.89229 3.93678,-0.57551 9.20749,-1.35725 11.71274,-1.73719 9.48836,-1.43901 9.76381,-1.44788 10.69009,-0.34423 0.73809,0.8793 0.73292,1.5842 -0.0322,4.41134 -0.87386,3.2284 -0.99362,3.35663 -2.95325,3.16228 l -2.0425,-0.20254 1.5613,4.25309 c 1.15096,3.13548 1.5613,5.5829 1.5613,9.31384 0,4.86124 -0.0791,5.12642 -2.00209,6.72646 -1.10109,0.91613 -2.26319,1.66569 -2.58245,1.66569 -0.31918,0 -0.42548,0.39888 -0.23631,0.88642 0.22645,0.58349 -0.28081,1.00989 -1.48449,1.24781 -4.90869,0.97019 -5.82659,1.31748 -7.03415,2.66147 -0.84196,0.93702 -2.64942,1.7068 -5.11943,2.18037 -7.31767,1.40299 -11.52531,7.22404 -9.99654,13.82974 0.38164,1.64899 0.49849,3.19137 0.25969,3.42748 -0.2388,0.23613 -3.56044,0.0917 -7.38139,-0.32074 -7.70511,-0.83187 -8.538,-0.60402 -11.7987,3.2276 -1.92268,2.25932 -3.97164,3.1662 -14.37083,6.36059 -8.52049,2.6173 -9.72256,3.37114 -13.52444,8.48126 -2.02913,2.72738 -2.54325,3.05616 -4.77879,3.05616 -1.37778,0 -3.32934,-0.32445 -4.33683,-0.72096 -1.0075,-0.39652 -2.41744,-0.81218 -3.13322,-0.92369 -0.71577,-0.11147 -4.5767,-1.34991 -8.57983,-2.75204 -4.00316,-1.40215 -7.43161,-2.39789 -7.6188,-2.2128 -0.1872,0.1851 -1.5297,-0.134 -2.98336,-0.7091 -3.30517,-1.30763 -8.7562,-1.34379 -12.37292,-0.0821 -1.51917,0.52998 -5.43582,1.28176 -8.70366,1.6706 -8.33745,0.99211 -17.28634,3.03771 -19.69245,4.50146 -1.12104,0.68197 -2.40104,2.10598 -2.84444,3.16447 -0.94065,2.24541 -1.94021,2.42551 -3.57124,0.64345 -3.03099,-3.31161 -9.50396,-5.52037 -15.29685,-5.21973 -4.03609,0.20947 -6.3024,0.50917 -6.97954,0.92297 -0.87876,0.537 -4.05888,-0.88609 -5.30936,-2.37592 -0.44371,-0.52865 -2.29048,-1.72829 -4.10394,-2.66587 -1.81345,-0.9376 -4.02282,-2.5574 -4.90971,-3.59959 -0.88689,-1.04217 -2.17996,-2.19514 -2.87351,-2.56213 -1.1517,-0.60946 -1.18843,-0.55243 -0.42397,0.6579 0.46033,0.72884 1.171,1.32519 1.57927,1.32519 0.40827,0 1.52753,1.01794 2.48728,2.26207 l 1.74495,2.2621 -1.50505,1.88443 c -0.82779,1.03644 -1.95558,1.90044 -2.50621,1.92002 -0.55064,0.0195 -2.16113,0.62172 -3.57887,1.33808 -1.41776,0.71635 -3.61296,1.46723 -4.87823,1.66865 -1.65839,0.26398 -2.61193,0.9027 -3.41621,2.28838 -0.61363,1.05721 -1.1157,2.17441 -1.1157,2.48269 0,0.62272 5.46724,-0.85188 6.69995,-1.80707 0.43074,-0.33376 1.79956,-0.7979 3.04182,-1.03144 1.27957,-0.24054 3.02662,-1.25595 4.03024,-2.34244 2.19313,-2.37422 4.34871,-2.45855 6.9757,-0.27289 1.0874,0.90474 3.0864,1.79737 4.44219,1.98367 3.39086,0.46588 6.04396,1.52765 6.04396,2.41878 0,0.40922 0.58564,1.23984 1.30142,1.84583 0.71575,0.60599 1.3014,1.34929 1.3014,1.65179 0,0.82919 -2.03113,2.37157 -4.27727,3.24801 -1.62779,0.63517 -2.14825,1.35304 -2.79778,3.85896 -0.7774,2.99916 -0.89369,3.1084 -4.50726,4.2339 -2.0401,0.63542 -4.01154,1.26962 -4.381,1.40934 -0.36943,0.13971 -2.27275,-1.0993 -4.22958,-2.75335 -1.95682,-1.65406 -4.44226,-3.37414 -5.52319,-3.82239 -1.08092,-0.44824 -2.50447,-1.40405 -3.16343,-2.12402 -1.04671,-1.14365 -1.74378,-1.26597 -5.51777,-0.96832 l -4.3197,0.34071 2.12066,-1.81926 c 1.16636,-1.00059 2.11801,-2.05235 2.11477,-2.33723 -0.007,-0.6649 -6.20074,-3.34866 -8.9233,-3.86681 -1.7253,-0.32834 -2.31062,-0.11324 -3.39259,1.24681 -1.22603,1.54117 -1.49573,1.60393 -4.32623,1.00703 -5.02459,-1.05963 -9.66989,0.93647 -10.18021,4.37438 -0.20433,1.37663 0.022,2.17079 0.73002,2.56262 0.89343,0.49439 0.82265,0.78193 -0.54732,2.22382 -0.86537,0.91082 -1.25696,1.65603 -0.8702,1.65603 0.38677,0 0.55007,0.57907 0.3629,1.28682 -0.26281,0.9937 -0.88758,1.2868 -2.74289,1.2868 -1.3214,0 -2.97097,0.42509 -3.66567,0.94464 -1.61999,1.21154 -2.88987,1.23958 -2.88987,0.0638 0,-0.50696 -0.65884,-1.10905 -1.4641,-1.33798 -0.80524,-0.2289 -2.39915,-0.83328 -3.54202,-1.34305 -1.14288,-0.50976 -4.42205,-1.04768 -7.28705,-1.19534 -2.865,-0.14768 -5.82095,-0.59227 -6.56877,-0.988 -0.7478,-0.39573 -2.59295,-0.63101 -4.10029,-0.52285 -2.53288,0.18172 -2.72561,0.32454 -2.54232,1.88362 0.1257,1.06917 -0.17218,1.82759 -0.81337,2.07088 -1.56613,0.59423 -1.19423,1.71106 0.56979,1.71106 2.26357,0 2.438,2.33021 0.3963,5.29433 -2.27549,3.30354 -3.14451,3.11064 -2.83652,-0.62966 0.29924,-3.63409 -0.29398,-4.41739 -7.82991,-10.33871 -7.02499,-5.51983 -13.02247,-8.86988 -18.1251,-10.12417 l -4.36437,-1.07284 -3.40918,1.67981 c -2.06502,1.01753 -4.49806,1.67981 -6.17112,1.67981 -1.51911,0 -2.94299,0.28952 -3.16417,0.6434 -0.22119,0.35387 -1.7193,0.64339 -3.32915,0.64339 -5.20392,0 -8.65805,1.2246 -10.22648,3.62563 -0.77584,1.18768 -1.99624,2.3397 -2.71202,2.56001 -0.71576,0.22034 -1.79418,0.82792 -2.39644,1.35022 -0.71719,0.62195 -1.74119,0.80927 -2.9677,0.54291 -2.24234,-0.48696 -3.19127,0.3904 -5.90012,5.45516 -2.79185,5.21991 -3.06979,6.93179 -1.40926,8.6795 1.55567,1.63733 1.13896,2.16735 -2.2359,2.84397 -1.57465,0.3157 -2.05343,0.78029 -2.21482,2.14923 -0.16337,1.38574 0.0631,1.74647 1.09638,1.74647 0.71624,0 2.07314,0.2898 3.01529,0.64399 l 1.71301,0.64397 -1.32909,1.8456 c -0.73101,1.01508 -1.62481,2.61466 -1.98624,3.55463 -0.36144,0.93996 -1.17399,1.87737 -1.80565,2.08312 -3.42181,1.11457 -5.47426,2.41431 -6.29714,3.98773 -1.4155,2.70656 -1.9489,6.41702 -1.07258,7.46108 0.60129,0.71636 0.49557,0.98654 -0.50954,1.30195 -0.69757,0.21893 -1.51823,0.33751 -1.82371,0.26354 -0.30548,-0.0739 -1.33436,0.2402 -2.28642,0.69815 -1.46673,0.70551 -1.9567,0.67634 -3.20919,-0.1911 -1.00755,-0.6978 -1.72605,-0.82032 -2.25675,-0.38483 -1.71932,1.4109 -7.7815,-2.47068 -7.11272,-4.55422 0.42376,-1.32011 -2.62782,-4.48556 -4.32417,-4.48556 -0.66697,0 -1.21268,-0.28952 -1.21268,-0.6434 0,-0.35387 -0.71476,-0.64341 -1.58837,-0.64341 -0.87358,0 -1.76933,0.28954 -1.99051,0.64341 -0.70907,1.1344 -3.00926,0.69033 -4.99896,-0.9651 -1.06331,-0.88469 -2.35005,-1.60851 -2.85943,-1.60851 -0.51308,0 -0.94654,-0.64564 -0.97187,-1.44766 -0.0251,-0.79622 -0.28571,-2.02671 -0.57904,-2.73445 -0.49774,-1.20098 -0.58042,-1.1688 -1.23958,0.48256 -0.38845,0.97313 -0.99714,1.76934 -1.35266,1.76934 -0.35551,0 -0.4926,0.39626 -0.30465,0.88055 0.20907,0.53872 -0.24095,1.03486 -1.15914,1.27802 -2.23133,0.59089 -2.47654,0.52064 -2.48141,-0.71092 -0.007,-1.99236 -3.96277,-4.0154 -8.70601,-4.45336 -4.04114,-0.37314 -4.48378,-0.28491 -6.11939,1.2197 -1.92245,1.76848 -1.98049,1.78091 -9.57161,2.04942 -2.8631,0.10126 -5.73554,0.41057 -6.3832,0.68734 -0.89037,0.38047 -1.26594,0.16896 -1.53999,-0.86717 -0.37637,-1.42309 -1.83295,-1.76092 -3.38955,-0.78618 -0.59675,0.37369 -0.75753,1.13155 -0.47564,2.24205 0.30727,1.21051 0.17174,1.67757 -0.48674,1.67757 -1.11462,0 -1.88699,2.5586 -1.06722,3.53529 0.38286,0.45614 -0.0687,1.47396 -1.27289,2.86902 -1.73753,2.01295 -1.94062,2.08855 -2.94455,1.0959 -1.52689,-1.50976 -2.4307,-1.33789 -4.56884,0.86878 -1.26986,1.31058 -2.4001,1.88153 -3.50262,1.76935 -1.38733,-0.14115 -1.7357,0.20729 -2.35859,2.35894 -0.74703,2.58051 -3.30964,4.97643 -4.11076,3.84335 -0.47444,-0.67104 -2.78257,-0.68613 -3.864,-0.0253 -0.37296,0.2279 -0.51719,1.02278 -0.32053,1.76639 0.20942,0.79183 -0.0181,1.58724 -0.54913,1.91972 -0.63593,0.39819 -0.6664,0.57063 -0.10207,0.57754 0.44256,0.005 1.24767,1.05825 1.78914,2.3396 0.94697,2.24099 0.9163,2.43743 -0.80466,5.15478 -1.62971,2.57325 -1.97304,2.79389 -3.85305,2.47602 -1.64105,-0.27745 -2.27435,-0.0519 -3.09086,1.10074 -0.56482,0.79733 -1.02692,1.96433 -1.02692,2.59334 0,1.50484 -3.2004,1.51408 -4.55495,0.0131 z M 496.0828,886.81935 c 0,-0.57116 -2.63255,-0.86971 -2.96593,-0.33633 -0.20042,0.32065 0.38492,0.583 1.30075,0.583 0.91585,0 1.66518,-0.11102 1.66518,-0.24667 z m -7.01897,-2.32695 c 0.1576,-1.06161 0.0443,-1.9302 -0.25148,-1.9302 -0.29591,0 -0.53802,0.43429 -0.53802,0.9651 0,0.5308 -0.29282,0.9651 -0.65071,0.9651 -0.35788,0 -0.6507,0.43431 -0.6507,0.96511 0,1.81234 1.80212,0.98053 2.09091,-0.96511 z m -8.20484,-1.11255 c -0.66146,-0.65402 -1.20721,0.33064 -0.66451,1.19891 0.40996,0.65589 0.56323,0.65639 0.78366,0.003 0.1507,-0.44703 0.0971,-0.98771 -0.11915,-1.2015 z m 120.52377,-64.93249 c 1.2054,-0.31917 1.43403,-0.7092 1.12634,-1.92141 -0.21671,-0.85375 -0.0952,-1.52098 0.27702,-1.52098 0.36472,0 0.6631,-0.28953 0.6631,-0.64342 0,-0.35385 -0.43923,-0.64339 -0.97606,-0.64339 -0.53912,0 -0.97606,0.57056 -0.97606,1.27455 0,0.81279 -0.57229,1.41657 -1.57968,1.66657 -1.89142,0.46938 -2.81474,2.21027 -1.16539,2.19732 0.61507,-0.005 1.7989,-0.189 2.63073,-0.40924 z m 6.25854,-4.02578 c 0.20056,-0.32089 -0.22138,-0.43187 -0.93766,-0.24667 -1.51939,0.39287 -1.71145,0.83006 -0.36465,0.83006 0.51571,0 1.10177,-0.26252 1.30231,-0.58339 z m 1.01357,-31.22704 c 0,-0.15606 -0.29283,-0.46268 -0.65071,-0.68139 -0.35788,-0.2187 -0.65071,-0.091 -0.65071,0.28373 0,0.37476 0.29283,0.68138 0.65071,0.68138 0.35788,0 0.65071,-0.12767 0.65071,-0.28372 z m 6.95608,-2.00113 c 0.13843,-0.41821 -0.64957,-0.57551 -2.06469,-0.41216 -1.25871,0.1453 -2.28856,0.54039 -2.28856,0.87796 0,0.82636 4.06964,0.3909 4.35325,-0.4658 z m 17.29508,-24.51667 c -0.44055,-0.17625 -1.31899,-0.18697 -1.95212,-0.0238 -0.6331,0.16312 -0.27266,0.30732 0.801,0.32043 1.07367,0.0131 1.59167,-0.12035 1.15112,-0.2966 z m 2.42777,-0.86478 c 0,-0.35387 -0.12913,-0.6434 -0.28695,-0.6434 -0.15781,0 -0.46792,0.28953 -0.68912,0.6434 -0.22118,0.35387 -0.092,0.6434 0.28695,0.6434 0.37903,0 0.68912,-0.28953 0.68912,-0.6434 z M 362.03744,612.24909 c 0,-0.45755 0.78495,-0.60889 2.11479,-0.40779 1.16315,0.17588 2.48082,0.18964 2.92817,0.0306 1.65623,-0.58895 0.7265,-1.15259 -2.21036,-1.34004 -3.40007,-0.21701 -5.80171,-1.25765 -7.70715,-3.3395 -0.71092,-0.77674 -1.84141,-1.70269 -2.51217,-2.05765 -1.19131,-0.63041 -1.19148,-0.59701 -0.007,1.44018 2.6201,4.50745 7.39401,8.17097 7.39401,5.67424 z M 340.10182,511.96318 c 0.18708,-0.7074 0.0296,-1.47597 -0.34999,-1.70792 -0.39012,-0.23841 -0.5004,-0.11816 -0.25366,0.27658 0.24009,0.38411 0.13414,0.88315 -0.23543,1.109 -0.36955,0.22583 -0.50347,0.68013 -0.29756,1.00955 0.54703,0.87517 0.75701,0.74822 1.13664,-0.68721 z"
       id="path1758" />
  </g>
</svg>
