<svg width="122" height="141" viewBox="0 0 122 141" fill="none" xmlns="http://www.w3.org/2000/svg">
<path d="M26.4326 131.858H23.9321V140.833H26.4326V131.858Z" fill="white"/>
<path d="M28.7146 131.858H31.0353L34.7285 136.602V131.858H37.1904V140.833H35.0102L31.1759 135.91V140.833H28.7146V131.858Z" fill="white"/>
<path d="M42.9474 140.987C42.1442 140.987 41.3808 140.863 40.6583 140.616C39.9364 140.367 39.2974 139.996 38.7415 139.5L40.1265 137.845C41.0242 138.563 41.9944 138.922 43.0367 138.922C43.3708 138.922 43.6249 138.869 43.8001 138.763C43.9752 138.655 44.0634 138.504 44.0634 138.307V138.282C44.0634 138.188 44.0415 138.104 43.9989 138.032C43.9556 137.959 43.8767 137.888 43.7615 137.82C43.6462 137.751 43.4918 137.685 43.3 137.621C43.1075 137.557 42.8575 137.491 42.5498 137.423C42.071 137.311 41.6268 137.189 41.216 137.057C40.8058 136.924 40.4492 136.754 40.1461 136.544C39.8425 136.335 39.6028 136.074 39.4277 135.762C39.2525 135.45 39.1649 135.063 39.1649 134.601V134.576C39.1649 134.157 39.2433 133.773 39.4023 133.422C39.5602 133.071 39.7912 132.768 40.0943 132.511C40.3973 132.255 40.7632 132.056 41.1907 131.915C41.6182 131.774 42.101 131.704 42.6397 131.704C43.4089 131.704 44.0951 131.804 44.6977 132.005C45.3004 132.206 45.8448 132.503 46.3323 132.896L45.0889 134.653C44.6781 134.362 44.2575 134.142 43.826 133.993C43.3945 133.843 42.9773 133.768 42.5758 133.768C42.2762 133.768 42.0515 133.824 41.9028 133.934C41.753 134.046 41.6781 134.183 41.6781 134.345V134.371C41.6781 134.474 41.7012 134.563 41.7484 134.64C41.7951 134.717 41.8769 134.787 41.9921 134.852C42.1073 134.916 42.2658 134.98 42.4663 135.044C42.6674 135.108 42.9214 135.174 43.2291 135.243C43.7425 135.354 44.2063 135.484 44.6205 135.634C45.0354 135.783 45.388 135.965 45.6783 136.179C45.9687 136.392 46.1917 136.651 46.3455 136.954C46.4988 137.258 46.576 137.62 46.576 138.038V138.064C46.576 138.525 46.4878 138.935 46.3133 139.294C46.1381 139.653 45.8921 139.959 45.5764 140.212C45.2595 140.463 44.8792 140.656 44.4344 140.788C43.9902 140.921 43.4941 140.987 42.9474 140.987Z" fill="white"/>
<path d="M50.3584 134.038H47.666V131.858H55.5391V134.038H52.8462V140.833H50.3584V134.038Z" fill="white"/>
<path d="M59.8218 131.858H57.3213V140.833H59.8218V131.858Z" fill="white"/>
<path d="M64.2967 134.038H61.6038V131.858H69.4769V134.038H66.784V140.833H64.2967V134.038Z" fill="white"/>
<path d="M75.246 141C74.6059 141 74.0286 140.919 73.5152 140.756C73.0025 140.594 72.5669 140.344 72.208 140.006C71.849 139.668 71.573 139.242 71.3806 138.724C71.1882 138.207 71.0925 137.598 71.0925 136.897V131.858H73.6178V136.846C73.6178 137.495 73.7676 137.976 74.0666 138.288C74.3662 138.6 74.7678 138.756 75.2719 138.756C75.7761 138.756 76.1777 138.607 76.4773 138.308C76.7763 138.008 76.9261 137.542 76.9261 136.91V131.858H79.4525V136.833C79.4525 137.559 79.3523 138.183 79.1512 138.705C78.9507 139.227 78.6684 139.658 78.3048 140C77.9413 140.342 77.5011 140.594 76.9837 140.756C76.4669 140.919 75.8879 141 75.246 141Z" fill="white"/>
<path d="M83.7603 134.038H81.0674V131.858H88.9411V134.038H86.2482V140.833H83.7603V134.038Z" fill="white"/>
<path d="M90.6719 131.858H97.8905V133.973H93.1326V135.332H97.4417V137.294H93.1326V138.718H97.9544V140.833H90.6719V131.858Z" fill="white"/>
<path d="M120.515 1H1V120.515H120.515V1Z" stroke="white" stroke-miterlimit="2"/>
<path d="M42.6295 89.4666H41.438V93.5578H42.6295V89.4666Z" fill="white"/>
<path d="M44.6546 93.486H54.3195V88.0649H53.1263V92.4086H45.9031C45.9042 92.4028 45.9042 92.3982 45.906 92.3901C45.925 92.2824 45.9774 91.0269 47.5175 91.0269H47.4633V89.9253L47.5013 89.9259C44.7675 89.9259 44.6528 91.9897 44.6528 92.4109L44.6546 93.486Z" fill="white"/>
<path d="M55.7702 89.9473L55.7846 93.2037C55.7846 93.5753 55.6884 93.8576 55.4942 94.0477C55.3018 94.2396 55.0022 94.3347 54.5995 94.3347H54.2947V95.2721L54.6312 95.2703C55.0177 95.2703 55.3565 95.2294 55.6446 95.1476C55.9344 95.0647 56.1752 94.9356 56.37 94.7593C56.5636 94.5841 56.7076 94.3577 56.8044 94.0835C56.8983 93.8069 56.9461 93.4727 56.9461 93.0792V89.9473H55.7702Z" fill="white"/>
<path d="M34.3016 92.3979H32.9349C32.9349 90.9413 34.3016 91.0427 34.3016 91.0427V92.3979ZM40.5413 89.9964H39.3492V92.4814H35.4999V89.9688H35.4936V89.9653L34.324 89.9774C32.2199 90.095 31.7993 91.2697 31.7993 92.4877V93.5104H34.3154C34.2768 93.7432 34.188 93.9298 34.0492 94.0675C33.8556 94.2588 33.5577 94.355 33.1544 94.355H32.3714V95.2919L33.1867 95.2913C33.5727 95.2913 33.9109 95.2515 34.1996 95.168C34.4894 95.0862 34.7308 94.956 34.9238 94.7797C35.1162 94.6045 35.262 94.3787 35.3571 94.1033C35.4141 93.9425 35.451 93.757 35.474 93.5576H40.5413V89.9964Z" fill="white"/>
<path d="M60.2067 92.3979H58.8401C58.8401 90.9413 60.2067 91.0427 60.2067 91.0427V92.3979ZM65.6289 89.9964H64.4363V92.4814H61.408V89.9688H61.3994V89.9653L60.2298 89.9774C58.1245 90.095 57.7051 91.2697 57.7051 92.4877V93.5104H60.2206C60.1831 93.7432 60.0944 93.9298 59.9538 94.0675C59.7596 94.2588 59.4629 94.355 59.059 94.355H58.2772V95.2919L59.0907 95.2913C59.4767 95.2913 59.8161 95.2515 60.1065 95.168C60.394 95.0862 60.6365 94.956 60.8307 94.7797C61.0231 94.6045 61.1672 94.3787 61.2651 94.1033C61.3199 93.9425 61.3562 93.757 61.3786 93.5576H65.6289V89.9964Z" fill="white"/>
<path d="M69.0455 92.3979H67.6789C67.6789 90.9413 69.0455 91.0427 69.0455 91.0427V92.3979ZM76.9895 89.9964V92.4814H74.0344V89.9964H72.8412V92.4814H70.2434V89.9688H70.237V89.9653L69.0674 89.9774C66.9639 90.095 66.5427 91.2697 66.5427 92.4877V93.5104H69.0599C69.0213 93.7432 68.9314 93.9298 68.7932 94.0675C68.5973 94.2588 68.3017 94.355 67.8973 94.355H67.1131V95.2919L67.9301 95.2913C68.3161 95.2913 68.6549 95.2515 68.9435 95.168C69.2334 95.0862 69.4742 94.956 69.6689 94.7797C69.8608 94.6045 70.0054 94.3787 70.1016 94.1033C70.1575 93.9425 70.195 93.757 70.2169 93.5576H78.1816V89.9964H76.9895Z" fill="white"/>
<path d="M29.0961 92.4079H26.784V91.0292H29.0725C29.9113 91.0292 30.0277 91.527 30.0277 91.7292C30.0277 91.9205 30.0133 92.4079 29.0961 92.4079ZM29.1733 89.9541H26.784V87.8315H25.5913V92.4425H21.8049V89.9495L17.5736 89.9489V91.0609H17.6087C18.5438 91.0655 18.8325 91.4774 18.8325 91.8519C18.8325 92.4736 18.0478 92.7467 17.2711 92.7294H16.8597C15.0489 92.7294 15.1474 91.531 15.1474 91.531V89.9541H13.8954L13.8943 91.6572C13.8943 92.8095 15.2183 93.6674 16.6783 93.6674H17.4532C20.0856 93.6674 20.0194 91.898 20.0194 91.898C20.032 91.5794 19.9514 91.3006 19.8125 91.0609H20.6117V93.4963L29.0563 93.4945C31.1201 93.4945 31.2417 92.03 31.2417 91.7373C31.2417 91.7373 31.3212 89.9541 29.1733 89.9541Z" fill="white"/>
<path d="M28.6979 88.969C28.6979 89.2778 28.4473 89.5267 28.1419 89.5267C27.8331 89.5267 27.5842 89.2778 27.5842 88.969C27.5842 88.6619 27.8331 88.4119 28.1419 88.4119C28.4473 88.4119 28.6979 88.6619 28.6979 88.969Z" fill="white"/>
<path d="M78.1135 88.969C78.1135 89.2778 77.8628 89.5267 77.5552 89.5267C77.2481 89.5267 76.9998 89.2778 76.9998 88.969C76.9998 88.6619 77.2481 88.4119 77.5552 88.4119C77.8628 88.4119 78.1135 88.6619 78.1135 88.969Z" fill="white"/>
<path d="M20.6541 94.7154C20.6541 95.0225 20.4052 95.272 20.0976 95.272C19.7888 95.272 19.541 95.0225 19.541 94.7154C19.541 94.4066 19.7888 94.1577 20.0976 94.1577C20.4052 94.1577 20.6541 94.4066 20.6541 94.7154Z" fill="white"/>
<path d="M39.5775 94.755C39.5775 95.0626 39.3286 95.3127 39.0215 95.3127C38.7133 95.3127 38.4644 95.0626 38.4644 94.755C38.4644 94.4467 38.7133 94.1973 39.0215 94.1973C39.3286 94.1973 39.5775 94.4467 39.5775 94.755Z" fill="white"/>
<path d="M16.9594 94.7154C16.9594 95.0225 16.7094 95.272 16.4017 95.272C16.0929 95.272 15.844 95.0225 15.844 94.7154C15.844 94.4066 16.0929 94.1577 16.4017 94.1577C16.7094 94.1577 16.9594 94.4066 16.9594 94.7154Z" fill="white"/>
<path d="M18.2345 94.7154C18.2345 95.0225 17.9856 95.272 17.6768 95.272C17.3697 95.272 17.1196 95.0225 17.1196 94.7154C17.1196 94.4066 17.3697 94.1577 17.6768 94.1577C17.9856 94.1577 18.2345 94.4066 18.2345 94.7154Z" fill="white"/>
<path d="M63.8945 94.755C63.8945 95.0626 63.6439 95.3127 63.3385 95.3127C63.0291 95.3127 62.7791 95.0626 62.7791 94.755C62.7791 94.4467 63.0291 94.1973 63.3385 94.1973C63.6439 94.1973 63.8945 94.4467 63.8945 94.755Z" fill="white"/>
<path d="M65.1697 94.755C65.1697 95.0626 64.9225 95.3127 64.6137 95.3127C64.3049 95.3127 64.0554 95.0626 64.0554 94.755C64.0554 94.4467 64.3049 94.1973 64.6137 94.1973C64.9225 94.1973 65.1697 94.4467 65.1697 94.755Z" fill="white"/>
<path d="M72.8238 94.755C72.8238 95.0626 72.5738 95.3127 72.2661 95.3127C71.959 95.3127 71.709 95.0626 71.709 94.755C71.709 94.4467 71.959 94.1973 72.2661 94.1973C72.5738 94.1973 72.8238 94.4467 72.8238 94.755Z" fill="white"/>
<path d="M74.0988 94.755C74.0988 95.0626 73.8499 95.3127 73.5428 95.3127C73.234 95.3127 72.9851 95.0626 72.9851 94.755C72.9851 94.4467 73.234 94.1973 73.5428 94.1973C73.8499 94.1973 74.0988 94.4467 74.0988 94.755Z" fill="white"/>
<path d="M42.0919 88.8679V88.8621C42.0919 88.808 42.1017 88.7538 42.1196 88.7043C42.1363 88.6547 42.1617 88.6121 42.1939 88.5752C42.2268 88.5383 42.2654 88.509 42.3086 88.4871C42.3506 88.4652 42.3985 88.4554 42.5223 88.4554V88.0901C42.3385 88.0907 42.2348 88.112 42.1415 88.15C42.0447 88.1915 41.964 88.2462 41.8943 88.3177C41.8246 88.3885 41.771 88.4715 41.7318 88.5666C41.6921 88.6616 41.6731 88.7619 41.6731 88.8679V88.8737C41.6731 88.8811 41.6754 88.8852 41.6754 88.8927H41.4363V89.2798H42.6445V88.8927H42.0942C42.0942 88.8835 42.0919 88.8771 42.0919 88.8679Z" fill="white"/>
<path d="M49.8888 90.8563V90.8477C49.8888 90.7745 49.9003 90.7042 49.9245 90.6385C49.9481 90.5729 49.9809 90.5152 50.0253 90.4657C50.0674 90.4156 50.1192 90.3775 50.1774 90.3487C50.2327 90.3217 50.2967 90.3078 50.4638 90.3067V89.8198C50.2172 89.8204 50.0772 89.8475 49.9539 89.8999C49.8265 89.9552 49.7159 90.0295 49.6255 90.124C49.5321 90.2168 49.4607 90.328 49.4088 90.4542C49.3564 90.5803 49.331 90.714 49.331 90.8563V90.888H49.0142V91.4042H50.6262V90.888H49.8899C49.8899 90.8765 49.8888 90.8661 49.8888 90.8563Z" fill="white"/>
<path d="M104.771 89.9259L103.098 89.9253V91.0269H104.756C106.297 91.0269 106.348 92.2824 106.368 92.3901C106.369 92.3982 106.369 92.4028 106.37 92.4086H100.488V88.0649H99.2946V93.486H107.62V92.4109C107.62 91.9897 107.505 89.9259 104.771 89.9259Z" fill="white"/>
<path d="M104.684 94.1973C104.378 94.1973 104.128 94.4467 104.128 94.755C104.128 95.0626 104.378 95.3127 104.684 95.3127C104.993 95.3127 105.242 95.0626 105.242 94.755C105.242 94.4467 104.993 94.1973 104.684 94.1973Z" fill="white"/>
<path d="M82.3177 89.5267C82.623 89.5267 82.8736 89.2778 82.8736 88.969C82.8736 88.6619 82.623 88.4119 82.3177 88.4119C82.0088 88.4119 81.7588 88.6619 81.7588 88.969C81.7588 89.2778 82.0088 89.5267 82.3177 89.5267Z" fill="white"/>
<path d="M83.5926 89.5267C83.9014 89.5267 84.1503 89.2778 84.1503 88.969C84.1503 88.6619 83.9014 88.4119 83.5926 88.4119C83.2838 88.4119 83.0349 88.6619 83.0349 88.969C83.0349 89.2778 83.2838 89.5267 83.5926 89.5267Z" fill="white"/>
<path d="M95.9426 92.4054V90.969C95.9426 90.969 97.307 90.8676 97.307 92.4054H95.9426ZM81.4898 92.4082C81.4858 92.2383 81.442 91.0168 83.1509 91.0168H83.3318V92.4082H81.4898ZM95.9179 89.9037L94.7471 89.8916V89.8968H94.7413V92.4082H90.1534C90.1252 92.304 90.1096 92.1933 90.1096 92.0793V92.0637C90.1096 91.9076 90.1327 91.7618 90.1811 91.6252C90.2301 91.4881 90.3004 91.3694 90.3902 91.2646C90.4818 91.1626 90.5873 91.0808 90.7094 91.0209C90.831 90.9615 90.9652 90.9321 91.1156 90.9321C91.3265 90.9321 91.5022 90.9736 91.6457 91.0566C91.7874 91.139 91.9245 91.249 92.0599 91.3896L92.7807 90.6164C92.5825 90.398 92.3566 90.2281 92.098 90.1042C91.841 89.9797 91.516 89.9169 91.1225 89.9169C90.8022 89.9169 90.5095 89.9757 90.2439 90.0881C89.9783 90.201 89.749 90.3571 89.5588 90.5524C89.3664 90.7495 89.2172 90.9794 89.1089 91.2409C89.0006 91.5048 88.947 91.7843 88.947 92.0793V92.0948C88.947 92.2002 88.9568 92.3068 88.9718 92.4082H84.5244V89.9411H83.1509C80.7362 89.9411 80.326 91.7105 80.2759 92.4082H80.2718V92.4624C80.2678 92.5361 80.2678 92.5966 80.2701 92.6358V92.6508H80.2718V93.4856H98.4477V92.4082H98.4437C98.442 91.1931 98.0179 90.0207 95.9179 89.9037Z" fill="white"/>
<path d="M47.8327 105.467L46.7461 102.824L45.6647 105.467H47.8327ZM45.9441 100.667H47.5994L51.0949 108.884H49.2189L48.4728 107.052H45.0228L44.2784 108.884H42.448L45.9441 100.667Z" fill="white"/>
<path d="M56.0164 107.309C56.8091 107.309 57.2874 107.028 57.2874 106.425V106.402C57.2874 105.852 56.88 105.515 55.9582 105.515H53.8852V107.309H56.0164ZM55.5381 104.023C56.3315 104.023 56.8351 103.768 56.8351 103.16V103.138C56.8351 102.601 56.4151 102.298 55.6574 102.298H53.8852V104.023H55.5381ZM52.1377 100.726H55.9242C56.857 100.726 57.5898 100.982 58.0565 101.449C58.4304 101.821 58.6165 102.276 58.6165 102.834V102.859C58.6165 103.778 58.1257 104.292 57.5443 104.617C58.4886 104.98 59.0711 105.527 59.0711 106.623V106.645C59.0711 108.136 57.8577 108.884 56.0164 108.884H52.1377V100.726Z" fill="white"/>
<path d="M60.0085 105.387V100.726H61.8027V105.34C61.8027 106.669 62.4687 107.356 63.564 107.356C64.6575 107.356 65.3236 106.692 65.3236 105.398V100.726H67.1171V105.329C67.1171 107.801 65.7315 109.012 63.5415 109.012C61.3481 109.012 60.0085 107.787 60.0085 105.387Z" fill="white"/>
<path d="M74.2457 107.263C75.7132 107.263 76.7048 106.272 76.7048 104.828V104.804C76.7048 103.359 75.7132 102.346 74.2457 102.346H72.8595V107.263H74.2457ZM71.0642 100.726H74.2457C76.809 100.726 78.5813 102.487 78.5813 104.781V104.804C78.5813 107.1 76.809 108.884 74.2457 108.884H71.0642V100.726Z" fill="white"/>
<path d="M79.6882 100.726H81.4835V103.953H84.7935V100.726H86.5865V108.884H84.7935V105.609H81.4835V108.884H79.6882V100.726Z" fill="white"/>
<path d="M93.1639 105.467L92.0813 102.824L90.9981 105.467H93.1639ZM91.2787 100.667H92.9311L96.4272 108.884H94.5512L93.8051 107.052H90.3568L89.6107 108.884H87.7803L91.2787 100.667Z" fill="white"/>
<path d="M101.503 107.309C102.296 107.309 102.774 107.028 102.774 106.425V106.402C102.774 105.852 102.365 105.515 101.446 105.515H99.3712V107.309H101.503ZM101.025 104.023C101.819 104.023 102.318 103.768 102.318 103.16V103.138C102.318 102.601 101.9 102.298 101.142 102.298H99.3712V104.023H101.025ZM97.6226 100.726H101.411C102.341 100.726 103.076 100.982 103.543 101.449C103.915 101.821 104.101 102.276 104.101 102.834V102.859C104.101 103.778 103.612 104.292 103.029 104.617C103.975 104.98 104.555 105.527 104.555 106.623V106.645C104.555 108.136 103.344 108.884 101.503 108.884H97.6226V100.726Z" fill="white"/>
<path d="M107.497 100.726H105.704V108.884H107.497V100.726Z" fill="white"/>
<path d="M13.9478 100.753H15.5984L19.412 105.765V100.753H21.1791V108.892H19.6545L15.716 103.718V108.892H13.9478V100.753Z" fill="white"/>
<path d="M25.433 105.682L22.3057 100.753H24.3971L26.3387 104.019L28.3161 100.753H30.3493L27.2226 105.648V108.892H25.433V105.682Z" fill="white"/>
<path d="M31.3477 105.404V100.753H33.1383V105.356C33.1383 106.683 33.8003 107.37 34.8927 107.37C35.9857 107.37 36.6483 106.705 36.6483 105.416V100.753H38.439V105.347C38.439 107.809 37.0556 109.018 34.8691 109.018C32.6843 109.018 31.3477 107.799 31.3477 105.404Z" fill="white"/>
<path d="M61.0754 48.1075C61.0397 48.1047 60.9988 48.0787 61.0109 48.0309C61.2489 46.0224 62.6311 43.7881 64.923 42.8023C67.4949 41.703 68.4214 39.8916 68.6294 39.384C68.6663 39.2866 68.7348 39.2976 68.7342 39.441C68.7049 41.8707 68.1978 48.3656 61.0754 48.1075ZM62.695 50.5389H57.0735V48.902H62.695V50.5389ZM60.1789 62.1086C60.0453 62.5171 59.4536 62.3806 59.4086 62.1086L58.2298 51.3196H61.5392L60.1789 62.1086ZM53.438 41.3193C54.6208 39.3592 55.3998 37.6561 55.4216 36.9751C55.4245 36.8996 55.4856 36.891 55.5553 36.9999C55.8261 37.4066 56.4743 38.9098 56.5446 39.5056C56.5532 39.6064 56.5446 39.6911 56.5077 39.7447C54.8524 42.2469 54.4531 45.6468 58.4465 48.0275C58.5046 48.0661 58.4868 48.1254 58.4303 48.1219C52.1762 47.9462 52.1796 43.413 53.438 41.3193ZM61.4459 33.8904C61.4638 33.8356 61.4995 33.8109 61.5438 33.8679C61.8429 34.2372 62.7601 36.8391 62.7601 38.4408C62.7584 38.5543 62.7889 38.6483 62.6789 38.7485C61.9005 39.4629 57.1276 42.7551 59.5129 47.854C59.5423 47.9122 59.483 47.9433 59.4351 47.9139C55.5876 45.3967 54.7412 42.7291 58.4286 38.3498C58.8647 37.8336 61.0386 35.4777 61.4459 33.8904ZM65.3367 36.3114C65.3511 36.2797 65.3891 36.2601 65.4173 36.2929C65.7043 36.6317 66.8289 39.4698 66.2124 41.0716C65.8212 42.0977 61.4182 42.2285 60.2901 47.6374C60.2775 47.6835 60.2227 47.695 60.1997 47.6409C58.2436 43.0806 62.0676 40.2471 63.0614 39.4416C63.7695 38.8683 64.7352 37.6239 65.3367 36.3114ZM41.2852 27.7146V66.662H80.2279V27.7146H41.2852Z" fill="white"/>
</svg>
