<?xml version="1.0" encoding="UTF-8" standalone="no"?>
<svg
   viewBox="0 0 128 128"
   version="1.1"
   id="svg138"
   sodipodi:docname="c.svg"
   inkscape:version="1.2.2 (b0a84865, 2022-12-01)"
   xmlns:inkscape="http://www.inkscape.org/namespaces/inkscape"
   xmlns:sodipodi="http://sodipodi.sourceforge.net/DTD/sodipodi-0.dtd"
   xmlns="http://www.w3.org/2000/svg"
   xmlns:svg="http://www.w3.org/2000/svg">
  <defs
     id="defs142" />
  <sodipodi:namedview
     id="namedview140"
     pagecolor="#ffffff"
     bordercolor="#000000"
     borderopacity="0.25"
     inkscape:showpageshadow="2"
     inkscape:pageopacity="0.0"
     inkscape:pagecheckerboard="0"
     inkscape:deskcolor="#d1d1d1"
     showgrid="false"
     inkscape:zoom="1.84375"
     inkscape:cx="-144"
     inkscape:cy="73.762712"
     inkscape:window-width="1440"
     inkscape:window-height="872"
     inkscape:window-x="0"
     inkscape:window-y="0"
     inkscape:window-maximized="0"
     inkscape:current-layer="svg138" />
  <path
     id="path132"
     style="fill:#ffffff;fill-opacity:1"
     d="M 64 2.1992188 C 62.800001 2.1992188 61.70039 2.500391 60.900391 2.9003906 L 12.900391 30.800781 C 11.200392 31.80078 10 34.299221 10 36.199219 L 10 91.900391 C 10 93.00039 10.200001 94.300392 11 95.400391 L 30.121094 84.298828 C 26.555121 78.364377 24.5 71.421304 24.5 64 C 24.5 42.200022 42.200022 24.5 64 24.5 C 78.699985 24.5 91.500788 32.600012 98.300781 44.5 L 85.300781 52 C 81.100785 44.500008 73.099991 39.5 64 39.5 C 50.500014 39.5 39.5 50.500014 39.5 64 C 39.5 68.673321 40.841238 73.030418 43.125 76.751953 L 117.80078 33.400391 C 117.20078 32.200392 116.30039 31.299218 115.40039 30.699219 L 67.099609 2.9003906 C 66.29961 2.4003911 65.199999 2.1992187 64 2.1992188 z " />
  <path
     id="path134"
     style="display:inline;fill:#f2f2f2;fill-opacity:1"
     d="M 117.30078 33.300781 L 98.232422 44.390625 C 98.253897 44.427925 98.279424 44.462625 98.300781 44.5 L 85.300781 52 C 85.288484 51.978041 85.274081 51.957463 85.261719 51.935547 L 42.986328 76.523438 C 47.270824 83.67897 55.077925 88.5 64 88.5 C 73.099991 88.5 81.100785 83.499602 85.300781 76.099609 L 98.199219 83.699219 C 91.399226 95.499207 78.599985 103.5 64 103.5 C 49.530475 103.5 36.874355 95.696829 29.994141 84.078125 L 10.699219 95.300781 C 11.199218 96.10078 11.89961 96.799219 12.599609 97.199219 L 60.800781 125.09961 C 61.60078 125.59961 62.700392 125.80078 63.900391 125.80078 C 65.100389 125.80078 66.200001 125.49961 67 125.09961 L 115 97.199219 C 116.7 96.19922 117.90039 93.700779 117.90039 91.800781 L 117.90039 36.099609 C 117.90039 35.19961 117.80078 34.20078 117.30078 33.300781 z " />
</svg>
