<?xml version="1.0" encoding="UTF-8" standalone="no"?>
<svg
   viewBox="0 0 128 128"
   version="1.1"
   id="svg140"
   sodipodi:docname="cplus.svg"
   inkscape:version="1.2.2 (b0a84865, 2022-12-01)"
   xmlns:inkscape="http://www.inkscape.org/namespaces/inkscape"
   xmlns:sodipodi="http://sodipodi.sourceforge.net/DTD/sodipodi-0.dtd"
   xmlns="http://www.w3.org/2000/svg"
   xmlns:svg="http://www.w3.org/2000/svg">
  <defs
     id="defs144" />
  <sodipodi:namedview
     id="namedview142"
     pagecolor="#ffffff"
     bordercolor="#000000"
     borderopacity="0.25"
     inkscape:showpageshadow="2"
     inkscape:pageopacity="0.0"
     inkscape:pagecheckerboard="0"
     inkscape:deskcolor="#d1d1d1"
     showgrid="false"
     inkscape:zoom="1.84375"
     inkscape:cx="-77.288136"
     inkscape:cy="54.237288"
     inkscape:window-width="1440"
     inkscape:window-height="900"
     inkscape:window-x="0"
     inkscape:window-y="0"
     inkscape:window-maximized="0"
     inkscape:current-layer="svg140" />
  <path
     id="path134"
     style="display:inline;fill:#f2f2f2;fill-opacity:1"
     inkscape:label="path134"
     d="M 117.30078,33.300781 98.232422,44.390625 c 0.02147,0.0373 0.047,0.072 0.06836,0.109375 l -13,7.5 c -0.0123,-0.02196 -0.0267,-0.04254 -0.03906,-0.06445 L 42.986328,76.523438 C 47.270824,83.67897 55.077925,88.5 64,88.5 c 9.099991,0 17.100785,-5.000398 21.300781,-12.400391 l 12.898438,7.59961 C 91.399226,95.499207 78.599985,103.5 64,103.5 49.530475,103.5 36.874355,95.696829 29.994141,84.078125 L 10.699219,95.300781 c 0.499998,0.799998 1.200392,1.498438 1.90039,1.898438 l 48.201172,27.900391 c 0.799998,0.5 1.899612,0.70117 3.09961,0.70117 1.199996,0 2.299611,-0.30117 3.099609,-0.70117 l 48,-27.900391 c 1.7,-0.999998 2.90039,-3.498442 2.90039,-5.398438 V 36.099609 c 0,-0.899998 -0.0996,-1.89883 -0.59961,-2.798828 z M 87.300781,56.5 h 4.398438 v 5.300781 H 97 v 4.398438 h -5.300781 v 5.201172 h -4.398438 v -5.201172 h -5.201172 v -4.398438 h 5.201172 z m 18.499999,0 h 4.39844 v 5.300781 H 115.5 v 4.398438 h -5.30078 v 5.201172 h -4.39844 v -5.201172 h -5.20117 v -4.398438 h 5.20117 z" />
  <path
     id="path132"
     style="display:inline;fill:#ffffff;fill-opacity:1"
     d="M 64 2.1992188 C 62.800001 2.1992188 61.70039 2.500391 60.900391 2.9003906 L 12.900391 30.800781 C 11.200392 31.80078 10 34.299221 10 36.199219 L 10 91.900391 C 10 93.00039 10.200001 94.300392 11 95.400391 L 30.121094 84.298828 C 26.555121 78.364377 24.5 71.421304 24.5 64 C 24.5 42.200022 42.200022 24.5 64 24.5 C 78.699985 24.5 91.500788 32.600012 98.300781 44.5 L 85.300781 52 C 81.100785 44.500008 73.099991 39.5 64 39.5 C 50.500014 39.5 39.5 50.500014 39.5 64 C 39.5 68.673321 40.841238 73.030418 43.125 76.751953 L 117.80078 33.400391 C 117.20078 32.200392 116.30039 31.299218 115.40039 30.699219 L 67.099609 2.9003906 C 66.29961 2.4003911 65.199999 2.1992187 64 2.1992188 z " />
</svg>
