<?xml version="1.0" encoding="UTF-8" standalone="no"?>
<svg
   version="1.1"
   viewBox="0 0 26.458 33.0725"
   x="0px"
   y="0px"
   id="svg10799"
   sodipodi:docname="directions.svg"
   inkscape:version="1.2.2 (b0a84865, 2022-12-01)"
   xmlns:inkscape="http://www.inkscape.org/namespaces/inkscape"
   xmlns:sodipodi="http://sodipodi.sourceforge.net/DTD/sodipodi-0.dtd"
   xmlns="http://www.w3.org/2000/svg"
   xmlns:svg="http://www.w3.org/2000/svg">
  <defs
     id="defs10803" />
  <sodipodi:namedview
     id="namedview10801"
     pagecolor="#ffffff"
     bordercolor="#000000"
     borderopacity="0.25"
     inkscape:showpageshadow="2"
     inkscape:pageopacity="0.0"
     inkscape:pagecheckerboard="0"
     inkscape:deskcolor="#d1d1d1"
     showgrid="false"
     inkscape:zoom="18.598072"
     inkscape:cx="7.7696226"
     inkscape:cy="20.16338"
     inkscape:window-width="1440"
     inkscape:window-height="900"
     inkscape:window-x="0"
     inkscape:window-y="0"
     inkscape:window-maximized="0"
     inkscape:current-layer="svg10799" />
  <g
     aria-label="?"
     id="text10797"
     style="font-weight:bold;font-size:5px;font-family:'Helvetica Neue', Helvetica, Arial-Unicode, Arial, Sans-serif;display:inline"
     transform="matrix(0.98930324,0,0,0.98930324,3.9702738,4.974809)"
     inkscape:label="panel">
    <path
       d="m 788.72,1256.7 v 4.334 h -8.7129 v 15.957 h 40.984 l 8.041,-7.9785 -8.041,-7.9785 h -26.566 v -4.334 z m 3.1133,10.228 c 1.1512,-6e-4 2.0845,0.9328 2.084,2.084 -5.3e-4,1.1504 -0.93357,2.0826 -2.084,2.082 -1.1497,-5e-4 -2.0815,-0.9324 -2.082,-2.082 -5.5e-4,-1.1504 0.93161,-2.0835 2.082,-2.084 z m -3.1133,12.393 v 5.0156 h -24.463 l -8.041,7.9785 8.041,7.9785 h 40.984 v -15.957 h -10.816 v -5.0156 z m 3.1133,10.91 c 1.1512,-5e-4 2.0845,0.9328 2.084,2.084 -5.3e-4,1.1504 -0.93357,2.0826 -2.084,2.082 -1.1497,-5e-4 -2.0815,-0.9323 -2.082,-2.082 -5.5e-4,-1.1504 0.93161,-2.0834 2.082,-2.084 z m -3.1133,12.393 v 5.0156 h -8.7129 v 15.957 h 40.984 l 8.041,-7.9786 -8.041,-7.9785 h -26.566 v -5.0156 z m 3.1133,10.91 c 1.1512,-6e-4 2.0845,0.9328 2.084,2.0839 -5.3e-4,1.1505 -0.93357,2.0826 -2.084,2.0821 -1.1497,-6e-4 -2.0815,-0.9324 -2.082,-2.0821 -5.5e-4,-1.1504 0.93161,-2.0834 2.082,-2.0839 z m -3.1133,12.392 v 15.113 h 5.7051 v -15.113 z"
       color="#000000"
       stroke-linecap="round"
       stroke-linejoin="round"
       style="display:inline;fill:#f5f5f7;fill-opacity:1"
       id="path10791"
       inkscape:label="panel"
       transform="matrix(0.36093301,0,0,0.36093301,-276.68508,-457.16641)" />
  </g>
  <g
     aria-label="?"
     id="text10797-5"
     style="font-weight:bold;font-size:5px;font-family:'Helvetica Neue', Helvetica, Arial-Unicode, Arial, Sans-serif;display:inline"
     transform="matrix(0.98930324,0,0,0.98930324,-13.611137,-3.5745282)"
     inkscape:label="qmarks">
    <path
       d="m 18.706663,18.781559 v 0.77 h -0.785 v -0.77 z m -1.59,-1.65 q 0.005,-0.27 0.09,-0.495 0.09,-0.225 0.245,-0.39 0.16,-0.165 0.38,-0.255 0.225,-0.095 0.5,-0.095 0.355,0 0.59,0.1 0.24,0.095 0.385,0.24 0.145,0.145 0.205,0.315 0.065,0.165 0.065,0.31 0,0.24 -0.065,0.395 -0.06,0.155 -0.155,0.265 -0.09,0.11 -0.205,0.19 -0.11,0.075 -0.21,0.155 -0.1,0.075 -0.18,0.175 -0.075,0.1 -0.095,0.25 v 0.19 h -0.675 v -0.225 q 0.015,-0.215 0.08,-0.36 0.07,-0.145 0.16,-0.245 0.09,-0.105 0.19,-0.18 0.1,-0.075 0.185,-0.15 0.085,-0.075 0.135,-0.165 0.055,-0.09 0.05,-0.225 0,-0.23 -0.115,-0.34 -0.11,-0.11 -0.31,-0.11 -0.135,0 -0.235,0.055 -0.095,0.05 -0.16,0.14 -0.06,0.085 -0.09,0.205 -0.03,0.115 -0.03,0.25 z"
       style="font-weight:bold;font-size:5px;font-family:'Helvetica Neue', Helvetica, Arial-Unicode, Arial, Sans-serif;display:inline;fill:#121212;fill-opacity:1"
       id="path12117"
       transform="translate(17.77151,8.6417765)"
       inkscape:label="qm3" />
    <path
       d="m 18.706663,18.781559 v 0.77 h -0.785 v -0.77 z m -1.59,-1.65 q 0.005,-0.27 0.09,-0.495 0.09,-0.225 0.245,-0.39 0.16,-0.165 0.38,-0.255 0.225,-0.095 0.5,-0.095 0.355,0 0.59,0.1 0.24,0.095 0.385,0.24 0.145,0.145 0.205,0.315 0.065,0.165 0.065,0.31 0,0.24 -0.065,0.395 -0.06,0.155 -0.155,0.265 -0.09,0.11 -0.205,0.19 -0.11,0.075 -0.21,0.155 -0.1,0.075 -0.18,0.175 -0.075,0.1 -0.095,0.25 v 0.19 h -0.675 v -0.225 q 0.015,-0.215 0.08,-0.36 0.07,-0.145 0.16,-0.245 0.09,-0.105 0.19,-0.18 0.1,-0.075 0.185,-0.15 0.085,-0.075 0.135,-0.165 0.055,-0.09 0.05,-0.225 0,-0.23 -0.115,-0.34 -0.11,-0.11 -0.31,-0.11 -0.135,0 -0.235,0.055 -0.095,0.05 -0.16,0.14 -0.06,0.085 -0.09,0.205 -0.03,0.115 -0.03,0.25 z"
       style="font-weight:bold;font-size:5px;font-family:'Helvetica Neue', Helvetica, Arial-Unicode, Arial, Sans-serif;display:inline;fill:#121212;fill-opacity:1"
       id="path12117-2"
       inkscape:label="qm2" />
    <path
       d="m 18.706663,18.781559 v 0.77 h -0.785 v -0.77 z m -1.59,-1.65 q 0.005,-0.27 0.09,-0.495 0.09,-0.225 0.245,-0.39 0.16,-0.165 0.38,-0.255 0.225,-0.095 0.5,-0.095 0.355,0 0.59,0.1 0.24,0.095 0.385,0.24 0.145,0.145 0.205,0.315 0.065,0.165 0.065,0.31 0,0.24 -0.065,0.395 -0.06,0.155 -0.155,0.265 -0.09,0.11 -0.205,0.19 -0.11,0.075 -0.21,0.155 -0.1,0.075 -0.18,0.175 -0.075,0.1 -0.095,0.25 v 0.19 h -0.675 v -0.225 q 0.015,-0.215 0.08,-0.36 0.07,-0.145 0.16,-0.245 0.09,-0.105 0.19,-0.18 0.1,-0.075 0.185,-0.15 0.085,-0.075 0.135,-0.165 0.055,-0.09 0.05,-0.225 0,-0.23 -0.115,-0.34 -0.11,-0.11 -0.31,-0.11 -0.135,0 -0.235,0.055 -0.095,0.05 -0.16,0.14 -0.06,0.085 -0.09,0.205 -0.03,0.115 -0.03,0.25 z"
       style="font-weight:bold;font-size:5px;font-family:'Helvetica Neue', Helvetica, Arial-Unicode, Arial, Sans-serif;display:inline;fill:#121212;fill-opacity:1"
       id="path12117-7"
       transform="translate(17.827747,-8.2419736)"
       inkscape:label="qm1" />
  </g>
</svg>
