<?xml version="1.0" encoding="UTF-8" standalone="no"?>
<svg
   viewBox="0 0 32 32"
   version="1.1"
   id="svg168"
   sodipodi:docname="file_type_stata_icon_130148 (1).svg"
   inkscape:version="1.2.2 (b0a84865, 2022-12-01)"
   xmlns:inkscape="http://www.inkscape.org/namespaces/inkscape"
   xmlns:sodipodi="http://sodipodi.sourceforge.net/DTD/sodipodi-0.dtd"
   xmlns="http://www.w3.org/2000/svg"
   xmlns:svg="http://www.w3.org/2000/svg">
  <sodipodi:namedview
     id="namedview170"
     pagecolor="#ffffff"
     bordercolor="#000000"
     borderopacity="0.25"
     inkscape:showpageshadow="2"
     inkscape:pageopacity="0.0"
     inkscape:pagecheckerboard="0"
     inkscape:deskcolor="#d1d1d1"
     showgrid="false"
     inkscape:zoom="13.717643"
     inkscape:cx="15.563898"
     inkscape:cy="13.704978"
     inkscape:window-width="1440"
     inkscape:window-height="900"
     inkscape:window-x="0"
     inkscape:window-y="0"
     inkscape:window-maximized="0"
     inkscape:current-layer="svg168" />
  <defs
     id="defs144">
    <filter
       id="c"
       width="1"
       height="1"
       x="0"
       y="0"
       style="color-interpolation-filters:sRGB">
      <feComposite
         in="BackgroundImage"
         in2="SourceGraphic"
         operator="arithmetic"
         result="composite1"
         id="feComposite132" />
    </filter>
    <filter
       id="a"
       width="1.434176"
       height="1.434176"
       x="-0.21708802"
       y="-0.21708801"
       style="color-interpolation-filters:sRGB">
      <feGaussianBlur
         stdDeviation=".54451453"
         id="feGaussianBlur135" />
    </filter>
    <filter
       id="b"
       width="1.434176"
       height="1.434176"
       x="-0.21708802"
       y="-0.21708801"
       style="color-interpolation-filters:sRGB">
      <feGaussianBlur
         stdDeviation=".54451453"
         id="feGaussianBlur138" />
    </filter>
    <filter
       id="d"
       width="1.2616747"
       height="1.3019534"
       x="-0.13083734"
       y="-0.15097669"
       style="color-interpolation-filters:sRGB">
      <feGaussianBlur
         stdDeviation=".48753056"
         id="feGaussianBlur141" />
    </filter>
    <filter
       inkscape:collect="always"
       style="color-interpolation-filters:sRGB"
       id="filter4105"
       x="-0.072821822"
       y="-0.091466578"
       width="1.1456436"
       height="1.1472105">
      <feGaussianBlur
         inkscape:collect="always"
         stdDeviation="0.087589289"
         id="feGaussianBlur4107" />
    </filter>
  </defs>
  <path
     id="circle146"
     style="stroke-width:0.5;stroke-opacity:0.0207254"
     d="m 11,16 a 4.9999995,4.9999995 0 0 1 -5,5 4.9999995,4.9999995 0 0 1 -5,-5 4.9999995,4.9999995 0 0 1 5,-5 4.9999995,4.9999995 0 0 1 5,5 z" />
  <path
     id="circle148"
     style="opacity:0.857778;fill:none;stroke:#000000;stroke-width:1.72809;filter:url(#a)"
     transform="matrix(0.84887562,0,0,0.85323718,0.881154,2.5143491)"
     d="m 10.989192,16.225269 a 4.9999995,4.9999995 0 0 1 -4.999999,5 4.9999995,4.9999995 0 0 1 -4.99999956,-5 4.9999995,4.9999995 0 0 1 4.99999956,-4.999999 4.9999995,4.9999995 0 0 1 4.999999,4.999999 z" />
  <path
     id="circle150"
     style="opacity:0.857778;fill:none;stroke:#000000;stroke-width:1.72809;filter:url(#b)"
     transform="matrix(0.84887562,0,0,0.85323718,11.406045,2.5145365)"
     d="m 10.989192,16.225269 a 4.9999995,4.9999995 0 0 1 -4.999999,5 4.9999995,4.9999995 0 0 1 -4.99999956,-5 4.9999995,4.9999995 0 0 1 4.99999956,-4.999999 4.9999995,4.9999995 0 0 1 4.999999,4.999999 z" />
  <path
     id="ellipse152"
     style="stroke-width:0.5"
     d="m 21.266479,16.066643 a 5,5.0000029 0 0 1 -5,5.000003 5,5.0000029 0 0 1 -5,-5.000003 5,5.0000029 0 0 1 5,-5.000003 5,5.0000029 0 0 1 5,5.000003 z" />
  <path
     id="circle146-5"
     style="stroke:#ffffff;stroke-width:0.5"
     d="m 10.833374,15.907873 a 4.9999995,4.9999995 0 0 1 -5,5 4.9999995,4.9999995 0 0 1 -4.999999,-5 4.9999995,4.9999995 0 0 1 4.999999,-4.999999 4.9999995,4.9999995 0 0 1 5,4.999999 z" />
  <path
     id="ellipse152-7"
     style="stroke:#ffffff;stroke-width:0.5"
     d="m 21.099854,15.974516 a 5,5.0000029 0 0 1 -5,5.000003 5,5.0000029 0 0 1 -5,-5.000003 5,5.0000029 0 0 1 5,-5.000003 5,5.0000029 0 0 1 5,5.000003 z" />
  <path
     id="path1204"
     style="opacity:1;fill:#121212;stroke:#fefefe;stroke-width:0.5;stroke-dasharray:none;stroke-opacity:1"
     inkscape:transform-center-y="-1.3762219"
     d="m 26.085938,12.222656 -2.13086,4.126953 -0.75,1.455079 h 5.761719 l -0.75,-1.455079 z m -3.507813,6.794922 -0.753906,1.460937 h 4.261719 4.259765 l -0.753906,-1.460937 z" />
  <path
     id="path1204-5"
     style="opacity:0.0539499;fill:none;stroke:#000000;stroke-width:0.5;stroke-dasharray:none;stroke-opacity:1;filter:url(#filter4105)"
     inkscape:transform-center-y="-1.5824766"
     d="m 58.185282,12.356616 -2.13086,4.126953 -0.75,1.455078 h 5.761719 l -0.75,-1.455078 z m -3.507813,6.794922 -0.753906,1.460937 h 4.261719 4.259765 l -0.753906,-1.460937 z"
     transform="matrix(1.1498707,0,0,1.1498707,-40.732396,-2.6458512)"
     inkscape:transform-center-x="-2.5286243e-06" />
</svg>
