<?xml version="1.0" encoding="UTF-8" standalone="no"?>
<!-- Uploaded to: SVG Repo, www.svgrepo.com, Generator: SVG Repo Mixer Tools -->

<svg
   fill="#000000"
   width="800px"
   height="800px"
   viewBox="0 0 20 20"
   version="1.1"
   id="svg613"
   sodipodi:docname="mail.svg"
   inkscape:version="1.2.2 (b0a84865, 2022-12-01)"
   xmlns:inkscape="http://www.inkscape.org/namespaces/inkscape"
   xmlns:sodipodi="http://sodipodi.sourceforge.net/DTD/sodipodi-0.dtd"
   xmlns="http://www.w3.org/2000/svg"
   xmlns:svg="http://www.w3.org/2000/svg">
  <defs
     id="defs617" />
  <sodipodi:namedview
     id="namedview615"
     pagecolor="#ffffff"
     bordercolor="#000000"
     borderopacity="0.25"
     inkscape:showpageshadow="2"
     inkscape:pageopacity="0.0"
     inkscape:pagecheckerboard="0"
     inkscape:deskcolor="#d1d1d1"
     showgrid="false"
     inkscape:zoom="0.295"
     inkscape:cx="-189.83051"
     inkscape:cy="400"
     inkscape:window-width="1309"
     inkscape:window-height="430"
     inkscape:window-x="0"
     inkscape:window-y="0"
     inkscape:window-maximized="0"
     inkscape:current-layer="svg613" />
  <path
     d="M10 .4C4.698.4.4 4.698.4 10s4.298 9.6 9.6 9.6 9.6-4.298 9.6-9.6S15.302.4 10 .4zM6.231 7h7.52c.399 0 .193.512-.024.643-.217.13-3.22 1.947-3.333 2.014s-.257.1-.403.1a.793.793 0 0 1-.402-.1L6.255 7.643C6.038 7.512 5.833 7 6.231 7zM14 12.5c0 .21-.252.5-.444.5H6.444C6.252 13 6 12.71 6 12.5V8.853c0-.092-.002-.211.172-.11l3.417 2.015a.69.69 0 0 0 .402.1c.146 0 .252-.011.403-.1l3.434-2.014c.174-.102.172.018.172.11V12.5z"
     id="path611"
     style="fill:#000000;fill-opacity:1"
     inkscape:label="path611" />
</svg>
