<?xml version="1.0" encoding="UTF-8" standalone="no"?>
<svg
   version="1.1"
   x="0px"
   y="0px"
   viewBox="0 0 96 96"
   style="enable-background:new 0 0 96 96;"
   xml:space="preserve"
   id="svg1150"
   sodipodi:docname="male.svg"
   inkscape:version="1.2.2 (b0a84865, 2022-12-01)"
   xmlns:inkscape="http://www.inkscape.org/namespaces/inkscape"
   xmlns:sodipodi="http://sodipodi.sourceforge.net/DTD/sodipodi-0.dtd"
   xmlns="http://www.w3.org/2000/svg"
   xmlns:svg="http://www.w3.org/2000/svg"><defs
     id="defs1154" /><sodipodi:namedview
     id="namedview1152"
     pagecolor="#ffffff"
     bordercolor="#000000"
     borderopacity="0.25"
     inkscape:showpageshadow="2"
     inkscape:pageopacity="0.0"
     inkscape:pagecheckerboard="0"
     inkscape:deskcolor="#d1d1d1"
     showgrid="false"
     inkscape:zoom="2.4583333"
     inkscape:cx="11.79661"
     inkscape:cy="48"
     inkscape:window-width="1440"
     inkscape:window-height="900"
     inkscape:window-x="0"
     inkscape:window-y="0"
     inkscape:window-maximized="0"
     inkscape:current-layer="svg1150" /><g
     id="g1148"><path
       d="M57,11v8h14.8L57,33.6c-4.9-3.7-10.9-6-17.5-6c-16,0-29,12.9-29,28.9s13,29,29,29s29-13,29-29   c0-6.6-2.4-12.6-6.1-17.5L77,24.2V39h8V11H57z M39.5,77.5c-11.6,0-21-9.4-21-21s9.4-21,21-21s21,9.4,21,21S51.1,77.5,39.5,77.5z"
       id="path1146"
       style="fill:#ffffff" /></g></svg>
