<?xml version="1.0" encoding="UTF-8" standalone="no"?>
<svg
   width="959"
   height="593"
   id="svg2"
   sodipodi:version="0.32"
   inkscape:version="1.2.2 (b0a84865, 2022-12-01)"
   sodipodi:docname="nyc.svg"
   inkscape:output_extension="org.inkscape.output.svg.inkscape"
   version="1.1"
   xml:space="preserve"
   xmlns:inkscape="http://www.inkscape.org/namespaces/inkscape"
   xmlns:sodipodi="http://sodipodi.sourceforge.net/DTD/sodipodi-0.dtd"
   xmlns="http://www.w3.org/2000/svg"
   xmlns:svg="http://www.w3.org/2000/svg"
   xmlns:rdf="http://www.w3.org/1999/02/22-rdf-syntax-ns#"
   xmlns:cc="http://creativecommons.org/ns#"
   xmlns:dc="http://purl.org/dc/elements/1.1/"><metadata
     id="metadata62"><rdf:RDF><cc:Work
         rdf:about=""><dc:format>image/svg+xml</dc:format><dc:type
           rdf:resource="http://purl.org/dc/dcmitype/StillImage" /><dc:title /></cc:Work></rdf:RDF></metadata><defs
     id="defs60"><inkscape:perspective
       id="perspective64"
       inkscape:persp3d-origin="479.5 : 197.66667 : 1"
       inkscape:vp_z="959 : 296.5 : 1"
       inkscape:vp_y="0 : 1000 : 0"
       inkscape:vp_x="0 : 296.5 : 1"
       sodipodi:type="inkscape:persp3d" /></defs><sodipodi:namedview
     inkscape:window-height="900"
     inkscape:window-width="1440"
     inkscape:pageshadow="2"
     inkscape:pageopacity="0.0"
     guidetolerance="10.0"
     gridtolerance="10.0"
     objecttolerance="10.0"
     borderopacity="1.0"
     bordercolor="#666666"
     pagecolor="#ffffff"
     id="base"
     inkscape:zoom="0.89638386"
     inkscape:cx="370.93483"
     inkscape:cy="249.89294"
     inkscape:window-x="0"
     inkscape:window-y="0"
     inkscape:current-layer="svg2"
     showguides="true"
     inkscape:guide-bbox="true"
     showgrid="false"
     inkscape:window-maximized="0"
     inkscape:showpageshadow="2"
     inkscape:pagecheckerboard="0"
     inkscape:deskcolor="#d1d1d1" /><g
     fill="#d3d3d3"
     id="g4"
     style="display:inline;fill:#c8cbd5;fill-opacity:1;stroke:#000000;stroke-opacity:1;stroke-width:2;stroke-dasharray:none"
     class="UnoptimicedTransforms"><path
       d="m 828.61427,189.42238 -1.13163,-0.96996 -2.58658,-0.16166 -2.26324,-1.93992 -1.63061,-6.12913 -3.45846,0.0905 -2.44371,-2.7082 -19.38532,4.38194 -43.00178,8.72969 -7.52965,1.22799 -0.73816,-6.46834 1.4281,-1.12538 1.29328,-1.13162 0.96997,-1.61661 1.77826,-1.13162 1.93993,-1.77827 0.48498,-1.6166 2.10158,-2.74823 1.13163,-0.96996 -0.16166,-0.96997 -1.29329,-3.07154 -1.77826,-0.16166 -1.93993,-6.1431 2.90989,-1.77827 4.36483,-1.45494 4.04152,-1.29329 3.23321,-0.48498 6.30475,-0.16166 1.93993,1.29329 1.6166,0.16166 2.10159,-1.29329 2.58657,-1.13162 5.17313,-0.48498 2.10159,-1.77827 1.77826,-3.23321 1.61661,-1.93992 h 2.10158 l 1.93993,-1.13163 0.16166,-2.26324 -1.45494,-2.10159 -0.32332,-1.45494 1.13162,-2.10159 v -1.45494 h -1.77827 l -1.77826,-0.8083 -0.8083,-1.13163 -0.16166,-2.58657 5.81977,-5.49645 0.64664,-0.8083 1.45495,-2.90989 2.90989,-4.5265 2.74823,-3.71819 2.10158,-2.4249 2.4151,-1.82561 3.08136,-1.24594 5.49645,-1.29329 3.23321,0.16166 4.5265,-1.45494 7.56519,-2.07117 0.51979,4.97967 2.42492,6.46644 0.8083,5.17315 -0.96996,3.87986 2.58657,4.5265 0.8083,2.10159 -0.8083,2.9099 2.9099,1.29328 0.64664,0.32332 3.07156,10.99294 -0.53629,5.05967 -0.48498,10.83127 0.8083,5.49647 0.8083,3.55654 1.45495,7.27474 v 8.08304 l -1.13163,2.26325 1.83933,1.99279 0.79655,1.67842 -1.93992,1.77827 0.32332,1.29328 1.29328,-0.32332 1.45495,-1.29328 2.26324,-2.58657 1.13163,-0.64664 1.6166,0.64664 2.26325,0.16166 7.92136,-3.87985 2.90989,-2.74823 1.29328,-1.45494 4.20317,1.6166 -3.39487,3.55653 -3.87985,2.90989 -7.11306,5.33479 -2.58656,0.96997 -5.81978,1.93992 -4.04151,1.13163 -1.17474,-0.53293 -0.24402,-3.68853 0.48498,-2.74824 -0.16166,-2.10158 -2.81351,-1.699 -4.5265,-0.96997 -3.87986,-1.13162 z"
       id="NY"
       style="fill:#d62942;fill-opacity:1;stroke:#000000;stroke-width:2;stroke-dasharray:none;stroke-opacity:1"
       class="UnoptimicedTransforms"
       inkscape:label="NY"
       transform="translate(-1.4966937,1.1225203)" /></g><style
     id="style3"
     type="text/css">

/* No election */
#DC, 
#ME, #MA, #MN, #MS, #MI, #MT, #NE, #NJ, #NM,
#RI, #TN, #TX, #VA, #WY
{
 fill: #d3d3d3;
}

/* Reps hold */
#AK, #AL, #AZ, #FL, #GA, #IA, #ID, #KS, #KY, #LA, #MO, #NC, #NH, #OK, #OH, #SC, #SD, #UT
{
 fill: #800;
}


/* Reps gain */
#AR, #IL, #IN, #ND, #PA, #WI
{
 fill: #F00;
}


/* Dems hold */
#CA, #CO, #CT, #DE, #HI, #MD, #NV, #NY, #OR, #VT, #WA, #WV
{
 fill: #008;
}


</style><style
     id="style3064"
     type="text/css">
	
		.st0{fill:#FFFFFF;stroke:#000000;stroke-width:0.25;}
		.st1{fill:none;stroke:#000044;stroke-width:0.5;}
	
	</style><style
     type="text/css"
     id="style3064-3">
	
		.st0{fill:#FFFFFF;stroke:#000000;stroke-width:0.25;}
		.st1{fill:none;stroke:#000044;stroke-width:0.5;}
	
	</style><style
     type="text/css"
     id="style3064-6">
	
		.st0{fill:#FFFFFF;stroke:#000000;stroke-width:0.25;}
		.st1{fill:none;stroke:#000044;stroke-width:0.5;}
	
	</style><path
     style="display:inline;fill:none;stroke:#000000;stroke-width:1;stroke-dasharray:none;stroke-opacity:1"
     d="m 204.83021,584.69461 c -0.94212,-1.04753 -2.67447,-2.85949 -3.84966,-4.02656 -1.83893,-1.82628 -2.04276,-2.27251 -1.46251,-3.20185 0.37082,-0.59391 0.53341,-1.61825 0.36132,-2.27631 -0.24405,-0.93325 -0.61113,-1.12162 -1.6686,-0.8562 -0.80025,0.20087 -1.35572,0.0895 -1.35572,-0.27173 0,-0.3366 -0.34897,-0.47808 -0.77549,-0.31441 -0.87803,0.33691 -3.07817,-2.07224 -4.9757,-5.44846 -0.73853,-1.31403 -1.70093,-2.27173 -2.28286,-2.27173 -0.71733,0 -1.11331,-0.61156 -1.37971,-2.13085 -0.40549,-2.3125 -1.68054,-4.70447 -2.89255,-5.42638 -0.41959,-0.24993 -0.76289,-1.05697 -0.76289,-1.79343 0,-0.95587 -0.813,-1.92311 -2.84113,-3.38018 -1.56262,-1.12263 -2.84113,-2.2749 -2.84113,-2.56059 0,-0.28569 -1.98169,-1.68178 -4.40376,-3.10243 -6.40993,-3.75969 -6.04877,-3.42227 -5.25358,-4.90811 0.65731,-1.22817 0.61546,-1.26598 -0.93573,-0.84536 -2.40587,0.65236 -3.0934,0.52863 -7.96609,-1.43358 -3.5852,-1.44374 -5.00819,-1.74003 -7.29513,-1.51898 -2.48602,0.2403 -3.24106,0.0335 -6.04071,-1.65485 -3.75658,-2.26537 -4.02781,-2.29636 -6.53526,-0.74668 -1.32995,0.82196 -1.9138,0.95922 -1.9138,0.44992 0,-0.40308 -1.08673,0.30035 -2.41496,1.56318 -2.53296,2.40824 -4.07877,2.65402 -4.58229,0.72857 -0.22977,-0.87863 -0.60664,-1.05053 -1.701,-0.77586 -0.78165,0.19618 -1.5744,0.0801 -1.78548,-0.26143 -0.68815,-1.11346 -2.00975,-0.64428 -4.4449,1.57798 -3.20454,2.92437 -4.41124,3.49001 -7.44541,3.49001 -2.75923,0 -2.85077,-0.0648 -3.41251,-2.41496 -0.34843,-1.45773 -0.25106,-1.56262 1.4506,-1.56262 1.72217,0 1.76247,-0.0461 0.72111,-0.82488 -1.07725,-0.80563 -1.05952,-0.90843 0.75978,-4.40375 1.85311,-3.56032 2.41293,-5.99458 1.20722,-5.24941 -0.34291,0.21193 -1.73216,2.09918 -3.08722,4.19389 -2.02447,3.12951 -2.85653,3.92625 -4.66665,4.46858 -1.21159,0.363 -2.81675,1.31342 -3.56702,2.11204 l -1.36411,1.45203 1.22363,0.31999 c 0.77615,0.20297 1.36008,0.94125 1.59676,2.01881 0.61601,2.8047 -2.59629,5.60393 -13.099004,11.41461 -3.12838,1.73079 -6.708205,3.33226 -7.955166,3.55881 -3.284796,0.5968 -6.566126,1.99326 -6.437264,2.73957 0.218228,1.2638 -2.047432,4.35308 -2.932768,3.9989 -0.468787,-0.18754 -1.784446,-0.47373 -2.923683,-0.63595 -1.749267,-0.2491 -2.130729,-0.10786 -2.453254,0.90833 -0.443228,1.39648 -2.57823,1.65539 -2.57823,0.31265 0,-0.66124 -0.329287,-0.78941 -1.278509,-0.49763 -0.703179,0.21614 -1.378871,0.4829 -1.501538,0.59278 -0.486856,0.43613 1.279515,1.93194 2.281395,1.93194 1.237386,0 1.2445,0.027 0.512716,1.9518 -0.833815,2.1931 -3.670614,2.02182 -5.787697,-0.34947 -1.757552,-1.96858 -2.001156,-2.71778 -0.903024,-2.77724 0.390655,-0.0211 0.14373,-0.31202 -0.548723,-0.64636 -0.975098,-0.47082 -1.579236,-0.39808 -2.679082,0.32257 -0.781043,0.51176 -2.181563,0.93047 -3.112268,0.93047 -0.930704,0 -2.573389,0.51992 -3.650411,1.15538 -1.833838,1.08199 -2.11497,1.10137 -4.426023,0.30515 -2.212007,-0.7621 -2.608603,-0.75797 -3.826178,0.0398 -1.869775,1.22511 -4.060192,0.10655 -4.060192,-2.07339 0,-2.10022 2.028523,-2.89816 7.070507,-2.78126 4.074062,0.0945 5.739038,-0.38548 7.987486,-2.30244 2.245246,-1.91423 9.392595,-3.08204 10.261216,-1.67658 0.241277,0.39039 0.962401,-0.0111 1.937396,-1.07853 1.423741,-1.5588 4.314569,-2.55319 9.109869,-3.13363 0.468787,-0.0568 1.235892,-0.85044 1.704679,-1.76379 0.512608,-0.99872 1.607353,-1.91219 2.746572,-2.29177 1.581408,-0.5269 2.296776,-1.40422 4.331713,-5.31237 l 2.437475,-4.68124 -1.89125,0.3548 c -1.692257,0.31747 -1.930208,0.19959 -2.261478,-1.12029 -0.475202,-1.89335 -1.385449,-1.3523 -1.385449,0.82349 0,1.40116 -0.228182,1.67114 -1.412383,1.67114 -1.199156,0 -1.509322,-0.38497 -2.054473,-2.54996 -0.353147,-1.40248 -0.845157,-2.42445 -1.093358,-2.27106 -0.739751,0.45719 -2.2585,-0.35389 -2.2585,-1.20615 0,-0.94899 -2.95081,-1.07693 -4.591131,-0.19906 -0.608883,0.32586 -2.013595,0.42241 -3.121584,0.21455 l -2.014531,-0.37792 1.218353,-1.29688 c 0.890935,-0.94836 1.169826,-1.86011 1.037787,-3.39269 -0.127885,-1.48433 0.106736,-2.30589 0.804143,-2.81585 0.621878,-0.45472 0.984702,-1.48208 0.984702,-2.78823 v -2.06821 h -3.908007 c -4.412922,0 -4.864125,-0.30823 -5.664267,-3.8694 -0.297089,-1.32224 -0.949733,-3.02916 -1.450319,-3.79316 -1.158525,-1.76813 -1.179411,-3.70196 -0.03998,-3.70196 1.017839,0 1.807787,-1.64971 1.047797,-2.18819 -1.260235,-0.89294 -1.79665,-3.3581 -1.304243,-5.99383 0.641715,-3.43493 0.490868,-3.23708 4.395487,-5.76527 1.963039,-1.27104 3.767724,-2.97922 4.412297,-4.17637 0.613562,-1.13954 1.774238,-2.26504 2.653295,-2.57288 2.122671,-0.74333 4.634714,0.17727 4.865329,1.78304 0.200396,1.39539 1.100506,1.24829 3.625192,-0.59243 1.328717,-0.96875 1.752574,-1.02302 3.22541,-0.41295 2.8721,1.18966 3.859211,0.43805 4.546105,-3.46153 0.334452,-1.89871 0.90802,-3.81359 1.274594,-4.25528 1.066958,-1.28561 0.238274,-1.49292 -3.037368,-0.75986 -2.782768,0.62275 -3.276784,0.57557 -5.419599,-0.51761 -1.354606,-0.69107 -3.515717,-1.22329 -5.079442,-1.25093 -2.440207,-0.0431 -2.922046,-0.28098 -4.658596,-2.29974 -1.900318,-2.20914 -1.926354,-2.30971 -1.379284,-5.32792 0.439034,-2.42217 0.398128,-3.13748 -0.192396,-3.36408 -0.412492,-0.1583 -1.323841,-1.46897 -2.025218,-2.91261 -1.254517,-2.58218 -1.257394,-2.63785 -0.17708,-3.42779 0.718335,-0.52527 2.593528,-0.80299 5.421709,-0.80299 2.377958,0 4.597523,-0.27397 4.932373,-0.60882 1.012449,-1.01244 6.952372,-0.75178 8.17973,0.35897 1.0457,0.94635 1.043501,1.00412 -0.0992,2.60888 l -1.168568,1.64112 2.461686,1.06438 c 3.178805,1.37445 5.018704,1.91913 5.018704,1.48572 0,-0.18977 -0.475122,-1.29373 -1.055821,-2.45325 -0.580704,-1.15952 -1.23546,-2.87532 -1.455017,-3.81289 -0.219556,-0.93757 -0.939334,-2.1227 -1.599516,-2.63362 -0.899775,-0.69635 -1.232676,-1.64908 -1.329542,-3.80501 -0.104991,-2.33681 -0.690127,-3.80468 -3.1208,-7.82878 l -2.991586,-4.95272 1.656504,-1.35973 c 1.539496,-1.26368 1.977592,-1.33494 6.202308,-1.00888 l 4.54581,0.35084 2.069087,-2.16614 c 1.137998,-1.19137 2.225839,-2.67754 2.417422,-3.30259 0.586841,-1.91459 3.917272,-3.68753 6.223822,-3.31323 1.46707,0.23807 2.52431,0.003 3.95147,-0.87919 1.63142,-1.00828 2.49253,-1.14816 5.29197,-0.85963 3.24935,0.33489 3.37999,0.29486 4.63902,-1.42131 0.71254,-0.97126 1.68927,-1.76591 2.17052,-1.76591 1.04287,0 5.55162,3.01759 6.59469,4.41365 0.40457,0.54147 1.0552,1.01006 1.44585,1.04132 0.39066,0.0312 1.60524,0.0952 2.69908,0.14205 1.86353,0.0799 1.98879,0.20612 1.98879,2.00445 0,2.53072 0.72485,3.02882 5.11966,3.51803 2.74243,0.30528 4.44991,0.89562 6.6605,2.30277 1.63496,1.04073 3.33616,1.75276 3.78044,1.58227 0.44428,-0.17048 1.86163,0.22767 3.14968,0.88477 2.05282,1.04728 2.61711,1.1123 4.57147,0.52676 2.55664,-0.76599 4.01535,-0.35395 9.04163,2.55398 l 3.05973,1.7702 -0.39635,42.45512 -0.39635,42.45511 1.54201,0.38703 c 0.87397,0.21935 1.99389,0.10483 2.58501,-0.26433 0.57364,-0.35824 1.81995,-0.65135 2.76957,-0.65135 1.44809,0 1.77942,0.26411 2.05407,1.63738 0.19333,0.96665 1.70047,2.99604 3.67927,4.95418 1.84348,1.82425 3.35179,3.64445 3.35179,4.04489 0,0.88172 0.30941,0.90657 1.74203,0.13985 0.6045,-0.32352 1.0991,-1.03373 1.0991,-1.57824 0,-1.9821 3.61269,-5.22048 5.8239,-5.22048 1.1375,0 3.83594,2.40291 3.83594,3.41583 0,0.58604 0.45192,1.39967 1.00427,1.80804 0.55235,0.40838 1.4275,1.40646 1.94478,2.21796 0.51727,0.8115 1.67934,1.78149 2.58237,2.15553 1.08233,0.44832 2.34143,1.89642 3.69466,4.24924 1.12904,1.96304 2.9979,4.8073 4.15301,6.32059 1.15512,1.51328 2.43543,3.53981 2.84514,4.50338 0.6375,1.49929 1.48188,2.02556 5.85522,3.6493 l 5.11029,1.89736 0.68824,3.85117 c 0.81206,4.54399 0.44371,7.09254 -1.34878,9.33175 -1.18524,1.48062 -1.42559,1.56284 -2.53807,0.86807 -0.67586,-0.42207 -1.50931,-1.44454 -1.85209,-2.2721 -0.49289,-1.18993 -2.56624,-2.78852 -3.61667,-2.78852 -0.0966,0 0.0821,1.30334 0.39707,2.89637 0.60694,3.06961 0.087,4.08872 -1.92742,3.77813 -0.4989,-0.0769 -1.32357,0.20581 -1.8326,0.62829 -0.80407,0.66732 -1.15023,0.51816 -2.63844,-1.13651 z m -65.85789,-52.04165 c 0.83989,-0.83989 -0.39458,-2.99207 -1.71623,-2.99207 -0.56742,0 -1.90085,0.30562 -2.96319,0.67917 -1.89024,0.66465 -1.90116,0.68675 -0.51096,1.03375 0.78131,0.19502 1.39225,0.74113 1.35765,1.21356 -0.073,0.99724 2.85104,1.04728 3.83273,0.0656 z m -14.85023,-5.8332 c 0,-0.31253 -0.2557,-0.56823 -0.56822,-0.56823 -0.31253,0 -0.56823,0.2557 -0.56823,0.56823 0,0.31252 0.2557,0.56822 0.56823,0.56822 0.31252,0 0.56822,-0.2557 0.56822,-0.56822 z M 330.6723,579.6562 c -3.32952,-1.4788 -3.76978,-2.33427 -3.9613,-7.69752 -0.1993,-5.58116 -0.56453,-6.98247 -2.10971,-8.09439 -1.80576,-1.29944 -1.2993,-3.81994 1.28732,-6.40655 2.14435,-2.14435 2.25142,-2.39397 1.42057,-3.31205 -1.61164,-1.78083 -0.84452,-5.16512 1.17076,-5.16512 1.31448,0 13.82122,6.27678 14.97555,7.51581 0.63065,0.67693 1.68158,2.4144 2.33538,3.86105 0.79062,1.74938 1.92984,3.0883 3.40163,3.99791 2.65223,1.63917 2.53945,2.74312 -0.55801,5.46168 -1.98598,1.74305 -6.56193,3.53831 -7.25423,2.84601 -0.74204,-0.74204 -3.43945,1.36694 -5.59398,4.37365 -2.28084,3.18298 -3.00743,3.55517 -5.11398,2.61952 z m 436.53975,-4.1897 c -1.42318,-1.08332 -1.25276,-1.38403 1.02673,-1.81164 1.18958,-0.22317 2.37468,-0.91884 2.88057,-1.69094 1.52256,-2.32367 3.25014,-3.10642 5.49071,-2.48776 1.67808,0.46334 3.14576,1.95392 2.53008,2.56959 -0.0954,0.0954 -2.21096,0.91567 -4.70122,1.82279 -2.4903,0.90711 -4.91135,1.80809 -5.38013,2.00209 -0.46879,0.19404 -1.29982,0.0119 -1.84674,-0.40413 z m -754.419251,-2.88151 -1.313177,-0.70279 1.738563,-1.23796 c 4.227941,-3.01056 8.443468,-3.58407 10.063124,-1.36907 0.604637,0.82689 0.847513,0.85686 1.636657,0.20193 0.517173,-0.42922 0.787842,-1.20643 0.612519,-1.75882 -0.247488,-0.77977 0.130296,-1.07314 1.780584,-1.38274 1.837075,-0.34464 2.304721,-0.18297 3.802056,1.31437 1.648694,1.64869 1.67529,1.75623 0.774377,3.1312 -1.204963,1.839 -5.033211,2.4775 -9.227105,1.53895 -2.466941,-0.55208 -3.526693,-0.52535 -5.787189,0.14594 -2.233878,0.66339 -3.020333,0.68633 -4.080409,0.11899 z M 780.7043,570.56968 c -0.56743,-0.62696 -0.92666,-1.22351 -0.79836,-1.32567 0.12831,-0.10215 1.80253,-1.12436 3.72052,-2.27158 3.43555,-2.05493 6.84667,-5.30721 8.18058,-7.79967 0.61187,-1.14329 0.57328,-1.22535 -0.37929,-0.80596 -0.58323,0.25681 -2.16568,0.5785 -3.51647,0.71486 -1.35084,0.13637 -2.58798,0.59191 -2.74936,1.01232 -0.16132,0.42041 -1.17538,1.05548 -2.25341,1.41128 -2.98808,0.98615 -4.49149,-0.2483 -4.99966,-4.10517 -0.89188,-6.76957 -8.20575,-13.34495 -10.83863,-9.74427 -0.61078,0.83528 -0.93956,0.5825 -2.76175,-2.12326 -1.13758,-1.68928 -2.0684,-3.56377 -2.0684,-4.16553 0,-1.30425 -2.66782,-6.02388 -3.40509,-6.02388 -0.28377,0 -0.75091,0.41969 -1.03798,0.93264 -0.93132,1.66425 -3.19775,0.52815 -4.38659,-2.19893 -0.58198,-1.33495 -1.73991,-3.32214 -2.57321,-4.41597 -0.83331,-1.09384 -2.09079,-3.13945 -2.79443,-4.54581 -0.70369,-1.40636 -2.77771,-4.25492 -4.60894,-6.33013 l -3.32957,-3.77311 1.74866,-2.19327 c 2.1392,-2.68301 4.12503,-6.45495 3.39839,-6.45495 -0.29332,0 -1.00167,-0.15198 -1.57416,-0.33772 -0.73909,-0.2398 -0.82779,-0.18447 -0.30599,0.1908 0.59198,0.42575 0.53362,1.07057 -0.30014,3.31621 -0.5693,1.53323 -1.4388,2.86545 -1.93225,2.96048 -1.10861,0.2135 -2.9375,-3.83056 -3.94292,-8.71872 -0.61181,-2.97436 -0.57988,-3.81689 0.23547,-6.20965 0.51879,-1.52261 0.94326,-4.51052 0.94326,-6.63982 0,-3.48034 -0.18655,-4.12192 -1.84674,-6.35095 -1.0157,-1.36374 -2.10244,-2.90958 -2.41496,-3.43522 -0.31253,-0.52563 -1.97283,-1.32308 -3.68955,-1.7721 -2.08323,-0.54489 -3.47288,-1.29911 -4.17862,-2.26787 -0.58152,-0.79831 -1.8169,-1.84427 -2.74527,-2.32435 -0.92837,-0.48008 -1.95021,-1.62513 -2.27069,-2.54453 -0.32861,-0.9427 -1.11549,-1.80585 -1.80446,-1.97938 -0.67198,-0.16925 -1.75821,-1.12762 -2.41388,-2.12972 -1.47801,-2.25896 -8.33548,-5.18212 -10.85744,-4.62823 -3.05666,0.67131 -3.19525,0.76459 -2.45724,1.65383 1.19936,1.4451 0.16621,3.14579 -1.911,3.14579 -1.26095,0 -2.29075,0.47069 -3.229,1.47586 -1.90322,2.03902 -5.21745,3.63817 -7.54019,3.63817 -1.07037,0 -2.80653,0.36204 -3.85814,0.80453 l -1.91197,0.80454 -0.57743,-2.05098 c -0.63914,-2.27023 -2.69646,-3.80143 -9.65064,-7.18283 -6.50858,-3.16471 -10.24341,-3.89553 -16.39992,-3.20904 -2.87926,0.32106 -6.63188,1.06189 -8.33911,1.6463 -1.70724,0.5844 -4.05197,1.23812 -5.21053,1.45272 -1.15861,0.2146 -3.26752,0.90375 -4.68655,1.53145 -1.82708,0.8082 -3.16082,1.03231 -4.57013,0.76792 -2.43667,-0.45711 -2.4856,-0.84564 -0.27116,-2.15375 l 1.71905,-1.01545 -1.57699,-2.89225 c -0.86729,-1.59074 -1.83265,-2.79709 -2.14517,-2.68078 -0.31253,0.11631 -1.08043,1.50002 -1.7065,3.07491 -1.09429,2.75282 -1.23146,2.87018 -3.55141,3.03816 -1.32721,0.0961 -2.41315,0.41573 -2.41315,0.71028 0,0.63864 -6.04763,0.64662 -7.67105,0.0101 -0.68875,-0.27005 -2.54861,-0.0425 -4.72111,0.57757 -1.97157,0.56272 -3.93598,0.88832 -4.36534,0.72355 -0.46509,-0.17847 -1.12542,0.35072 -1.63353,1.30911 -0.46907,0.88477 -2.15256,2.71315 -3.74103,4.06306 -1.58854,1.34991 -2.74118,2.69235 -2.5614,2.98319 0.48578,0.78601 2.53066,0.64021 2.54526,-0.18148 0.0222,-1.2574 1.93095,-3.18739 3.5388,-3.57856 1.40647,-0.34218 1.56262,-0.23007 1.56262,1.12199 0,0.82619 0.40855,2.1257 0.90791,2.8878 0.84865,1.2952 0.82705,1.51644 -0.33048,3.38937 -0.68107,1.10204 -1.47318,2.00372 -1.76025,2.00372 -0.28701,0 -0.52186,0.38355 -0.52186,0.85234 0,0.5225 -0.5314,0.85233 -1.37323,0.85233 -0.75523,0 -1.47887,0.31703 -1.60802,0.70451 -0.39225,1.1767 1.95805,2.5375 5.13574,2.97359 1.88378,0.25851 3.61227,0.92208 4.6278,1.77663 0.89161,0.75019 2.03164,1.36399 2.53344,1.36399 1.39619,0 1.11048,2.18996 -0.5738,4.39818 -1.06803,1.40026 -1.65956,1.77505 -2.10243,1.33215 -0.33895,-0.33896 -1.46012,-0.6163 -2.49145,-0.6163 -1.03133,0 -1.87514,-0.2505 -1.87514,-0.55668 0,-0.8259 -4.3071,-2.87149 -7.01402,-3.33119 -1.88526,-0.32017 -2.3995,-0.66503 -2.549,-1.7094 -0.12797,-0.89397 -0.4576,-1.20459 -1.04088,-0.98077 -0.46947,0.18016 -0.96053,0.32756 -1.09122,0.32756 -0.79427,0 -0.0409,1.69051 0.88416,1.98413 1.03207,0.32757 0.96399,0.51379 -0.85234,2.33013 -1.08577,1.08576 -1.97413,2.20145 -1.97413,2.47932 0,0.7032 -3.84297,1.90306 -4.85334,1.51533 -1.20992,-0.46429 -1.01292,-1.87776 0.30986,-2.22368 0.77875,-0.20365 1.02508,-0.59425 0.77904,-1.23538 -0.23144,-0.60313 -0.68835,-0.79852 -1.28084,-0.54774 -0.50663,0.21441 -1.47517,0.51055 -2.15239,0.65809 -0.67715,0.14754 -1.37465,0.83958 -1.54989,1.53786 -0.21939,0.87417 -1.02644,1.48166 -2.59111,1.95044 -2.08397,0.62437 -2.61515,0.535 -6.40522,-1.07755 -2.27305,-0.96712 -4.70958,-2.30004 -5.41452,-2.96204 l -1.28169,-1.20364 1.19305,-1.26995 1.19305,-1.26994 -1.15251,-0.61681 c -0.63388,-0.33924 -2.06427,-0.6168 -3.17865,-0.6168 -1.78241,0 -2.02615,-0.17089 -2.02615,-1.42057 0,-2.50261 -2.47427,-4.23467 -4.78345,-3.34856 -1.41654,0.54358 -1.05544,1.23508 0.86526,1.65693 1.61491,0.35469 1.73452,0.53517 1.41464,2.13456 -0.19218,0.96091 -0.4603,1.85799 -0.59581,1.99351 -0.13552,0.13551 -1.75285,-0.26235 -3.59406,-0.88413 -2.88438,-0.97407 -3.58777,-1.02957 -5.08269,-0.401 -2.10758,0.88617 -7.13842,0.0481 -13.79407,-2.29788 -5.735,-2.02149 -10.73333,-1.94626 -18.20704,0.27401 -7.15504,2.1256 -14.48311,5.49453 -15.57437,7.16 -0.47462,0.72436 -2.08145,2.14048 -3.57074,3.14692 -1.48929,1.00645 -4.13055,3.16767 -5.86948,4.80272 -3.97611,3.73859 -7.91043,6.26178 -14.75304,9.46156 -2.9604,1.38435 -6.91676,3.55078 -8.7919,4.81429 -1.87515,1.2635 -3.88734,2.55187 -4.47154,2.86303 -1.95399,1.04076 -10.48232,13.86453 -11.78074,17.7143 -1.59104,4.71741 -1.31318,12.34545 0.62319,17.10809 0.69885,1.71888 1.47315,4.90559 1.72067,7.08158 0.44702,3.92987 0.43803,3.96835 -1.34417,5.75312 -0.98681,0.98824 -2.43867,2.20332 -3.22635,2.70019 -1.37734,0.86882 -1.56505,0.81606 -4.9042,-1.37832 -3.1383,-2.06239 -3.89202,-2.30467 -7.84117,-2.52053 -3.78376,-0.20683 -4.65203,-0.46289 -6.48078,-1.91129 -1.16141,-0.91986 -3.12526,-1.85905 -4.3641,-2.0871 -1.23885,-0.22805 -4.12638,-1.23694 -6.41674,-2.24199 -3.30902,-1.45204 -4.44324,-2.28131 -5.52247,-4.03767 -0.747,-1.21569 -1.36759,-2.72174 -1.37909,-3.34678 -0.0487,-2.65228 -1.19214,-5.14416 -2.76954,-6.03605 -1.60978,-0.91019 -2.70794,-3.62522 -1.71463,-4.23912 0.67879,-0.41952 0.62232,-3.07815 -0.0654,-3.07815 -0.89543,0 -1.26151,-2.46668 -0.61748,-4.16061 0.66769,-1.75614 -0.20054,-3.79455 -1.61622,-3.79455 -1.32351,0 -5.59036,-4.86529 -7.38537,-8.42118 -1.12924,-2.23702 -2.41349,-3.79547 -3.98423,-4.83494 -1.61485,-1.06866 -2.31785,-1.93737 -2.31785,-2.8642 0,-0.73168 -1.15066,-3.96131 -2.55702,-7.17695 -1.40636,-3.21565 -2.55702,-6.25917 -2.55702,-6.76337 0,-1.91802 -2.96279,-6.34897 -6.94449,-10.38569 -2.27476,-2.30619 -4.56894,-4.85369 -5.09819,-5.66112 -1.0401,-1.58677 -2.16757,-1.88248 -10.53851,-2.76404 -2.57513,-0.2712 -5.39201,-0.91246 -6.25973,-1.42503 -1.48721,-0.87852 -1.75631,-0.86182 -4.69367,0.2912 -3.97124,1.55887 -5.571,3.07059 -6.29589,5.94942 -0.57988,2.30291 -5.6557,9.64516 -7.4165,10.7281 -1.26489,0.77794 -11.31499,-4.12403 -12.13265,-5.91774 -0.31653,-0.69437 -1.82829,-1.78006 -3.41292,-2.45103 -3.45126,-1.46134 -9.90441,-7.98598 -11.60378,-11.73234 -0.7886,-1.73849 -1.15673,-3.75906 -1.16527,-6.39578 -0.01,-2.9678 -0.33925,-4.49927 -1.43305,-6.65777 -0.78131,-1.54184 -1.42056,-3.14892 -1.42056,-3.57128 0,-1.54855 -3.61167,-5.44382 -5.91246,-6.37673 -2.418,-0.98044 -9.62827,-8.62349 -10.93158,-11.58773 -0.35727,-0.81258 -1.74414,-2.12213 -3.08193,-2.9101 -1.83051,-1.0782 -2.62396,-2.00756 -3.20681,-3.75609 -1.37625,-4.12876 -2.27507,-4.56542 -12.10648,-5.88157 -4.83905,-0.64782 -11.64513,-1.6344 -15.12463,-2.19243 l -6.32636,-1.01459 -0.68889,5.04102 c -0.68687,5.02628 -0.69329,5.04012 -2.19703,4.73717 -0.82948,-0.16711 -3.80946,-0.57636 -6.62218,-0.90945 -2.81272,-0.3331 -6.7761,-0.97037 -8.8075,-1.41618 -2.03141,-0.4458 -8.80751,-1.34773 -15.058,-2.0043 -6.25049,-0.65655 -14.04939,-1.75726 -17.3309,-2.44602 -5.88655,-1.23552 -6.16403,-1.36902 -20.74025,-9.97856 -8.12564,-4.79945 -17.45875,-10.40506 -20.74026,-12.4569 -3.2815,-2.05184 -10.569,-6.33049 -16.19444,-9.5081 -8.98456,-5.07507 -10.25052,-5.96575 -10.41272,-7.326 -0.10334,-0.8666 0.2227,-1.99862 0.74037,-2.57064 0.88347,-0.97622 0.64543,-1.04039 -5.30002,-1.42879 -10.3756,-0.6778 -36.466731,-4.51091 -37.057346,-5.44418 -0.28259,-0.44655 -0.517722,-3.55703 -0.522506,-6.91217 -0.0084,-5.89013 -0.07858,-6.23268 -2.037148,-9.94396 -1.11565,-2.11403 -2.865849,-4.73864 -3.889332,-5.83248 -1.023478,-1.09383 -2.432849,-2.94767 -3.131926,-4.11964 -0.878904,-1.47343 -1.673119,-2.13085 -2.574247,-2.13085 -3.204954,0 -4.854606,-0.68386 -4.854606,-2.01246 0,-0.7162 0.319628,-1.41008 0.710283,-1.54194 0.54277,-0.18321 0.487379,-0.7106 -0.234871,-2.23627 -0.818353,-1.72867 -1.283344,-2.04287 -3.466031,-2.34204 -3.954764,-0.54206 -5.991008,-1.99125 -7.815287,-5.5621 -2.258727,-4.42124 -4.343446,-6.76133 -6.023481,-6.76133 -0.762442,0 -2.922499,-0.77549 -4.800127,-1.72331 -1.877628,-0.94783 -4.733673,-1.97361 -6.346768,-2.27953 -3.197433,-0.60638 -5.549061,-2.36395 -5.549061,-4.14727 0,-0.62333 0.667118,-3.66253 1.482485,-6.7538 1.300441,-4.93033 1.378586,-5.70353 0.636379,-6.29665 -0.465359,-0.37187 -1.017843,-1.41257 -1.227744,-2.31266 -0.209901,-0.90008 -1.526627,-3.58495 -2.926058,-5.96637 -1.39943,-2.38142 -3.409317,-7.04979 -4.466414,-10.37416 -1.076793,-3.3863 -2.693628,-7.1095 -3.676696,-8.46659 -1.28769,-1.7776 -1.752637,-3.04234 -1.746943,-4.752 0.01166,-3.50162 0.463893,-4.56655 2.280737,-5.37076 1.20626,-0.53395 1.750935,-1.25659 2.0173,-2.67643 0.472554,-2.51893 0.05102,-3.52619 -1.571975,-3.75623 -0.847679,-0.12014 -2.06254,-1.29409 -3.426769,-3.31137 -1.998726,-2.95551 -2.114122,-3.37213 -2.124698,-7.67105 -0.0062,-2.5002 0.366178,-5.78966 0.827396,-7.30991 0.780363,-2.57221 0.763817,-2.86807 -0.238341,-4.2617 -0.592307,-0.82368 -1.881204,-2.26185 -2.864215,-3.19593 -1.73007,-1.64396 -1.775417,-1.80925 -1.416338,-5.16228 0.425707,-3.97519 -0.422121,-6.4806 -4.734104,-13.98973 -1.380732,-2.40448 -2.519926,-4.9615 -2.531542,-5.68226 -0.04017,-2.49265 1.404809,-10.40642 2.106831,-11.53854 0.387591,-0.62505 0.84007,-2.54282 1.005511,-4.2617 0.337391,-3.5054 -1.399652,-9.29883 -3.938238,-13.13489 l -1.395904,-2.10936 1.010202,-3.60033 c 0.823277,-2.93413 1.52961,-4.09833 3.817239,-6.29169 3.935382,-3.77321 7.759792,-12.19931 7.759792,-17.09669 0,-1.87515 0.430665,-4.77559 0.957033,-6.44541 0.939891,-2.98168 0.934636,-3.06636 -0.293313,-4.72725 -1.210749,-1.63763 -1.224403,-1.81299 -0.431165,-5.53728 0.450549,-2.11534 0.966939,-5.48982 1.147532,-7.49884 0.304232,-3.38444 0.682883,-4.20256 5.154955,-11.13792 5.673687,-8.79883 10.601373,-18.83474 14.124824,-28.767126 1.392309,-3.924834 3.117749,-8.259325 3.834313,-9.632211 0.716563,-1.37288 2.594236,-6.326601 4.172608,-11.008267 2.261514,-6.707966 3.146534,-8.648942 4.175578,-9.157629 l 1.305812,-0.645511 -1.478131,-1.756659 c -1.221397,-1.451547 -1.412544,-2.10627 -1.100518,-3.769516 0.298243,-1.589771 0.643741,-2.012855 1.643732,-2.012855 0.805344,0 1.506103,-0.526711 1.925551,-1.447303 0.842475,-1.849024 0.858533,-1.777444 -0.477015,-2.126697 -0.92839,-0.242779 -1.136452,-0.77507 -1.136452,-2.907404 0,-2.405412 0.111463,-2.610214 1.420565,-2.610214 1.396126,0 1.906672,-0.768953 0.916754,-1.380755 -0.947893,-0.585831 -1.455631,-4.585942 -1.483628,-11.688446 -0.01921,-4.873848 -0.28276,-7.674291 -0.839826,-8.923844 -0.723919,-1.623825 -0.690155,-2.331434 0.311808,-6.5346 1.467353,-6.155411 2.263983,-6.355014 6.880645,-1.723998 3.041766,3.051226 9.590919,6.949215 11.688719,6.957003 0.38982,0.0014 2.242976,0.634632 4.118123,1.407078 4.267583,1.757984 4.829922,1.764644 4.829922,0.0572 0,-1.414859 2.913176,-3.739814 4.685996,-3.739814 0.472117,0 1.163813,-0.737355 1.537109,-1.638566 0.60166,-1.452542 0.47615,-2.039854 -1.105586,-5.17325 -3.135552,-6.2114887 -2.138889,-6.5426182 9.787726,-3.251852 40.12481,11.071154 57.80096,15.418477 88.2278,21.698991 9.68826,1.999788 21.93703,4.540253 27.2195,5.645478 30.07362,6.292159 89.34012,14.885629 123.64455,17.928101 7.0318,0.623652 14.44715,1.391818 16.47856,1.707034 12.1683,1.888172 54.33465,3.912343 95.17788,4.568958 18.12642,0.291409 33.4046,0.537486 33.95152,0.546837 0.86016,0.0147 0.99439,-0.558276 0.99439,-4.244694 0,-4.094851 0.0523,-4.261696 1.33578,-4.261696 0.73467,0 2.13365,0.278145 3.10885,0.618099 1.43893,0.501614 1.83518,1.010274 2.10264,2.699074 0.62977,3.976478 2.05822,9.450391 2.65323,10.167333 0.32918,0.396633 1.72587,0.721147 3.10377,0.721147 1.70273,0 2.61005,0.273039 2.83235,0.852339 0.23479,0.611838 1.19175,0.85234 3.39153,0.85234 2.68563,0 3.06445,0.140482 3.06445,1.136452 0,1.660607 2.45188,1.474041 4.24925,-0.323326 1.34733,-1.347333 1.71044,-1.429106 4.71369,-1.061589 1.78966,0.219006 3.89317,0.843111 4.67448,1.386904 4.99597,3.477203 8.2616,4.357635 11.50658,3.102253 0.77818,-0.301052 0.9944,-0.0873 0.9944,0.983014 0,1.804703 1.00253,2.731457 2.95477,2.731457 1.18224,0 1.59104,0.276374 1.59104,1.075658 0,2.447657 4.67253,2.440253 7.28866,-0.01154 1.03978,-0.974474 2.7476,-1.965068 3.79515,-2.201331 1.73447,-0.391184 1.96466,-0.284658 2.57644,1.192332 0.55166,1.331808 0.85709,1.522738 1.7077,1.067504 0.56975,-0.304916 2.96147,-0.55439 5.31495,-0.55439 3.55498,0 4.37263,0.174837 4.83202,1.033205 0.46707,0.872728 1.09239,0.994186 4.02606,0.781982 l 3.47313,-0.251219 -0.386,1.632974 c -0.21229,0.898138 -0.5447,1.797282 -0.73875,1.998094 -0.19405,0.200811 -4.31619,2.086759 -9.16032,4.190991 -9.36449,4.067829 -11.60863,5.652787 -14.11834,9.971266 -1.43569,2.470404 -8.48832,9.601214 -9.53545,9.641134 -0.88279,0.0336 -3.22629,2.26996 -2.81245,2.6838 1.15836,1.15836 5.21742,0.10601 11.43919,-2.96571 6.47725,-3.19786 6.60342,-3.23351 7.82206,-2.20998 0.68124,0.57218 1.33201,1.09381 1.44614,1.15919 0.11414,0.0654 -0.58904,1.08525 -1.56262,2.26637 -2.29655,2.78611 -2.25138,3.42122 0.22277,3.13238 1.23515,-0.1442 2.53149,0.12022 3.40936,0.69542 1.24116,0.81324 1.41644,0.821 1.41644,0.0626 0,-0.47599 0.19178,-0.82484 0.42617,-0.77523 1.38451,0.29307 7.37598,-2.85305 7.6852,-4.0355 0.18806,-0.71916 1.07304,-1.11002 3.13161,-1.3831 3.88809,-0.51577 9.00172,-3.65029 10.75703,-6.593776 0.74892,-1.255916 1.59257,-2.283479 1.87481,-2.283479 0.28218,0 1.48227,-1.04965 2.66685,-2.332557 2.80284,-3.035544 6.80525,-5.054383 10.02044,-5.054383 4.00304,0 5.09853,2.90509 1.40171,3.717051 -1.06145,0.233127 -2.07397,1.006374 -2.65163,2.024976 -0.51396,0.90631 -1.38199,1.79226 -1.9289,1.968779 -0.54692,0.176519 -0.9944,0.627907 -0.9944,1.003084 0,0.375183 -0.63925,1.622885 -1.42056,2.772685 -1.92919,2.83903 -1.7881,3.13429 0.61993,1.2976 1.65433,-1.26184 2.27262,-1.44773 3.2673,-0.98235 0.67471,0.31571 2.37746,0.88309 3.78382,1.26085 2.73038,0.73342 4.54581,2.00188 4.54581,3.17623 0,0.39638 0.66198,1.50741 1.47108,2.46895 1.57711,1.87427 3.19178,2.18838 5.60271,1.0899 1.18271,-0.53888 1.63109,-0.48994 2.47042,0.26961 1.34925,1.22109 4.47688,0.41427 6.40834,-1.65314 2.12744,-2.27726 4.3542,-3.18156 9.15776,-3.71898 2.47769,-0.27721 5.8221,-1.11628 7.62207,-1.91233 1.764,-0.78012 3.81473,-1.4184 4.55712,-1.4184 1.25532,0 1.34988,0.21621 1.34988,3.08573 0,2.76331 0.13359,3.10613 1.27851,3.28106 1.77559,0.27128 7.8951,-1.24185 9.05087,-2.23796 0.56777,-0.48929 1.43011,-0.6707 2.13085,-0.44828 1.02525,0.32539 1.1772,0.83175 1.1772,3.92249 0,3.14653 0.18069,3.72197 1.5937,5.07574 1.88958,1.81032 2.38388,1.90164 2.38388,0.44037 0,-0.82823 0.55084,-1.17957 2.31722,-1.478 1.94851,-0.3292 2.53617,-0.18578 3.69348,0.90144 0.75693,0.71112 1.37624,1.85631 1.37624,2.54488 0,2.21867 -1.2468,2.67072 -6.0869,2.20692 -5.92921,-0.56815 -9.08468,-0.39682 -11.81808,0.64168 -2.04215,0.77587 -2.66163,0.77552 -5.96637,-0.003 -5.04898,-1.18997 -6.46108,-1.10858 -8.35054,0.48132 -0.99491,0.83715 -2.71919,1.51225 -4.44734,1.74124 -5.45565,0.7229 -5.72255,0.83833 -6.70575,2.90002 -1.0894,2.28461 -2.29859,2.94678 -3.52397,1.92982 -0.69636,-0.57794 -1.29299,-0.51611 -3.16484,0.32797 -1.79407,0.80901 -2.53469,0.89781 -3.33248,0.39957 -0.89689,-0.56011 -1.13418,-0.34153 -1.88805,1.7393 -0.47418,1.30896 -1.02559,3.10856 -1.22526,3.99912 -0.49282,2.19788 -4.68253,10.61079 -5.98513,12.01824 -0.91257,0.986 -3.98775,7.25158 -3.98775,8.12491 0,0.17186 0.63925,-0.28808 1.42056,-1.02209 0.78131,-0.734 1.42057,-1.62896 1.42057,-1.98879 0,-0.35983 0.62988,-1.24601 1.39977,-1.96928 0.76989,-0.72326 2.87943,-3.57401 4.68786,-6.33498 3.35805,-5.12674 4.54564,-6.21726 5.3648,-4.92624 0.93086,1.46702 0.41509,3.44838 -2.74334,10.53915 -2.99961,6.73411 -3.21946,7.52152 -3.16303,11.32822 0.0494,3.35071 -0.15473,4.36479 -1.12918,5.6036 -1.10651,1.40671 -1.14611,1.79446 -0.56613,5.54155 0.50214,3.24398 0.47197,4.3111 -0.15472,5.47681 -1.77054,3.2931 -2.37184,6.45459 -1.62638,8.55062 0.38906,1.09384 0.72176,2.91645 0.73943,4.05025 0.0176,1.1338 0.4156,2.97942 0.88439,4.10139 0.53345,1.27679 0.85234,3.86848 0.85234,6.92778 0,4.52749 0.12876,5.07499 1.74638,7.42618 0.96053,1.39608 2.19211,3.84948 2.73681,5.45199 0.92854,2.73169 1.15844,2.96267 3.68114,3.69825 2.60128,0.75849 2.74794,0.73647 4.40966,-0.66174 0.94536,-0.79549 1.95419,-1.44634 2.24182,-1.44634 1.22061,0 5.0721,-4.16364 5.0721,-5.48316 0,-0.75533 0.59869,-2.57941 1.33045,-4.05351 0.73176,-1.47411 1.64729,-4.8778 2.03453,-7.56377 0.87604,-6.077 0.47822,-7.77863 -3.69682,-15.81144 -3.05541,-5.87865 -3.54175,-7.84189 -2.57338,-10.3889 0.28968,-0.76187 0.29479,-2.65075 0.0119,-4.43973 -0.40963,-2.59117 -0.29252,-3.63835 0.69784,-6.23996 0.82535,-2.16817 1.18242,-4.38878 1.1652,-7.24589 -0.0222,-3.69835 0.0873,-4.11964 1.07094,-4.11964 0.87552,0 1.09571,-0.40371 1.09571,-2.00878 0,-2.47113 1.31397,-4.58868 3.13024,-5.04453 1.00929,-0.25331 1.4637,-0.86478 1.74093,-2.3424 0.38896,-2.07323 1.86066,-3.31612 3.53994,-2.98952 0.57379,0.11159 1.4325,-0.50697 2.11943,-1.52669 0.73295,-1.08803 1.73735,-1.78176 2.74942,-1.89896 1.35129,-0.15647 1.46119,-0.28654 0.72045,-0.85233 -0.48078,-0.36723 -0.95093,-1.67841 -1.04474,-2.91374 -0.16354,-2.15357 -0.0381,-2.3379 3.04904,-4.47639 l 3.21963,-2.23032 1.85685,1.32219 c 1.26419,0.90016 2.50366,1.27732 3.8832,1.18159 1.42812,-0.0991 2.78124,0.34009 4.58337,1.48757 3.15309,2.00771 5.84261,2.97262 8.28576,2.97262 1.41437,0 1.96021,0.29777 2.25637,1.23081 0.21485,0.67695 1.14162,1.91673 2.05953,2.75508 1.32431,1.20962 1.59274,1.82747 1.30022,2.99306 -0.239,0.95204 -0.65022,1.36075 -1.1689,1.16171 -1.32374,-0.50797 -0.90655,0.71696 0.90445,2.65564 1.6424,1.75819 1.70468,2.01896 1.70468,7.13709 0,4.84043 -0.12035,5.43259 -1.35522,6.66744 -0.75932,0.75932 -1.53348,2.4105 -1.76071,3.7552 -0.33679,1.99346 -0.73284,2.55611 -2.33825,3.32167 -1.68388,0.80298 -1.93276,1.19241 -1.93276,3.02398 0,1.60175 0.33019,2.31866 1.38669,3.01091 1.3442,0.88077 1.43972,0.84426 3.1182,-1.19202 0.95235,-1.15533 2.07522,-3.13293 2.49531,-4.39466 0.62545,-1.87833 1.33556,-2.6158 3.91866,-4.06961 l 3.15485,-1.77558 1.72144,1.08994 c 2.50173,1.58397 3.5646,3.50758 5.2845,9.56404 0.84308,2.96898 2.19301,7.18806 2.99973,9.37573 1.12139,3.04082 1.46966,5.06014 1.4788,8.57424 0.0114,4.27465 -0.0812,4.63913 -1.31885,5.20303 -0.74892,0.34122 -1.66632,0.39901 -2.09812,0.13214 -1.06127,-0.65587 -2.21278,0.99993 -2.23523,3.21408 -0.0125,1.24278 -0.43208,2.05264 -1.38732,2.67855 -1.1843,0.77599 -1.32715,1.21081 -1.05776,3.21943 0.26105,1.94635 0.0793,2.57054 -1.12292,3.85605 -1.35653,1.45055 -3.56506,5.22977 -3.1686,5.42212 0.10114,0.0491 1.3601,0.70217 2.7976,1.45129 2.04175,1.06401 3.1832,1.29783 5.21666,1.06863 2.26392,-0.25518 2.86227,-0.0797 4.59291,1.34682 l 1.98987,1.64022 3.12513,-1.38208 c 1.71883,-0.76015 4.51996,-1.67164 6.22464,-2.02554 2.72271,-0.56523 3.52794,-1.08964 6.62392,-4.31374 3.07388,-3.20117 13.16239,-10.48144 14.52438,-10.48144 0.89188,0 5.05477,-3.04508 8.51401,-6.22787 1.88174,-1.73132 4.89868,-4.42637 6.70433,-5.98899 1.80566,-1.56262 3.68404,-3.60824 4.17414,-4.54581 0.49015,-0.93757 1.36362,-2.22296 1.94111,-2.85642 1.31346,-1.4408 0.86172,-3.57708 -0.89791,-4.24609 -0.87223,-0.33161 -1.46182,-1.26473 -1.90089,-3.00848 -0.35008,-1.39028 -0.78966,-2.92697 -0.97689,-3.41487 -1.15299,-3.00455 18.54088,-7.77032 22.76587,-5.50917 1.12509,0.60214 1.71042,0.53397 3.79001,-0.44143 1.35272,-0.63444 3.69245,-1.32462 5.1995,-1.53373 2.88363,-0.40013 3.41896,-0.81218 6.10911,-4.70204 1.11844,-1.6172 2.0913,-2.41784 2.94512,-2.42366 0.70119,-0.005 1.65848,-0.25562 2.12726,-0.5574 0.74966,-0.4826 0.73256,-0.76093 -0.14205,-2.31026 -1.09963,-1.94801 -1.30442,-4.2519 -0.42617,-4.7947 1.02161,-0.6314 0.59709,-1.42056 -0.76427,-1.42056 -1.75241,0 -3.21332,-1.67889 -3.21332,-3.69272 0,-1.19698 0.91832,-2.59524 3.55142,-5.40744 1.95328,-2.08615 4.69304,-5.68644 6.08837,-8.00066 1.39534,-2.31421 3.79922,-5.55176 5.34201,-7.19456 2.29279,-2.4414 3.47487,-3.19377 6.47249,-4.11964 2.01704,-0.62301 4.67213,-1.13274 5.90024,-1.13274 1.22805,0 5.35627,-0.92368 9.17378,-2.05264 3.81757,-1.12895 11.79933,-3.31455 17.73729,-4.85689 5.93797,-1.54233 11.75518,-3.05767 12.92715,-3.36741 2.08863,-0.55201 2.13085,-0.617244 2.13085,-3.294316 0,-3.072729 1.47284,-5.184763 2.73527,-3.922346 0.43929,0.439335 0.67408,0.461928 0.67408,0.06487 0,-0.335089 0.99042,-0.767623 2.20091,-0.961189 1.9039,-0.304444 2.24899,-0.592245 2.55702,-2.132445 0.19587,-0.979275 0.3569,-2.323868 0.35787,-2.987982 0,-0.664115 0.89592,-2.982733 1.98879,-5.152487 2.19762,-4.363051 2.39735,-5.519249 1.13469,-6.567177 -1.14889,-0.953495 -1.13594,-7.248332 0.0182,-8.774054 0.54941,-0.726369 0.83569,-2.472613 0.83847,-5.114035 0.006,-3.138542 0.48186,-5.437246 2.20012,-10.567638 2.92659,-8.738351 4.28453,-11.344943 5.90443,-11.333818 1.75696,0.01207 2.45002,0.588133 2.895,2.40626 0.36622,1.496466 2.27063,2.24901 2.7284,1.078159 0.10415,-0.266455 1.6545,-1.671539 3.44515,-3.122409 l 3.25582,-2.637946 2.55952,0.868978 c 1.40773,0.477938 3.62648,1.322132 4.93061,1.875986 l 2.3711,1.007009 3.25508,10.76421 c 1.79026,5.920315 3.80661,12.618048 4.48069,14.883849 l 1.22561,4.11964 h 3.04041 c 3.42936,0 3.73018,0.338265 3.73018,4.194526 0,3.166139 0.65306,3.748451 3.48925,3.111202 1.24617,-0.280004 2.48127,-0.375938 2.74458,-0.213198 1.27044,0.785175 3.99424,5.786196 3.99424,7.3336 0,2.857104 -1.65428,6.462385 -3.13587,6.834243 -0.72188,0.181174 -3.08013,2.247801 -5.24064,4.592512 -2.16051,2.344705 -4.13595,4.263106 -4.38989,4.263106 -0.70562,0 -1.96913,1.8703 -1.98941,2.94489 -0.0233,1.23045 -2.10125,1.89752 -3.16389,1.01564 -0.87154,-0.72334 -1.11185,-0.40842 -1.53057,2.00584 -0.11751,0.67782 -0.60272,1.10242 -1.2022,1.05212 -0.80898,-0.0679 -0.93888,0.21715 -0.66567,1.46101 0.28439,1.29474 0.0848,1.66137 -1.23084,2.26079 -0.90325,0.41157 -1.64575,0.48896 -1.74798,0.1822 -0.0978,-0.29329 -0.57294,-1.017 -1.05599,-1.60824 -0.83023,-1.01625 -0.86007,-1.01784 -0.54578,-0.029 0.44094,1.38725 -1.62013,4.22679 -3.23451,4.45623 -0.87359,0.12416 -1.3192,0.62891 -1.4354,1.62608 -0.23059,1.97794 -6.56176,5.59459 -8.10575,4.63034 -0.8212,-0.51284 -1.17048,-0.37334 -1.91662,0.76538 -0.55044,0.84006 -0.77603,1.93586 -0.56868,2.76207 0.19848,0.79084 -0.009,1.93241 -0.4897,2.70158 -0.45845,0.73262 -0.99513,3.2057 -1.19271,5.49574 -0.19757,2.29004 -0.84353,5.59832 -1.43551,7.35173 l -1.07627,3.18803 1.36846,2.01384 c 1.67183,2.46032 1.6799,2.78328 0.14807,5.93624 -1.54506,3.18025 -1.14991,4.33719 1.48143,4.33719 1.84844,0 2.22778,0.32567 4.96413,4.2617 1.62951,2.34393 3.27304,4.26169 3.65222,4.26169 0.37924,0 1.06213,0.14299 1.51751,0.31775 0.45543,0.17476 1.48079,-0.27272 2.27864,-0.9944 1.19271,-1.07886 1.35579,-1.55095 0.91746,-2.65544 -0.40469,-1.01965 -0.83268,-1.26497 -1.77639,-1.01818 -1.49057,0.38979 -2.723,-0.50174 -2.723,-1.96979 0,-0.76873 0.43668,-1.08569 1.56262,-1.1342 2.51014,-0.10815 3.19156,0.0955 4.5561,1.36171 1.13941,1.05731 2.9729,5.70756 2.9729,7.54012 0,0.37018 -1.53716,1.23355 -3.41595,1.91858 -3.55044,1.29456 -7.31398,3.96912 -5.63265,4.00284 0.49242,0.01 1.48915,0.65007 2.215,1.42265 l 1.31959,1.40469 -2.68822,1.15233 c -3.02086,1.29487 -4.06486,1.42227 -4.59712,0.56098 -0.20104,-0.32524 -0.85535,-0.43586 -1.45415,-0.24582 -0.83302,0.2644 -1.08861,0.0697 -1.08861,-0.82923 0,-0.64611 -0.10188,-1.17474 -0.22643,-1.17474 -0.71551,0 -7.1009,3.69402 -8.29696,4.79992 -0.78131,0.72242 -2.44337,1.63516 -3.69347,2.02834 -1.2501,0.39316 -3.71409,1.43581 -5.47554,2.31698 -1.76144,0.88116 -4.44631,1.9008 -5.96637,2.26583 -1.52007,0.36504 -3.34629,1.02594 -4.05827,1.46865 -0.71205,0.44271 -1.50154,0.67705 -1.7544,0.52074 -0.25292,-0.1563 -1.43477,0.71422 -2.62634,1.93449 -1.19157,1.22029 -3.40612,3.06353 -4.92118,4.09611 -1.51507,1.03258 -2.75516,2.09192 -2.75579,2.3541 -5.7e-4,0.26218 0.77455,-0.17595 1.72247,-0.97361 1.4746,-1.24078 1.92509,-1.35847 3.11848,-0.81473 1.95504,0.89077 8.2203,-1.81861 11.69546,-5.05765 2.89011,-2.69373 3.26764,-2.77767 6.30413,-1.40166 l 2.1013,0.95225 -1.98061,2.14579 c -1.08935,1.18018 -4.55996,4.09395 -7.71254,6.47505 -4.97453,3.75721 -6.50869,4.58114 -11.61068,6.23554 -3.23332,1.04847 -6.23014,1.90629 -6.65966,1.90629 -0.42947,0 -1.268,0.54862 -1.86333,1.21914 -1.07912,1.21539 -1.07838,1.21699 0.24468,0.52219 1.51631,-0.79625 1.36948,-0.87976 2.55525,1.45349 0.65937,1.29736 0.94513,3.81734 1.06327,9.37573 l 0.1616,7.60148 -2.12084,4.44881 c -1.16646,2.44684 -2.60407,5.13171 -3.19463,5.96637 -0.59061,0.83466 -1.25402,2.59677 -1.47432,3.9158 -0.80125,4.79796 -4.50046,7.21955 -4.96397,3.24954 -0.12989,-1.11281 -0.0261,-2.15329 0.23122,-2.31217 0.85756,-0.52999 -0.16723,-1.34656 -1.71548,-1.36695 -0.84103,-0.0111 -2.16835,-0.38556 -2.94966,-0.8322 -2.56799,-1.46799 -2.865,-1.01592 -1.4,2.13085 0.76393,1.64075 1.39142,3.26177 1.39443,3.60226 0.006,0.66691 2.64259,2.15747 3.8957,2.20238 0.90303,0.0323 3.478,7.68536 3.48919,10.36995 0.006,1.00478 -0.35264,2.92254 -0.7929,4.26169 -0.44032,1.33915 -0.97309,3.32978 -1.18395,4.42361 -0.21082,1.09384 -1.12913,3.0534 -2.04056,4.35459 -1.47154,2.10067 -1.65723,2.84113 -1.65723,6.60726 0,4.64778 -1.02684,7.89152 -3.02689,9.56176 -0.67914,0.56715 -1.40602,1.03968 -1.61529,1.05008 -0.20928,0.0104 -0.78717,-1.20538 -1.28419,-2.70173 -1.04611,-3.14965 -0.78597,-6.64624 0.86535,-11.62934 0.5959,-1.79825 1.08343,-3.51443 1.08343,-3.81371 0,-0.29929 -1.15065,-1.72809 -2.55701,-3.17513 -1.40636,-1.44704 -2.55424,-2.54359 -2.55088,-2.43678 0.006,0.10682 0.38235,1.43418 0.84216,2.9497 0.60931,2.00837 0.67426,3.0577 0.23945,3.87006 -1.07463,2.00805 -2.52605,0.36235 -3.96406,-4.4947 -0.48151,-1.62654 -1.03366,-2.41496 -1.69115,-2.41496 -0.53692,0 -1.37749,-0.57533 -1.86804,-1.27851 -0.6479,-0.92879 -0.89996,-1.03759 -0.92161,-0.39776 -0.0165,0.48441 0.25832,1.16887 0.61045,1.52102 0.92473,0.92475 0.10512,3.53569 -1.26959,4.04422 -1.0423,0.38557 -0.93689,0.53969 1.01138,1.47917 1.19623,0.57682 2.5585,1.23391 3.02729,1.46019 0.56146,0.27101 0.85722,1.26068 0.86671,2.89997 0.008,1.36871 0.2569,2.87211 0.55323,3.3409 0.29633,0.46879 0.56021,1.10804 0.58629,1.42056 0.0261,0.31253 0.25201,1.01571 0.50197,1.56263 0.66596,1.45702 -0.0153,2.69907 -1.48034,2.69907 h -1.28073 l 1.26289,0.88456 c 0.6946,0.48651 1.26288,1.14935 1.26288,1.47299 0,0.32365 0.5114,1.23859 1.13645,2.03321 1.40153,1.78175 1.46438,3.86657 0.14206,4.71172 -0.84734,0.54158 -0.78432,0.58772 0.42617,0.31204 5.37746,-1.22463 5.19432,-1.29425 7.67105,2.91608 1.2501,2.12511 2.71135,4.93842 3.24719,6.25179 1.74468,4.2761 4.4991,8.67175 6.43271,10.2656 2.86165,2.35879 4.7976,7.00608 4.8043,11.53288 0.006,3.68126 -0.0199,3.74233 -1.91702,4.64711 -1.05742,0.50425 -2.81716,1.70227 -3.91054,2.66226 -1.88475,1.65484 -4.39494,2.35316 -4.39494,1.22266 0,-0.61043 6.26003,-6.29594 6.93213,-6.29594 0.80643,0 0.48339,-5.58786 -0.45924,-7.94367 -1.16611,-2.91437 -1.92708,-2.9141 -1.92708,5.7e-4 0,1.86318 -0.25281,2.40028 -1.36926,2.90897 -0.82699,0.3768 -1.74815,1.61586 -2.3258,3.1285 -0.7279,1.90599 -1.49484,2.77924 -3.20889,3.65366 -1.27584,0.65092 -2.72942,0.99763 -3.35288,0.79975 -0.77574,-0.24621 -1.01434,-0.12471 -0.80853,0.41171 0.16064,0.41855 -0.0645,1.9457 -0.50026,3.39365 l -0.79234,2.63264 2.24387,0.21398 c 1.23413,0.1177 2.35212,0.0388 2.48446,-0.1753 0.13234,-0.2141 1.03389,-0.66581 2.00339,-1.0038 2.14682,-0.74838 2.09062,-0.51555 -1.32146,5.4746 l -2.34661,4.11964 h -2.47457 c -2.96085,0 -7.18715,1.99167 -11.28241,5.31692 -4.37046,3.54864 -6.34822,6.54551 -7.73214,11.71614 -1.12599,4.20685 -1.33414,4.56022 -2.6914,4.5684 -0.8091,0.005 -2.97001,0.36153 -4.80202,0.79254 -2.75539,0.64825 -3.85349,1.29975 -6.35539,3.77057 -3.3281,3.28676 -5.06533,7.06803 -5.73124,12.4748 -0.25473,2.06841 -0.73937,3.37633 -1.43324,3.86775 -0.57657,0.40838 -1.04832,1.12486 -1.04832,1.59218 0,0.46732 -0.73187,1.10481 -1.62637,1.41663 -0.8945,0.31182 -1.88685,1.13875 -2.20529,1.83763 -1.50682,3.30707 -10.62679,12.28907 -12.49063,12.30165 -1.09327,0.007 -1.21936,0.23328 -0.93201,1.66996 0.29298,1.46501 -0.0898,2.08639 -3.23758,5.25609 -1.96339,1.97706 -3.51078,3.93034 -3.43862,4.3406 0.0722,0.41027 -0.57675,1.94448 -1.44204,3.40936 -0.8653,1.46488 -1.61814,3.55837 -1.67309,4.65221 -0.0551,1.09383 -0.85893,4.95522 -1.78673,8.58086 -1.46824,5.73762 -1.62308,7.05862 -1.19464,10.19152 1.7236,12.60306 10.59776,30.73656 19.87661,40.61591 5.42179,5.77263 6.07337,6.97698 4.82344,8.915 -0.76358,1.18385 -0.71289,1.61762 0.54834,4.69332 0.76432,1.86391 2.01056,4.03738 2.76937,4.82993 0.75881,0.79255 2.10562,2.84736 2.99284,4.56624 0.88729,1.71889 3.24707,5.93051 5.24399,9.35915 4.12743,7.08666 4.3163,7.77535 5.22541,19.05216 0.93627,11.61308 0.90882,12.44395 -0.44691,13.55016 -0.69755,0.56918 -1.19629,1.72366 -1.26516,2.9284 -0.11233,1.96642 -0.10347,1.97441 0.78723,0.71028 2.53934,-3.60399 2.67202,1.33275 0.19507,7.25565 -0.97781,2.33801 -2.25927,4.93383 -2.84773,5.7685 -0.94927,1.34633 -10.75953,9.56284 -11.41776,9.56284 -0.14257,0 -0.72341,-0.51297 -1.29078,-1.13994 z M 457.8849,555.75789 c -0.54863,-1.52566 -1.07342,-2.69799 -1.16623,-2.60519 -0.13104,0.13104 1.13742,7.48873 1.61593,9.37323 0.0526,0.2069 0.19728,-0.60714 0.32165,-1.80897 0.12662,-1.22362 -0.21279,-3.40577 -0.77135,-4.95907 z m -2.6533,-10.3221 c -0.13591,-0.70683 -0.25228,-0.26233 -0.25859,0.98777 -0.006,1.25009 0.1049,1.82841 0.24713,1.28513 0.14222,-0.54327 0.14738,-1.56608 0.0115,-2.2729 z m 5.47653,-18.77498 0.98864,-1.57951 -1.58679,0.34846 c -3.28403,0.72118 -3.37928,0.82045 -1.87569,1.95461 0.77461,0.58429 1.42566,1.0159 1.44679,0.95915 0.0211,-0.0568 0.48329,-0.81398 1.02705,-1.68271 z m 100.05598,-42.39363 c 0.51301,-0.83008 -1.06479,-1.7453 -2.40474,-1.3949 -0.68692,0.17964 -1.24894,0.53118 -1.24894,0.78121 0,0.96313 3.11441,1.48624 3.65368,0.61369 z M 813.94866,257.21429 c 0,-1.51851 -0.19564,-1.89587 -0.85234,-1.64388 -0.68216,0.26176 -0.85234,-0.19923 -0.85234,-2.30857 0,-1.81861 0.26422,-2.73704 0.85234,-2.96272 0.55208,-0.21186 0.85234,-1.09279 0.85234,-2.50089 0,-1.67477 -0.26088,-2.25663 -1.13646,-2.53452 -1.25089,-0.39702 -1.43681,-1.69299 -0.56993,-3.97306 0.82626,-2.17331 -0.41384,-1.21844 -1.34209,1.03337 -0.52726,1.27911 -0.5726,2.08082 -0.15592,2.75824 0.41065,0.66759 0.37304,2.0356 -0.1249,4.5458 -0.62124,3.13205 -0.59169,3.88121 0.23138,5.86372 1.72474,4.1542 3.09792,4.91773 3.09792,1.72251 z m -77.45883,-34.50205 c -0.18138,-0.45329 -0.31605,-0.31865 -0.34333,0.3433 -0.0244,0.59901 0.10967,0.93462 0.29849,0.7458 0.18882,-0.18882 0.209,-0.67892 0.0449,-1.0891 z m 151.83668,-50.67767 c 0.65544,-0.78978 0.30587,-2.62904 -0.49965,-2.62904 -0.835,0 -1.839,1.69448 -1.5108,2.54978 0.41026,1.06901 1.16436,1.09874 2.01045,0.0793 z M 646.32194,140.69012 c 0,-1.39537 -0.20434,-2.53703 -0.45407,-2.53703 -0.58789,0 -1.81884,3.40577 -1.81884,5.03231 0,1.08208 0.15905,1.17304 1.13645,0.64995 0.87593,-0.46879 1.13646,-1.18976 1.13646,-3.14523 z m 255.19935,-35.30293 c -0.73949,-0.54358 -0.99332,-0.48963 -1.30437,0.27722 -0.80642,1.98795 -0.51237,2.46064 0.8782,1.41172 1.20651,-0.91007 1.25021,-1.08321 0.42617,-1.68894 z M 99.259214,26.496656 c 0.210993,-1.103733 0.03568,-1.420565 -0.786096,-1.420565 -1.19811,0 -1.396296,1.13875 -0.375785,2.159259 0.885393,0.885394 0.846714,0.909986 1.161881,-0.738694 z M 87.573222,569.68466 c -1.014636,-1.39341 -1.009113,-1.44237 0.284113,-2.52025 1.75279,-1.46093 1.961477,-1.41971 2.638019,0.52101 0.470286,1.34907 0.392883,1.8256 -0.415328,2.55702 -1.260945,1.14114 -1.271406,1.13881 -2.506804,-0.55778 z m 9.654066,-7.33601 c -0.889984,-0.88998 -1.844042,-6.12791 -1.28185,-7.03756 0.183747,-0.29731 1.548558,-1.24589 3.032907,-2.10795 1.484345,-0.86205 4.105175,-2.63482 5.824055,-3.93947 1.71889,-1.30466 3.8597,-2.84693 4.75737,-3.42728 l 1.63213,-1.05518 -0.39877,1.81557 c -0.31714,1.44393 -0.21505,1.81557 0.49872,1.81557 0.49363,0 0.89749,0.36264 0.89749,0.80586 0,1.43845 -0.67109,2.6035 -1.49967,2.6035 -1.37859,0 -1.88704,2.37096 -0.87971,4.10215 0.49449,0.84983 0.78467,1.64617 0.64483,1.76966 -0.13983,0.12348 -2.29451,1.40986 -4.78817,2.85861 -4.70817,2.73533 -7.010431,3.22542 -8.439332,1.79652 z M 315.77634,543.44319 c -1.65044,-1.30775 -5.84429,-6.96735 -5.84429,-7.88687 0,-0.39491 0.61936,-1.43547 1.37637,-2.31234 l 1.37636,-1.5943 1.85327,1.08818 c 1.01929,0.59851 3.14873,1.49632 4.73206,1.99515 1.58334,0.49882 3.96553,1.52651 5.29376,2.28375 1.90237,1.08455 2.41496,1.70156 2.41496,2.90686 0,1.28572 -0.43104,1.71305 -2.69907,2.67585 -4.12448,1.75088 -6.99863,2.03606 -8.50342,0.84372 z m -11.70543,-3.85763 c -0.52666,-1.10443 -0.95758,-2.65335 -0.95758,-3.44202 0,-1.33085 0.16958,-1.4214 2.35816,-1.25923 2.93748,0.21765 4.9688,2.42502 3.9623,4.30569 -0.45978,0.85911 -3.23008,2.40363 -4.31121,2.40363 -0.0518,0 -0.52499,-0.90363 -1.05167,-2.00807 z m -3.51459,-6.39523 c -3.5872,-1.14607 -3.45177,-1.00524 -2.56327,-2.66543 0.73721,-1.3775 0.86202,-1.40067 5.91987,-1.09928 6.88546,0.4103 7.72381,0.61494 7.72381,1.88542 0,2.73551 -5.48739,3.66619 -11.08041,1.87929 z m -14.23044,-4.13776 c -0.22937,-0.37115 -1.22575,-0.46475 -2.55552,-0.24009 -2.14196,0.36189 -2.21535,0.31432 -4.2553,-2.75808 -2.65729,-4.00216 -2.37308,-4.97942 2.10568,-7.24029 1.8834,-0.95073 3.49958,-1.64794 3.59151,-1.54935 0.0919,0.0986 1.07875,1.84414 2.19291,3.87899 1.19044,2.17416 2.73334,4.1177 3.74178,4.71341 1.48108,0.87488 1.62417,1.1608 1.04506,2.0881 -1.01498,1.62526 -5.07264,2.39118 -5.86612,1.10731 z M 48.379219,518.41446 c -1.541558,-1.5787 -2.104112,-2.64214 -2.104112,-3.97758 0,-2.11031 -0.03776,-2.10344 5.118231,-0.93074 4.476784,1.01823 5.033419,1.7697 3.690894,4.98282 -0.750458,1.79609 -1.124123,2.08031 -2.735055,2.08031 -1.411054,0 -2.378714,-0.52522 -3.969958,-2.15481 z m 189.494721,-3.66951 c 1.06286,-1.93249 1.68125,-2.44945 3.09528,-2.58761 2.28332,-0.22309 2.70744,0.87788 1.23439,3.20438 -0.96647,1.52645 -1.48001,1.79819 -3.39821,1.79819 h -2.25968 z m 12.01518,-0.12189 -2.93619,-1.33493 0.59639,-2.34958 c 0.48288,-1.90243 0.97378,-2.50727 2.57941,-3.17814 2.73838,-1.14417 7.29968,-1.10282 7.74983,0.0703 0.61905,1.61321 0.36342,4.80406 -0.52202,6.51634 -1.09102,2.10979 -3.25792,2.18989 -7.46742,0.27606 z M 25.865309,503.31336 c -1.536928,-2.48681 -1.583726,-4.90491 -0.09492,-4.90491 1.517274,0 4.297657,4.95457 3.392457,6.04527 -1.035856,1.24813 -2.034885,0.90265 -3.297533,-1.14036 z m 20.978024,-18.97015 c -1.194996,-2.26911 -1.713806,-2.72571 -3.2673,-2.87549 -1.660607,-0.16011 -1.846451,-0.36056 -1.843913,-1.98879 0.0016,-1.02697 0.561323,-2.50865 1.293139,-3.42315 l 1.290315,-1.61243 1.405936,2.15921 c 0.788207,1.21051 2.030093,2.30357 2.826502,2.48778 1.482048,0.34281 3.151896,3.11487 3.785891,6.28484 0.323337,1.61669 0.265064,1.6687 -1.868128,1.66711 -2.047714,-0.002 -2.301336,-0.19051 -3.622442,-2.69908 z M 76.412306,369.15959 c -0.7195,-0.76588 -1.157665,-2.00191 -1.157665,-3.26571 0,-3.16815 1.265611,-3.01342 3.31006,0.40467 0.992185,1.65883 1.803976,3.13806 1.803976,3.28718 0,0.14913 -0.629708,0.39151 -1.399354,0.53863 -0.947983,0.18123 -1.772757,-0.12997 -2.557017,-0.96477 z m 2.460845,-10.85934 c -3.747758,-3.97378 -1.366141,-6.8208 2.524106,-3.01736 1.834195,1.79327 2.091794,2.52128 1.467643,4.1478 -0.552884,1.44079 -1.936253,1.04903 -3.991749,-1.13044 z M 53.459532,339.37861 c -0.58017,-0.22818 -1.404264,-1.24587 -1.83132,-2.26154 l -0.776465,-1.84667 3.013087,0.1219 c 1.657198,0.067 3.337107,-0.0784 3.73313,-0.32311 0.878327,-0.54284 8.652736,3.11731 8.380261,3.94538 -0.294932,0.89631 -6.578525,1.0432 -7.626604,0.1783 -0.709193,-0.58525 -0.946813,-0.59148 -1.135862,-0.0298 -0.259738,0.77172 -2.076948,0.876 -3.756227,0.21553 z M 897.16651,174.54967 c 0.58067,-0.64161 1.36983,-1.16656 1.75378,-1.16656 0.38389,0 0.83171,-0.5114 0.99513,-1.13645 0.16348,-0.62505 0.528,-1.13646 0.81006,-1.13646 1.08208,0 2.41951,1.48088 2.56589,2.84113 0.14739,1.36917 0.0204,1.4268 -3.5138,1.59273 -3.66625,0.17215 -3.66659,0.17201 -2.61106,-0.99439 z M 582.70316,84.482893 c -0.54458,-0.656199 -0.47157,-1.117962 0.35657,-2.255045 0.57283,-0.786436 1.31868,-1.437919 1.65751,-1.447743 0.33884,-0.0098 2.09352,-1.052787 3.89923,-2.317704 5.95506,-4.171552 9.13003,-3.506035 4.78469,1.002936 -4.70406,4.881154 -9.10009,6.942956 -10.698,5.017556 z M 91.751247,19.850524 c -1.002459,-1.076015 -2.277854,-4.285059 -2.287781,-5.756322 -0.0017,-0.258338 0.878069,-0.393782 1.955142,-0.300987 1.077072,0.0928 2.142496,-0.01546 2.36761,-0.240577 0.225115,-0.225112 1.092739,-0.409295 1.92806,-0.409295 1.893631,0 3.263283,2.348721 1.987229,3.407752 -0.432693,0.359106 -0.654381,0.997797 -0.492629,1.419313 0.161751,0.421516 0.0097,1.297777 -0.337879,1.947246 -0.856703,1.600761 -3.599378,1.5648 -5.119752,-0.06713 z"
     id="path41404"
     inkscape:label="OUTLINE" /></svg>
