<?xml version="1.0" encoding="UTF-8" standalone="no"?>
<svg
   viewBox="0 0 36 51.946667"
   height="51.946667"
   width="36"
   xml:space="preserve"
   id="svg2"
   version="1.1"
   sodipodi:docname="nyuad.svg"
   inkscape:version="1.2.2 (b0a84865, 2022-12-01)"
   xmlns:inkscape="http://www.inkscape.org/namespaces/inkscape"
   xmlns:sodipodi="http://sodipodi.sourceforge.net/DTD/sodipodi-0.dtd"
   xmlns="http://www.w3.org/2000/svg"
   xmlns:svg="http://www.w3.org/2000/svg"
   xmlns:rdf="http://www.w3.org/1999/02/22-rdf-syntax-ns#"
   xmlns:cc="http://creativecommons.org/ns#"
   xmlns:dc="http://purl.org/dc/elements/1.1/"><sodipodi:namedview
     id="namedview1055"
     pagecolor="#ffffff"
     bordercolor="#000000"
     borderopacity="0.25"
     inkscape:showpageshadow="2"
     inkscape:pageopacity="0.0"
     inkscape:pagecheckerboard="0"
     inkscape:deskcolor="#d1d1d1"
     showgrid="false"
     inkscape:zoom="8.0811023"
     inkscape:cx="2.5986554"
     inkscape:cy="29.451428"
     inkscape:window-width="1309"
     inkscape:window-height="782"
     inkscape:window-x="0"
     inkscape:window-y="0"
     inkscape:window-maximized="0"
     inkscape:current-layer="svg2" /><metadata
     id="metadata8"><rdf:RDF><cc:Work
         rdf:about=""><dc:format>image/svg+xml</dc:format><dc:type
           rdf:resource="http://purl.org/dc/dcmitype/StillImage" /></cc:Work></rdf:RDF></metadata><defs
     id="defs6"><clipPath
       id="clipPath20"
       clipPathUnits="userSpaceOnUse"><path
         id="path18"
         d="M 0,389.566 V 0 h 270 v 389.566 z" /></clipPath></defs><path
     id="path24"
     style="display:none;fill:#f5f5f7;fill-opacity:1;fill-rule:nonzero;stroke:none"
     d="m 118.977,248.734 c -27.6879,16.524 -24.9145,40.094 -13.45,57.422 0.254,0.383 0.325,0.969 0.254,1.672 -0.469,4.129 -4.969,14.555 -6.8474,17.371 -0.4961,0.746 -0.9063,0.688 -0.9375,0.172 -0.1445,-4.719 -5.5352,-16.535 -13.7383,-30.117 -8.7305,-14.527 -8.7617,-45.938 34.5972,-47.164 0.403,-0.028 0.52,0.383 0.122,0.644 z m 7.402,1.227 c -16.555,35.336 16.531,58.16 21.941,63.109 0.762,0.7 0.559,1.348 0.567,2.133 0,11.109 -6.36,29.141 -8.438,31.707 -0.304,0.402 -0.554,0.227 -0.676,-0.164 -2.839,-11 -17.898,-27.324 -20.918,-30.922 -25.5542,-30.351 -19.6948,-48.844 6.965,-66.297 0.332,-0.207 0.762,0.024 0.559,0.434 z m 5.391,1.492 c 7.82,37.5 38.328,38.414 41.05,45.527 4.27,11.082 -3.523,30.77 -5.515,33.114 -0.196,0.234 -0.457,0.086 -0.559,-0.125 -4.18,-9.106 -10.867,-17.735 -15.777,-21.703 -6.899,-5.571 -33.403,-25.223 -19.848,-56.836 0.18,-0.379 0.539,-0.297 0.649,0.023 z m 5.425,-3.262 c 49.387,-1.777 52.903,43.243 53.11,60.098 0,0.973 -0.469,1.055 -0.735,0.383 -1.433,-3.516 -7.871,-16.078 -25.691,-23.695 -15.899,-6.844 -25.481,-22.332 -27.133,-36.247 -0.074,-0.347 0.207,-0.523 0.449,-0.539 z m 11.223,-16.859 v 11.34 h -38.965 v -11.34 z m -22.773,-80.219 c 0.324,-1.875 4.406,-2.812 5.339,0 l 9.438,74.813 H 117.473 Z M 269.98,119.57 H 0 V 389.566 H 269.98 V 119.57"
     transform="matrix(0.13333333,0,0,-0.13333333,0,51.946667)"
     inkscape:label="logo" /><path
     id="path4157"
     style="display:inline;fill:#f5f5f7;fill-opacity:1;fill-rule:nonzero;stroke:none;stroke-width:0.133333"
     d="M -14.832293 13.549346 C -14.847726 13.554996 -14.861272 13.574058 -14.869402 13.600128 C -15.247936 15.066793 -17.255798 17.243442 -17.658465 17.723174 C -21.065688 21.76997 -20.283414 24.235955 -16.728777 26.563018 C -16.684507 26.590618 -16.627488 26.561048 -16.654558 26.506378 C -18.861889 21.794916 -14.45011 18.750228 -13.728777 18.090362 C -13.627177 17.997032 -13.655628 17.911826 -13.654558 17.807159 C -13.654558 16.32596 -14.502492 13.920777 -14.779558 13.578643 C -14.799823 13.551843 -14.816859 13.543696 -14.832293 13.549346 z M -11.240496 15.807159 C -11.254162 15.811709 -11.264946 15.824339 -11.271746 15.838409 C -11.829078 17.052542 -12.720595 18.201921 -13.375262 18.730987 C -14.295127 19.473786 -17.829078 22.094049 -16.021746 26.309112 C -15.997746 26.359642 -15.950468 26.349859 -15.935808 26.307159 C -14.893142 21.307164 -10.826085 21.185245 -10.463152 20.236846 C -9.8938193 18.759248 -10.931927 16.133363 -11.197527 15.820831 C -11.210592 15.805231 -11.22683 15.802609 -11.240496 15.807159 z M -20.400652 16.398956 C -20.423113 16.397057 -20.437635 16.41729 -20.439715 16.45169 C -20.458985 17.080889 -21.178 18.656384 -22.271746 20.467315 C -23.435812 22.404246 -23.439646 26.590958 -17.658465 26.754424 C -17.604735 26.758124 -17.587827 26.703287 -17.640887 26.668487 C -21.332603 24.46529 -20.964407 21.322635 -19.435808 19.012237 C -19.401938 18.961167 -19.391192 18.883314 -19.400652 18.789581 C -19.463182 18.239047 -20.064261 16.848641 -20.314715 16.473174 C -20.34779 16.42344 -20.378191 16.400854 -20.400652 16.398956 z M -8.1819021 18.619659 C -8.1980896 18.62402 -8.215477 18.644654 -8.2287771 18.678253 C -8.4198436 19.147052 -9.2785611 20.820857 -11.654558 21.836456 C -13.774423 22.748988 -15.05148 24.815109 -15.271746 26.67044 C -15.281646 26.71671 -15.245422 26.738613 -15.213152 26.740753 C -8.6282253 26.977686 -8.1587208 20.976365 -8.1311209 18.729034 C -8.1311209 18.647951 -8.154923 18.61239 -8.1819021 18.619659 z M -18.912371 27.477081 L -18.912371 28.988799 L -13.717058 28.988799 L -13.717058 27.477081 L -18.912371 27.477081 z M -17.842058 29.709503 L -16.752215 39.686065 C -16.709015 39.936064 -16.165677 40.060998 -16.041277 39.686065 L -14.781512 29.709503 L -17.842058 29.709503 z "
     inkscape:label="torch"
     transform="translate(33.508074,-7.8423151)" /><path
     id="path26"
     style="display:inline;fill:#f5f5f7;fill-opacity:1;fill-rule:nonzero;stroke:none;stroke-width:0.122428"
     inkscape:label="NYU"
     d="M -1.0683594 37.072266 L -1.0683594 51.867188 L 38.142578 51.867188 L 38.142578 37.072266 L -1.0683594 37.072266 z M 1.7324219 39.345703 L 4.0175781 39.345703 L 9.2988281 46.189453 L 9.2988281 39.345703 L 11.744141 39.345703 L 11.744141 50.462891 L 9.6347656 50.462891 L 4.1777344 43.394531 L 4.1777344 50.462891 L 1.7324219 50.462891 L 1.7324219 39.345703 z M 12.986328 39.345703 L 15.882812 39.345703 L 18.572266 43.808594 L 21.306641 39.345703 L 24.125 39.345703 L 19.794922 46.03125 L 19.794922 50.462891 L 17.316406 50.462891 L 17.316406 46.080078 L 12.986328 39.345703 z M 25.189453 39.345703 L 27.667969 39.345703 L 27.667969 45.634766 C 27.667969 47.44803 28.584512 48.382813 30.099609 48.382812 C 31.611258 48.382812 32.529297 47.477693 32.529297 45.712891 L 32.529297 39.345703 L 35.009766 39.345703 L 35.009766 45.617188 C 35.009766 48.985278 33.094246 50.640625 30.068359 50.640625 C 27.041613 50.640625 25.189453 48.9713 25.189453 45.697266 L 25.189453 39.345703 z " /><path
     id="path8690"
     style="fill:#f5f5f7;fill-opacity:1;stroke-width:0.0533673"
     d="m 6.6820757,33.053305 -0.1688579,0.01569 -0.1719842,0.01569 -0.02502,0.775493 -0.028141,0.772368 -0.6253989,0.01569 -0.6285273,0.01569 V 34.23531 33.80691 H 4.3399558 3.6457629 v 0.146974 c 0,0.114713 0.036807,0.161266 0.1563493,0.206382 0.085052,0.0321 0.1822695,0.112535 0.2157627,0.175114 0.051461,0.09616 0.040521,0.131459 -0.071922,0.243903 -0.1169275,0.116923 -0.1819403,0.134455 -0.5159543,0.134455 -0.3489565,0 -0.3915018,-0.01313 -0.5347162,-0.156357 C 2.7601619,34.422256 2.738934,34.361766 2.738934,34.103968 V 33.806911 H 2.5513144 2.3668217 v 0.34397 c 0,0.291567 0.019212,0.365891 0.1375886,0.506573 0.1561076,0.18553 0.2933254,0.271595 0.5284621,0.328335 0.2426295,0.0585 0.5250325,0.05439 0.8223999,-0.0094 0.3611346,-0.07746 0.5511981,-0.293898 0.5284622,-0.603511 -0.014922,-0.203136 -0.00429,-0.221962 0.131333,-0.23765 l 0.1469693,-0.01569 v 0.419017 0.41589 l 1.5322275,-0.01569 c 0.9333202,-0.01022 1.5917554,-0.03987 1.6823229,-0.07504 0.2030403,-0.07888 0.3064477,-0.240115 0.3064477,-0.484686 0,-0.437074 -0.1564686,-0.536504 -0.9068307,-0.572239 L 6.7164734,33.77864 6.7007824,33.415909 Z m 5.2689873,0.112569 c -0.08888,0 -0.166195,0.0916 -0.215763,0.253286 -0.03341,0.109026 -0.01954,0.12195 0.153219,0.12195 0.104707,0 0.190745,-0.02381 0.190745,-0.05315 0,-0.02935 -0.04761,-0.05629 -0.106322,-0.05629 -0.124784,0 -0.144461,-0.09608 -0.02815,-0.140714 0.100411,-0.03852 0.104641,-0.125087 0.0063,-0.125087 z m 3.702362,0 v 0.722336 0.719207 H 14.3995 c -0.689771,0 -1.254034,-0.01864 -1.253924,-0.04065 6.62e-4,-0.13306 0.232828,-0.393661 0.375238,-0.422144 0.135255,-0.02705 0.159479,-0.05515 0.159479,-0.190747 10e-7,-0.157444 -0.004,-0.160568 -0.222016,-0.131332 -0.420465,0.05639 -0.684653,0.38408 -0.684813,0.850543 v 0.253286 h 1.613531 1.613529 l -0.01569,-0.878685 -0.01569,-0.881813 h -0.156355 z m 15.584945,0 v 0.881812 0.878685 h 1.385259 1.388385 v -0.284556 c 0,-0.573228 -0.330051,-0.834769 -1.053796,-0.834908 h -0.440906 v 0.159477 0.159478 h 0.397127 c 0.337279,0 0.419455,0.02001 0.53159,0.121949 0.07264,0.06604 0.146718,0.174738 0.16573,0.24078 l 0.03439,0.118828 h -1.016277 -1.0194 v -0.719208 -0.722336 h -0.18762 z M 7.1823951,33.281579 c -0.1311231,-0.01861 -0.2063599,0.09606 -0.1532173,0.234526 0.019273,0.05027 0.08105,0.07904 0.1532173,0.0688 0.088203,-0.01248 0.1188283,-0.05541 0.1188283,-0.153218 -2.2e-6,-0.09781 -0.030624,-0.137608 -0.1188283,-0.150096 z m 16.7044079,0 c -0.131123,-0.01861 -0.20636,0.09606 -0.153217,0.234526 0.01927,0.05027 0.08105,0.07904 0.153217,0.0688 0.0882,-0.01248 0.118828,-0.05541 0.118828,-0.153218 0,-0.09781 -0.03062,-0.137608 -0.118828,-0.150096 z m 1.60415,0.0032 c -0.121534,-0.01731 -0.218074,0.146429 -0.150095,0.256413 0.01934,0.03122 0.08682,0.04961 0.150095,0.04065 0.162954,-0.02322 0.163,-0.27385 0,-0.297063 z m 0.431525,0 c -0.123631,-0.01765 -0.198234,0.09781 -0.146974,0.231397 0.05312,0.138456 0.25954,0.07105 0.25954,-0.08442 0,-0.09534 -0.03162,-0.135447 -0.112567,-0.146973 z m -14.218447,0.36273 v 0.669178 0.672304 l 0.17511,-0.01877 0.171986,-0.01569 0.01569,-0.653542 0.01569,-0.653542 h -0.18762 z m 2.923739,0.109444 c -0.02236,0.0011 -0.05072,0.0088 -0.0813,0.02814 -0.08513,0.0537 -0.267011,0.325422 -0.275176,0.409635 -0.0021,0.02202 0.102443,0.03752 0.234526,0.03752 0.132083,0 0.240777,-0.02381 0.240777,-0.05315 0,-0.02935 -0.04761,-0.05315 -0.106322,-0.05315 -0.133062,0 -0.140378,-0.147278 -0.01249,-0.240778 0.08699,-0.06364 0.06712,-0.131668 0,-0.128209 z m 15.087754,0.02189 -0.01569,0.415891 -0.01569,0.412763 h -0.803638 -0.803638 l 0.03127,-0.175112 c 0.03607,-0.186652 0.203133,-0.359604 0.347097,-0.359604 0.04891,0 0.13892,0.03531 0.200127,0.07818 0.100982,0.07073 0.122783,0.06851 0.22827,-0.04377 l 0.115707,-0.125088 -0.131332,-0.08755 c -0.168058,-0.110166 -0.575009,-0.113177 -0.78175,-0.0063 -0.184757,0.09555 -0.318952,0.329107 -0.318952,0.556604 v 0.162625 H 26.994934 26.21944 v -0.400256 -0.400255 h -0.387646 c -0.649887,0 -0.943541,0.236 -0.997512,0.800511 l -0.03126,0.318953 h 3.0582 3.055077 v -0.278302 c -1.67e-4,-0.559372 -0.285322,-0.836031 -0.888068,-0.856796 z m -18.383606,0.02189 -0.175111,0.01569 -0.171985,0.01569 -0.01569,0.415891 -0.01569,0.415891 -0.650417,-0.01571 -0.6535439,-0.01569 -0.015691,-0.412763 -0.015691,-0.412765 H 9.3397962 c -0.3367028,0 -0.7274383,0.176614 -0.8192728,0.372113 -0.03447,0.07338 -0.070171,0.277302 -0.078182,0.453415 l -0.012483,0.32208 0.4127626,0.01569 c 0.3545862,0.01345 0.4118582,0.02949 0.3971296,0.106322 -0.022625,0.117467 -0.2388116,0.224156 -0.456541,0.225144 -0.1513449,6.89e-4 -0.1751125,0.01553 -0.1751125,0.137591 0,0.137929 0.00549,0.141723 0.3220807,0.118829 0.3760628,-0.0272 0.5881344,-0.159751 0.6597956,-0.409637 l 0.05003,-0.168858 h 0.8442906 0.847416 v -0.591001 z m 8.483539,0 -0.171985,0.01569 -0.171985,0.01569 -0.01569,0.415891 -0.01569,0.415891 -0.519081,-0.01569 -0.519082,-0.01569 -0.01569,-0.412763 -0.01569,-0.412765 h -0.278307 c -0.359067,0.0015 -0.698135,0.155797 -0.806764,0.36586 -0.04884,0.09447 -0.08442,0.296005 -0.08442,0.484684 v 0.32208 h 0.403382 c 0.353956,0 0.403277,0.01313 0.387747,0.09381 -0.02302,0.119548 -0.237246,0.227276 -0.456541,0.228271 -0.151343,6.88e-4 -0.175111,0.01553 -0.175111,0.137592 0,0.137928 0.0055,0.141722 0.32208,0.118827 0.376258,-0.02722 0.587419,-0.159589 0.662923,-0.409635 l 0.05315,-0.168858 h 0.709828 0.706702 v -0.587875 z m -3.280219,0.0063 0.01569,0.540971 c 0.02113,0.670949 -0.03094,0.821478 -0.315825,0.906828 -0.163928,0.04911 -0.206383,0.0887 -0.206383,0.187621 0,0.143259 0.108696,0.161044 0.440906,0.0688 0.339601,-0.0943 0.41255,-0.275614 0.412763,-1.05067 v -0.653542 h -0.17511 z m 4.546651,0 c -0.359065,0.0015 -0.698136,0.155795 -0.806765,0.365859 -0.04884,0.09446 -0.08442,0.296005 -0.08442,0.484684 v 0.322081 h 0.403382 c 0.353956,0 0.403278,0.01313 0.387747,0.09381 -0.02302,0.119548 -0.237246,0.227274 -0.456541,0.228271 -0.151344,6.87e-4 -0.175112,0.01553 -0.175112,0.137592 0,0.137927 0.0055,0.141722 0.322081,0.118827 0.37626,-0.02722 0.58742,-0.15959 0.662923,-0.409636 l 0.05003,-0.168858 h 1.350862 1.350862 V 34.39486 33.806984 H 23.899319 23.7117 v 0.428399 0.428398 l -0.519082,-0.01569 -0.522208,-0.01569 -0.01569,-0.412763 -0.01569,-0.412763 h -0.153218 -0.156355 l -0.01569,0.412763 -0.01569,0.412763 h -0.453413 -0.453415 l -0.01569,-0.412763 -0.01569,-0.412763 z m 9.083923,0.297065 c 0.0298,0.0031 0.06633,0.01409 0.115705,0.03127 0.16945,0.05907 0.262668,0.188164 0.262668,0.36273 0,0.09504 -0.03366,0.109444 -0.240778,0.109444 H 30.06262 v -0.231467 c 0,-0.21324 0.01377,-0.281127 0.10318,-0.272049 z m -23.4774818,0.02189 h 0.4971922 c 0.5222365,0 0.6222716,0.03991 0.6222716,0.240778 0,0.06164 -0.027317,0.139897 -0.062534,0.175113 -0.040635,0.04063 -0.2448638,0.06568 -0.5597319,0.06568 H 6.6883357 v -0.240778 z m 2.4671992,0 c 0.033459,-0.0031 0.05993,0.0037 0.078182,0.02189 0.01812,0.01821 0.034229,0.121326 0.034393,0.231398 v 0.200127 l -0.2501602,0.01877 c -0.2746774,0.01785 -0.2924498,-0.01463 -0.1657297,-0.259597 0.057139,-0.110503 0.2029139,-0.203628 0.3033182,-0.212637 z m 11.7168516,0 c 0.09442,-0.0099 0.118827,0.05648 0.118827,0.240778 v 0.240779 h -0.240779 c -0.1321,0 -0.240778,-0.02547 -0.240778,-0.05629 0,-0.106004 0.157637,-0.357782 0.243905,-0.390875 0.04898,-0.0188 0.08735,-0.03107 0.118828,-0.03439 z m 4.784302,0 c 0.188673,0 0.190747,0.0013 0.190747,0.240778 v 0.240779 h -0.318954 c -0.286999,0 -0.322081,-0.01153 -0.322081,-0.109444 0,-0.177892 0.234026,-0.372112 0.450288,-0.37211 z m -7.748693,0.0032 c 0.07536,-0.0013 0.09381,0.04387 0.09381,0.237653 v 0.240777 h -0.240778 c -0.252164,0 -0.281088,-0.03828 -0.178239,-0.231398 0.07951,-0.149279 0.206589,-0.244951 0.32521,-0.247032 z M 4.4744164,35.226561 c -0.028075,2.53e-4 -0.057644,0.0074 -0.090686,0.02502 -0.1118845,0.05988 -0.1245245,0.160022 -0.031269,0.253286 0.098601,0.09861 0.2267035,0.05247 0.2470319,-0.09069 0.016274,-0.114585 -0.040865,-0.18838 -0.1250796,-0.187621 z m -1.3414807,0.0032 c -0.077541,0.02977 -0.1001648,0.237548 -0.034397,0.303318 0.06011,0.06012 0.186226,0.01688 0.2501596,-0.08755 0.047005,-0.07677 0.03777,-0.113705 -0.040651,-0.171986 -0.054218,-0.04036 -0.1339367,-0.05962 -0.1751117,-0.04378 z m 0.4283983,0 c -0.077541,0.02977 -0.103292,0.237548 -0.037523,0.303318 0.06011,0.06012 0.186226,0.01688 0.2501596,-0.08755 0.047005,-0.07677 0.03777,-0.113705 -0.040651,-0.171986 -0.054218,-0.04036 -0.1308099,-0.05962 -0.1719848,-0.04377 z m 18.52432,0.01877 c -0.142379,0 -0.215911,0.14137 -0.12821,0.247033 0.03346,0.04032 0.09137,0.07192 0.12821,0.07192 0.102191,0 0.190608,-0.137112 0.153218,-0.234526 -0.01833,-0.04775 -0.08611,-0.08442 -0.153218,-0.08442 z m 0.44716,0 c -0.114633,0 -0.18129,0.118732 -0.134454,0.240779 0.03839,0.100027 0.160489,0.103005 0.24078,0.0063 0.08253,-0.09944 0.0199,-0.247033 -0.106323,-0.247033 z m -11.669945,0.0095 c -0.131123,-0.01861 -0.203234,0.09606 -0.150096,0.234526 0.01927,0.05027 0.07792,0.07592 0.150096,0.06568 0.0882,-0.01248 0.12195,-0.05229 0.12195,-0.150096 0,-0.09781 -0.03374,-0.137607 -0.12195,-0.150095 z m 8.22087,0 c -0.131124,-0.01861 -0.206361,0.09606 -0.153219,0.234526 0.01927,0.05027 0.08105,0.07592 0.153219,0.06568 0.0882,-0.01248 0.118827,-0.05229 0.118827,-0.150096 0,-0.09781 -0.03062,-0.137607 -0.118827,-0.150095 z m 0.425272,0 c -0.131124,-0.01861 -0.206362,0.09606 -0.153217,0.234526 0.01927,0.05027 0.08104,0.07592 0.153217,0.06568 0.0882,-0.01248 0.121951,-0.05229 0.121951,-0.150096 0,-0.09781 -0.03374,-0.137607 -0.121951,-0.150095 z m 13.555524,0 c -0.131125,-0.01861 -0.206361,0.09606 -0.153218,0.234526 0.01927,0.05027 0.08104,0.07592 0.153218,0.06568 0.0882,-0.01248 0.12195,-0.05229 0.12195,-0.150096 0,-0.09781 -0.03374,-0.137607 -0.12195,-0.150095 z" /></svg>
