<?xml version="1.0" encoding="UTF-8" standalone="no"?>
<!-- Created with Inkscape (http://www.inkscape.org/) -->

<svg
   id="svg3176"
   sodipodi:docname="usaflag.svg"
   viewBox="0 0 600 316"
   version="1.1"
   inkscape:version="1.2.2 (b0a84865, 2022-12-01)"
   xmlns:inkscape="http://www.inkscape.org/namespaces/inkscape"
   xmlns:sodipodi="http://sodipodi.sourceforge.net/DTD/sodipodi-0.dtd"
   xmlns="http://www.w3.org/2000/svg"
   xmlns:svg="http://www.w3.org/2000/svg"
   xmlns:rdf="http://www.w3.org/1999/02/22-rdf-syntax-ns#"
   xmlns:cc="http://creativecommons.org/ns#"
   xmlns:dc="http://purl.org/dc/elements/1.1/">
  <defs
     id="defs260" />
  <sodipodi:namedview
     id="namedview3178"
     bordercolor="#666666"
     inkscape:pageshadow="2"
     guidetolerance="10"
     pagecolor="#ffffff"
     gridtolerance="10"
     inkscape:window-maximized="0"
     inkscape:zoom="1.0003955"
     objecttolerance="10"
     borderopacity="1"
     inkscape:current-layer="svg3176"
     inkscape:cx="310.37725"
     inkscape:guide-bbox="true"
     inkscape:cy="183.92726"
     inkscape:window-y="0"
     inkscape:window-x="0"
     inkscape:window-width="1440"
     showgrid="false"
     inkscape:pageopacity="0"
     inkscape:window-height="872"
     showguides="true"
     inkscape:showpageshadow="2"
     inkscape:pagecheckerboard="0"
     inkscape:deskcolor="#d1d1d1" />
  <rect
     style="display:none;fill:#f5f5f7;fill-opacity:1;stroke:#f7f7f2;stroke-width:3.77953"
     id="rect1142"
     width="646.7442"
     height="359.85767"
     x="-24.990116"
     y="-20.991697"
     inkscape:label="outline" />
  <rect
     style="display:inline;fill:#ffffff;fill-opacity:1;stroke:none;stroke-width:1.93012"
     id="rect7379"
     width="601.76202"
     height="314.87549"
     x="-4.8564466e-08"
     y="-4.1626677e-08" />
  <path
     id="path3188"
     style="display:inline;fill:#000000;stroke-width:0.945137"
     d="M 10.904927,293.98136 V 282.80838 H 298.72619 586.54747 v 11.17298 11.17299 H 298.72619 10.904927 Z m 0,-45.62302 V 237.18535 H 298.72619 586.54747 v 11.17299 11.17298 H 298.72619 10.904927 Z m 0,-45.15748 V 192.49341 H 298.72619 586.54747 v 10.70745 10.70744 H 298.72619 10.904927 Z m 0,-113.126478 V 10.932402 H 298.72619 586.54747 V 22.105388 33.278373 H 413.8547 241.16193 V 44.9169 56.555425 H 413.8547 586.54747 V 67.728411 78.901396 H 413.8547 241.16193 V 90.539923 102.17845 H 413.8547 586.54747 v 10.70745 10.70744 H 413.8547 241.16193 v 11.63853 11.63852 H 413.8547 586.54747 v 11.17299 11.17298 H 298.72619 10.904927 Z m 17.509126,68.145898 c 1.493793,-1.24504 1.864124,-1.24504 3.357917,0 3.511707,2.92686 4.069311,2.86875 2.929156,-0.3052 -0.989529,-2.75469 -0.858273,-3.14808 1.71743,-5.14824 l 2.788796,-2.16559 -3.621752,-0.005 c -3.255161,-0.004 -3.679986,-0.28731 -4.197392,-2.79781 -0.316604,-1.53628 -0.899442,-2.79324 -1.295196,-2.79324 -0.395756,0 -0.978592,1.25696 -1.295197,2.79324 -0.517377,2.51057 -0.94222,2.79371 -4.197392,2.7979 l -3.621751,0.005 2.788796,2.16561 c 2.575713,2.00015 2.706959,2.39353 1.717429,5.14822 -1.140061,3.17398 -0.58255,3.23198 2.929156,0.3052 z m 38.376172,0 c 1.49379,-1.24504 1.864121,-1.24504 3.357914,0 3.511708,2.92686 4.069313,2.86875 2.929157,-0.3052 -0.98953,-2.75469 -0.858272,-3.14808 1.71743,-5.14824 l 2.788795,-2.16559 -3.621749,-0.005 c -3.255164,-0.004 -3.679988,-0.28731 -4.197394,-2.79781 -0.316604,-1.53628 -0.899442,-2.79324 -1.295196,-2.79324 -0.395755,0 -0.978593,1.25696 -1.295196,2.79324 -0.517379,2.51057 -0.942222,2.79371 -4.197393,2.7979 l -3.621752,0.005 2.788796,2.16561 c 2.575713,2.00015 2.706959,2.39353 1.71743,5.14822 -1.140061,3.17398 -0.58255,3.23198 2.929158,0.3052 z m 38.376165,0 c 1.49378,-1.24504 1.86403,-1.24504 3.35791,0 3.51171,2.92686 4.06932,2.86875 2.92916,-0.3052 -0.98953,-2.75469 -0.85827,-3.14808 1.71743,-5.14824 l 2.78879,-2.16559 -3.62174,-0.005 c -3.25517,-0.004 -3.67999,-0.28735 -4.1974,-2.7979 -0.3166,-1.53628 -0.89944,-2.79324 -1.29518,-2.79324 -0.39577,0 -0.97861,1.25696 -1.29521,2.79324 -0.51738,2.51057 -0.94223,2.79371 -4.1974,2.7979 l -3.62174,0.005 2.78879,2.16559 c 2.5757,2.00016 2.70696,2.39355 1.71743,5.14824 -1.14007,3.17396 -0.58255,3.23197 2.92916,0.3052 z m 38.37617,0 c 1.4938,-1.24504 1.86412,-1.24504 3.35792,0 3.5117,2.92686 4.0693,2.86875 2.92914,-0.3052 -0.98952,-2.75469 -0.85826,-3.14808 1.71743,-5.14824 l 2.78881,-2.16559 -3.62176,-0.005 c -3.25517,-0.004 -3.67998,-0.28735 -4.1974,-2.7979 -0.3166,-1.53628 -0.89943,-2.79324 -1.29518,-2.79324 -0.39576,0 -0.9786,1.25696 -1.2952,2.79324 -0.51738,2.51057 -0.94222,2.79371 -4.1974,2.7979 l -3.62175,0.005 2.7888,2.16559 c 2.57571,2.00016 2.70686,2.39355 1.71742,5.14824 -1.14005,3.17396 -0.58255,3.23197 2.92917,0.3052 z m 38.37617,0 c 1.49379,-1.24504 1.86412,-1.24504 3.35792,0 3.51169,2.92686 4.0693,2.86875 2.92914,-0.3052 -0.98952,-2.75469 -0.85827,-3.14808 1.71744,-5.14824 l 2.78879,-2.16559 -3.62176,-0.005 c -3.25515,-0.004 -3.67998,-0.28735 -4.19739,-2.7979 -0.31658,-1.53628 -0.89943,-2.79324 -1.29519,-2.79324 -0.39576,0 -0.97859,1.25696 -1.29519,2.79324 -0.51738,2.51057 -0.94223,2.79371 -4.1974,2.7979 l -3.62175,0.005 2.7888,2.16559 c 2.57572,2.00016 2.70686,2.39355 1.71743,5.14824 -1.14005,3.17396 -0.58256,3.23197 2.92916,0.3052 z m 38.37616,0 c 1.49379,-1.24504 1.86413,-1.24504 3.35792,0 3.51171,2.92686 4.06932,2.86875 2.92916,-0.3052 -0.98954,-2.75469 -0.85828,-3.14808 1.71743,-5.14824 l 2.78879,-2.16559 -3.62174,-0.005 c -3.25517,-0.004 -3.68001,-0.28735 -4.19739,-2.7979 -0.31661,-1.53628 -0.89946,-2.79324 -1.29521,-2.79324 -0.39575,0 -0.97859,1.25696 -1.29519,2.79324 -0.51738,2.51057 -0.94223,2.79371 -4.19739,2.7979 l -3.62175,0.005 2.78878,2.16559 c 2.57572,2.00016 2.70687,2.39355 1.71745,5.14824 -1.14007,3.17396 -0.58256,3.23197 2.92914,0.3052 z M 47.602139,142.39188 c 1.493792,-1.24504 1.864123,-1.24504 3.357915,0 3.511707,2.92686 4.069313,2.86877 2.929156,-0.3052 -0.989528,-2.75469 -0.858273,-3.14807 1.71743,-5.14822 l 2.788797,-2.16561 -3.521494,-0.005 c -3.131206,-0.004 -3.591626,-0.31419 -4.15374,-2.79781 -0.347688,-1.53629 -0.995286,-2.79325 -1.439107,-2.79325 -0.44382,0 -1.091418,1.25696 -1.439106,2.79325 -0.562095,2.48366 -1.022532,2.79381 -4.153645,2.7979 l -3.521589,0.005 2.788797,2.16561 c 2.575712,2.00015 2.706958,2.39353 1.717428,5.14823 -1.140059,3.17397 -0.582549,3.23197 2.929158,0.3052 z m 38.37617,0 c 1.493792,-1.24504 1.864124,-1.24504 3.357911,0 3.511708,2.92686 4.069319,2.86877 2.92916,-0.3052 -0.989531,-2.75469 -0.858266,-3.14807 1.717432,-5.14822 l 2.788788,-2.16561 -3.52149,-0.005 c -3.131204,-0.004 -3.591616,-0.31419 -4.15373,-2.79781 -0.347694,-1.53629 -0.995292,-2.79325 -1.439104,-2.79325 -0.443832,0 -1.091428,1.25696 -1.439116,2.79325 -0.562096,2.48366 -1.022533,2.79381 -4.153645,2.7979 l -3.52159,0.005 2.788797,2.16561 c 2.575712,2.00015 2.70696,2.39353 1.717429,5.14823 -1.14006,3.17397 -0.58255,3.23197 2.929158,0.3052 z m 38.376161,0 c 1.4938,-1.24504 1.86412,-1.24504 3.35792,0 3.51171,2.92686 4.06931,2.86877 2.92915,-0.3052 -0.98952,-2.75469 -0.85826,-3.14807 1.71743,-5.14822 l 2.7888,-2.16561 -3.5215,-0.005 c -3.1312,-0.004 -3.59162,-0.31423 -4.15373,-2.79791 -0.3477,-1.53628 -0.99529,-2.79324 -1.4391,-2.79324 -0.44384,0 -1.09142,1.25696 -1.43912,2.79324 -0.56209,2.48367 -1.02254,2.79381 -4.15374,2.79791 l -3.52149,0.005 2.7888,2.16561 c 2.5757,2.00015 2.70686,2.39353 1.71742,5.14822 -1.14007,3.17398 -0.58255,3.23198 2.92916,0.3052 z m 38.37618,0 c 1.49379,-1.24504 1.86411,-1.24504 3.35791,0 3.5117,2.92686 4.0693,2.86877 2.92915,-0.3052 -0.98953,-2.75469 -0.85827,-3.14807 1.71743,-5.14822 l 2.7888,-2.16561 -3.5215,-0.005 c -3.1312,-0.004 -3.59163,-0.31423 -4.15374,-2.79791 -0.34769,-1.53628 -0.99528,-2.79324 -1.4391,-2.79324 -0.44383,0 -1.09142,1.25696 -1.4391,2.79324 -0.56211,2.48367 -1.02254,2.79381 -4.15376,2.79791 l -3.52149,0.005 2.78881,2.16561 c 2.57572,2.00015 2.70685,2.39353 1.71741,5.14822 -1.14003,3.17398 -0.58254,3.23198 2.92918,0.3052 z m 38.37616,0 c 1.49379,-1.24504 1.86412,-1.24504 3.35792,0 3.5117,2.92686 4.0693,2.86877 2.92915,-0.3052 -0.98953,-2.75469 -0.85827,-3.14807 1.71744,-5.14822 l 2.78879,-2.16561 -3.52149,-0.005 c -3.13122,-0.004 -3.59163,-0.31423 -4.15375,-2.79791 -0.34768,-1.53628 -0.99528,-2.79324 -1.4391,-2.79324 -0.44381,0 -1.09143,1.25696 -1.4391,2.79324 -0.56211,2.48367 -1.02253,2.79381 -4.15374,2.79791 l -3.5215,0.005 2.78879,2.16561 c 2.57572,2.00015 2.70686,2.39353 1.71744,5.14822 -1.14006,3.17398 -0.58256,3.23198 2.92915,0.3052 z M 28.414053,126.56349 c 1.493793,-1.24505 1.864124,-1.24505 3.357917,0 3.511707,2.92685 4.069311,2.86876 2.929156,-0.3052 -0.989529,-2.7547 -0.858273,-3.14808 1.71743,-5.14823 l 2.788796,-2.16561 -3.521494,-0.005 c -3.131207,-0.004 -3.591625,-0.31419 -4.15374,-2.7978 -0.347688,-1.53629 -0.995285,-2.79326 -1.439106,-2.79326 -0.44382,0 -1.091419,1.25697 -1.439107,2.79326 -0.562095,2.48365 -1.022532,2.7938 -4.153644,2.7979 l -3.521589,0.005 2.788796,2.16561 c 2.575713,2.00015 2.706959,2.39353 1.717429,5.14824 -1.140061,3.17396 -0.58255,3.23196 2.929156,0.3052 z m 38.376172,0 c 1.49379,-1.24505 1.864121,-1.24505 3.357914,0 3.473427,2.89492 4.007048,2.82565 3.039392,-0.39442 -0.820232,-2.72947 -0.640391,-3.25991 1.740647,-5.13427 l 2.655343,-2.09028 -3.521492,-0.005 c -3.131208,-0.004 -3.591626,-0.3142 -4.153741,-2.79781 -0.347688,-1.53628 -0.995286,-2.79324 -1.439106,-2.79324 -0.443821,0 -1.091418,1.25696 -1.439106,2.79324 -0.562096,2.48366 -1.022533,2.7938 -4.153647,2.7979 l -3.521588,0.005 2.788796,2.1656 c 2.575713,2.00015 2.706959,2.39354 1.71743,5.14824 -1.140061,3.17396 -0.58255,3.23197 2.929158,0.3052 z m 38.376165,0 c 1.49378,-1.24505 1.86403,-1.24505 3.35791,0 3.51171,2.92685 4.06932,2.86876 2.92916,-0.3052 -0.98953,-2.7547 -0.85827,-3.14808 1.71743,-5.14823 l 2.78879,-2.16561 -3.52149,-0.005 c -3.13121,-0.004 -3.59162,-0.31423 -4.15373,-2.7979 -0.3477,-1.53628 -0.9953,-2.79325 -1.4391,-2.79325 -0.44384,0 -1.09143,1.25697 -1.43912,2.79325 -0.56209,2.48366 -1.02254,2.79381 -4.15365,2.7979 l -3.52158,0.005 2.65534,2.09028 c 2.38105,1.87436 2.56084,2.40481 1.74064,5.13427 -0.96764,3.22005 -0.43401,3.28932 3.0394,0.39442 z m 38.37617,0 c 1.4938,-1.24505 1.86412,-1.24505 3.35792,0 3.47342,2.89492 4.00704,2.82565 3.03939,-0.39442 -0.82024,-2.72947 -0.6404,-3.25991 1.74064,-5.13427 l 2.65535,-2.09028 -3.52151,-0.005 c -3.13119,-0.004 -3.59162,-0.31423 -4.15373,-2.7979 -0.3477,-1.53629 -0.99529,-2.79325 -1.4391,-2.79325 -0.44384,0 -1.09142,1.25696 -1.43911,2.79325 -0.5621,2.48366 -1.02255,2.7938 -4.15375,2.7979 l -3.52149,0.005 2.7888,2.1656 c 2.57571,2.00015 2.70686,2.39353 1.71742,5.14824 -1.14005,3.17396 -0.58255,3.23197 2.92917,0.3052 z m 38.37617,0 c 1.49379,-1.24505 1.86412,-1.24505 3.35792,0 3.51169,2.92685 4.0693,2.86876 2.92914,-0.3052 -0.98952,-2.7547 -0.85827,-3.14808 1.71744,-5.14823 l 2.78879,-2.16561 -3.52149,-0.005 c -3.13121,-0.004 -3.59162,-0.31423 -4.15375,-2.7979 -0.34767,-1.53628 -0.99528,-2.79325 -1.4391,-2.79325 -0.44381,0 -1.09142,1.25697 -1.4391,2.79325 -0.56211,2.48366 -1.02253,2.79381 -4.15374,2.7979 l -3.5215,0.005 2.65534,2.09028 c 2.38105,1.87436 2.56085,2.40481 1.74065,5.13427 -0.96765,3.22005 -0.43402,3.28932 3.0394,0.39442 z m 38.37616,0 c 1.49379,-1.24505 1.86413,-1.24505 3.35792,0 3.51171,2.92685 4.06932,2.86876 2.92916,-0.3052 -0.98954,-2.7547 -0.85828,-3.14808 1.71743,-5.14823 l 2.78879,-2.16561 -3.52148,-0.005 c -3.13123,-0.004 -3.59164,-0.31423 -4.15374,-2.7979 -0.34769,-1.53628 -0.9953,-2.79325 -1.43912,-2.79325 -0.44381,0 -1.09142,1.25697 -1.4391,2.79325 -0.56209,2.48366 -1.02253,2.79381 -4.15374,2.7979 l -3.52149,0.005 2.78878,2.16561 c 2.57572,2.00015 2.70687,2.39353 1.71745,5.14823 -1.14007,3.17397 -0.58256,3.23197 2.92914,0.3052 z M 47.602139,110.7351 c 1.493792,-1.24504 1.864123,-1.24504 3.357915,0 3.511707,2.92685 4.069313,2.86875 2.929156,-0.3052 -0.989528,-2.7547 -0.858273,-3.14808 1.71743,-5.14824 l 2.788797,-2.16561 -3.521494,-0.005 c -3.131206,-0.004 -3.591626,-0.31419 -4.15374,-2.79779 -0.347688,-1.536298 -0.995286,-2.793259 -1.439107,-2.793259 -0.44382,0 -1.091418,1.256961 -1.439106,2.793259 -0.562095,2.48364 -1.022532,2.79379 -4.153645,2.79789 l -3.521589,0.005 2.788797,2.1656 c 2.575712,2.00015 2.706958,2.39353 1.717428,5.14823 -1.140059,3.17396 -0.582549,3.23197 2.929158,0.3052 z m 76.752331,0 c 1.4938,-1.24504 1.86412,-1.24504 3.35792,0 3.51171,2.92685 4.06931,2.86875 2.92915,-0.3052 -0.98952,-2.7547 -0.85826,-3.14808 1.71743,-5.14824 l 2.7888,-2.16561 -3.5215,-0.005 c -3.1312,-0.004 -3.59162,-0.31419 -4.15373,-2.79779 -0.3477,-1.536298 -0.99529,-2.793259 -1.4391,-2.793259 -0.44384,0 -1.09142,1.256961 -1.43912,2.793259 -0.56209,2.48364 -1.02254,2.79379 -4.15374,2.79789 l -3.52149,0.005 2.7888,2.1656 c 2.5757,2.00015 2.70686,2.39353 1.71742,5.14823 -1.14007,3.17396 -0.58255,3.23197 2.92916,0.3052 z m 76.75234,0 c 1.49379,-1.24504 1.86412,-1.24504 3.35792,0 3.5117,2.92685 4.0693,2.86875 2.92915,-0.3052 -0.98953,-2.7547 -0.85827,-3.14808 1.71744,-5.14824 l 2.78879,-2.16561 -3.52149,-0.005 c -3.13122,-0.004 -3.59163,-0.31419 -4.15375,-2.79779 -0.34768,-1.536298 -0.99528,-2.793259 -1.4391,-2.793259 -0.44381,0 -1.09143,1.256961 -1.4391,2.793259 -0.56211,2.48364 -1.02253,2.79379 -4.15374,2.79789 l -3.5215,0.005 2.78879,2.1656 c 2.57572,2.00015 2.70686,2.39353 1.71744,5.14823 -1.14006,3.17396 -0.58256,3.23197 2.92915,0.3052 z m -115.205253,0.14161 c 1.632626,-1.43386 1.876402,-1.43386 3.509018,0 2.538591,2.22957 3.277236,1.90453 2.588473,-1.1389 -0.501185,-2.21458 -0.139663,-3.01773 2.082489,-4.6259 l 2.688923,-1.94604 -3.521504,-0.0295 c -3.123044,-0.0262 -3.593059,-0.34561 -4.153731,-2.82276 -0.347693,-1.536288 -0.995291,-2.793249 -1.439113,-2.793249 -0.443822,0 -1.091418,1.256961 -1.439104,2.793249 -0.560617,2.47715 -1.030687,2.7966 -4.153644,2.82276 l -3.52159,0.0295 2.688923,1.94604 c 2.222076,1.60817 2.583675,2.41132 2.082386,4.6259 -0.688775,3.04343 0.04998,3.36847 2.588474,1.1389 z m 76.752333,0 c 1.63261,-1.43386 1.87641,-1.43386 3.50902,0 2.53858,2.22957 3.27723,1.90453 2.58848,-1.1389 -0.50122,-2.21458 -0.13966,-3.01773 2.08248,-4.6259 l 2.68891,-1.94604 -3.52149,-0.0295 c -3.12305,-0.0262 -3.59307,-0.34561 -4.15373,-2.82276 -0.3477,-1.536288 -0.99529,-2.793249 -1.43912,-2.793249 -0.44381,0 -1.09141,1.256961 -1.4391,2.793249 -0.56062,2.47715 -1.0307,2.7966 -4.15374,2.82276 l -3.52149,0.0295 2.68891,1.94604 c 2.22208,1.60817 2.58368,2.41132 2.08249,4.6259 -0.68877,3.04343 0.0499,3.36847 2.58848,1.1389 z M 28.337303,95.049247 c 1.632617,-1.433867 1.876401,-1.433867 3.509019,0 2.539735,2.230593 3.277231,1.904248 2.58713,-1.145045 -0.496233,-2.192605 -0.13401,-3.047804 1.971961,-4.65541 l 2.579836,-1.969426 h -3.411064 c -3.010036,0 -3.485421,-0.328439 -4.043218,-2.793246 -0.347688,-1.536285 -0.995285,-2.793246 -1.439106,-2.793246 -0.44382,0 -1.091419,1.256961 -1.439107,2.793246 -0.557826,2.464761 -1.033278,2.793246 -4.043216,2.793246 h -3.411067 l 2.579839,1.969426 c 2.105987,1.607606 2.468162,2.462805 1.971959,4.65541 -0.690109,3.049293 0.0473,3.375731 2.587129,1.145045 z m 38.376169,0 c 1.632618,-1.433867 1.876401,-1.433867 3.509021,0 2.539735,2.230593 3.277228,1.904248 2.58713,-1.145045 -0.496233,-2.192605 -0.13401,-3.047804 1.97196,-4.65541 l 2.579837,-1.969426 h -3.411067 c -3.010034,0 -3.485418,-0.328439 -4.043216,-2.793246 -0.347688,-1.536285 -0.995286,-2.793246 -1.439106,-2.793246 -0.443821,0 -1.091418,1.256961 -1.439107,2.793246 -0.557826,2.464761 -1.033279,2.793246 -4.043217,2.793246 h -3.411065 l 2.579837,1.969426 c 2.105987,1.607606 2.468164,2.462805 1.971959,4.65541 -0.69011,3.049293 0.0473,3.375731 2.58713,1.145045 z m 38.376168,0 c 1.63262,-1.433867 1.87639,-1.433867 3.50901,0 2.53975,2.230593 3.27723,1.904248 2.58714,-1.145045 -0.49624,-2.192605 -0.13401,-3.047804 1.97196,-4.65541 l 2.57984,-1.969426 h -3.41107 c -3.01003,0 -3.48543,-0.328439 -4.04322,-2.793246 -0.34769,-1.536285 -0.99528,-2.793246 -1.43911,-2.793246 -0.44382,0 -1.09141,1.256961 -1.4391,2.793246 -0.55783,2.464761 -1.03329,2.793246 -4.04322,2.793246 h -3.411063 l 2.579833,1.969426 c 2.10599,1.607606 2.46816,2.462805 1.97197,4.65541 -0.69012,3.049293 0.0473,3.375731 2.58713,1.145045 z m 38.37617,0 c 1.63261,-1.433867 1.8764,-1.433867 3.50902,0 2.53973,2.230593 3.27723,1.904248 2.58713,-1.145045 -0.49623,-2.192605 -0.13401,-3.047804 1.97196,-4.65541 l 2.57983,-1.969426 h -3.41107 c -3.01002,0 -3.48541,-0.328439 -4.04321,-2.793246 -0.3477,-1.536285 -0.99528,-2.793246 -1.43911,-2.793246 -0.44382,0 -1.09141,1.256961 -1.43911,2.793246 -0.55783,2.464761 -1.03327,2.793246 -4.04322,2.793246 h -3.41105 l 2.57983,1.969426 c 2.10599,1.607606 2.46817,2.462805 1.97196,4.65541 -0.69011,3.049293 0.0474,3.375731 2.58713,1.145045 z m 38.37617,0 c 1.63261,-1.433867 1.8764,-1.433867 3.50901,0 2.53973,2.230593 3.27724,1.904248 2.58714,-1.145045 -0.49624,-2.192605 -0.13401,-3.047804 1.97195,-4.65541 l 2.57984,-1.969426 h -3.41106 c -3.01003,0 -3.48542,-0.328439 -4.04322,-2.793246 -0.34769,-1.536285 -0.99529,-2.793246 -1.4391,-2.793246 -0.44383,0 -1.09143,1.256961 -1.43912,2.793246 -0.55783,2.464761 -1.03327,2.793246 -4.04321,2.793246 h -3.41107 l 2.57984,1.969426 c 2.10599,1.607606 2.46816,2.462805 1.97195,4.65541 -0.6901,3.049293 0.0474,3.375731 2.58714,1.145045 z m 38.37616,0 c 1.63262,-1.433867 1.8764,-1.433867 3.50902,0 2.53974,2.230593 3.27723,1.904248 2.58713,-1.145045 -0.49623,-2.192605 -0.13401,-3.047804 1.97196,-4.65541 l 2.57983,-1.969426 h -3.41105 c -3.01004,0 -3.48543,-0.328439 -4.04322,-2.793246 -0.34769,-1.536285 -0.9953,-2.793246 -1.4391,-2.793246 -0.44383,0 -1.09143,1.256961 -1.43911,2.793246 -0.55784,2.464761 -1.03329,2.793246 -4.04321,2.793246 h -3.41109 l 2.57985,1.969426 c 2.10599,1.607606 2.46817,2.462805 1.97196,4.65541 -0.6901,3.049293 0.0473,3.375731 2.58712,1.145045 z M 47.602139,79.079326 c 1.493792,-1.245042 1.864123,-1.245042 3.357915,0 3.511324,2.926484 4.069216,2.868664 2.929829,-0.303505 -0.976674,-2.719039 -0.842185,-3.171731 1.531018,-5.152794 l 2.601807,-2.171935 h -3.335177 c -2.925702,0 -3.412792,-0.342974 -3.967328,-2.793246 -0.80851,-3.57247 -2.069723,-3.57247 -2.878213,0 -0.554545,2.450235 -1.041625,2.793246 -3.967329,2.793246 h -3.335176 l 2.601808,2.171935 c 2.373278,1.981157 2.507786,2.433755 1.531017,5.152794 -1.139484,3.172197 -0.581485,3.229924 2.929829,0.303505 z m 38.37617,0 c 1.493792,-1.245042 1.864124,-1.245042 3.357911,0 3.511327,2.926484 4.069225,2.868664 2.92983,-0.303505 -0.976671,-2.719039 -0.842182,-3.171731 1.531017,-5.152794 l 2.6018,-2.171935 h -3.33517 c -2.925698,0 -3.412787,-0.342974 -3.967317,-2.793246 -0.808507,-3.57247 -2.069729,-3.57247 -2.87822,0 -0.554546,2.450235 -1.041625,2.793246 -3.967329,2.793246 h -3.335176 l 2.601808,2.171935 c 2.373277,1.981157 2.507786,2.433755 1.531018,5.152794 -1.139486,3.172197 -0.581486,3.229924 2.929828,0.303505 z m 38.376161,0 c 1.4938,-1.245042 1.86412,-1.245042 3.35792,0 3.51132,2.926484 4.06922,2.868664 2.92982,-0.303505 -0.97667,-2.719039 -0.84219,-3.171731 1.53102,-5.152794 l 2.60182,-2.171935 h -3.3352 c -2.92569,0 -3.41278,-0.342974 -3.96731,-2.793246 -0.80851,-3.57247 -2.06972,-3.57247 -2.87822,0 -0.55455,2.450235 -1.04172,2.793246 -3.96732,2.793246 h -3.33518 l 2.6018,2.171935 c 2.37328,1.981157 2.50779,2.433755 1.53102,5.152794 -1.13949,3.172197 -0.58149,3.229924 2.92983,0.303505 z m 38.37618,0 c 1.49379,-1.245042 1.86411,-1.245042 3.35791,0 3.51132,2.926484 4.06921,2.868664 2.92982,-0.303505 -0.97667,-2.719039 -0.84219,-3.171731 1.53102,-5.152794 l 2.60181,-2.171935 h -3.33516 c -2.92573,0 -3.41281,-0.342974 -3.96735,-2.793246 -0.80851,-3.57247 -2.06972,-3.57247 -2.8782,0 -0.55456,2.450235 -1.04173,2.793246 -3.96734,2.793246 h -3.33518 l 2.60182,2.171935 c 2.37328,1.981157 2.50778,2.433755 1.53101,5.152794 -1.13949,3.172197 -0.58149,3.229924 2.92984,0.303505 z m 38.37616,0 c 1.49379,-1.245042 1.86412,-1.245042 3.35792,0 3.51132,2.926484 4.06921,2.868664 2.92983,-0.303505 -0.97668,-2.719039 -0.8422,-3.171731 1.53101,-5.152794 l 2.60181,-2.171935 h -3.33517 c -2.92571,0 -3.41281,-0.342974 -3.96734,-2.793246 -0.8085,-3.57247 -2.06972,-3.57247 -2.8782,0 -0.55454,2.450235 -1.04172,2.793246 -3.96734,2.793246 h -3.33518 l 2.60182,2.171935 c 2.37328,1.981157 2.50779,2.433755 1.53101,5.152794 -1.13947,3.172197 -0.58149,3.229924 2.92983,0.303505 z M 32.932848,63.977175 l 2.842139,1.964024 -1.073093,-2.98747 c -0.979552,-2.726954 -0.846252,-3.176852 1.528715,-5.159405 l 2.601808,-2.171936 H 35.49724 c -2.925703,0 -3.412793,-0.342973 -3.967329,-2.793246 -0.808509,-3.572469 -2.069722,-3.572469 -2.878213,0 -0.554545,2.450235 -1.041625,2.793246 -3.967328,2.793246 h -3.335177 l 2.601808,2.171936 c 2.374911,1.982553 2.508266,2.432451 1.528716,5.159405 l -1.073094,2.98747 2.842139,-1.964024 2.842139,-1.964025 2.842139,1.964025 z m 38.376171,0 2.842138,1.964024 -1.073093,-2.98747 c -0.979552,-2.726954 -0.846253,-3.176852 1.528714,-5.159405 l 2.601809,-2.171936 h -3.335178 c -2.925703,0 -3.412792,-0.342973 -3.967328,-2.793246 -0.808509,-3.572469 -2.069722,-3.572469 -2.878213,0 -0.554544,2.450235 -1.041625,2.793246 -3.967329,2.793246 h -3.335176 l 2.601809,2.171936 c 2.374909,1.982553 2.508266,2.432451 1.528714,5.159405 l -1.073094,2.98747 2.842139,-1.964024 2.84214,-1.964025 2.842138,1.964025 z m 38.376171,0 2.84213,1.964024 -1.0731,-2.98747 c -0.97955,-2.726954 -0.84624,-3.176852 1.52872,-5.159405 l 2.60181,-2.171936 h -3.33518 c -2.9257,0 -3.41279,-0.342973 -3.96732,-2.793246 -0.80851,-3.572469 -2.06972,-3.572469 -2.87822,0 -0.55455,2.450235 -1.04163,2.793246 -3.96732,2.793246 h -3.335179 l 2.601809,2.171936 c 2.37489,1.982553 2.50827,2.432451 1.52872,5.159405 l -1.07311,2.98747 2.84214,-1.964024 2.84215,-1.964025 2.84213,1.964025 z m 38.37616,0 2.84213,1.964024 -1.07308,-2.98747 c -0.97956,-2.726954 -0.84626,-3.176852 1.5287,-5.159405 l 2.60182,-2.171936 h -3.33518 c -2.9257,0 -3.4128,-0.342973 -3.96733,-2.793246 -0.8085,-3.572469 -2.06971,-3.572469 -2.87821,0 -0.55455,2.450235 -1.04173,2.793246 -3.96733,2.793246 h -3.33518 l 2.60181,2.171936 c 2.37493,1.982553 2.50827,2.432451 1.52872,5.159405 l -1.07309,2.98747 2.84213,-1.964024 2.84214,-1.964025 2.84214,1.964025 z m 38.37617,0 2.84215,1.964024 -1.0731,-2.98747 c -0.97955,-2.726954 -0.84626,-3.176852 1.52871,-5.159405 l 2.6018,-2.171936 h -3.33516 c -2.92572,0 -3.41279,-0.342973 -3.96733,-2.793246 -0.80851,-3.572469 -2.06973,-3.572469 -2.87821,0 -0.55455,2.450235 -1.04172,2.793246 -3.96735,2.793246 h -3.33517 l 2.60182,2.171936 c 2.37491,1.982553 2.50826,2.432451 1.5287,5.159405 l -1.07308,2.98747 2.84213,-1.964024 2.84214,-1.964025 2.84213,1.964025 z m 38.37616,0 2.84215,1.964024 -1.07309,-2.98747 c -0.97956,-2.726954 -0.84626,-3.176852 1.52872,-5.159405 l 2.6018,-2.171936 h -3.33518 c -2.92569,0 -3.41279,-0.342973 -3.96732,-2.793246 -0.80852,-3.572469 -2.06973,-3.572469 -2.87822,0 -0.55454,2.450235 -1.04172,2.793246 -3.96732,2.793246 h -3.33519 l 2.60181,2.171936 c 2.37491,1.982553 2.50827,2.432451 1.52872,5.159405 l -1.0731,2.98747 2.84215,-1.964024 2.84213,-1.964025 2.84214,1.964025 z M 47.525387,47.564059 c 1.632618,-1.433867 1.876402,-1.433867 3.509021,0 2.539735,2.230594 3.277229,1.904249 2.587129,-1.145045 -0.496232,-2.192605 -0.134009,-3.047804 1.97196,-4.65541 l 2.579838,-1.969425 h -3.511324 c -3.133893,0 -3.573108,-0.300209 -4.086965,-2.793246 -0.316604,-1.536287 -0.899442,-2.793247 -1.295197,-2.793247 -0.395755,0 -0.978591,1.25696 -1.295196,2.793247 -0.51377,2.493065 -0.953023,2.793246 -4.086966,2.793246 h -3.511323 l 2.579838,1.969425 c 2.105988,1.607606 2.468164,2.462805 1.97196,4.65541 -0.69011,3.049294 0.0473,3.375731 2.587128,1.145045 z m 38.37617,0 c 1.632626,-1.433867 1.876402,-1.433867 3.509018,0 2.539735,2.230594 3.277236,1.904249 2.587134,-1.145045 -0.496229,-2.192605 -0.134016,-3.047804 1.971965,-4.65541 l 2.579829,-1.969425 h -3.511319 c -3.133894,0 -3.57311,-0.300209 -4.086969,-2.793246 -0.316607,-1.536287 -0.899432,-2.793247 -1.295195,-2.793247 -0.395753,0 -0.978589,1.25696 -1.295196,2.793247 -0.513772,2.493065 -0.953025,2.793246 -4.086967,2.793246 h -3.511324 l 2.579839,1.969425 c 2.105988,1.607606 2.468163,2.462805 1.97196,4.65541 -0.69011,3.049294 0.0473,3.375731 2.587129,1.145045 z m 38.376163,0 c 1.63262,-1.433867 1.87639,-1.433867 3.50902,0 2.53974,2.230594 3.27723,1.904249 2.58713,-1.145045 -0.49624,-2.192605 -0.13402,-3.047804 1.97196,-4.65541 l 2.57984,-1.969425 h -3.51133 c -3.13389,0 -3.5732,-0.300209 -4.08696,-2.793246 -0.31661,-1.536287 -0.89944,-2.793247 -1.2952,-2.793247 -0.39575,0 -0.97859,1.25696 -1.29519,2.793247 -0.51378,2.493065 -0.95303,2.793246 -4.08697,2.793246 h -3.51132 l 2.57984,1.969425 c 2.10599,1.607606 2.46816,2.462805 1.97196,4.65541 -0.69011,3.049294 0.0473,3.375731 2.58712,1.145045 z m 38.37617,0 c 1.63261,-1.433867 1.87641,-1.433867 3.50902,0 2.53973,2.230594 3.27723,1.904249 2.58713,-1.145045 -0.49623,-2.192605 -0.134,-3.047804 1.97196,-4.65541 l 2.57984,-1.969425 h -3.51133 c -3.13389,0 -3.57321,-0.300209 -4.08696,-2.793246 -0.31661,-1.536287 -0.89945,-2.793247 -1.29521,-2.793247 -0.39575,0 -0.97857,1.25696 -1.29518,2.793247 -0.51378,2.493065 -0.95302,2.793246 -4.08697,2.793246 h -3.51132 l 2.57983,1.969425 c 2.10599,1.607606 2.46816,2.462805 1.97197,4.65541 -0.69012,3.049294 0.0472,3.375731 2.58713,1.145045 z m 38.37617,0 c 1.63261,-1.433867 1.8764,-1.433867 3.50901,0 2.53973,2.230594 3.27724,1.904249 2.58714,-1.145045 -0.49623,-2.192605 -0.13401,-3.047804 1.97195,-4.65541 l 2.57984,-1.969425 h -3.51132 c -3.1339,0 -3.5732,-0.300209 -4.08697,-2.793246 -0.31659,-1.536287 -0.89943,-2.793247 -1.29518,-2.793247 -0.39576,0 -0.9786,1.25696 -1.29521,2.793247 -0.51377,2.493065 -0.95302,2.793246 -4.08696,2.793246 h -3.51132 l 2.57984,1.969425 c 2.10598,1.607606 2.46815,2.462805 1.97195,4.65541 -0.69011,3.049294 0.0473,3.375731 2.58714,1.145045 z M 32.606652,32.040127 35.122497,33.639912 34.473479,30.77218 c -0.54427,-2.404892 -0.232675,-3.185512 1.930802,-4.837158 l 2.579837,-1.969426 h -3.411065 c -3.010036,0 -3.48542,-0.328438 -4.043218,-2.793246 -0.808509,-3.572469 -2.069723,-3.572469 -2.878213,0 -0.557826,2.464761 -1.033278,2.793246 -4.043217,2.793246 h -3.411066 l 2.579839,1.969426 c 2.163552,1.651553 2.475071,2.432172 1.9308,4.837158 l -0.649018,2.867732 2.515846,-1.599785 c 2.378363,-1.512357 2.653425,-1.512357 5.031692,0 z m 38.376168,0 2.515846,1.599785 -0.649017,-2.867732 c -0.544271,-2.404892 -0.232675,-3.185512 1.930801,-4.837158 l 2.579837,-1.969426 h -3.411064 c -3.010037,0 -3.485421,-0.328438 -4.043218,-2.793246 -0.80851,-3.572469 -2.069724,-3.572469 -2.878213,0 -0.557826,2.464761 -1.033279,2.793246 -4.043218,2.793246 h -3.411065 l 2.579838,1.969426 c 2.163552,1.651553 2.475071,2.432172 1.930801,4.837158 l -0.649018,2.867732 2.515846,-1.599785 c 2.378362,-1.512357 2.653424,-1.512357 5.031691,0 z m 38.37617,0 2.51584,1.599785 -0.64902,-2.867732 c -0.54428,-2.404892 -0.23268,-3.185512 1.9308,-4.837158 l 2.57984,-1.969426 h -3.41107 c -3.01003,0 -3.48541,-0.328438 -4.04321,-2.793246 -0.80852,-3.572469 -2.06973,-3.572469 -2.87822,0 -0.55783,2.464761 -1.03328,2.793246 -4.04321,2.793246 h -3.411063 l 2.579833,1.969426 c 2.16355,1.651553 2.47507,2.432172 1.9308,4.837158 l -0.64902,2.867732 2.51585,-1.599785 c 2.37836,-1.512357 2.65342,-1.512357 5.03168,0 z m 38.37616,0 2.51585,1.599785 -0.64902,-2.867732 c -0.54427,-2.404892 -0.23267,-3.185512 1.9308,-4.837158 l 2.57983,-1.969426 h -3.41106 c -3.01004,0 -3.48541,-0.328438 -4.04322,-2.793246 -0.8085,-3.572469 -2.06972,-3.572469 -2.87821,0 -0.55783,2.464761 -1.03327,2.793246 -4.04321,2.793246 h -3.41106 l 2.57984,1.969426 c 2.16355,1.651553 2.47506,2.432172 1.93079,4.837158 l -0.64901,2.867732 2.51584,-1.599785 c 2.37836,-1.512357 2.65342,-1.512357 5.0317,0 z m 38.37616,0 2.51586,1.599785 -0.64902,-2.867732 c -0.54428,-2.404892 -0.23268,-3.185512 1.93081,-4.837158 l 2.57984,-1.969426 h -3.41108 c -3.01004,0 -3.48541,-0.328438 -4.04321,-2.793246 -0.80851,-3.572469 -2.06973,-3.572469 -2.87822,0 -0.55783,2.464761 -1.03328,2.793246 -4.04322,2.793246 h -3.41106 l 2.57984,1.969426 c 2.16356,1.651553 2.47507,2.432172 1.9308,4.837158 l -0.64901,2.867732 2.51584,-1.599785 c 2.37837,-1.512357 2.65342,-1.512357 5.03169,0 z m 38.37619,0 2.51583,1.599785 -0.64901,-2.867732 c -0.54428,-2.404892 -0.23268,-3.185512 1.9308,-4.837158 l 2.57984,-1.969426 h -3.41107 c -3.01002,0 -3.48542,-0.328438 -4.04321,-2.793246 -0.80851,-3.572469 -2.06972,-3.572469 -2.87821,0 -0.55784,2.464761 -1.03329,2.793246 -4.04323,2.793246 h -3.41107 l 2.57984,1.969426 c 2.16356,1.651553 2.47508,2.432172 1.93081,4.837158 l -0.64902,2.867732 2.51585,-1.599785 c 2.37836,-1.512357 2.65343,-1.512357 5.03168,0 z" />
  <metadata
     id="metadata257">
    <rdf:RDF>
      <cc:Work>
        <dc:format>image/svg+xml</dc:format>
        <dc:type
           rdf:resource="http://purl.org/dc/dcmitype/StillImage" />
        <cc:license
           rdf:resource="http://creativecommons.org/licenses/publicdomain/" />
        <dc:publisher>
          <cc:Agent
             rdf:about="http://openclipart.org/">
            <dc:title>Openclipart</dc:title>
          </cc:Agent>
        </dc:publisher>
        <dc:title>American Flag</dc:title>
        <dc:date>2010-07-18T02:23:14</dc:date>
        <dc:description />
        <dc:source>https://openclipart.org/detail/73663/american-flag-by-azzhurtz</dc:source>
        <dc:creator>
          <cc:Agent>
            <dc:title>Azzhurtz</dc:title>
          </cc:Agent>
        </dc:creator>
        <dc:subject>
          <rdf:Bag>
            <rdf:li>American flag</rdf:li>
            <rdf:li>flag</rdf:li>
            <rdf:li>flags</rdf:li>
            <rdf:li>usa</rdf:li>
            <rdf:li>vector</rdf:li>
          </rdf:Bag>
        </dc:subject>
      </cc:Work>
      <cc:License
         rdf:about="http://creativecommons.org/licenses/publicdomain/">
        <cc:permits
           rdf:resource="http://creativecommons.org/ns#Reproduction" />
        <cc:permits
           rdf:resource="http://creativecommons.org/ns#Distribution" />
        <cc:permits
           rdf:resource="http://creativecommons.org/ns#DerivativeWorks" />
      </cc:License>
    </rdf:RDF>
  </metadata>
</svg>
